G04 #@! TF.GenerationSoftware,KiCad,Pcbnew,(5.1.0-0)*
G04 #@! TF.CreationDate,2019-05-27T15:35:51-07:00*
G04 #@! TF.ProjectId,Nanopilot,4e616e6f-7069-46c6-9f74-2e6b69636164,rev?*
G04 #@! TF.SameCoordinates,Original*
G04 #@! TF.FileFunction,Profile,NP*
%FSLAX46Y46*%
G04 Gerber Fmt 4.6, Leading zero omitted, Abs format (unit mm)*
G04 Created by KiCad (PCBNEW (5.1.0-0)) date 2019-05-27 15:35:51*
%MOMM*%
%LPD*%
G04 APERTURE LIST*
%ADD10C,0.150000*%
G04 APERTURE END LIST*
D10*
X68250000Y-33000000D02*
G75*
G02X67750000Y-32500000I0J500000D01*
G01*
X92750000Y-32500000D02*
G75*
G02X92250000Y-33000000I-500000J0D01*
G01*
X63250000Y-42000000D02*
X65750000Y-42000000D01*
X63250000Y-37000000D02*
X66750000Y-37000000D01*
X63250000Y-42000000D02*
G75*
G02X63250000Y-37000000I0J2500000D01*
G01*
X97250000Y-42000000D02*
X94750000Y-42000000D01*
X97250000Y-37000000D02*
X93750000Y-37000000D01*
X97250000Y-37000000D02*
G75*
G02X97250000Y-42000000I0J-2500000D01*
G01*
X63250000Y-78000000D02*
X66750000Y-78000000D01*
X63250000Y-73000000D02*
X65750000Y-73000000D01*
X97250000Y-73000000D02*
X94750000Y-73000000D01*
X97250000Y-78000000D02*
X93750000Y-78000000D01*
X63250000Y-78000000D02*
G75*
G02X63250000Y-73000000I0J2500000D01*
G01*
X97250000Y-73000000D02*
G75*
G02X97250000Y-78000000I0J-2500000D01*
G01*
X67750000Y-32500000D02*
X67750000Y-27500000D01*
X69250000Y-37000000D02*
X66750000Y-37000000D01*
X69250000Y-33000000D02*
X68250000Y-33000000D01*
X69250000Y-33000000D02*
G75*
G02X69250000Y-37000000I0J-2000000D01*
G01*
X92750000Y-32500000D02*
X92750000Y-27500000D01*
X91250000Y-33000000D02*
X92250000Y-33000000D01*
X91250000Y-37000000D02*
X93750000Y-37000000D01*
X91250000Y-37000000D02*
G75*
G02X91250000Y-33000000I0J2000000D01*
G01*
X69750000Y-78000000D02*
X66750000Y-78000000D01*
X90750000Y-78000000D02*
X93750000Y-78000000D01*
X65750000Y-73000000D02*
X65750000Y-42000000D01*
X90750000Y-78000000D02*
X69750000Y-78000000D01*
X94750000Y-42000000D02*
X94750000Y-73000000D01*
X67750000Y-27500000D02*
X92750000Y-27500000D01*
M02*
