G04 #@! TF.GenerationSoftware,KiCad,Pcbnew,(5.1.0-0)*
G04 #@! TF.CreationDate,2019-05-27T15:35:51-07:00*
G04 #@! TF.ProjectId,Nanopilot,4e616e6f-7069-46c6-9f74-2e6b69636164,rev?*
G04 #@! TF.SameCoordinates,Original*
G04 #@! TF.FileFunction,Copper,L2,Inr*
G04 #@! TF.FilePolarity,Positive*
%FSLAX46Y46*%
G04 Gerber Fmt 4.6, Leading zero omitted, Abs format (unit mm)*
G04 Created by KiCad (PCBNEW (5.1.0-0)) date 2019-05-27 15:35:51*
%MOMM*%
%LPD*%
G04 APERTURE LIST*
%ADD10C,0.300000*%
%ADD11C,4.400000*%
%ADD12C,0.700000*%
%ADD13C,0.650000*%
%ADD14C,0.800000*%
%ADD15C,0.500000*%
%ADD16C,0.155000*%
%ADD17C,0.250000*%
%ADD18C,0.160000*%
%ADD19C,0.254000*%
G04 APERTURE END LIST*
D10*
X86225000Y-44450000D03*
X86225000Y-45550000D03*
D11*
X63250000Y-39500000D03*
D12*
X64900000Y-39500000D03*
X64416726Y-40666726D03*
X63250000Y-41150000D03*
X62083274Y-40666726D03*
X61600000Y-39500000D03*
X62083274Y-38333274D03*
X63250000Y-37850000D03*
X64416726Y-38333274D03*
X64416726Y-74333274D03*
X63250000Y-73850000D03*
X62083274Y-74333274D03*
X61600000Y-75500000D03*
X62083274Y-76666726D03*
X63250000Y-77150000D03*
X64416726Y-76666726D03*
X64900000Y-75500000D03*
D11*
X63250000Y-75500000D03*
D12*
X98416726Y-74333274D03*
X97250000Y-73850000D03*
X96083274Y-74333274D03*
X95600000Y-75500000D03*
X96083274Y-76666726D03*
X97250000Y-77150000D03*
X98416726Y-76666726D03*
X98900000Y-75500000D03*
D11*
X97250000Y-75500000D03*
X97250000Y-39500000D03*
D12*
X98900000Y-39500000D03*
X98416726Y-40666726D03*
X97250000Y-41150000D03*
X96083274Y-40666726D03*
X95600000Y-39500000D03*
X96083274Y-38333274D03*
X97250000Y-37850000D03*
X98416726Y-38333274D03*
D10*
X85900000Y-35200000D03*
X87000000Y-35200000D03*
D13*
X83600000Y-30500000D03*
X94750000Y-74000000D03*
X94750000Y-75800000D03*
X94750000Y-77600000D03*
X94750000Y-73400000D03*
X94750000Y-77000000D03*
X94750000Y-74600000D03*
X94750000Y-76400000D03*
X65750000Y-38000000D03*
X65750000Y-39800000D03*
X65750000Y-41600000D03*
X65750000Y-37400000D03*
X65750000Y-41000000D03*
X65750000Y-38600000D03*
X65750000Y-40400000D03*
X65750000Y-39200000D03*
X65750000Y-74000000D03*
X65750000Y-75800000D03*
X65750000Y-77600000D03*
X65750000Y-73400000D03*
X65750000Y-77000000D03*
X65750000Y-74600000D03*
X65750000Y-76400000D03*
X65750000Y-75200000D03*
X94750000Y-38000000D03*
X94750000Y-39200000D03*
X94750000Y-41000000D03*
X94750000Y-39800000D03*
X94750000Y-38600000D03*
X94750000Y-37400000D03*
X94750000Y-40400000D03*
X94750000Y-41600000D03*
X80200000Y-30950000D03*
X78950000Y-30950000D03*
X70200000Y-70100002D03*
X79700000Y-37150000D03*
X75650000Y-36250000D03*
X76850000Y-38750000D03*
X69250000Y-40300000D03*
X68786820Y-50257510D03*
X88900000Y-55000000D03*
X86003536Y-68861291D03*
X69300000Y-68100000D03*
X84950000Y-28757510D03*
X69500000Y-32300000D03*
X69297962Y-57836442D03*
X68369249Y-54544999D03*
X71400000Y-44594998D03*
X88696308Y-59375496D03*
X66500000Y-69200000D03*
X72400000Y-34100000D03*
X84950000Y-66300000D03*
X90900000Y-65100000D03*
X71400000Y-31300000D03*
X73017490Y-31100000D03*
X82000000Y-33650000D03*
X66500000Y-59850000D03*
X66400000Y-64750000D03*
X91734978Y-45307199D03*
X94750000Y-75200000D03*
X88417490Y-33893404D03*
X80118877Y-50719660D03*
X84000022Y-54416219D03*
X90075000Y-44375000D03*
X84544741Y-73891926D03*
X72400000Y-72250000D03*
X92600000Y-72800000D03*
X77024238Y-69989768D03*
X86581250Y-43806250D03*
X78127780Y-74827443D03*
X94075000Y-60250000D03*
X73700000Y-28425000D03*
X75393280Y-28656720D03*
X71150000Y-29050000D03*
X83245988Y-71195986D03*
X75423095Y-52651905D03*
X78406327Y-44443671D03*
X74875000Y-46100000D03*
X75336271Y-73511271D03*
X78850000Y-48775000D03*
X74575000Y-48100000D03*
X85875000Y-46875000D03*
X83750000Y-60150000D03*
X85225606Y-50517490D03*
X77225000Y-77350000D03*
X81375000Y-28375000D03*
X91350000Y-39800000D03*
D14*
X84789984Y-36150000D03*
D13*
X66312468Y-45279998D03*
X66392490Y-57988157D03*
X69250000Y-65400000D03*
X67857510Y-38608135D03*
X85297789Y-55782508D03*
X75524998Y-68375000D03*
X88699988Y-56438212D03*
X85723161Y-66867490D03*
X71202479Y-56578556D03*
X80494220Y-42569220D03*
X76294341Y-42082042D03*
X81973506Y-49649221D03*
X83700000Y-45500000D03*
X83776761Y-44074977D03*
X77650000Y-37200000D03*
X70603628Y-42263930D03*
X69519210Y-52345888D03*
X69542490Y-56615651D03*
X84791616Y-30272588D03*
X93317490Y-57979988D03*
X79450000Y-41425000D03*
X73729340Y-47332117D03*
X67050000Y-68150000D03*
X93600000Y-44750000D03*
X92350000Y-76800000D03*
X72542030Y-75885645D03*
X93650233Y-55212016D03*
X77500000Y-32400000D03*
X68288490Y-47735094D03*
X81500000Y-30717521D03*
X69050000Y-46975000D03*
X70019102Y-71480662D03*
X68820000Y-48800000D03*
X71175000Y-72225000D03*
X75050000Y-70850000D03*
X74020020Y-50200000D03*
X76550000Y-46800000D03*
X79925000Y-47450000D03*
X91450000Y-37650000D03*
X81195783Y-63207344D03*
X83682796Y-41571056D03*
X76807510Y-51650216D03*
X79742490Y-64517040D03*
X67199996Y-62700000D03*
D14*
X67050001Y-52395012D03*
D13*
X71802485Y-35113389D03*
X68757510Y-60338586D03*
X75992490Y-55285031D03*
X70949599Y-28103091D03*
X86018685Y-69959854D03*
X81285794Y-49207510D03*
X82350000Y-48900000D03*
X79742490Y-54325000D03*
X74325000Y-73550000D03*
X79275000Y-55119982D03*
X81725000Y-48025000D03*
X73475000Y-72175000D03*
X78114435Y-55217066D03*
X83965662Y-40159184D03*
X84622385Y-40716694D03*
X78621713Y-54590022D03*
X76790671Y-61234005D03*
X81633931Y-61569665D03*
X91150000Y-48299986D03*
X82748942Y-61308451D03*
X90996973Y-47304364D03*
X82467346Y-55141580D03*
X84002017Y-39354993D03*
X83311393Y-57359955D03*
X84809070Y-39381692D03*
X86633069Y-62881627D03*
X71734738Y-69988807D03*
X78607479Y-62481814D03*
X83052459Y-62447680D03*
X82630805Y-63133430D03*
X82384352Y-39381326D03*
X82750072Y-64700040D03*
X88700779Y-50812470D03*
X87473223Y-54630013D03*
X83312095Y-64066167D03*
X87700000Y-76250000D03*
X84474926Y-64890665D03*
X88650000Y-76325000D03*
X83884163Y-61665841D03*
X76692490Y-60118985D03*
X88950004Y-57450000D03*
X84814384Y-59018181D03*
X84051727Y-58611713D03*
X82899998Y-59500002D03*
X84062690Y-57070826D03*
X77050000Y-62200000D03*
X78150000Y-52600000D03*
X87025000Y-58184978D03*
X72319039Y-43365010D03*
X76211755Y-66537642D03*
X77374698Y-63312081D03*
X74080003Y-45143978D03*
X72317490Y-56367480D03*
X72900000Y-63200000D03*
X71867135Y-54368754D03*
X86780780Y-60880780D03*
X83850000Y-65900000D03*
X84125000Y-51575000D03*
X90524523Y-51774523D03*
X90850869Y-43272894D03*
X92837545Y-57315124D03*
X76714944Y-58206918D03*
X78622479Y-64730345D03*
X79714945Y-59611261D03*
X73350000Y-61000000D03*
X75200250Y-69897626D03*
X91243228Y-74793228D03*
X75250000Y-58350000D03*
X91950000Y-75700000D03*
X90050000Y-61400000D03*
X91850000Y-59000000D03*
X93050000Y-67400000D03*
X92162533Y-55136128D03*
X92475000Y-66275000D03*
X92165033Y-56374095D03*
X68142490Y-69100000D03*
X66627479Y-44505506D03*
X69382534Y-44766163D03*
X84126891Y-42242490D03*
X75700000Y-42625000D03*
X83199990Y-39609425D03*
X83550000Y-37050000D03*
X78227581Y-59359870D03*
X81779989Y-59477479D03*
X76774467Y-57080012D03*
X82401464Y-57153292D03*
X71807208Y-64245646D03*
X71850000Y-38400000D03*
X86949658Y-70649658D03*
X75500114Y-59957510D03*
X75361420Y-61321432D03*
X87601217Y-70045391D03*
X76383254Y-63224003D03*
X88368515Y-68433804D03*
X76522807Y-64104538D03*
X88330603Y-67022401D03*
X68900000Y-62957510D03*
X66708293Y-37664846D03*
X76409041Y-34197273D03*
X69345044Y-42392490D03*
X67250000Y-42500000D03*
X68820000Y-61500000D03*
X76550000Y-31300000D03*
X71700000Y-32300000D03*
X84178824Y-66675625D03*
X81870769Y-54599924D03*
X82463859Y-51227479D03*
X81407844Y-64001952D03*
X80948083Y-51587164D03*
X80932510Y-64651645D03*
X86685617Y-50485607D03*
X82100591Y-50509092D03*
X77506702Y-54684981D03*
X90850000Y-69800000D03*
X84145791Y-63773913D03*
X87100000Y-53750000D03*
X76950000Y-75825000D03*
X86869914Y-47490004D03*
X86175000Y-73475000D03*
X92662020Y-50117490D03*
X78788056Y-75287965D03*
X79581947Y-75154614D03*
X80800000Y-75175000D03*
X80047566Y-73859183D03*
X78700000Y-74250000D03*
X76094998Y-28175000D03*
D15*
X85355669Y-36150000D02*
X84789984Y-36150000D01*
X87700000Y-36150000D02*
X85355669Y-36150000D01*
X91350000Y-39800000D02*
X87700000Y-36150000D01*
D16*
X66312468Y-45279998D02*
X66312468Y-52694124D01*
X66312468Y-52694124D02*
X66178296Y-52828296D01*
X66392490Y-55792490D02*
X66178296Y-55578296D01*
X66392490Y-57988157D02*
X66392490Y-55792490D01*
X66178296Y-52828296D02*
X66178296Y-55578296D01*
D17*
X69250000Y-65400000D02*
X70565580Y-64084420D01*
D15*
X69000000Y-43300000D02*
X69000000Y-43090786D01*
X68615034Y-41773481D02*
X67857510Y-41015957D01*
X67857510Y-41015957D02*
X67857510Y-39067754D01*
X67857510Y-39067754D02*
X67857510Y-38608135D01*
X69000000Y-43090786D02*
X68615034Y-42705820D01*
X68615034Y-42705820D02*
X68615034Y-41773481D01*
X71202479Y-63447521D02*
X71202479Y-57038175D01*
X71202479Y-57038175D02*
X71202479Y-56578556D01*
X68652533Y-43647467D02*
X68652533Y-45370160D01*
X70902480Y-55818938D02*
X71202479Y-56118937D01*
X70565580Y-64084420D02*
X71202479Y-63447521D01*
X68652533Y-45370160D02*
X70902480Y-47620107D01*
X69000000Y-43300000D02*
X68652533Y-43647467D01*
X70902480Y-47620107D02*
X70902480Y-55818938D01*
X71202479Y-56118937D02*
X71202479Y-56578556D01*
X75969342Y-41757043D02*
X76294341Y-42082042D01*
X69000000Y-43300000D02*
X70607020Y-43300000D01*
X72149977Y-41757043D02*
X75969342Y-41757043D01*
X70607020Y-43300000D02*
X72149977Y-41757043D01*
X85955616Y-50895494D02*
X85297789Y-51553321D01*
X85955616Y-48082977D02*
X85955616Y-50895494D01*
X84740602Y-46867963D02*
X85955616Y-48082977D01*
X85297789Y-55322889D02*
X85297789Y-55782508D01*
X85297789Y-51553321D02*
X85297789Y-55322889D01*
X84740602Y-45159398D02*
X84740602Y-46867963D01*
X84740602Y-45159398D02*
X84459398Y-45159398D01*
D17*
X84040602Y-45159398D02*
X84024999Y-45175001D01*
X84740602Y-45159398D02*
X84040602Y-45159398D01*
X84024999Y-45175001D02*
X83700000Y-45500000D01*
D15*
X84459398Y-45159398D02*
X83700000Y-44400000D01*
X83700000Y-44400000D02*
X83700000Y-44151738D01*
X83700000Y-44151738D02*
X83776761Y-44074977D01*
X75524998Y-68349998D02*
X75524998Y-68375000D01*
X72225000Y-65050000D02*
X75524998Y-68349998D01*
X71531160Y-65050000D02*
X72225000Y-65050000D01*
X70565580Y-64084420D02*
X71531160Y-65050000D01*
X70928627Y-41938931D02*
X70603628Y-42263930D01*
X75667558Y-37200000D02*
X70928627Y-41938931D01*
X77650000Y-37200000D02*
X75667558Y-37200000D01*
X69519210Y-56592371D02*
X69542490Y-56615651D01*
X69519210Y-52345888D02*
X69519210Y-56592371D01*
D16*
X84791616Y-30732207D02*
X84800000Y-30740591D01*
X84791616Y-30272588D02*
X84791616Y-30732207D01*
X84800000Y-34739998D02*
X84830001Y-34769999D01*
X84800000Y-30740591D02*
X84800000Y-34739998D01*
D17*
X79450000Y-40965381D02*
X79450000Y-41425000D01*
X79450000Y-40150000D02*
X79450000Y-40965381D01*
X84830001Y-34769999D02*
X79450000Y-40150000D01*
X93040401Y-54914195D02*
X93040401Y-55918765D01*
X93080045Y-55958409D02*
X93080045Y-56662222D01*
X93292489Y-45387891D02*
X93292489Y-54662107D01*
X93080045Y-56662222D02*
X93442546Y-57024723D01*
X87269999Y-34769999D02*
X92994999Y-40494999D01*
X92994999Y-45090401D02*
X93292489Y-45387891D01*
X93442546Y-57024723D02*
X93442546Y-57854932D01*
X84830001Y-34769999D02*
X87269999Y-34769999D01*
X93292489Y-54662107D02*
X93040401Y-54914195D01*
X93040401Y-55918765D02*
X93080045Y-55958409D01*
X92994999Y-40494999D02*
X92994999Y-45090401D01*
X93442546Y-57854932D02*
X93317490Y-57979988D01*
D16*
X67374999Y-70224999D02*
X67875000Y-70725000D01*
X67050000Y-68150000D02*
X67374999Y-68474999D01*
X67374999Y-68474999D02*
X67374999Y-70224999D01*
X67875000Y-70725000D02*
X73162500Y-76012500D01*
X73035645Y-75885645D02*
X73001649Y-75885645D01*
X73162500Y-76012500D02*
X73035645Y-75885645D01*
X73001649Y-75885645D02*
X72542030Y-75885645D01*
X93625587Y-59874311D02*
X93625587Y-58681687D01*
X93517499Y-60517601D02*
X93517499Y-59982399D01*
X92350000Y-76800000D02*
X93625587Y-75524413D01*
X93517499Y-59982399D02*
X93625587Y-59874311D01*
X93625587Y-60625689D02*
X93517499Y-60517601D01*
X93625587Y-75524413D02*
X93625587Y-60625689D01*
X93625587Y-58681687D02*
X93875000Y-58432274D01*
X93650233Y-56125233D02*
X93650233Y-55212016D01*
X93875000Y-56350000D02*
X93650233Y-56125233D01*
X93875000Y-58432274D02*
X93875000Y-56350000D01*
X93650000Y-55211783D02*
X93650233Y-55212016D01*
X93650000Y-44800000D02*
X93650000Y-55211783D01*
X93600000Y-44750000D02*
X93650000Y-44800000D01*
X76949898Y-76800000D02*
X76957399Y-76792499D01*
X73950000Y-76800000D02*
X76949898Y-76800000D01*
X73162500Y-76012500D02*
X73950000Y-76800000D01*
X87424898Y-76800000D02*
X87507399Y-76882501D01*
X91890381Y-76800000D02*
X92350000Y-76800000D01*
X76957399Y-76792499D02*
X77492601Y-76792499D01*
X89000102Y-76800000D02*
X91890381Y-76800000D01*
X77500102Y-76800000D02*
X87424898Y-76800000D01*
X87507399Y-76882501D02*
X88917601Y-76882501D01*
X88917601Y-76882501D02*
X89000102Y-76800000D01*
X77492601Y-76792499D02*
X77500102Y-76800000D01*
X68120022Y-42952799D02*
X68170022Y-43002799D01*
X67328315Y-38381285D02*
X67300000Y-38409600D01*
X67300000Y-41140820D02*
X68120022Y-41960842D01*
X77500000Y-32400000D02*
X76000000Y-32400000D01*
X67300000Y-38409600D02*
X67300000Y-41140820D01*
X70500000Y-37900000D02*
X67776841Y-37900000D01*
X68170022Y-43002799D02*
X68170022Y-47157007D01*
X68170022Y-47157007D02*
X68288490Y-47275475D01*
X76000000Y-32400000D02*
X70500000Y-37900000D01*
X68288490Y-47275475D02*
X68288490Y-47735094D01*
X67776841Y-37900000D02*
X67328315Y-38348526D01*
X68120022Y-41960842D02*
X68120022Y-42952799D01*
X67328315Y-38348526D02*
X67328315Y-38381285D01*
X70410011Y-48335011D02*
X70410011Y-63353410D01*
X68685011Y-65078410D02*
X68685011Y-65671591D01*
X70410011Y-63353410D02*
X68685011Y-65078410D01*
X69631603Y-71093163D02*
X69694103Y-71155663D01*
X68685011Y-65671591D02*
X70285011Y-67271590D01*
X70285011Y-67271590D02*
X70285011Y-68939989D01*
X70285011Y-68939989D02*
X69631603Y-69593397D01*
X69631603Y-69593397D02*
X69631603Y-71093163D01*
X69050000Y-46975000D02*
X70410011Y-48335011D01*
X69694103Y-71155663D02*
X70019102Y-71480662D01*
X68820000Y-48800000D02*
X68820000Y-48870000D01*
X68820000Y-48870000D02*
X70100000Y-50150000D01*
X70100000Y-50150000D02*
X70100000Y-62900000D01*
X70100000Y-62900000D02*
X68375000Y-64625000D01*
X68375000Y-64625000D02*
X68375000Y-65800000D01*
X68375000Y-65800000D02*
X69975000Y-67400000D01*
X69975000Y-67400000D02*
X69975000Y-68725000D01*
X69975000Y-68725000D02*
X69200000Y-69500000D01*
X69200000Y-69500000D02*
X69200000Y-71450000D01*
X69975000Y-72225000D02*
X71175000Y-72225000D01*
X69200000Y-71450000D02*
X69975000Y-72225000D01*
X73425000Y-50795020D02*
X74020020Y-50200000D01*
X73425000Y-59800000D02*
X73425000Y-50795020D01*
X72575000Y-60650000D02*
X73425000Y-59800000D01*
X72575000Y-61200000D02*
X72575000Y-60650000D01*
X73500000Y-62125000D02*
X72575000Y-61200000D01*
X73500000Y-65400000D02*
X73500000Y-62125000D01*
X76125000Y-68025000D02*
X73500000Y-65400000D01*
X76125000Y-68750000D02*
X76125000Y-68025000D01*
X75150000Y-69025000D02*
X75850000Y-69025000D01*
X75850000Y-69025000D02*
X76125000Y-68750000D01*
X74725001Y-70525001D02*
X74725001Y-70450001D01*
X75050000Y-70850000D02*
X74725001Y-70525001D01*
X74725001Y-70450001D02*
X74450000Y-70175000D01*
X74450000Y-69725000D02*
X75150000Y-69025000D01*
X74450000Y-70175000D02*
X74450000Y-69725000D01*
X82787551Y-43244153D02*
X82787551Y-42466301D01*
X83357797Y-41896055D02*
X83682796Y-41571056D01*
X82787551Y-42466301D02*
X83357797Y-41896055D01*
D18*
X80443908Y-62455469D02*
X80870784Y-62882345D01*
X80904977Y-60549301D02*
X80443908Y-61010370D01*
X82487489Y-48058685D02*
X83111155Y-48682351D01*
X80443908Y-61010370D02*
X80443908Y-62455469D01*
X81310759Y-55301791D02*
X81060394Y-55552156D01*
X81310759Y-53247285D02*
X81310759Y-55301791D01*
X83111155Y-48682351D02*
X83111155Y-51446889D01*
X82787551Y-43244153D02*
X82487489Y-43544214D01*
X80904977Y-59078197D02*
X80904977Y-60549301D01*
X81060394Y-58922780D02*
X80904977Y-59078197D01*
X80870784Y-62882345D02*
X81195783Y-63207344D01*
X82487489Y-43544214D02*
X82487489Y-48058685D01*
X81060394Y-55552156D02*
X81060394Y-58922780D01*
X83111155Y-51446889D02*
X81310759Y-53247285D01*
D16*
X78887489Y-60329446D02*
X79164989Y-60606946D01*
X79164989Y-63939539D02*
X79417491Y-64192041D01*
X79417491Y-64192041D02*
X79742490Y-64517040D01*
X79164989Y-60606946D02*
X79164989Y-63939539D01*
D18*
X78837489Y-60279446D02*
X78887489Y-60329446D01*
X77050776Y-54296972D02*
X77050776Y-51893482D01*
X77050776Y-51893482D02*
X76807510Y-51650216D01*
X76945213Y-54402535D02*
X77050776Y-54296972D01*
X76945213Y-55070213D02*
X76945213Y-54402535D01*
D16*
X78837489Y-56962489D02*
X76945213Y-55070213D01*
X78837489Y-59762489D02*
X78837489Y-56962489D01*
D18*
X78837489Y-59762489D02*
X78837489Y-60279446D01*
D16*
X66950000Y-52495013D02*
X67050001Y-52395012D01*
X66550000Y-52895013D02*
X66950000Y-52495013D01*
X66550000Y-55400000D02*
X66550000Y-52895013D01*
X67199996Y-62700000D02*
X67199996Y-58249996D01*
X66950000Y-55800000D02*
X66550000Y-55400000D01*
X66950000Y-58000000D02*
X66950000Y-55800000D01*
X67199996Y-58249996D02*
X66950000Y-58000000D01*
X68272534Y-55254707D02*
X68272534Y-57439427D01*
X68272534Y-57439427D02*
X68742499Y-57909392D01*
X67738420Y-37500000D02*
X67018304Y-38220116D01*
X66989989Y-38281190D02*
X66989989Y-41269230D01*
X68742499Y-59863956D02*
X68757510Y-59878967D01*
X68757510Y-59878967D02*
X68757510Y-60338586D01*
X71802485Y-35113389D02*
X71802485Y-35947515D01*
X71802485Y-35947515D02*
X70250000Y-37500000D01*
X70250000Y-37500000D02*
X67738420Y-37500000D01*
X67018304Y-38220116D02*
X67018304Y-38252875D01*
X66989989Y-41269230D02*
X67810011Y-42089252D01*
X67810011Y-42089252D02*
X67810011Y-47428410D01*
X67810011Y-47428410D02*
X67693138Y-47545283D01*
X67693138Y-47545283D02*
X67693138Y-50772478D01*
X67811748Y-54277398D02*
X67811748Y-54793921D01*
X68622534Y-51701874D02*
X68622534Y-53466612D01*
X67693138Y-50772478D02*
X68622534Y-51701874D01*
X68622534Y-53466612D02*
X67811748Y-54277398D01*
X67811748Y-54793921D02*
X68272534Y-55254707D01*
X67018304Y-38252875D02*
X66989989Y-38281190D01*
X68742499Y-57909392D02*
X68742499Y-59863956D01*
X71409218Y-28103091D02*
X70949599Y-28103091D01*
X74050001Y-27825001D02*
X71687308Y-27825001D01*
X74475000Y-28825000D02*
X74475000Y-28250000D01*
X75000000Y-29350000D02*
X74475000Y-28825000D01*
X76300000Y-29350000D02*
X75000000Y-29350000D01*
X71687308Y-27825001D02*
X71409218Y-28103091D01*
X74475000Y-28250000D02*
X74050001Y-27825001D01*
X77768802Y-30818802D02*
X76300000Y-29350000D01*
X77768802Y-31839998D02*
X77768802Y-30818802D01*
D18*
X75992490Y-54825412D02*
X75992490Y-55285031D01*
X75900000Y-52300008D02*
X75992490Y-52392498D01*
X75992490Y-47071292D02*
X75992490Y-50882510D01*
X75900000Y-50975000D02*
X75900000Y-52300008D01*
X75992490Y-52392498D02*
X75992490Y-54825412D01*
X75992490Y-50882510D02*
X75900000Y-50975000D01*
X75989999Y-47068801D02*
X75992490Y-47071292D01*
D16*
X76750000Y-45600000D02*
X75989999Y-46360001D01*
D18*
X75989999Y-46360001D02*
X75989999Y-47068801D01*
X77589998Y-40400870D02*
X77589998Y-42385002D01*
X78450000Y-39540868D02*
X77589998Y-40400870D01*
X78450000Y-32521196D02*
X78450000Y-39540868D01*
X77768802Y-31839998D02*
X78450000Y-32521196D01*
D16*
X76750000Y-43225000D02*
X77087500Y-42887500D01*
X76750000Y-43925000D02*
X76750000Y-43225000D01*
D18*
X77589998Y-42385002D02*
X77087500Y-42887500D01*
D16*
X76750000Y-43925000D02*
X76750000Y-45600000D01*
X86018685Y-69959854D02*
X86828539Y-69150000D01*
X79200000Y-59301104D02*
X79200000Y-56650000D01*
X82800000Y-67425000D02*
X80300000Y-64925000D01*
X86828539Y-69150000D02*
X88600000Y-69150000D01*
X79157444Y-59343660D02*
X79200000Y-59301104D01*
X88950000Y-66650000D02*
X88600000Y-66300000D01*
X88600000Y-66300000D02*
X88000000Y-66300000D01*
X88950000Y-68800000D02*
X88950000Y-66650000D01*
X79475000Y-60196418D02*
X79157444Y-59878862D01*
X81285794Y-49667129D02*
X81285794Y-49207510D01*
X80300000Y-51425000D02*
X81285794Y-50439206D01*
X88600000Y-69150000D02*
X88950000Y-68800000D01*
X80300000Y-64925000D02*
X80300000Y-64275000D01*
X88000000Y-66300000D02*
X86875000Y-67425000D01*
X79157444Y-59878862D02*
X79157444Y-59343660D01*
X80300000Y-54575000D02*
X80300000Y-51425000D01*
X80300000Y-64275000D02*
X79475000Y-63450000D01*
X79475000Y-63450000D02*
X79475000Y-60196418D01*
X80000000Y-55850000D02*
X80000000Y-54875000D01*
X86875000Y-67425000D02*
X82800000Y-67425000D01*
X79200000Y-56650000D02*
X80000000Y-55850000D01*
X80000000Y-54875000D02*
X80300000Y-54575000D01*
X81285794Y-50439206D02*
X81285794Y-49667129D01*
X79525000Y-51100000D02*
X79525000Y-49940381D01*
X81774896Y-48900000D02*
X81890381Y-48900000D01*
X80890380Y-48575001D02*
X81449897Y-48575001D01*
X79742490Y-51317490D02*
X79525000Y-51100000D01*
X79525000Y-49940381D02*
X80890380Y-48575001D01*
X79742490Y-54325000D02*
X79742490Y-51317490D01*
X81449897Y-48575001D02*
X81774896Y-48900000D01*
X81890381Y-48900000D02*
X82350000Y-48900000D01*
X81265381Y-48025000D02*
X81725000Y-48025000D01*
X79214989Y-51228410D02*
X79425000Y-51438420D01*
X79425000Y-53817386D02*
X79184988Y-54057398D01*
X79425000Y-51438420D02*
X79425000Y-53817386D01*
X79184988Y-54057398D02*
X79184988Y-54570351D01*
X79184988Y-54570351D02*
X79275000Y-54660363D01*
X79275000Y-54660363D02*
X79275000Y-55119982D01*
X79214989Y-49810011D02*
X81000000Y-48025000D01*
X79214989Y-49885011D02*
X79214989Y-49810011D01*
X81000000Y-48025000D02*
X81265381Y-48025000D01*
X79214989Y-49885011D02*
X79214989Y-51228410D01*
X78064203Y-55166834D02*
X78114435Y-55217066D01*
X78064203Y-53535797D02*
X78064203Y-55166834D01*
X78710001Y-52889999D02*
X78064203Y-53535797D01*
D18*
X77109989Y-50118032D02*
X78710001Y-51718044D01*
X78710001Y-51718044D02*
X78710001Y-52889999D01*
X77109989Y-48784989D02*
X77109989Y-50118032D01*
D16*
X78371591Y-42089989D02*
X77109989Y-43351591D01*
X83965662Y-40159184D02*
X83506043Y-40159184D01*
X83506043Y-40159184D02*
X83258544Y-40406683D01*
X79596590Y-42089989D02*
X78371591Y-42089989D01*
X83258544Y-40406683D02*
X81279896Y-40406683D01*
X81279896Y-40406683D02*
X79596590Y-42089989D01*
X77109989Y-43351591D02*
X77109989Y-48784989D01*
X79100226Y-52975226D02*
X78621713Y-53453739D01*
X78621713Y-53453739D02*
X78621713Y-54130403D01*
X78621713Y-54130403D02*
X78621713Y-54590022D01*
D18*
X77425000Y-49987551D02*
X79100226Y-51662777D01*
X79100226Y-51662777D02*
X79100226Y-52975226D01*
X77425000Y-48750000D02*
X77425000Y-49987551D01*
D16*
X84622385Y-40716694D02*
X81483306Y-40716694D01*
X78550000Y-42400000D02*
X79800000Y-42400000D01*
X77425000Y-43525000D02*
X78550000Y-42400000D01*
X81483306Y-40716694D02*
X79800000Y-42400000D01*
X77425000Y-48750000D02*
X77425000Y-43525000D01*
X89851532Y-51536889D02*
X89900000Y-51488421D01*
X88738424Y-52849997D02*
X89851532Y-51736889D01*
X83292499Y-61432403D02*
X83616561Y-61108339D01*
X86699997Y-52849997D02*
X88738424Y-52849997D01*
X86210011Y-53339983D02*
X86699997Y-52849997D01*
X84530082Y-61108339D02*
X86210011Y-59428410D01*
X86210011Y-59428410D02*
X86210011Y-53339983D01*
X89851532Y-51736889D02*
X89851532Y-51536889D01*
X83616561Y-61108339D02*
X84530082Y-61108339D01*
X83292499Y-61657501D02*
X83292499Y-61432403D01*
X82093550Y-61569665D02*
X82392678Y-61868793D01*
X83081207Y-61868793D02*
X83292499Y-61657501D01*
X82392678Y-61868793D02*
X83081207Y-61868793D01*
X81633931Y-61569665D02*
X82093550Y-61569665D01*
X91150000Y-48299986D02*
X89899986Y-49550000D01*
X89899986Y-50149986D02*
X89900000Y-50150000D01*
X89899986Y-49550000D02*
X89899986Y-50149986D01*
X89900000Y-51488421D02*
X89900000Y-50150000D01*
X85900000Y-53208042D02*
X86304021Y-52804021D01*
X85900000Y-59300000D02*
X85900000Y-53208042D01*
X84460011Y-60739989D02*
X85900000Y-59300000D01*
X83660011Y-60739989D02*
X84460011Y-60739989D01*
D18*
X83317404Y-60739989D02*
X83073941Y-60983452D01*
X83660011Y-60739989D02*
X83317404Y-60739989D01*
X83073941Y-60983452D02*
X82748942Y-61308451D01*
X86304021Y-52804021D02*
X86591521Y-52516521D01*
D16*
X90671974Y-47629363D02*
X90996973Y-47304364D01*
X86591521Y-52516521D02*
X88558479Y-52516521D01*
X88558479Y-52516521D02*
X89541521Y-51533479D01*
X89541521Y-48759816D02*
X90671974Y-47629363D01*
X89541521Y-51533479D02*
X89541521Y-48759816D01*
X84327016Y-39679992D02*
X84002017Y-39354993D01*
X85200000Y-42000000D02*
X85200000Y-40400000D01*
X82467346Y-55141580D02*
X82467346Y-52532655D01*
X84327016Y-39688077D02*
X84327016Y-39679992D01*
X82467346Y-52532655D02*
X83423666Y-51576335D01*
X82800000Y-43673658D02*
X83673658Y-42800000D01*
X84800000Y-40000000D02*
X84638939Y-40000000D01*
X83423666Y-51576335D02*
X83423666Y-48552905D01*
X82800000Y-47929239D02*
X82800000Y-43673658D01*
X84400000Y-42800000D02*
X85200000Y-42000000D01*
X85200000Y-40400000D02*
X84800000Y-40000000D01*
X84638939Y-40000000D02*
X84327016Y-39688077D01*
X83673658Y-42800000D02*
X84400000Y-42800000D01*
X83423666Y-48552905D02*
X82800000Y-47929239D01*
D18*
X84429446Y-43212511D02*
X85512511Y-42129446D01*
X85512511Y-40085133D02*
X85134069Y-39706691D01*
X83112511Y-43829445D02*
X83729445Y-43212511D01*
X83729445Y-43212511D02*
X84429446Y-43212511D01*
X85134069Y-39706691D02*
X84809070Y-39381692D01*
X85512511Y-42129446D02*
X85512511Y-40085133D01*
X83112511Y-43962511D02*
X83112511Y-43829445D01*
X84585001Y-55626728D02*
X83311393Y-56900336D01*
X83311393Y-56900336D02*
X83311393Y-57359955D01*
X84585001Y-52085001D02*
X84585001Y-55626728D01*
D16*
X84682501Y-51232399D02*
X84100000Y-50649898D01*
X84100000Y-48790819D02*
X83112511Y-47803330D01*
X84585001Y-52085001D02*
X84682501Y-51987501D01*
X83112511Y-47803330D02*
X83112511Y-43962511D01*
X84682501Y-51987501D02*
X84682501Y-51232399D01*
X84100000Y-50649898D02*
X84100000Y-48790819D01*
X82750072Y-63820320D02*
X82750072Y-64240421D01*
X83770339Y-63071288D02*
X83499104Y-63071288D01*
X83499104Y-63071288D02*
X82750072Y-63820320D01*
X87832476Y-59009151D02*
X83770339Y-63071288D01*
X82750072Y-64240421D02*
X82750072Y-64700040D01*
X84752480Y-38500000D02*
X87150000Y-40897520D01*
X86312413Y-47757605D02*
X88700779Y-50145971D01*
X82384352Y-39381326D02*
X83265678Y-38500000D01*
X83265678Y-38500000D02*
X84752480Y-38500000D01*
X88700779Y-50145971D02*
X88700779Y-50352851D01*
X87150000Y-40897520D02*
X87150000Y-46398277D01*
X88700779Y-50352851D02*
X88700779Y-50812470D01*
X87150000Y-46398277D02*
X86312413Y-47235864D01*
X86312413Y-47235864D02*
X86312413Y-47757605D01*
X87832476Y-59009151D02*
X87865849Y-59009151D01*
X87865849Y-59009151D02*
X88675000Y-58200000D01*
X88675000Y-58200000D02*
X89150000Y-58200000D01*
X89150000Y-58200000D02*
X89550000Y-57800000D01*
X89550000Y-57800000D02*
X89550000Y-56375000D01*
X89550000Y-56375000D02*
X88725000Y-55550000D01*
X88393210Y-55550000D02*
X87473223Y-54630013D01*
X88725000Y-55550000D02*
X88393210Y-55550000D01*
X83884163Y-61665841D02*
X84484159Y-61665841D01*
X86375004Y-60025000D02*
X88950004Y-57450000D01*
X86125000Y-60025000D02*
X86375004Y-60025000D01*
X84484159Y-61665841D02*
X86125000Y-60025000D01*
X77392772Y-51842772D02*
X78150000Y-52600000D01*
X77050000Y-51000000D02*
X77392772Y-51342772D01*
X76250000Y-51300000D02*
X76550000Y-51000000D01*
X76550000Y-51000000D02*
X77050000Y-51000000D01*
X76250000Y-51900000D02*
X76250000Y-51300000D01*
X76150000Y-56400000D02*
X76550000Y-56000000D01*
X76550000Y-52200000D02*
X76250000Y-51900000D01*
X76450000Y-59051393D02*
X76450000Y-59000000D01*
X76150000Y-58700000D02*
X76150000Y-56400000D01*
X76550000Y-56000000D02*
X76550000Y-52200000D01*
X76450000Y-59000000D02*
X76150000Y-58700000D01*
X77249991Y-60449992D02*
X77249991Y-59851384D01*
X77374999Y-60575001D02*
X77249991Y-60449992D01*
X77374999Y-61875001D02*
X77374999Y-60575001D01*
X77392772Y-51342772D02*
X77392772Y-51842772D01*
X77249991Y-59851384D02*
X76450000Y-59051393D01*
X77050000Y-62200000D02*
X77374999Y-61875001D01*
X74577522Y-50467602D02*
X74577522Y-49577522D01*
X73833620Y-51211504D02*
X74577522Y-50467602D01*
X73833620Y-55266380D02*
X73833620Y-51211504D01*
X74577522Y-49577522D02*
X73000000Y-48000000D01*
D18*
X72319039Y-43365010D02*
X72319039Y-47319039D01*
X72319039Y-47319039D02*
X72976406Y-47976406D01*
X72976406Y-47976406D02*
X73000000Y-48000000D01*
X73900000Y-64225887D02*
X75886756Y-66212643D01*
X75886756Y-66212643D02*
X76211755Y-66537642D01*
X73900000Y-61278802D02*
X73900000Y-64225887D01*
X73910001Y-60731199D02*
X73910001Y-61268801D01*
X73910001Y-61268801D02*
X73900000Y-61278802D01*
X73900000Y-55332760D02*
X73900000Y-60721198D01*
X73900000Y-60721198D02*
X73910001Y-60731199D01*
X73833620Y-55266380D02*
X73900000Y-55332760D01*
D16*
X76971435Y-62987082D02*
X76650855Y-62666502D01*
X76134989Y-59123409D02*
X75839989Y-58828410D01*
X77374698Y-63312081D02*
X77049699Y-62987082D01*
X76650855Y-62666502D02*
X76650855Y-62600855D01*
X77049699Y-62987082D02*
X76971435Y-62987082D01*
X76650855Y-62600855D02*
X76134989Y-62084989D01*
X76134989Y-62084989D02*
X76134989Y-59123409D01*
D18*
X73425000Y-47875000D02*
X74890033Y-49340033D01*
X74890033Y-49340033D02*
X74890033Y-50597048D01*
X74890033Y-50597048D02*
X74300000Y-51187081D01*
D16*
X73171839Y-47621839D02*
X73171839Y-46052142D01*
X73755004Y-45468977D02*
X74080003Y-45143978D01*
X73171839Y-46052142D02*
X73755004Y-45468977D01*
X73425000Y-47875000D02*
X73171839Y-47621839D01*
X75839989Y-57789989D02*
X75839989Y-57764989D01*
X75839989Y-58828410D02*
X75839989Y-57789989D01*
X75839989Y-57764989D02*
X74300000Y-56225000D01*
X74300000Y-56225000D02*
X74300000Y-54825000D01*
D18*
X74300000Y-51187081D02*
X74300000Y-54825000D01*
D16*
X72900000Y-63200000D02*
X71759989Y-62059989D01*
X71759989Y-62059989D02*
X71759989Y-54935519D01*
X71867135Y-54828373D02*
X71867135Y-54368754D01*
X71759989Y-54935519D02*
X71867135Y-54828373D01*
D18*
X83027347Y-52672653D02*
X83800001Y-51899999D01*
X82277857Y-64343341D02*
X82337489Y-64283709D01*
X81841463Y-57422093D02*
X81841463Y-56596265D01*
X82070795Y-62835331D02*
X81073930Y-61838466D01*
X81073930Y-61271332D02*
X82339997Y-60005265D01*
X82337489Y-63673025D02*
X82070795Y-63406331D01*
X82339997Y-57920627D02*
X81841463Y-57422093D01*
X83850000Y-65900000D02*
X83121198Y-65900000D01*
X82337489Y-64283709D02*
X82337489Y-63673025D01*
X82189999Y-64968801D02*
X82189999Y-64486858D01*
X81073930Y-61838466D02*
X81073930Y-61271332D01*
X83121198Y-65900000D02*
X82189999Y-64968801D01*
X82339997Y-60005265D02*
X82339997Y-57920627D01*
X83027347Y-55410381D02*
X83027347Y-52672653D01*
X82277857Y-64399000D02*
X82277857Y-64343341D01*
X83800001Y-51899999D02*
X84125000Y-51575000D01*
X82189999Y-64486858D02*
X82277857Y-64399000D01*
X82070795Y-63406331D02*
X82070795Y-62835331D01*
X81841463Y-56596265D02*
X83027347Y-55410381D01*
X77662511Y-59154485D02*
X77039943Y-58531917D01*
X77039943Y-58531917D02*
X76714944Y-58206918D01*
X77662511Y-59600800D02*
X77662511Y-59154485D01*
X77930855Y-59869145D02*
X77662511Y-59600800D01*
D16*
X78024978Y-64132844D02*
X78297480Y-64405346D01*
X78024978Y-59963268D02*
X78024978Y-64132844D01*
X77930855Y-59869145D02*
X78024978Y-59963268D01*
X78297480Y-64405346D02*
X78622479Y-64730345D01*
X90918229Y-75118227D02*
X91243228Y-74793228D01*
X77693847Y-69432267D02*
X83619081Y-75357501D01*
X75200250Y-69897626D02*
X75665609Y-69432267D01*
X75665609Y-69432267D02*
X77693847Y-69432267D01*
X83619081Y-75357501D02*
X90678955Y-75357501D01*
X90678955Y-75357501D02*
X90918229Y-75118227D01*
X91352092Y-74032502D02*
X91950000Y-74630410D01*
X83897408Y-72022512D02*
X85907398Y-74032502D01*
X91950000Y-74630410D02*
X91950000Y-75240381D01*
X76103791Y-65840032D02*
X76302584Y-65840032D01*
X76302584Y-65840032D02*
X82485064Y-72022512D01*
X85907398Y-74032502D02*
X91352092Y-74032502D01*
X74350000Y-64086241D02*
X76103791Y-65840032D01*
X74350000Y-59250000D02*
X74350000Y-64086241D01*
X91950000Y-75240381D02*
X91950000Y-75700000D01*
X82485064Y-72022512D02*
X83897408Y-72022512D01*
X75250000Y-58350000D02*
X74350000Y-59250000D01*
X92487532Y-55871492D02*
X92487532Y-55461127D01*
X92722534Y-56641696D02*
X92722534Y-56106494D01*
X92250000Y-57114230D02*
X92722534Y-56641696D01*
X92487532Y-55461127D02*
X92162533Y-55136128D01*
X93050000Y-67400000D02*
X93050000Y-58725000D01*
X93050000Y-58725000D02*
X92250000Y-57925000D01*
X92250000Y-57925000D02*
X92250000Y-57114230D01*
X92722534Y-56106494D02*
X92487532Y-55871492D01*
X92475000Y-58750000D02*
X91840034Y-58115034D01*
X91840034Y-58115034D02*
X91840034Y-56699094D01*
X92475000Y-66275000D02*
X92475000Y-58750000D01*
X91840034Y-56699094D02*
X92165033Y-56374095D01*
D18*
X67685001Y-52090211D02*
X66672478Y-51077688D01*
X66872477Y-44750504D02*
X66627479Y-44505506D01*
X68142490Y-68640381D02*
X67860001Y-68357892D01*
X67322478Y-55630521D02*
X66862511Y-55170554D01*
X67322478Y-57852855D02*
X67322478Y-55630521D01*
X68142490Y-69100000D02*
X68142490Y-68640381D01*
X67577478Y-62076945D02*
X67577478Y-58107855D01*
X67860001Y-62359468D02*
X67577478Y-62076945D01*
X66862511Y-55170554D02*
X66862511Y-53522303D01*
X66672478Y-51077688D02*
X66672478Y-47190073D01*
X66862511Y-53522303D02*
X67685001Y-52699813D01*
X67685001Y-52699813D02*
X67685001Y-52090211D01*
X66872477Y-46990074D02*
X66872477Y-44750504D01*
X66672478Y-47190073D02*
X66872477Y-46990074D01*
X67860001Y-68357892D02*
X67860001Y-62359468D01*
X67577478Y-58107855D02*
X67322478Y-57852855D01*
X70158836Y-44441164D02*
X71975000Y-42625000D01*
X75240381Y-42625000D02*
X75700000Y-42625000D01*
X69382534Y-44766163D02*
X69707533Y-44441164D01*
X71975000Y-42625000D02*
X75240381Y-42625000D01*
X69707533Y-44441164D02*
X70158836Y-44441164D01*
X75175115Y-60282509D02*
X75500114Y-59957510D01*
X74784989Y-60672635D02*
X75175115Y-60282509D01*
X74784989Y-64079273D02*
X74784989Y-60672635D01*
X76233237Y-65527521D02*
X74784989Y-64079273D01*
X76432029Y-65527521D02*
X76233237Y-65527521D01*
X85374013Y-70590011D02*
X81494519Y-70590011D01*
X85624086Y-70840084D02*
X85374013Y-70590011D01*
X81494519Y-70590011D02*
X76432029Y-65527521D01*
X86859916Y-70840084D02*
X85624086Y-70840084D01*
X87000000Y-70700000D02*
X86859916Y-70840084D01*
X75361420Y-61321432D02*
X75361420Y-64210212D01*
X85504494Y-70275000D02*
X85754567Y-70525073D01*
X76363718Y-65212510D02*
X76562510Y-65212510D01*
X75361420Y-64210212D02*
X76363718Y-65212510D01*
X81625000Y-70275000D02*
X85504494Y-70275000D01*
X76562510Y-65212510D02*
X81625000Y-70275000D01*
X85754567Y-70525073D02*
X86245441Y-70525073D01*
X86245441Y-70525073D02*
X86725123Y-70045391D01*
X86725123Y-70045391D02*
X87141598Y-70045391D01*
X87141598Y-70045391D02*
X87601217Y-70045391D01*
D16*
X87778873Y-68303781D02*
X87908896Y-68433804D01*
X87908896Y-68433804D02*
X88368515Y-68433804D01*
X80103781Y-68303781D02*
X87778873Y-68303781D01*
X76462040Y-64662040D02*
X80103781Y-68303781D01*
X76255205Y-64662040D02*
X76462040Y-64662040D01*
X75965305Y-63641952D02*
X75965305Y-64372140D01*
X75965305Y-64372140D02*
X76255205Y-64662040D01*
X76383254Y-63224003D02*
X75965305Y-63641952D01*
X88005604Y-67347400D02*
X88330603Y-67022401D01*
X87487489Y-67837489D02*
X87515515Y-67837489D01*
X87515515Y-67837489D02*
X88005604Y-67347400D01*
D18*
X76847806Y-64429537D02*
X76522807Y-64104538D01*
X87487489Y-67837489D02*
X87487467Y-67837511D01*
X87487467Y-67837511D02*
X80255780Y-67837511D01*
X80255780Y-67837511D02*
X76847806Y-64429537D01*
D16*
X67637489Y-57725909D02*
X67637489Y-57112511D01*
X67889989Y-57978409D02*
X67637489Y-57725909D01*
X68900000Y-62957510D02*
X67889989Y-61947499D01*
X67889989Y-61947499D02*
X67889989Y-57978409D01*
D18*
X68000012Y-52830294D02*
X68000012Y-51959730D01*
X67187488Y-47120555D02*
X67187488Y-44179445D01*
X67637489Y-57112511D02*
X67637489Y-55500040D01*
X66987489Y-50947207D02*
X66987489Y-47320554D01*
X67637489Y-55500040D02*
X67177522Y-55040073D01*
X67177522Y-53652784D02*
X68000012Y-52830294D01*
X66987489Y-47320554D02*
X67187488Y-47120555D01*
X67177522Y-55040073D02*
X67177522Y-53652784D01*
X68000012Y-51959730D02*
X66987489Y-50947207D01*
D16*
X66708293Y-38124465D02*
X66650000Y-38182758D01*
X66708293Y-37664846D02*
X66708293Y-38124465D01*
X66650000Y-43641956D02*
X66779022Y-43770978D01*
X66650000Y-38182758D02*
X66650000Y-43641956D01*
D18*
X67187488Y-44179445D02*
X66779022Y-43770978D01*
D16*
X72732864Y-37413831D02*
X72386169Y-37413831D01*
X75949422Y-34197273D02*
X72732864Y-37413831D01*
X76409041Y-34197273D02*
X75949422Y-34197273D01*
X71786169Y-37413831D02*
X72386169Y-37413831D01*
D18*
X71786169Y-37413831D02*
X69810001Y-39389999D01*
X69810001Y-41927533D02*
X69670043Y-42067491D01*
X69670043Y-42067491D02*
X69345044Y-42392490D01*
X69810001Y-39389999D02*
X69810001Y-41927533D01*
D16*
X67499999Y-43209618D02*
X67499999Y-47250001D01*
X68800000Y-61500000D02*
X68820000Y-61500000D01*
X67300000Y-47450000D02*
X67300000Y-50817761D01*
X67490033Y-54910627D02*
X67950000Y-55370594D01*
X67250000Y-42959619D02*
X67499999Y-43209618D01*
X67250000Y-42500000D02*
X67250000Y-42959619D01*
X67499999Y-47250001D02*
X67300000Y-47450000D01*
X67300000Y-50817761D02*
X68312523Y-51830284D01*
X67950000Y-57600000D02*
X68200000Y-57850000D01*
X68312523Y-53287477D02*
X67490033Y-54109967D01*
X67950000Y-55370594D02*
X67950000Y-57600000D01*
X68312523Y-51830284D02*
X68312523Y-53287477D01*
X67490033Y-54109967D02*
X67490033Y-54910627D01*
X68200000Y-60900000D02*
X68800000Y-61500000D01*
X68200000Y-57850000D02*
X68200000Y-60900000D01*
X83719205Y-66675625D02*
X84178824Y-66675625D01*
X81965346Y-63958316D02*
X81965346Y-64269554D01*
X82015724Y-63907938D02*
X81965346Y-63958316D01*
X83454866Y-66675625D02*
X83719205Y-66675625D01*
X81877488Y-65098247D02*
X83454866Y-66675625D01*
X81965346Y-64269554D02*
X81877488Y-64357412D01*
X81877488Y-64357412D02*
X81877488Y-65098247D01*
X81870769Y-55504231D02*
X81870769Y-55059543D01*
X81450000Y-55925000D02*
X81870769Y-55504231D01*
X81870769Y-55059543D02*
X81870769Y-54599924D01*
D18*
X80758919Y-61140851D02*
X81219988Y-60679782D01*
X80758919Y-61970433D02*
X80758919Y-61140851D01*
X81450000Y-58978666D02*
X81450000Y-55925000D01*
X81755784Y-63536812D02*
X81755784Y-62967298D01*
X81755784Y-62967298D02*
X80758919Y-61970433D01*
X81219988Y-60679782D02*
X81219988Y-59208678D01*
X82015724Y-63796752D02*
X81755784Y-63536812D01*
X82015724Y-63907938D02*
X82015724Y-63796752D01*
X81219988Y-59208678D02*
X81450000Y-58978666D01*
D16*
X80627521Y-63322479D02*
X80627521Y-63681248D01*
X80627521Y-63681248D02*
X80948225Y-64001952D01*
X80948225Y-64001952D02*
X81407844Y-64001952D01*
D18*
X80589966Y-58521479D02*
X80711537Y-58399908D01*
X80627521Y-63322479D02*
X80128897Y-62823855D01*
X80711537Y-55455521D02*
X80995748Y-55171310D01*
X80995748Y-52695590D02*
X82138860Y-51552478D01*
X80128897Y-62823855D02*
X80128897Y-60879889D01*
X80128897Y-60879889D02*
X80589966Y-60418820D01*
X80995748Y-55171310D02*
X80995748Y-52695590D01*
X80711537Y-58399908D02*
X80711537Y-55455521D01*
X82138860Y-51552478D02*
X82463859Y-51227479D01*
X80589966Y-60418820D02*
X80589966Y-58521479D01*
D16*
X80312510Y-63537490D02*
X80312510Y-63849090D01*
X80312510Y-63849090D02*
X80932510Y-64469090D01*
X80932510Y-64469090D02*
X80932510Y-64651645D01*
X80330167Y-57205167D02*
X80360011Y-57175323D01*
X80683237Y-52311629D02*
X80948083Y-52046783D01*
X80360011Y-54974424D02*
X80683237Y-54651198D01*
X80683237Y-54651198D02*
X80683237Y-52311629D01*
X80948083Y-52046783D02*
X80948083Y-51587164D01*
X80360011Y-57175323D02*
X80360011Y-54974424D01*
D18*
X80330167Y-57205167D02*
X80274955Y-57260379D01*
X79813886Y-63038866D02*
X80312510Y-63537490D01*
X79813886Y-60749408D02*
X79813886Y-63038866D01*
X80274955Y-57260379D02*
X80274955Y-60288339D01*
X80274955Y-60288339D02*
X79813886Y-60749408D01*
D15*
X84605410Y-63773913D02*
X84145791Y-63773913D01*
X91726087Y-63773913D02*
X84605410Y-63773913D01*
X89850000Y-69800000D02*
X86175000Y-73475000D01*
X90850000Y-69800000D02*
X89850000Y-69800000D01*
X90800000Y-58529600D02*
X90800000Y-54450000D01*
X90950000Y-59550000D02*
X90950000Y-58679600D01*
X91725000Y-60325000D02*
X90950000Y-59550000D01*
X91725000Y-68925000D02*
X91725000Y-60325000D01*
X90950000Y-58679600D02*
X90800000Y-58529600D01*
X90850000Y-69800000D02*
X91725000Y-68925000D01*
X89659996Y-47490004D02*
X90600000Y-46550000D01*
X91275000Y-46550000D02*
X92662020Y-47937020D01*
X92662020Y-47937020D02*
X92662020Y-49657871D01*
X90600000Y-46550000D02*
X91275000Y-46550000D01*
X92662020Y-49657871D02*
X92662020Y-50117490D01*
X86869914Y-47490004D02*
X89659996Y-47490004D01*
X87559619Y-53750000D02*
X87100000Y-53750000D01*
X92662020Y-52587980D02*
X91500000Y-53750000D01*
X91500000Y-53750000D02*
X87559619Y-53750000D01*
X92662020Y-50117490D02*
X92662020Y-52587980D01*
X91500000Y-53750000D02*
X90800000Y-54450000D01*
D19*
G36*
X97657129Y-37443847D02*
G01*
X98048748Y-37562084D01*
X98409947Y-37754136D01*
X98726963Y-38012687D01*
X98987721Y-38327888D01*
X99182292Y-38687741D01*
X99303260Y-39078525D01*
X99346021Y-39485366D01*
X99308944Y-39892768D01*
X99193445Y-40285200D01*
X99003919Y-40647731D01*
X98747587Y-40966544D01*
X98434210Y-41229499D01*
X98075730Y-41426573D01*
X97685797Y-41550268D01*
X97261025Y-41597913D01*
X97248621Y-41598000D01*
X94769747Y-41598000D01*
X94750000Y-41596055D01*
X94671194Y-41603817D01*
X94595417Y-41626803D01*
X94525580Y-41664132D01*
X94464368Y-41714368D01*
X94414132Y-41775580D01*
X94376803Y-41845417D01*
X94353817Y-41921194D01*
X94346055Y-42000000D01*
X94348000Y-42019747D01*
X94348001Y-72980243D01*
X94346055Y-73000000D01*
X94353817Y-73078806D01*
X94376803Y-73154583D01*
X94414132Y-73224420D01*
X94464368Y-73285632D01*
X94525580Y-73335868D01*
X94595417Y-73373197D01*
X94671194Y-73396183D01*
X94730253Y-73402000D01*
X94750000Y-73403945D01*
X94769747Y-73402000D01*
X97230344Y-73402000D01*
X97657129Y-73443847D01*
X98048748Y-73562084D01*
X98409947Y-73754136D01*
X98726963Y-74012687D01*
X98987721Y-74327888D01*
X99182292Y-74687741D01*
X99303260Y-75078525D01*
X99346021Y-75485366D01*
X99308944Y-75892768D01*
X99193445Y-76285200D01*
X99003919Y-76647731D01*
X98747587Y-76966544D01*
X98434210Y-77229499D01*
X98075730Y-77426573D01*
X97685797Y-77550268D01*
X97261025Y-77597913D01*
X97248621Y-77598000D01*
X63269657Y-77598000D01*
X62842874Y-77556154D01*
X62451252Y-77437916D01*
X62090052Y-77245863D01*
X61773035Y-76987311D01*
X61512278Y-76672109D01*
X61317708Y-76312260D01*
X61196740Y-75921475D01*
X61153979Y-75514635D01*
X61191056Y-75107232D01*
X61306555Y-74714800D01*
X61496081Y-74352269D01*
X61752414Y-74033456D01*
X62065784Y-73770505D01*
X62424268Y-73573427D01*
X62814203Y-73449732D01*
X63238976Y-73402087D01*
X63251379Y-73402000D01*
X65730253Y-73402000D01*
X65750000Y-73403945D01*
X65769747Y-73402000D01*
X65828806Y-73396183D01*
X65904583Y-73373197D01*
X65974420Y-73335868D01*
X66035632Y-73285632D01*
X66085868Y-73224420D01*
X66123197Y-73154583D01*
X66146183Y-73078806D01*
X66153945Y-73000000D01*
X66152000Y-72980253D01*
X66152000Y-58594262D01*
X66202309Y-58615101D01*
X66328274Y-58640157D01*
X66456706Y-58640157D01*
X66582671Y-58615101D01*
X66701328Y-58565952D01*
X66795497Y-58503031D01*
X66795496Y-62186124D01*
X66784370Y-62193558D01*
X66693554Y-62284374D01*
X66622201Y-62391162D01*
X66573052Y-62509819D01*
X66547996Y-62635784D01*
X66547996Y-62764216D01*
X66573052Y-62890181D01*
X66622201Y-63008838D01*
X66693554Y-63115626D01*
X66784370Y-63206442D01*
X66891158Y-63277795D01*
X67009815Y-63326944D01*
X67135780Y-63352000D01*
X67264212Y-63352000D01*
X67390177Y-63326944D01*
X67453002Y-63300921D01*
X67453001Y-67635122D01*
X67358838Y-67572205D01*
X67240181Y-67523056D01*
X67114216Y-67498000D01*
X66985784Y-67498000D01*
X66859819Y-67523056D01*
X66741162Y-67572205D01*
X66634374Y-67643558D01*
X66543558Y-67734374D01*
X66472205Y-67841162D01*
X66423056Y-67959819D01*
X66398000Y-68085784D01*
X66398000Y-68214216D01*
X66423056Y-68340181D01*
X66472205Y-68458838D01*
X66543558Y-68565626D01*
X66634374Y-68656442D01*
X66741162Y-68727795D01*
X66859819Y-68776944D01*
X66970499Y-68798960D01*
X66970500Y-70205119D01*
X66968542Y-70224999D01*
X66976352Y-70304295D01*
X66996499Y-70370706D01*
X66999483Y-70380543D01*
X67037043Y-70450814D01*
X67087591Y-70512408D01*
X67103031Y-70525079D01*
X67603025Y-71025074D01*
X67603031Y-71025079D01*
X72041779Y-75463828D01*
X72035588Y-75470019D01*
X71964235Y-75576807D01*
X71915086Y-75695464D01*
X71890030Y-75821429D01*
X71890030Y-75949861D01*
X71915086Y-76075826D01*
X71964235Y-76194483D01*
X72035588Y-76301271D01*
X72126404Y-76392087D01*
X72233192Y-76463440D01*
X72351849Y-76512589D01*
X72477814Y-76537645D01*
X72606246Y-76537645D01*
X72732211Y-76512589D01*
X72850868Y-76463440D01*
X72957656Y-76392087D01*
X72963847Y-76385896D01*
X73649920Y-77071968D01*
X73662591Y-77087409D01*
X73724185Y-77137957D01*
X73794456Y-77175517D01*
X73870704Y-77198647D01*
X73930130Y-77204500D01*
X73930132Y-77204500D01*
X73949999Y-77206457D01*
X73969866Y-77204500D01*
X76930028Y-77204500D01*
X76949898Y-77206457D01*
X77029194Y-77198647D01*
X77029197Y-77198646D01*
X77034627Y-77196999D01*
X77415373Y-77196999D01*
X77420806Y-77198647D01*
X77480232Y-77204500D01*
X77480234Y-77204500D01*
X77500101Y-77206457D01*
X77519968Y-77204500D01*
X87262139Y-77204500D01*
X87281584Y-77220458D01*
X87351855Y-77258018D01*
X87428103Y-77281148D01*
X87487529Y-77287001D01*
X87487531Y-77287001D01*
X87507398Y-77288958D01*
X87527265Y-77287001D01*
X88897731Y-77287001D01*
X88917601Y-77288958D01*
X88996897Y-77281148D01*
X88996900Y-77281147D01*
X89073145Y-77258018D01*
X89143416Y-77220458D01*
X89162861Y-77204500D01*
X91836124Y-77204500D01*
X91843558Y-77215626D01*
X91934374Y-77306442D01*
X92041162Y-77377795D01*
X92159819Y-77426944D01*
X92285784Y-77452000D01*
X92414216Y-77452000D01*
X92540181Y-77426944D01*
X92658838Y-77377795D01*
X92765626Y-77306442D01*
X92856442Y-77215626D01*
X92927795Y-77108838D01*
X92976944Y-76990181D01*
X93002000Y-76864216D01*
X93002000Y-76735784D01*
X92999389Y-76722659D01*
X93897557Y-75824492D01*
X93912996Y-75811822D01*
X93963544Y-75750228D01*
X94001104Y-75679957D01*
X94024234Y-75603709D01*
X94030087Y-75544283D01*
X94030087Y-75544281D01*
X94032044Y-75524414D01*
X94030087Y-75504547D01*
X94030087Y-60645566D01*
X94032045Y-60625689D01*
X94024234Y-60546392D01*
X94001104Y-60470145D01*
X94000768Y-60469516D01*
X93963544Y-60399874D01*
X93921999Y-60349250D01*
X93921999Y-60150750D01*
X93963544Y-60100126D01*
X94001104Y-60029855D01*
X94009285Y-60002886D01*
X94024234Y-59953608D01*
X94032045Y-59874311D01*
X94030087Y-59854434D01*
X94030087Y-58849235D01*
X94146964Y-58732358D01*
X94162409Y-58719683D01*
X94212957Y-58658089D01*
X94250517Y-58587818D01*
X94273647Y-58511570D01*
X94279500Y-58452144D01*
X94279500Y-58452142D01*
X94281457Y-58432275D01*
X94279500Y-58412408D01*
X94279500Y-56369877D01*
X94281458Y-56350000D01*
X94273647Y-56270703D01*
X94250517Y-56194455D01*
X94227191Y-56150815D01*
X94212957Y-56124185D01*
X94162409Y-56062591D01*
X94146968Y-56049919D01*
X94054733Y-55957684D01*
X94054733Y-55725892D01*
X94065859Y-55718458D01*
X94156675Y-55627642D01*
X94228028Y-55520854D01*
X94277177Y-55402197D01*
X94302233Y-55276232D01*
X94302233Y-55147800D01*
X94277177Y-55021835D01*
X94228028Y-54903178D01*
X94156675Y-54796390D01*
X94065859Y-54705574D01*
X94054500Y-54697984D01*
X94054500Y-45217568D01*
X94106442Y-45165626D01*
X94177795Y-45058838D01*
X94226944Y-44940181D01*
X94252000Y-44814216D01*
X94252000Y-44685784D01*
X94226944Y-44559819D01*
X94177795Y-44441162D01*
X94106442Y-44334374D01*
X94015626Y-44243558D01*
X93908838Y-44172205D01*
X93790181Y-44123056D01*
X93664216Y-44098000D01*
X93535784Y-44098000D01*
X93446999Y-44115660D01*
X93446999Y-40517204D01*
X93449186Y-40494999D01*
X93440459Y-40406391D01*
X93414613Y-40321189D01*
X93411160Y-40314729D01*
X93372642Y-40242666D01*
X93316158Y-40173840D01*
X93298905Y-40159681D01*
X91441224Y-38302000D01*
X91514216Y-38302000D01*
X91640181Y-38276944D01*
X91758838Y-38227795D01*
X91865626Y-38156442D01*
X91956442Y-38065626D01*
X92027795Y-37958838D01*
X92076944Y-37840181D01*
X92102000Y-37714216D01*
X92102000Y-37585784D01*
X92076944Y-37459819D01*
X92052995Y-37402000D01*
X97230344Y-37402000D01*
X97657129Y-37443847D01*
X97657129Y-37443847D01*
G37*
X97657129Y-37443847D02*
X98048748Y-37562084D01*
X98409947Y-37754136D01*
X98726963Y-38012687D01*
X98987721Y-38327888D01*
X99182292Y-38687741D01*
X99303260Y-39078525D01*
X99346021Y-39485366D01*
X99308944Y-39892768D01*
X99193445Y-40285200D01*
X99003919Y-40647731D01*
X98747587Y-40966544D01*
X98434210Y-41229499D01*
X98075730Y-41426573D01*
X97685797Y-41550268D01*
X97261025Y-41597913D01*
X97248621Y-41598000D01*
X94769747Y-41598000D01*
X94750000Y-41596055D01*
X94671194Y-41603817D01*
X94595417Y-41626803D01*
X94525580Y-41664132D01*
X94464368Y-41714368D01*
X94414132Y-41775580D01*
X94376803Y-41845417D01*
X94353817Y-41921194D01*
X94346055Y-42000000D01*
X94348000Y-42019747D01*
X94348001Y-72980243D01*
X94346055Y-73000000D01*
X94353817Y-73078806D01*
X94376803Y-73154583D01*
X94414132Y-73224420D01*
X94464368Y-73285632D01*
X94525580Y-73335868D01*
X94595417Y-73373197D01*
X94671194Y-73396183D01*
X94730253Y-73402000D01*
X94750000Y-73403945D01*
X94769747Y-73402000D01*
X97230344Y-73402000D01*
X97657129Y-73443847D01*
X98048748Y-73562084D01*
X98409947Y-73754136D01*
X98726963Y-74012687D01*
X98987721Y-74327888D01*
X99182292Y-74687741D01*
X99303260Y-75078525D01*
X99346021Y-75485366D01*
X99308944Y-75892768D01*
X99193445Y-76285200D01*
X99003919Y-76647731D01*
X98747587Y-76966544D01*
X98434210Y-77229499D01*
X98075730Y-77426573D01*
X97685797Y-77550268D01*
X97261025Y-77597913D01*
X97248621Y-77598000D01*
X63269657Y-77598000D01*
X62842874Y-77556154D01*
X62451252Y-77437916D01*
X62090052Y-77245863D01*
X61773035Y-76987311D01*
X61512278Y-76672109D01*
X61317708Y-76312260D01*
X61196740Y-75921475D01*
X61153979Y-75514635D01*
X61191056Y-75107232D01*
X61306555Y-74714800D01*
X61496081Y-74352269D01*
X61752414Y-74033456D01*
X62065784Y-73770505D01*
X62424268Y-73573427D01*
X62814203Y-73449732D01*
X63238976Y-73402087D01*
X63251379Y-73402000D01*
X65730253Y-73402000D01*
X65750000Y-73403945D01*
X65769747Y-73402000D01*
X65828806Y-73396183D01*
X65904583Y-73373197D01*
X65974420Y-73335868D01*
X66035632Y-73285632D01*
X66085868Y-73224420D01*
X66123197Y-73154583D01*
X66146183Y-73078806D01*
X66153945Y-73000000D01*
X66152000Y-72980253D01*
X66152000Y-58594262D01*
X66202309Y-58615101D01*
X66328274Y-58640157D01*
X66456706Y-58640157D01*
X66582671Y-58615101D01*
X66701328Y-58565952D01*
X66795497Y-58503031D01*
X66795496Y-62186124D01*
X66784370Y-62193558D01*
X66693554Y-62284374D01*
X66622201Y-62391162D01*
X66573052Y-62509819D01*
X66547996Y-62635784D01*
X66547996Y-62764216D01*
X66573052Y-62890181D01*
X66622201Y-63008838D01*
X66693554Y-63115626D01*
X66784370Y-63206442D01*
X66891158Y-63277795D01*
X67009815Y-63326944D01*
X67135780Y-63352000D01*
X67264212Y-63352000D01*
X67390177Y-63326944D01*
X67453002Y-63300921D01*
X67453001Y-67635122D01*
X67358838Y-67572205D01*
X67240181Y-67523056D01*
X67114216Y-67498000D01*
X66985784Y-67498000D01*
X66859819Y-67523056D01*
X66741162Y-67572205D01*
X66634374Y-67643558D01*
X66543558Y-67734374D01*
X66472205Y-67841162D01*
X66423056Y-67959819D01*
X66398000Y-68085784D01*
X66398000Y-68214216D01*
X66423056Y-68340181D01*
X66472205Y-68458838D01*
X66543558Y-68565626D01*
X66634374Y-68656442D01*
X66741162Y-68727795D01*
X66859819Y-68776944D01*
X66970499Y-68798960D01*
X66970500Y-70205119D01*
X66968542Y-70224999D01*
X66976352Y-70304295D01*
X66996499Y-70370706D01*
X66999483Y-70380543D01*
X67037043Y-70450814D01*
X67087591Y-70512408D01*
X67103031Y-70525079D01*
X67603025Y-71025074D01*
X67603031Y-71025079D01*
X72041779Y-75463828D01*
X72035588Y-75470019D01*
X71964235Y-75576807D01*
X71915086Y-75695464D01*
X71890030Y-75821429D01*
X71890030Y-75949861D01*
X71915086Y-76075826D01*
X71964235Y-76194483D01*
X72035588Y-76301271D01*
X72126404Y-76392087D01*
X72233192Y-76463440D01*
X72351849Y-76512589D01*
X72477814Y-76537645D01*
X72606246Y-76537645D01*
X72732211Y-76512589D01*
X72850868Y-76463440D01*
X72957656Y-76392087D01*
X72963847Y-76385896D01*
X73649920Y-77071968D01*
X73662591Y-77087409D01*
X73724185Y-77137957D01*
X73794456Y-77175517D01*
X73870704Y-77198647D01*
X73930130Y-77204500D01*
X73930132Y-77204500D01*
X73949999Y-77206457D01*
X73969866Y-77204500D01*
X76930028Y-77204500D01*
X76949898Y-77206457D01*
X77029194Y-77198647D01*
X77029197Y-77198646D01*
X77034627Y-77196999D01*
X77415373Y-77196999D01*
X77420806Y-77198647D01*
X77480232Y-77204500D01*
X77480234Y-77204500D01*
X77500101Y-77206457D01*
X77519968Y-77204500D01*
X87262139Y-77204500D01*
X87281584Y-77220458D01*
X87351855Y-77258018D01*
X87428103Y-77281148D01*
X87487529Y-77287001D01*
X87487531Y-77287001D01*
X87507398Y-77288958D01*
X87527265Y-77287001D01*
X88897731Y-77287001D01*
X88917601Y-77288958D01*
X88996897Y-77281148D01*
X88996900Y-77281147D01*
X89073145Y-77258018D01*
X89143416Y-77220458D01*
X89162861Y-77204500D01*
X91836124Y-77204500D01*
X91843558Y-77215626D01*
X91934374Y-77306442D01*
X92041162Y-77377795D01*
X92159819Y-77426944D01*
X92285784Y-77452000D01*
X92414216Y-77452000D01*
X92540181Y-77426944D01*
X92658838Y-77377795D01*
X92765626Y-77306442D01*
X92856442Y-77215626D01*
X92927795Y-77108838D01*
X92976944Y-76990181D01*
X93002000Y-76864216D01*
X93002000Y-76735784D01*
X92999389Y-76722659D01*
X93897557Y-75824492D01*
X93912996Y-75811822D01*
X93963544Y-75750228D01*
X94001104Y-75679957D01*
X94024234Y-75603709D01*
X94030087Y-75544283D01*
X94030087Y-75544281D01*
X94032044Y-75524414D01*
X94030087Y-75504547D01*
X94030087Y-60645566D01*
X94032045Y-60625689D01*
X94024234Y-60546392D01*
X94001104Y-60470145D01*
X94000768Y-60469516D01*
X93963544Y-60399874D01*
X93921999Y-60349250D01*
X93921999Y-60150750D01*
X93963544Y-60100126D01*
X94001104Y-60029855D01*
X94009285Y-60002886D01*
X94024234Y-59953608D01*
X94032045Y-59874311D01*
X94030087Y-59854434D01*
X94030087Y-58849235D01*
X94146964Y-58732358D01*
X94162409Y-58719683D01*
X94212957Y-58658089D01*
X94250517Y-58587818D01*
X94273647Y-58511570D01*
X94279500Y-58452144D01*
X94279500Y-58452142D01*
X94281457Y-58432275D01*
X94279500Y-58412408D01*
X94279500Y-56369877D01*
X94281458Y-56350000D01*
X94273647Y-56270703D01*
X94250517Y-56194455D01*
X94227191Y-56150815D01*
X94212957Y-56124185D01*
X94162409Y-56062591D01*
X94146968Y-56049919D01*
X94054733Y-55957684D01*
X94054733Y-55725892D01*
X94065859Y-55718458D01*
X94156675Y-55627642D01*
X94228028Y-55520854D01*
X94277177Y-55402197D01*
X94302233Y-55276232D01*
X94302233Y-55147800D01*
X94277177Y-55021835D01*
X94228028Y-54903178D01*
X94156675Y-54796390D01*
X94065859Y-54705574D01*
X94054500Y-54697984D01*
X94054500Y-45217568D01*
X94106442Y-45165626D01*
X94177795Y-45058838D01*
X94226944Y-44940181D01*
X94252000Y-44814216D01*
X94252000Y-44685784D01*
X94226944Y-44559819D01*
X94177795Y-44441162D01*
X94106442Y-44334374D01*
X94015626Y-44243558D01*
X93908838Y-44172205D01*
X93790181Y-44123056D01*
X93664216Y-44098000D01*
X93535784Y-44098000D01*
X93446999Y-44115660D01*
X93446999Y-40517204D01*
X93449186Y-40494999D01*
X93440459Y-40406391D01*
X93414613Y-40321189D01*
X93411160Y-40314729D01*
X93372642Y-40242666D01*
X93316158Y-40173840D01*
X93298905Y-40159681D01*
X91441224Y-38302000D01*
X91514216Y-38302000D01*
X91640181Y-38276944D01*
X91758838Y-38227795D01*
X91865626Y-38156442D01*
X91956442Y-38065626D01*
X92027795Y-37958838D01*
X92076944Y-37840181D01*
X92102000Y-37714216D01*
X92102000Y-37585784D01*
X92076944Y-37459819D01*
X92052995Y-37402000D01*
X97230344Y-37402000D01*
X97657129Y-37443847D01*
G36*
X71103121Y-65437962D02*
G01*
X71121186Y-65459974D01*
X71209045Y-65532079D01*
X71309284Y-65585657D01*
X71418048Y-65618650D01*
X71502824Y-65627000D01*
X71502830Y-65627000D01*
X71531159Y-65629790D01*
X71559488Y-65627000D01*
X71985999Y-65627000D01*
X74891567Y-68532568D01*
X74898054Y-68565181D01*
X74944118Y-68676389D01*
X74924185Y-68687043D01*
X74862591Y-68737591D01*
X74849920Y-68753032D01*
X74178032Y-69424920D01*
X74162592Y-69437591D01*
X74118628Y-69491162D01*
X74112044Y-69499185D01*
X74074484Y-69569456D01*
X74051353Y-69645704D01*
X74043543Y-69725000D01*
X74045500Y-69744870D01*
X74045500Y-70155130D01*
X74043543Y-70175000D01*
X74048468Y-70224999D01*
X74051353Y-70254295D01*
X74074483Y-70330543D01*
X74112043Y-70400814D01*
X74162591Y-70462409D01*
X74178036Y-70475084D01*
X74334674Y-70631722D01*
X74349484Y-70680544D01*
X74387044Y-70750815D01*
X74401461Y-70768383D01*
X74398000Y-70785784D01*
X74398000Y-70914216D01*
X74423056Y-71040181D01*
X74472205Y-71158838D01*
X74543558Y-71265626D01*
X74634374Y-71356442D01*
X74741162Y-71427795D01*
X74859819Y-71476944D01*
X74985784Y-71502000D01*
X75114216Y-71502000D01*
X75240181Y-71476944D01*
X75358838Y-71427795D01*
X75465626Y-71356442D01*
X75556442Y-71265626D01*
X75627795Y-71158838D01*
X75676944Y-71040181D01*
X75702000Y-70914216D01*
X75702000Y-70785784D01*
X75676944Y-70659819D01*
X75627795Y-70541162D01*
X75560787Y-70440877D01*
X75615876Y-70404068D01*
X75706692Y-70313252D01*
X75778045Y-70206464D01*
X75827194Y-70087807D01*
X75852250Y-69961842D01*
X75852250Y-69836767D01*
X77526299Y-69836767D01*
X83319001Y-75629470D01*
X83331672Y-75644910D01*
X83393266Y-75695458D01*
X83463537Y-75733018D01*
X83539785Y-75756148D01*
X83599211Y-75762001D01*
X83599213Y-75762001D01*
X83619080Y-75763958D01*
X83638947Y-75762001D01*
X87265931Y-75762001D01*
X87193558Y-75834374D01*
X87122205Y-75941162D01*
X87073056Y-76059819D01*
X87048000Y-76185784D01*
X87048000Y-76314216D01*
X87064168Y-76395500D01*
X77577330Y-76395500D01*
X77571897Y-76393852D01*
X77512471Y-76387999D01*
X77492601Y-76386042D01*
X77472731Y-76387999D01*
X77280982Y-76387999D01*
X77365626Y-76331442D01*
X77456442Y-76240626D01*
X77527795Y-76133838D01*
X77576944Y-76015181D01*
X77602000Y-75889216D01*
X77602000Y-75760784D01*
X77576944Y-75634819D01*
X77527795Y-75516162D01*
X77456442Y-75409374D01*
X77365626Y-75318558D01*
X77258838Y-75247205D01*
X77140181Y-75198056D01*
X77014216Y-75173000D01*
X76885784Y-75173000D01*
X76759819Y-75198056D01*
X76641162Y-75247205D01*
X76534374Y-75318558D01*
X76443558Y-75409374D01*
X76372205Y-75516162D01*
X76323056Y-75634819D01*
X76298000Y-75760784D01*
X76298000Y-75889216D01*
X76323056Y-76015181D01*
X76372205Y-76133838D01*
X76443558Y-76240626D01*
X76534374Y-76331442D01*
X76630244Y-76395500D01*
X74117549Y-76395500D01*
X73462578Y-75740530D01*
X73462574Y-75740525D01*
X73335725Y-75613676D01*
X73323054Y-75598236D01*
X73307614Y-75585565D01*
X71207833Y-73485784D01*
X73673000Y-73485784D01*
X73673000Y-73614216D01*
X73698056Y-73740181D01*
X73747205Y-73858838D01*
X73818558Y-73965626D01*
X73909374Y-74056442D01*
X74016162Y-74127795D01*
X74134819Y-74176944D01*
X74260784Y-74202000D01*
X74389216Y-74202000D01*
X74470739Y-74185784D01*
X78048000Y-74185784D01*
X78048000Y-74314216D01*
X78073056Y-74440181D01*
X78122205Y-74558838D01*
X78193558Y-74665626D01*
X78284374Y-74756442D01*
X78352195Y-74801758D01*
X78281614Y-74872339D01*
X78210261Y-74979127D01*
X78161112Y-75097784D01*
X78136056Y-75223749D01*
X78136056Y-75352181D01*
X78161112Y-75478146D01*
X78210261Y-75596803D01*
X78281614Y-75703591D01*
X78372430Y-75794407D01*
X78479218Y-75865760D01*
X78597875Y-75914909D01*
X78723840Y-75939965D01*
X78852272Y-75939965D01*
X78978237Y-75914909D01*
X79096894Y-75865760D01*
X79203682Y-75794407D01*
X79268656Y-75729433D01*
X79273109Y-75732409D01*
X79391766Y-75781558D01*
X79517731Y-75806614D01*
X79646163Y-75806614D01*
X79772128Y-75781558D01*
X79890785Y-75732409D01*
X79997573Y-75661056D01*
X80088389Y-75570240D01*
X80159742Y-75463452D01*
X80186751Y-75398245D01*
X80222205Y-75483838D01*
X80293558Y-75590626D01*
X80384374Y-75681442D01*
X80491162Y-75752795D01*
X80609819Y-75801944D01*
X80735784Y-75827000D01*
X80864216Y-75827000D01*
X80990181Y-75801944D01*
X81108838Y-75752795D01*
X81215626Y-75681442D01*
X81306442Y-75590626D01*
X81377795Y-75483838D01*
X81426944Y-75365181D01*
X81452000Y-75239216D01*
X81452000Y-75110784D01*
X81426944Y-74984819D01*
X81377795Y-74866162D01*
X81306442Y-74759374D01*
X81215626Y-74668558D01*
X81108838Y-74597205D01*
X80990181Y-74548056D01*
X80864216Y-74523000D01*
X80735784Y-74523000D01*
X80609819Y-74548056D01*
X80491162Y-74597205D01*
X80384374Y-74668558D01*
X80293558Y-74759374D01*
X80222205Y-74866162D01*
X80195196Y-74931369D01*
X80159742Y-74845776D01*
X80088389Y-74738988D01*
X79997573Y-74648172D01*
X79890785Y-74576819D01*
X79772128Y-74527670D01*
X79646163Y-74502614D01*
X79517731Y-74502614D01*
X79391766Y-74527670D01*
X79273109Y-74576819D01*
X79259870Y-74585665D01*
X79277795Y-74558838D01*
X79326944Y-74440181D01*
X79352000Y-74314216D01*
X79352000Y-74185784D01*
X79326944Y-74059819D01*
X79277795Y-73941162D01*
X79206442Y-73834374D01*
X79167035Y-73794967D01*
X79395566Y-73794967D01*
X79395566Y-73923399D01*
X79420622Y-74049364D01*
X79469771Y-74168021D01*
X79541124Y-74274809D01*
X79631940Y-74365625D01*
X79738728Y-74436978D01*
X79857385Y-74486127D01*
X79983350Y-74511183D01*
X80111782Y-74511183D01*
X80237747Y-74486127D01*
X80356404Y-74436978D01*
X80463192Y-74365625D01*
X80554008Y-74274809D01*
X80625361Y-74168021D01*
X80674510Y-74049364D01*
X80699566Y-73923399D01*
X80699566Y-73794967D01*
X80674510Y-73669002D01*
X80625361Y-73550345D01*
X80554008Y-73443557D01*
X80463192Y-73352741D01*
X80356404Y-73281388D01*
X80237747Y-73232239D01*
X80111782Y-73207183D01*
X79983350Y-73207183D01*
X79857385Y-73232239D01*
X79738728Y-73281388D01*
X79631940Y-73352741D01*
X79541124Y-73443557D01*
X79469771Y-73550345D01*
X79420622Y-73669002D01*
X79395566Y-73794967D01*
X79167035Y-73794967D01*
X79115626Y-73743558D01*
X79008838Y-73672205D01*
X78890181Y-73623056D01*
X78764216Y-73598000D01*
X78635784Y-73598000D01*
X78509819Y-73623056D01*
X78391162Y-73672205D01*
X78284374Y-73743558D01*
X78193558Y-73834374D01*
X78122205Y-73941162D01*
X78073056Y-74059819D01*
X78048000Y-74185784D01*
X74470739Y-74185784D01*
X74515181Y-74176944D01*
X74633838Y-74127795D01*
X74740626Y-74056442D01*
X74831442Y-73965626D01*
X74902795Y-73858838D01*
X74951944Y-73740181D01*
X74977000Y-73614216D01*
X74977000Y-73485784D01*
X74951944Y-73359819D01*
X74902795Y-73241162D01*
X74831442Y-73134374D01*
X74740626Y-73043558D01*
X74633838Y-72972205D01*
X74515181Y-72923056D01*
X74389216Y-72898000D01*
X74260784Y-72898000D01*
X74134819Y-72923056D01*
X74016162Y-72972205D01*
X73909374Y-73043558D01*
X73818558Y-73134374D01*
X73747205Y-73241162D01*
X73698056Y-73359819D01*
X73673000Y-73485784D01*
X71207833Y-73485784D01*
X70351548Y-72629500D01*
X70661124Y-72629500D01*
X70668558Y-72640626D01*
X70759374Y-72731442D01*
X70866162Y-72802795D01*
X70984819Y-72851944D01*
X71110784Y-72877000D01*
X71239216Y-72877000D01*
X71365181Y-72851944D01*
X71483838Y-72802795D01*
X71590626Y-72731442D01*
X71681442Y-72640626D01*
X71752795Y-72533838D01*
X71801944Y-72415181D01*
X71827000Y-72289216D01*
X71827000Y-72160784D01*
X71817055Y-72110784D01*
X72823000Y-72110784D01*
X72823000Y-72239216D01*
X72848056Y-72365181D01*
X72897205Y-72483838D01*
X72968558Y-72590626D01*
X73059374Y-72681442D01*
X73166162Y-72752795D01*
X73284819Y-72801944D01*
X73410784Y-72827000D01*
X73539216Y-72827000D01*
X73665181Y-72801944D01*
X73783838Y-72752795D01*
X73890626Y-72681442D01*
X73981442Y-72590626D01*
X74052795Y-72483838D01*
X74101944Y-72365181D01*
X74127000Y-72239216D01*
X74127000Y-72110784D01*
X74101944Y-71984819D01*
X74052795Y-71866162D01*
X73981442Y-71759374D01*
X73890626Y-71668558D01*
X73783838Y-71597205D01*
X73665181Y-71548056D01*
X73539216Y-71523000D01*
X73410784Y-71523000D01*
X73284819Y-71548056D01*
X73166162Y-71597205D01*
X73059374Y-71668558D01*
X72968558Y-71759374D01*
X72897205Y-71866162D01*
X72848056Y-71984819D01*
X72823000Y-72110784D01*
X71817055Y-72110784D01*
X71801944Y-72034819D01*
X71752795Y-71916162D01*
X71681442Y-71809374D01*
X71590626Y-71718558D01*
X71483838Y-71647205D01*
X71365181Y-71598056D01*
X71239216Y-71573000D01*
X71110784Y-71573000D01*
X70984819Y-71598056D01*
X70866162Y-71647205D01*
X70759374Y-71718558D01*
X70668558Y-71809374D01*
X70661124Y-71820500D01*
X70576184Y-71820500D01*
X70596897Y-71789500D01*
X70646046Y-71670843D01*
X70671102Y-71544878D01*
X70671102Y-71416446D01*
X70646046Y-71290481D01*
X70596897Y-71171824D01*
X70525544Y-71065036D01*
X70434728Y-70974220D01*
X70327940Y-70902867D01*
X70209283Y-70853718D01*
X70083318Y-70828662D01*
X70036103Y-70828662D01*
X70036103Y-69924591D01*
X71082738Y-69924591D01*
X71082738Y-70053023D01*
X71107794Y-70178988D01*
X71156943Y-70297645D01*
X71228296Y-70404433D01*
X71319112Y-70495249D01*
X71425900Y-70566602D01*
X71544557Y-70615751D01*
X71670522Y-70640807D01*
X71798954Y-70640807D01*
X71924919Y-70615751D01*
X72043576Y-70566602D01*
X72150364Y-70495249D01*
X72241180Y-70404433D01*
X72312533Y-70297645D01*
X72361682Y-70178988D01*
X72386738Y-70053023D01*
X72386738Y-69924591D01*
X72361682Y-69798626D01*
X72312533Y-69679969D01*
X72241180Y-69573181D01*
X72150364Y-69482365D01*
X72043576Y-69411012D01*
X71924919Y-69361863D01*
X71798954Y-69336807D01*
X71670522Y-69336807D01*
X71544557Y-69361863D01*
X71425900Y-69411012D01*
X71319112Y-69482365D01*
X71228296Y-69573181D01*
X71156943Y-69679969D01*
X71107794Y-69798626D01*
X71082738Y-69924591D01*
X70036103Y-69924591D01*
X70036103Y-69760945D01*
X70556979Y-69240070D01*
X70572420Y-69227398D01*
X70622968Y-69165804D01*
X70660528Y-69095533D01*
X70683658Y-69019285D01*
X70689511Y-68959859D01*
X70689511Y-68959857D01*
X70691468Y-68939990D01*
X70689511Y-68920123D01*
X70689511Y-67291459D01*
X70691468Y-67271589D01*
X70689166Y-67248217D01*
X70683658Y-67192294D01*
X70660528Y-67116046D01*
X70622968Y-67045775D01*
X70572420Y-66984181D01*
X70556981Y-66971511D01*
X69561491Y-65976022D01*
X69665626Y-65906442D01*
X69756442Y-65815626D01*
X69827795Y-65708838D01*
X69876944Y-65590181D01*
X69902000Y-65464216D01*
X69902000Y-65387224D01*
X70477192Y-64812033D01*
X71103121Y-65437962D01*
X71103121Y-65437962D01*
G37*
X71103121Y-65437962D02*
X71121186Y-65459974D01*
X71209045Y-65532079D01*
X71309284Y-65585657D01*
X71418048Y-65618650D01*
X71502824Y-65627000D01*
X71502830Y-65627000D01*
X71531159Y-65629790D01*
X71559488Y-65627000D01*
X71985999Y-65627000D01*
X74891567Y-68532568D01*
X74898054Y-68565181D01*
X74944118Y-68676389D01*
X74924185Y-68687043D01*
X74862591Y-68737591D01*
X74849920Y-68753032D01*
X74178032Y-69424920D01*
X74162592Y-69437591D01*
X74118628Y-69491162D01*
X74112044Y-69499185D01*
X74074484Y-69569456D01*
X74051353Y-69645704D01*
X74043543Y-69725000D01*
X74045500Y-69744870D01*
X74045500Y-70155130D01*
X74043543Y-70175000D01*
X74048468Y-70224999D01*
X74051353Y-70254295D01*
X74074483Y-70330543D01*
X74112043Y-70400814D01*
X74162591Y-70462409D01*
X74178036Y-70475084D01*
X74334674Y-70631722D01*
X74349484Y-70680544D01*
X74387044Y-70750815D01*
X74401461Y-70768383D01*
X74398000Y-70785784D01*
X74398000Y-70914216D01*
X74423056Y-71040181D01*
X74472205Y-71158838D01*
X74543558Y-71265626D01*
X74634374Y-71356442D01*
X74741162Y-71427795D01*
X74859819Y-71476944D01*
X74985784Y-71502000D01*
X75114216Y-71502000D01*
X75240181Y-71476944D01*
X75358838Y-71427795D01*
X75465626Y-71356442D01*
X75556442Y-71265626D01*
X75627795Y-71158838D01*
X75676944Y-71040181D01*
X75702000Y-70914216D01*
X75702000Y-70785784D01*
X75676944Y-70659819D01*
X75627795Y-70541162D01*
X75560787Y-70440877D01*
X75615876Y-70404068D01*
X75706692Y-70313252D01*
X75778045Y-70206464D01*
X75827194Y-70087807D01*
X75852250Y-69961842D01*
X75852250Y-69836767D01*
X77526299Y-69836767D01*
X83319001Y-75629470D01*
X83331672Y-75644910D01*
X83393266Y-75695458D01*
X83463537Y-75733018D01*
X83539785Y-75756148D01*
X83599211Y-75762001D01*
X83599213Y-75762001D01*
X83619080Y-75763958D01*
X83638947Y-75762001D01*
X87265931Y-75762001D01*
X87193558Y-75834374D01*
X87122205Y-75941162D01*
X87073056Y-76059819D01*
X87048000Y-76185784D01*
X87048000Y-76314216D01*
X87064168Y-76395500D01*
X77577330Y-76395500D01*
X77571897Y-76393852D01*
X77512471Y-76387999D01*
X77492601Y-76386042D01*
X77472731Y-76387999D01*
X77280982Y-76387999D01*
X77365626Y-76331442D01*
X77456442Y-76240626D01*
X77527795Y-76133838D01*
X77576944Y-76015181D01*
X77602000Y-75889216D01*
X77602000Y-75760784D01*
X77576944Y-75634819D01*
X77527795Y-75516162D01*
X77456442Y-75409374D01*
X77365626Y-75318558D01*
X77258838Y-75247205D01*
X77140181Y-75198056D01*
X77014216Y-75173000D01*
X76885784Y-75173000D01*
X76759819Y-75198056D01*
X76641162Y-75247205D01*
X76534374Y-75318558D01*
X76443558Y-75409374D01*
X76372205Y-75516162D01*
X76323056Y-75634819D01*
X76298000Y-75760784D01*
X76298000Y-75889216D01*
X76323056Y-76015181D01*
X76372205Y-76133838D01*
X76443558Y-76240626D01*
X76534374Y-76331442D01*
X76630244Y-76395500D01*
X74117549Y-76395500D01*
X73462578Y-75740530D01*
X73462574Y-75740525D01*
X73335725Y-75613676D01*
X73323054Y-75598236D01*
X73307614Y-75585565D01*
X71207833Y-73485784D01*
X73673000Y-73485784D01*
X73673000Y-73614216D01*
X73698056Y-73740181D01*
X73747205Y-73858838D01*
X73818558Y-73965626D01*
X73909374Y-74056442D01*
X74016162Y-74127795D01*
X74134819Y-74176944D01*
X74260784Y-74202000D01*
X74389216Y-74202000D01*
X74470739Y-74185784D01*
X78048000Y-74185784D01*
X78048000Y-74314216D01*
X78073056Y-74440181D01*
X78122205Y-74558838D01*
X78193558Y-74665626D01*
X78284374Y-74756442D01*
X78352195Y-74801758D01*
X78281614Y-74872339D01*
X78210261Y-74979127D01*
X78161112Y-75097784D01*
X78136056Y-75223749D01*
X78136056Y-75352181D01*
X78161112Y-75478146D01*
X78210261Y-75596803D01*
X78281614Y-75703591D01*
X78372430Y-75794407D01*
X78479218Y-75865760D01*
X78597875Y-75914909D01*
X78723840Y-75939965D01*
X78852272Y-75939965D01*
X78978237Y-75914909D01*
X79096894Y-75865760D01*
X79203682Y-75794407D01*
X79268656Y-75729433D01*
X79273109Y-75732409D01*
X79391766Y-75781558D01*
X79517731Y-75806614D01*
X79646163Y-75806614D01*
X79772128Y-75781558D01*
X79890785Y-75732409D01*
X79997573Y-75661056D01*
X80088389Y-75570240D01*
X80159742Y-75463452D01*
X80186751Y-75398245D01*
X80222205Y-75483838D01*
X80293558Y-75590626D01*
X80384374Y-75681442D01*
X80491162Y-75752795D01*
X80609819Y-75801944D01*
X80735784Y-75827000D01*
X80864216Y-75827000D01*
X80990181Y-75801944D01*
X81108838Y-75752795D01*
X81215626Y-75681442D01*
X81306442Y-75590626D01*
X81377795Y-75483838D01*
X81426944Y-75365181D01*
X81452000Y-75239216D01*
X81452000Y-75110784D01*
X81426944Y-74984819D01*
X81377795Y-74866162D01*
X81306442Y-74759374D01*
X81215626Y-74668558D01*
X81108838Y-74597205D01*
X80990181Y-74548056D01*
X80864216Y-74523000D01*
X80735784Y-74523000D01*
X80609819Y-74548056D01*
X80491162Y-74597205D01*
X80384374Y-74668558D01*
X80293558Y-74759374D01*
X80222205Y-74866162D01*
X80195196Y-74931369D01*
X80159742Y-74845776D01*
X80088389Y-74738988D01*
X79997573Y-74648172D01*
X79890785Y-74576819D01*
X79772128Y-74527670D01*
X79646163Y-74502614D01*
X79517731Y-74502614D01*
X79391766Y-74527670D01*
X79273109Y-74576819D01*
X79259870Y-74585665D01*
X79277795Y-74558838D01*
X79326944Y-74440181D01*
X79352000Y-74314216D01*
X79352000Y-74185784D01*
X79326944Y-74059819D01*
X79277795Y-73941162D01*
X79206442Y-73834374D01*
X79167035Y-73794967D01*
X79395566Y-73794967D01*
X79395566Y-73923399D01*
X79420622Y-74049364D01*
X79469771Y-74168021D01*
X79541124Y-74274809D01*
X79631940Y-74365625D01*
X79738728Y-74436978D01*
X79857385Y-74486127D01*
X79983350Y-74511183D01*
X80111782Y-74511183D01*
X80237747Y-74486127D01*
X80356404Y-74436978D01*
X80463192Y-74365625D01*
X80554008Y-74274809D01*
X80625361Y-74168021D01*
X80674510Y-74049364D01*
X80699566Y-73923399D01*
X80699566Y-73794967D01*
X80674510Y-73669002D01*
X80625361Y-73550345D01*
X80554008Y-73443557D01*
X80463192Y-73352741D01*
X80356404Y-73281388D01*
X80237747Y-73232239D01*
X80111782Y-73207183D01*
X79983350Y-73207183D01*
X79857385Y-73232239D01*
X79738728Y-73281388D01*
X79631940Y-73352741D01*
X79541124Y-73443557D01*
X79469771Y-73550345D01*
X79420622Y-73669002D01*
X79395566Y-73794967D01*
X79167035Y-73794967D01*
X79115626Y-73743558D01*
X79008838Y-73672205D01*
X78890181Y-73623056D01*
X78764216Y-73598000D01*
X78635784Y-73598000D01*
X78509819Y-73623056D01*
X78391162Y-73672205D01*
X78284374Y-73743558D01*
X78193558Y-73834374D01*
X78122205Y-73941162D01*
X78073056Y-74059819D01*
X78048000Y-74185784D01*
X74470739Y-74185784D01*
X74515181Y-74176944D01*
X74633838Y-74127795D01*
X74740626Y-74056442D01*
X74831442Y-73965626D01*
X74902795Y-73858838D01*
X74951944Y-73740181D01*
X74977000Y-73614216D01*
X74977000Y-73485784D01*
X74951944Y-73359819D01*
X74902795Y-73241162D01*
X74831442Y-73134374D01*
X74740626Y-73043558D01*
X74633838Y-72972205D01*
X74515181Y-72923056D01*
X74389216Y-72898000D01*
X74260784Y-72898000D01*
X74134819Y-72923056D01*
X74016162Y-72972205D01*
X73909374Y-73043558D01*
X73818558Y-73134374D01*
X73747205Y-73241162D01*
X73698056Y-73359819D01*
X73673000Y-73485784D01*
X71207833Y-73485784D01*
X70351548Y-72629500D01*
X70661124Y-72629500D01*
X70668558Y-72640626D01*
X70759374Y-72731442D01*
X70866162Y-72802795D01*
X70984819Y-72851944D01*
X71110784Y-72877000D01*
X71239216Y-72877000D01*
X71365181Y-72851944D01*
X71483838Y-72802795D01*
X71590626Y-72731442D01*
X71681442Y-72640626D01*
X71752795Y-72533838D01*
X71801944Y-72415181D01*
X71827000Y-72289216D01*
X71827000Y-72160784D01*
X71817055Y-72110784D01*
X72823000Y-72110784D01*
X72823000Y-72239216D01*
X72848056Y-72365181D01*
X72897205Y-72483838D01*
X72968558Y-72590626D01*
X73059374Y-72681442D01*
X73166162Y-72752795D01*
X73284819Y-72801944D01*
X73410784Y-72827000D01*
X73539216Y-72827000D01*
X73665181Y-72801944D01*
X73783838Y-72752795D01*
X73890626Y-72681442D01*
X73981442Y-72590626D01*
X74052795Y-72483838D01*
X74101944Y-72365181D01*
X74127000Y-72239216D01*
X74127000Y-72110784D01*
X74101944Y-71984819D01*
X74052795Y-71866162D01*
X73981442Y-71759374D01*
X73890626Y-71668558D01*
X73783838Y-71597205D01*
X73665181Y-71548056D01*
X73539216Y-71523000D01*
X73410784Y-71523000D01*
X73284819Y-71548056D01*
X73166162Y-71597205D01*
X73059374Y-71668558D01*
X72968558Y-71759374D01*
X72897205Y-71866162D01*
X72848056Y-71984819D01*
X72823000Y-72110784D01*
X71817055Y-72110784D01*
X71801944Y-72034819D01*
X71752795Y-71916162D01*
X71681442Y-71809374D01*
X71590626Y-71718558D01*
X71483838Y-71647205D01*
X71365181Y-71598056D01*
X71239216Y-71573000D01*
X71110784Y-71573000D01*
X70984819Y-71598056D01*
X70866162Y-71647205D01*
X70759374Y-71718558D01*
X70668558Y-71809374D01*
X70661124Y-71820500D01*
X70576184Y-71820500D01*
X70596897Y-71789500D01*
X70646046Y-71670843D01*
X70671102Y-71544878D01*
X70671102Y-71416446D01*
X70646046Y-71290481D01*
X70596897Y-71171824D01*
X70525544Y-71065036D01*
X70434728Y-70974220D01*
X70327940Y-70902867D01*
X70209283Y-70853718D01*
X70083318Y-70828662D01*
X70036103Y-70828662D01*
X70036103Y-69924591D01*
X71082738Y-69924591D01*
X71082738Y-70053023D01*
X71107794Y-70178988D01*
X71156943Y-70297645D01*
X71228296Y-70404433D01*
X71319112Y-70495249D01*
X71425900Y-70566602D01*
X71544557Y-70615751D01*
X71670522Y-70640807D01*
X71798954Y-70640807D01*
X71924919Y-70615751D01*
X72043576Y-70566602D01*
X72150364Y-70495249D01*
X72241180Y-70404433D01*
X72312533Y-70297645D01*
X72361682Y-70178988D01*
X72386738Y-70053023D01*
X72386738Y-69924591D01*
X72361682Y-69798626D01*
X72312533Y-69679969D01*
X72241180Y-69573181D01*
X72150364Y-69482365D01*
X72043576Y-69411012D01*
X71924919Y-69361863D01*
X71798954Y-69336807D01*
X71670522Y-69336807D01*
X71544557Y-69361863D01*
X71425900Y-69411012D01*
X71319112Y-69482365D01*
X71228296Y-69573181D01*
X71156943Y-69679969D01*
X71107794Y-69798626D01*
X71082738Y-69924591D01*
X70036103Y-69924591D01*
X70036103Y-69760945D01*
X70556979Y-69240070D01*
X70572420Y-69227398D01*
X70622968Y-69165804D01*
X70660528Y-69095533D01*
X70683658Y-69019285D01*
X70689511Y-68959859D01*
X70689511Y-68959857D01*
X70691468Y-68939990D01*
X70689511Y-68920123D01*
X70689511Y-67291459D01*
X70691468Y-67271589D01*
X70689166Y-67248217D01*
X70683658Y-67192294D01*
X70660528Y-67116046D01*
X70622968Y-67045775D01*
X70572420Y-66984181D01*
X70556981Y-66971511D01*
X69561491Y-65976022D01*
X69665626Y-65906442D01*
X69756442Y-65815626D01*
X69827795Y-65708838D01*
X69876944Y-65590181D01*
X69902000Y-65464216D01*
X69902000Y-65387224D01*
X70477192Y-64812033D01*
X71103121Y-65437962D01*
G36*
X92410784Y-66927000D02*
G01*
X92539216Y-66927000D01*
X92616256Y-66911676D01*
X92543558Y-66984374D01*
X92472205Y-67091162D01*
X92423056Y-67209819D01*
X92398000Y-67335784D01*
X92398000Y-67464216D01*
X92423056Y-67590181D01*
X92472205Y-67708838D01*
X92543558Y-67815626D01*
X92634374Y-67906442D01*
X92741162Y-67977795D01*
X92859819Y-68026944D01*
X92985784Y-68052000D01*
X93114216Y-68052000D01*
X93221088Y-68030742D01*
X93221087Y-75356864D01*
X92427341Y-76150611D01*
X92422433Y-76149635D01*
X92456442Y-76115626D01*
X92527795Y-76008838D01*
X92576944Y-75890181D01*
X92602000Y-75764216D01*
X92602000Y-75635784D01*
X92576944Y-75509819D01*
X92527795Y-75391162D01*
X92456442Y-75284374D01*
X92365626Y-75193558D01*
X92354500Y-75186124D01*
X92354500Y-74650280D01*
X92356457Y-74630410D01*
X92348647Y-74551113D01*
X92325517Y-74474865D01*
X92287957Y-74404595D01*
X92265507Y-74377239D01*
X92237409Y-74343001D01*
X92221975Y-74330335D01*
X91652176Y-73760538D01*
X91639501Y-73745093D01*
X91577907Y-73694545D01*
X91507636Y-73656985D01*
X91431388Y-73633855D01*
X91371962Y-73628002D01*
X91352092Y-73626045D01*
X91332222Y-73628002D01*
X86837999Y-73628002D01*
X90089001Y-70377000D01*
X90539972Y-70377000D01*
X90541162Y-70377795D01*
X90659819Y-70426944D01*
X90785784Y-70452000D01*
X90914216Y-70452000D01*
X91040181Y-70426944D01*
X91158838Y-70377795D01*
X91265626Y-70306442D01*
X91356442Y-70215626D01*
X91427795Y-70108838D01*
X91476944Y-69990181D01*
X91477223Y-69988778D01*
X92112963Y-69353038D01*
X92134974Y-69334974D01*
X92207079Y-69247115D01*
X92260657Y-69146876D01*
X92283378Y-69071975D01*
X92293651Y-69038112D01*
X92299786Y-68975814D01*
X92302000Y-68953336D01*
X92302000Y-68953331D01*
X92304790Y-68925000D01*
X92302000Y-68896669D01*
X92302000Y-66905362D01*
X92410784Y-66927000D01*
X92410784Y-66927000D01*
G37*
X92410784Y-66927000D02*
X92539216Y-66927000D01*
X92616256Y-66911676D01*
X92543558Y-66984374D01*
X92472205Y-67091162D01*
X92423056Y-67209819D01*
X92398000Y-67335784D01*
X92398000Y-67464216D01*
X92423056Y-67590181D01*
X92472205Y-67708838D01*
X92543558Y-67815626D01*
X92634374Y-67906442D01*
X92741162Y-67977795D01*
X92859819Y-68026944D01*
X92985784Y-68052000D01*
X93114216Y-68052000D01*
X93221088Y-68030742D01*
X93221087Y-75356864D01*
X92427341Y-76150611D01*
X92422433Y-76149635D01*
X92456442Y-76115626D01*
X92527795Y-76008838D01*
X92576944Y-75890181D01*
X92602000Y-75764216D01*
X92602000Y-75635784D01*
X92576944Y-75509819D01*
X92527795Y-75391162D01*
X92456442Y-75284374D01*
X92365626Y-75193558D01*
X92354500Y-75186124D01*
X92354500Y-74650280D01*
X92356457Y-74630410D01*
X92348647Y-74551113D01*
X92325517Y-74474865D01*
X92287957Y-74404595D01*
X92265507Y-74377239D01*
X92237409Y-74343001D01*
X92221975Y-74330335D01*
X91652176Y-73760538D01*
X91639501Y-73745093D01*
X91577907Y-73694545D01*
X91507636Y-73656985D01*
X91431388Y-73633855D01*
X91371962Y-73628002D01*
X91352092Y-73626045D01*
X91332222Y-73628002D01*
X86837999Y-73628002D01*
X90089001Y-70377000D01*
X90539972Y-70377000D01*
X90541162Y-70377795D01*
X90659819Y-70426944D01*
X90785784Y-70452000D01*
X90914216Y-70452000D01*
X91040181Y-70426944D01*
X91158838Y-70377795D01*
X91265626Y-70306442D01*
X91356442Y-70215626D01*
X91427795Y-70108838D01*
X91476944Y-69990181D01*
X91477223Y-69988778D01*
X92112963Y-69353038D01*
X92134974Y-69334974D01*
X92207079Y-69247115D01*
X92260657Y-69146876D01*
X92283378Y-69071975D01*
X92293651Y-69038112D01*
X92299786Y-68975814D01*
X92302000Y-68953336D01*
X92302000Y-68953331D01*
X92304790Y-68925000D01*
X92302000Y-68896669D01*
X92302000Y-66905362D01*
X92410784Y-66927000D01*
G36*
X75561779Y-66463251D02*
G01*
X75559755Y-66473426D01*
X75559755Y-66601858D01*
X75584811Y-66727823D01*
X75633960Y-66846480D01*
X75705313Y-66953268D01*
X75796129Y-67044084D01*
X75902917Y-67115437D01*
X76021574Y-67164586D01*
X76147539Y-67189642D01*
X76275971Y-67189642D01*
X76401936Y-67164586D01*
X76520593Y-67115437D01*
X76627381Y-67044084D01*
X76718197Y-66953268D01*
X76768495Y-66877991D01*
X82184984Y-72294481D01*
X82197655Y-72309921D01*
X82259249Y-72360469D01*
X82329520Y-72398029D01*
X82405768Y-72421159D01*
X82465194Y-72427012D01*
X82465196Y-72427012D01*
X82485063Y-72428969D01*
X82504930Y-72427012D01*
X83729860Y-72427012D01*
X85607318Y-74304471D01*
X85619989Y-74319911D01*
X85681583Y-74370459D01*
X85751854Y-74408019D01*
X85828102Y-74431149D01*
X85887528Y-74437002D01*
X85887530Y-74437002D01*
X85907397Y-74438959D01*
X85927264Y-74437002D01*
X90697096Y-74437002D01*
X90665433Y-74484390D01*
X90616284Y-74603047D01*
X90591228Y-74729012D01*
X90591228Y-74857444D01*
X90593839Y-74870569D01*
X90511407Y-74953001D01*
X83786630Y-74953001D01*
X77993932Y-69160304D01*
X77981256Y-69144858D01*
X77919662Y-69094310D01*
X77849391Y-69056750D01*
X77773143Y-69033620D01*
X77713717Y-69027767D01*
X77693847Y-69025810D01*
X77673977Y-69027767D01*
X76420322Y-69027767D01*
X76462957Y-68975815D01*
X76480441Y-68943105D01*
X76500517Y-68905545D01*
X76523647Y-68829297D01*
X76531457Y-68750000D01*
X76529500Y-68730130D01*
X76529500Y-68044870D01*
X76531457Y-68025000D01*
X76523647Y-67945703D01*
X76500517Y-67869455D01*
X76462957Y-67799185D01*
X76448319Y-67781348D01*
X76412409Y-67737591D01*
X76396974Y-67724924D01*
X73904500Y-65232452D01*
X73904500Y-64805970D01*
X75561779Y-66463251D01*
X75561779Y-66463251D01*
G37*
X75561779Y-66463251D02*
X75559755Y-66473426D01*
X75559755Y-66601858D01*
X75584811Y-66727823D01*
X75633960Y-66846480D01*
X75705313Y-66953268D01*
X75796129Y-67044084D01*
X75902917Y-67115437D01*
X76021574Y-67164586D01*
X76147539Y-67189642D01*
X76275971Y-67189642D01*
X76401936Y-67164586D01*
X76520593Y-67115437D01*
X76627381Y-67044084D01*
X76718197Y-66953268D01*
X76768495Y-66877991D01*
X82184984Y-72294481D01*
X82197655Y-72309921D01*
X82259249Y-72360469D01*
X82329520Y-72398029D01*
X82405768Y-72421159D01*
X82465194Y-72427012D01*
X82465196Y-72427012D01*
X82485063Y-72428969D01*
X82504930Y-72427012D01*
X83729860Y-72427012D01*
X85607318Y-74304471D01*
X85619989Y-74319911D01*
X85681583Y-74370459D01*
X85751854Y-74408019D01*
X85828102Y-74431149D01*
X85887528Y-74437002D01*
X85887530Y-74437002D01*
X85907397Y-74438959D01*
X85927264Y-74437002D01*
X90697096Y-74437002D01*
X90665433Y-74484390D01*
X90616284Y-74603047D01*
X90591228Y-74729012D01*
X90591228Y-74857444D01*
X90593839Y-74870569D01*
X90511407Y-74953001D01*
X83786630Y-74953001D01*
X77993932Y-69160304D01*
X77981256Y-69144858D01*
X77919662Y-69094310D01*
X77849391Y-69056750D01*
X77773143Y-69033620D01*
X77713717Y-69027767D01*
X77693847Y-69025810D01*
X77673977Y-69027767D01*
X76420322Y-69027767D01*
X76462957Y-68975815D01*
X76480441Y-68943105D01*
X76500517Y-68905545D01*
X76523647Y-68829297D01*
X76531457Y-68750000D01*
X76529500Y-68730130D01*
X76529500Y-68044870D01*
X76531457Y-68025000D01*
X76523647Y-67945703D01*
X76500517Y-67869455D01*
X76462957Y-67799185D01*
X76448319Y-67781348D01*
X76412409Y-67737591D01*
X76396974Y-67724924D01*
X73904500Y-65232452D01*
X73904500Y-64805970D01*
X75561779Y-66463251D01*
G36*
X91148000Y-68685999D02*
G01*
X90661222Y-69172777D01*
X90659819Y-69173056D01*
X90541162Y-69222205D01*
X90539972Y-69223000D01*
X89878331Y-69223000D01*
X89850000Y-69220210D01*
X89821669Y-69223000D01*
X89821664Y-69223000D01*
X89794886Y-69225637D01*
X89736888Y-69231349D01*
X89684917Y-69247115D01*
X89628124Y-69264343D01*
X89527885Y-69317921D01*
X89440026Y-69390026D01*
X89421963Y-69412036D01*
X85986222Y-72847777D01*
X85984819Y-72848056D01*
X85866162Y-72897205D01*
X85759374Y-72968558D01*
X85668558Y-73059374D01*
X85603574Y-73156630D01*
X84197493Y-71750549D01*
X84184817Y-71735103D01*
X84123223Y-71684555D01*
X84052952Y-71646995D01*
X83976704Y-71623865D01*
X83917278Y-71618012D01*
X83897408Y-71616055D01*
X83877538Y-71618012D01*
X82652613Y-71618012D01*
X82031612Y-70997011D01*
X85205430Y-70997011D01*
X85322151Y-71113733D01*
X85334901Y-71129269D01*
X85396875Y-71180129D01*
X85467580Y-71217922D01*
X85544300Y-71241195D01*
X85604094Y-71247084D01*
X85604096Y-71247084D01*
X85624086Y-71249053D01*
X85644075Y-71247084D01*
X86688214Y-71247084D01*
X86759477Y-71276602D01*
X86885442Y-71301658D01*
X87013874Y-71301658D01*
X87139839Y-71276602D01*
X87258496Y-71227453D01*
X87365284Y-71156100D01*
X87456100Y-71065284D01*
X87527453Y-70958496D01*
X87576602Y-70839839D01*
X87601658Y-70713874D01*
X87601658Y-70697391D01*
X87665433Y-70697391D01*
X87791398Y-70672335D01*
X87910055Y-70623186D01*
X88016843Y-70551833D01*
X88107659Y-70461017D01*
X88179012Y-70354229D01*
X88228161Y-70235572D01*
X88253217Y-70109607D01*
X88253217Y-69981175D01*
X88228161Y-69855210D01*
X88179012Y-69736553D01*
X88107659Y-69629765D01*
X88032394Y-69554500D01*
X88580130Y-69554500D01*
X88600000Y-69556457D01*
X88679296Y-69548647D01*
X88693863Y-69544228D01*
X88755544Y-69525517D01*
X88825815Y-69487957D01*
X88887409Y-69437409D01*
X88900084Y-69421964D01*
X89221975Y-69100075D01*
X89237409Y-69087409D01*
X89287957Y-69025815D01*
X89323211Y-68959859D01*
X89325517Y-68955545D01*
X89348647Y-68879297D01*
X89356457Y-68800000D01*
X89354500Y-68780130D01*
X89354500Y-66669870D01*
X89356457Y-66650000D01*
X89348647Y-66570703D01*
X89325517Y-66494455D01*
X89296332Y-66439854D01*
X89287957Y-66424185D01*
X89237409Y-66362591D01*
X89221973Y-66349924D01*
X88900084Y-66028036D01*
X88887409Y-66012591D01*
X88825815Y-65962043D01*
X88755544Y-65924483D01*
X88679296Y-65901353D01*
X88619870Y-65895500D01*
X88600000Y-65893543D01*
X88580130Y-65895500D01*
X88019866Y-65895500D01*
X87999999Y-65893543D01*
X87980132Y-65895500D01*
X87980130Y-65895500D01*
X87920704Y-65901353D01*
X87844456Y-65924483D01*
X87774185Y-65962043D01*
X87712591Y-66012591D01*
X87699920Y-66028031D01*
X86707452Y-67020500D01*
X86357499Y-67020500D01*
X86375161Y-66931706D01*
X86375161Y-66803274D01*
X86350105Y-66677309D01*
X86300956Y-66558652D01*
X86229603Y-66451864D01*
X86138787Y-66361048D01*
X86031999Y-66289695D01*
X85913342Y-66240546D01*
X85787377Y-66215490D01*
X85658945Y-66215490D01*
X85532980Y-66240546D01*
X85414323Y-66289695D01*
X85307535Y-66361048D01*
X85216719Y-66451864D01*
X85145366Y-66558652D01*
X85096217Y-66677309D01*
X85071161Y-66803274D01*
X85071161Y-66931706D01*
X85088823Y-67020500D01*
X84732540Y-67020500D01*
X84756619Y-66984463D01*
X84805768Y-66865806D01*
X84830824Y-66739841D01*
X84830824Y-66611409D01*
X84805768Y-66485444D01*
X84756619Y-66366787D01*
X84685266Y-66259999D01*
X84594450Y-66169183D01*
X84487662Y-66097830D01*
X84475809Y-66092920D01*
X84476944Y-66090181D01*
X84502000Y-65964216D01*
X84502000Y-65835784D01*
X84476944Y-65709819D01*
X84427795Y-65591162D01*
X84393042Y-65539151D01*
X84410710Y-65542665D01*
X84539142Y-65542665D01*
X84665107Y-65517609D01*
X84783764Y-65468460D01*
X84890552Y-65397107D01*
X84981368Y-65306291D01*
X85052721Y-65199503D01*
X85101870Y-65080846D01*
X85126926Y-64954881D01*
X85126926Y-64826449D01*
X85101870Y-64700484D01*
X85052721Y-64581827D01*
X84981368Y-64475039D01*
X84890552Y-64384223D01*
X84840700Y-64350913D01*
X91148001Y-64350913D01*
X91148000Y-68685999D01*
X91148000Y-68685999D01*
G37*
X91148000Y-68685999D02*
X90661222Y-69172777D01*
X90659819Y-69173056D01*
X90541162Y-69222205D01*
X90539972Y-69223000D01*
X89878331Y-69223000D01*
X89850000Y-69220210D01*
X89821669Y-69223000D01*
X89821664Y-69223000D01*
X89794886Y-69225637D01*
X89736888Y-69231349D01*
X89684917Y-69247115D01*
X89628124Y-69264343D01*
X89527885Y-69317921D01*
X89440026Y-69390026D01*
X89421963Y-69412036D01*
X85986222Y-72847777D01*
X85984819Y-72848056D01*
X85866162Y-72897205D01*
X85759374Y-72968558D01*
X85668558Y-73059374D01*
X85603574Y-73156630D01*
X84197493Y-71750549D01*
X84184817Y-71735103D01*
X84123223Y-71684555D01*
X84052952Y-71646995D01*
X83976704Y-71623865D01*
X83917278Y-71618012D01*
X83897408Y-71616055D01*
X83877538Y-71618012D01*
X82652613Y-71618012D01*
X82031612Y-70997011D01*
X85205430Y-70997011D01*
X85322151Y-71113733D01*
X85334901Y-71129269D01*
X85396875Y-71180129D01*
X85467580Y-71217922D01*
X85544300Y-71241195D01*
X85604094Y-71247084D01*
X85604096Y-71247084D01*
X85624086Y-71249053D01*
X85644075Y-71247084D01*
X86688214Y-71247084D01*
X86759477Y-71276602D01*
X86885442Y-71301658D01*
X87013874Y-71301658D01*
X87139839Y-71276602D01*
X87258496Y-71227453D01*
X87365284Y-71156100D01*
X87456100Y-71065284D01*
X87527453Y-70958496D01*
X87576602Y-70839839D01*
X87601658Y-70713874D01*
X87601658Y-70697391D01*
X87665433Y-70697391D01*
X87791398Y-70672335D01*
X87910055Y-70623186D01*
X88016843Y-70551833D01*
X88107659Y-70461017D01*
X88179012Y-70354229D01*
X88228161Y-70235572D01*
X88253217Y-70109607D01*
X88253217Y-69981175D01*
X88228161Y-69855210D01*
X88179012Y-69736553D01*
X88107659Y-69629765D01*
X88032394Y-69554500D01*
X88580130Y-69554500D01*
X88600000Y-69556457D01*
X88679296Y-69548647D01*
X88693863Y-69544228D01*
X88755544Y-69525517D01*
X88825815Y-69487957D01*
X88887409Y-69437409D01*
X88900084Y-69421964D01*
X89221975Y-69100075D01*
X89237409Y-69087409D01*
X89287957Y-69025815D01*
X89323211Y-68959859D01*
X89325517Y-68955545D01*
X89348647Y-68879297D01*
X89356457Y-68800000D01*
X89354500Y-68780130D01*
X89354500Y-66669870D01*
X89356457Y-66650000D01*
X89348647Y-66570703D01*
X89325517Y-66494455D01*
X89296332Y-66439854D01*
X89287957Y-66424185D01*
X89237409Y-66362591D01*
X89221973Y-66349924D01*
X88900084Y-66028036D01*
X88887409Y-66012591D01*
X88825815Y-65962043D01*
X88755544Y-65924483D01*
X88679296Y-65901353D01*
X88619870Y-65895500D01*
X88600000Y-65893543D01*
X88580130Y-65895500D01*
X88019866Y-65895500D01*
X87999999Y-65893543D01*
X87980132Y-65895500D01*
X87980130Y-65895500D01*
X87920704Y-65901353D01*
X87844456Y-65924483D01*
X87774185Y-65962043D01*
X87712591Y-66012591D01*
X87699920Y-66028031D01*
X86707452Y-67020500D01*
X86357499Y-67020500D01*
X86375161Y-66931706D01*
X86375161Y-66803274D01*
X86350105Y-66677309D01*
X86300956Y-66558652D01*
X86229603Y-66451864D01*
X86138787Y-66361048D01*
X86031999Y-66289695D01*
X85913342Y-66240546D01*
X85787377Y-66215490D01*
X85658945Y-66215490D01*
X85532980Y-66240546D01*
X85414323Y-66289695D01*
X85307535Y-66361048D01*
X85216719Y-66451864D01*
X85145366Y-66558652D01*
X85096217Y-66677309D01*
X85071161Y-66803274D01*
X85071161Y-66931706D01*
X85088823Y-67020500D01*
X84732540Y-67020500D01*
X84756619Y-66984463D01*
X84805768Y-66865806D01*
X84830824Y-66739841D01*
X84830824Y-66611409D01*
X84805768Y-66485444D01*
X84756619Y-66366787D01*
X84685266Y-66259999D01*
X84594450Y-66169183D01*
X84487662Y-66097830D01*
X84475809Y-66092920D01*
X84476944Y-66090181D01*
X84502000Y-65964216D01*
X84502000Y-65835784D01*
X84476944Y-65709819D01*
X84427795Y-65591162D01*
X84393042Y-65539151D01*
X84410710Y-65542665D01*
X84539142Y-65542665D01*
X84665107Y-65517609D01*
X84783764Y-65468460D01*
X84890552Y-65397107D01*
X84981368Y-65306291D01*
X85052721Y-65199503D01*
X85101870Y-65080846D01*
X85126926Y-64954881D01*
X85126926Y-64826449D01*
X85101870Y-64700484D01*
X85052721Y-64581827D01*
X84981368Y-64475039D01*
X84890552Y-64384223D01*
X84840700Y-64350913D01*
X91148001Y-64350913D01*
X91148000Y-68685999D01*
G36*
X69570500Y-67567550D02*
G01*
X69570501Y-68557449D01*
X68928037Y-69199915D01*
X68912591Y-69212591D01*
X68862043Y-69274186D01*
X68824483Y-69344457D01*
X68810915Y-69389185D01*
X68801353Y-69420704D01*
X68793543Y-69500000D01*
X68795500Y-69519870D01*
X68795501Y-71073453D01*
X68175079Y-70453031D01*
X68175074Y-70453025D01*
X67779499Y-70057451D01*
X67779499Y-69641611D01*
X67833652Y-69677795D01*
X67952309Y-69726944D01*
X68078274Y-69752000D01*
X68206706Y-69752000D01*
X68332671Y-69726944D01*
X68451328Y-69677795D01*
X68558116Y-69606442D01*
X68648932Y-69515626D01*
X68720285Y-69408838D01*
X68769434Y-69290181D01*
X68794490Y-69164216D01*
X68794490Y-69035784D01*
X68769434Y-68909819D01*
X68720285Y-68791162D01*
X68648932Y-68684374D01*
X68558116Y-68593558D01*
X68546054Y-68585498D01*
X68543601Y-68560595D01*
X68520328Y-68483875D01*
X68482535Y-68413170D01*
X68431675Y-68351196D01*
X68416144Y-68338450D01*
X68267001Y-68189308D01*
X68267001Y-66264049D01*
X69570500Y-67567550D01*
X69570500Y-67567550D01*
G37*
X69570500Y-67567550D02*
X69570501Y-68557449D01*
X68928037Y-69199915D01*
X68912591Y-69212591D01*
X68862043Y-69274186D01*
X68824483Y-69344457D01*
X68810915Y-69389185D01*
X68801353Y-69420704D01*
X68793543Y-69500000D01*
X68795500Y-69519870D01*
X68795501Y-71073453D01*
X68175079Y-70453031D01*
X68175074Y-70453025D01*
X67779499Y-70057451D01*
X67779499Y-69641611D01*
X67833652Y-69677795D01*
X67952309Y-69726944D01*
X68078274Y-69752000D01*
X68206706Y-69752000D01*
X68332671Y-69726944D01*
X68451328Y-69677795D01*
X68558116Y-69606442D01*
X68648932Y-69515626D01*
X68720285Y-69408838D01*
X68769434Y-69290181D01*
X68794490Y-69164216D01*
X68794490Y-69035784D01*
X68769434Y-68909819D01*
X68720285Y-68791162D01*
X68648932Y-68684374D01*
X68558116Y-68593558D01*
X68546054Y-68585498D01*
X68543601Y-68560595D01*
X68520328Y-68483875D01*
X68482535Y-68413170D01*
X68431675Y-68351196D01*
X68416144Y-68338450D01*
X68267001Y-68189308D01*
X68267001Y-66264049D01*
X69570500Y-67567550D01*
G36*
X87621487Y-68721213D02*
G01*
X87651081Y-68745500D01*
X86848416Y-68745500D01*
X86828539Y-68743542D01*
X86749242Y-68751353D01*
X86672994Y-68774483D01*
X86641790Y-68791162D01*
X86602724Y-68812043D01*
X86541130Y-68862591D01*
X86528463Y-68878026D01*
X86096025Y-69310465D01*
X86082901Y-69307854D01*
X85954469Y-69307854D01*
X85828504Y-69332910D01*
X85709847Y-69382059D01*
X85603059Y-69453412D01*
X85512243Y-69544228D01*
X85440890Y-69651016D01*
X85391741Y-69769673D01*
X85372183Y-69868000D01*
X81793584Y-69868000D01*
X80633865Y-68708281D01*
X87610874Y-68708281D01*
X87621487Y-68721213D01*
X87621487Y-68721213D01*
G37*
X87621487Y-68721213D02*
X87651081Y-68745500D01*
X86848416Y-68745500D01*
X86828539Y-68743542D01*
X86749242Y-68751353D01*
X86672994Y-68774483D01*
X86641790Y-68791162D01*
X86602724Y-68812043D01*
X86541130Y-68862591D01*
X86528463Y-68878026D01*
X86096025Y-69310465D01*
X86082901Y-69307854D01*
X85954469Y-69307854D01*
X85828504Y-69332910D01*
X85709847Y-69382059D01*
X85603059Y-69453412D01*
X85512243Y-69544228D01*
X85440890Y-69651016D01*
X85391741Y-69769673D01*
X85372183Y-69868000D01*
X81793584Y-69868000D01*
X80633865Y-68708281D01*
X87610874Y-68708281D01*
X87621487Y-68721213D01*
G36*
X90231349Y-54336889D02*
G01*
X90220210Y-54450000D01*
X90223001Y-54478341D01*
X90223000Y-58501269D01*
X90220210Y-58529600D01*
X90223000Y-58557931D01*
X90223000Y-58557935D01*
X90224732Y-58575516D01*
X90231349Y-58642711D01*
X90247384Y-58695569D01*
X90264343Y-58751475D01*
X90317921Y-58851714D01*
X90373000Y-58918828D01*
X90373000Y-59521669D01*
X90370210Y-59550000D01*
X90373000Y-59578331D01*
X90373000Y-59578335D01*
X90374690Y-59595490D01*
X90381349Y-59663111D01*
X90399613Y-59723318D01*
X90414343Y-59771875D01*
X90467921Y-59872114D01*
X90540026Y-59959974D01*
X90562038Y-59978039D01*
X91148001Y-60564002D01*
X91148001Y-63196913D01*
X87206556Y-63196913D01*
X87210864Y-63190465D01*
X87260013Y-63071808D01*
X87285069Y-62945843D01*
X87285069Y-62817411D01*
X87260013Y-62691446D01*
X87210864Y-62572789D01*
X87139511Y-62466001D01*
X87048695Y-62375185D01*
X86941907Y-62303832D01*
X86823250Y-62254683D01*
X86697285Y-62229627D01*
X86568853Y-62229627D01*
X86442888Y-62254683D01*
X86324231Y-62303832D01*
X86217443Y-62375185D01*
X86126627Y-62466001D01*
X86055274Y-62572789D01*
X86006125Y-62691446D01*
X85981069Y-62817411D01*
X85981069Y-62945843D01*
X86006125Y-63071808D01*
X86055274Y-63190465D01*
X86059582Y-63196913D01*
X84455819Y-63196913D01*
X84454629Y-63196118D01*
X84335972Y-63146969D01*
X84278198Y-63135477D01*
X86211425Y-61202250D01*
X86274338Y-61296406D01*
X86365154Y-61387222D01*
X86471942Y-61458575D01*
X86590599Y-61507724D01*
X86716564Y-61532780D01*
X86844996Y-61532780D01*
X86970961Y-61507724D01*
X87089618Y-61458575D01*
X87196406Y-61387222D01*
X87247844Y-61335784D01*
X89398000Y-61335784D01*
X89398000Y-61464216D01*
X89423056Y-61590181D01*
X89472205Y-61708838D01*
X89543558Y-61815626D01*
X89634374Y-61906442D01*
X89741162Y-61977795D01*
X89859819Y-62026944D01*
X89985784Y-62052000D01*
X90114216Y-62052000D01*
X90240181Y-62026944D01*
X90358838Y-61977795D01*
X90465626Y-61906442D01*
X90556442Y-61815626D01*
X90627795Y-61708838D01*
X90676944Y-61590181D01*
X90702000Y-61464216D01*
X90702000Y-61335784D01*
X90676944Y-61209819D01*
X90627795Y-61091162D01*
X90556442Y-60984374D01*
X90465626Y-60893558D01*
X90358838Y-60822205D01*
X90240181Y-60773056D01*
X90114216Y-60748000D01*
X89985784Y-60748000D01*
X89859819Y-60773056D01*
X89741162Y-60822205D01*
X89634374Y-60893558D01*
X89543558Y-60984374D01*
X89472205Y-61091162D01*
X89423056Y-61209819D01*
X89398000Y-61335784D01*
X87247844Y-61335784D01*
X87287222Y-61296406D01*
X87358575Y-61189618D01*
X87407724Y-61070961D01*
X87432780Y-60944996D01*
X87432780Y-60816564D01*
X87407724Y-60690599D01*
X87358575Y-60571942D01*
X87287222Y-60465154D01*
X87196406Y-60374338D01*
X87102250Y-60311426D01*
X88037752Y-59375924D01*
X88091664Y-59347108D01*
X88153258Y-59296560D01*
X88165934Y-59281114D01*
X88842549Y-58604500D01*
X89130130Y-58604500D01*
X89150000Y-58606457D01*
X89229296Y-58598647D01*
X89305544Y-58575517D01*
X89375815Y-58537957D01*
X89437409Y-58487409D01*
X89450085Y-58471963D01*
X89821969Y-58100079D01*
X89837409Y-58087409D01*
X89887957Y-58025815D01*
X89925517Y-57955544D01*
X89948647Y-57879296D01*
X89954500Y-57819870D01*
X89954500Y-57819868D01*
X89956457Y-57800001D01*
X89954500Y-57780134D01*
X89954500Y-56394866D01*
X89956457Y-56374999D01*
X89954098Y-56351047D01*
X89948647Y-56295704D01*
X89925517Y-56219456D01*
X89887957Y-56149185D01*
X89837409Y-56087591D01*
X89821968Y-56074920D01*
X89025085Y-55278037D01*
X89012409Y-55262591D01*
X88950815Y-55212043D01*
X88880544Y-55174483D01*
X88804296Y-55151353D01*
X88744870Y-55145500D01*
X88725000Y-55143543D01*
X88705130Y-55145500D01*
X88560759Y-55145500D01*
X88122612Y-54707354D01*
X88125223Y-54694229D01*
X88125223Y-54565797D01*
X88100167Y-54439832D01*
X88053431Y-54327000D01*
X90234349Y-54327000D01*
X90231349Y-54336889D01*
X90231349Y-54336889D01*
G37*
X90231349Y-54336889D02*
X90220210Y-54450000D01*
X90223001Y-54478341D01*
X90223000Y-58501269D01*
X90220210Y-58529600D01*
X90223000Y-58557931D01*
X90223000Y-58557935D01*
X90224732Y-58575516D01*
X90231349Y-58642711D01*
X90247384Y-58695569D01*
X90264343Y-58751475D01*
X90317921Y-58851714D01*
X90373000Y-58918828D01*
X90373000Y-59521669D01*
X90370210Y-59550000D01*
X90373000Y-59578331D01*
X90373000Y-59578335D01*
X90374690Y-59595490D01*
X90381349Y-59663111D01*
X90399613Y-59723318D01*
X90414343Y-59771875D01*
X90467921Y-59872114D01*
X90540026Y-59959974D01*
X90562038Y-59978039D01*
X91148001Y-60564002D01*
X91148001Y-63196913D01*
X87206556Y-63196913D01*
X87210864Y-63190465D01*
X87260013Y-63071808D01*
X87285069Y-62945843D01*
X87285069Y-62817411D01*
X87260013Y-62691446D01*
X87210864Y-62572789D01*
X87139511Y-62466001D01*
X87048695Y-62375185D01*
X86941907Y-62303832D01*
X86823250Y-62254683D01*
X86697285Y-62229627D01*
X86568853Y-62229627D01*
X86442888Y-62254683D01*
X86324231Y-62303832D01*
X86217443Y-62375185D01*
X86126627Y-62466001D01*
X86055274Y-62572789D01*
X86006125Y-62691446D01*
X85981069Y-62817411D01*
X85981069Y-62945843D01*
X86006125Y-63071808D01*
X86055274Y-63190465D01*
X86059582Y-63196913D01*
X84455819Y-63196913D01*
X84454629Y-63196118D01*
X84335972Y-63146969D01*
X84278198Y-63135477D01*
X86211425Y-61202250D01*
X86274338Y-61296406D01*
X86365154Y-61387222D01*
X86471942Y-61458575D01*
X86590599Y-61507724D01*
X86716564Y-61532780D01*
X86844996Y-61532780D01*
X86970961Y-61507724D01*
X87089618Y-61458575D01*
X87196406Y-61387222D01*
X87247844Y-61335784D01*
X89398000Y-61335784D01*
X89398000Y-61464216D01*
X89423056Y-61590181D01*
X89472205Y-61708838D01*
X89543558Y-61815626D01*
X89634374Y-61906442D01*
X89741162Y-61977795D01*
X89859819Y-62026944D01*
X89985784Y-62052000D01*
X90114216Y-62052000D01*
X90240181Y-62026944D01*
X90358838Y-61977795D01*
X90465626Y-61906442D01*
X90556442Y-61815626D01*
X90627795Y-61708838D01*
X90676944Y-61590181D01*
X90702000Y-61464216D01*
X90702000Y-61335784D01*
X90676944Y-61209819D01*
X90627795Y-61091162D01*
X90556442Y-60984374D01*
X90465626Y-60893558D01*
X90358838Y-60822205D01*
X90240181Y-60773056D01*
X90114216Y-60748000D01*
X89985784Y-60748000D01*
X89859819Y-60773056D01*
X89741162Y-60822205D01*
X89634374Y-60893558D01*
X89543558Y-60984374D01*
X89472205Y-61091162D01*
X89423056Y-61209819D01*
X89398000Y-61335784D01*
X87247844Y-61335784D01*
X87287222Y-61296406D01*
X87358575Y-61189618D01*
X87407724Y-61070961D01*
X87432780Y-60944996D01*
X87432780Y-60816564D01*
X87407724Y-60690599D01*
X87358575Y-60571942D01*
X87287222Y-60465154D01*
X87196406Y-60374338D01*
X87102250Y-60311426D01*
X88037752Y-59375924D01*
X88091664Y-59347108D01*
X88153258Y-59296560D01*
X88165934Y-59281114D01*
X88842549Y-58604500D01*
X89130130Y-58604500D01*
X89150000Y-58606457D01*
X89229296Y-58598647D01*
X89305544Y-58575517D01*
X89375815Y-58537957D01*
X89437409Y-58487409D01*
X89450085Y-58471963D01*
X89821969Y-58100079D01*
X89837409Y-58087409D01*
X89887957Y-58025815D01*
X89925517Y-57955544D01*
X89948647Y-57879296D01*
X89954500Y-57819870D01*
X89954500Y-57819868D01*
X89956457Y-57800001D01*
X89954500Y-57780134D01*
X89954500Y-56394866D01*
X89956457Y-56374999D01*
X89954098Y-56351047D01*
X89948647Y-56295704D01*
X89925517Y-56219456D01*
X89887957Y-56149185D01*
X89837409Y-56087591D01*
X89821968Y-56074920D01*
X89025085Y-55278037D01*
X89012409Y-55262591D01*
X88950815Y-55212043D01*
X88880544Y-55174483D01*
X88804296Y-55151353D01*
X88744870Y-55145500D01*
X88725000Y-55143543D01*
X88705130Y-55145500D01*
X88560759Y-55145500D01*
X88122612Y-54707354D01*
X88125223Y-54694229D01*
X88125223Y-54565797D01*
X88100167Y-54439832D01*
X88053431Y-54327000D01*
X90234349Y-54327000D01*
X90231349Y-54336889D01*
G36*
X68942211Y-56361095D02*
G01*
X68915546Y-56425470D01*
X68890490Y-56551435D01*
X68890490Y-56679867D01*
X68915546Y-56805832D01*
X68964695Y-56924489D01*
X69036048Y-57031277D01*
X69126864Y-57122093D01*
X69233652Y-57193446D01*
X69352309Y-57242595D01*
X69478274Y-57267651D01*
X69606706Y-57267651D01*
X69695501Y-57249989D01*
X69695501Y-62732450D01*
X69549123Y-62878829D01*
X69526944Y-62767329D01*
X69477795Y-62648672D01*
X69406442Y-62541884D01*
X69315626Y-62451068D01*
X69208838Y-62379715D01*
X69090181Y-62330566D01*
X68964216Y-62305510D01*
X68835784Y-62305510D01*
X68822659Y-62308121D01*
X68644379Y-62129840D01*
X68755784Y-62152000D01*
X68884216Y-62152000D01*
X69010181Y-62126944D01*
X69128838Y-62077795D01*
X69235626Y-62006442D01*
X69326442Y-61915626D01*
X69397795Y-61808838D01*
X69446944Y-61690181D01*
X69472000Y-61564216D01*
X69472000Y-61435784D01*
X69446944Y-61309819D01*
X69397795Y-61191162D01*
X69326442Y-61084374D01*
X69235626Y-60993558D01*
X69128838Y-60922205D01*
X69084881Y-60903998D01*
X69173136Y-60845028D01*
X69263952Y-60754212D01*
X69335305Y-60647424D01*
X69384454Y-60528767D01*
X69409510Y-60402802D01*
X69409510Y-60274370D01*
X69384454Y-60148405D01*
X69335305Y-60029748D01*
X69263952Y-59922960D01*
X69173136Y-59832144D01*
X69158385Y-59822287D01*
X69156157Y-59799671D01*
X69146999Y-59769482D01*
X69146999Y-57929262D01*
X69148956Y-57909392D01*
X69141146Y-57830095D01*
X69130651Y-57795500D01*
X69118016Y-57753848D01*
X69080456Y-57683577D01*
X69029908Y-57621983D01*
X69014469Y-57609313D01*
X68677034Y-57271879D01*
X68677034Y-55274577D01*
X68678991Y-55254707D01*
X68671181Y-55175410D01*
X68662107Y-55145500D01*
X68648051Y-55099163D01*
X68610491Y-55028892D01*
X68559943Y-54967298D01*
X68544509Y-54954632D01*
X68216248Y-54626372D01*
X68216248Y-54444946D01*
X68894508Y-53766688D01*
X68909943Y-53754021D01*
X68942210Y-53714702D01*
X68942211Y-56361095D01*
X68942211Y-56361095D01*
G37*
X68942211Y-56361095D02*
X68915546Y-56425470D01*
X68890490Y-56551435D01*
X68890490Y-56679867D01*
X68915546Y-56805832D01*
X68964695Y-56924489D01*
X69036048Y-57031277D01*
X69126864Y-57122093D01*
X69233652Y-57193446D01*
X69352309Y-57242595D01*
X69478274Y-57267651D01*
X69606706Y-57267651D01*
X69695501Y-57249989D01*
X69695501Y-62732450D01*
X69549123Y-62878829D01*
X69526944Y-62767329D01*
X69477795Y-62648672D01*
X69406442Y-62541884D01*
X69315626Y-62451068D01*
X69208838Y-62379715D01*
X69090181Y-62330566D01*
X68964216Y-62305510D01*
X68835784Y-62305510D01*
X68822659Y-62308121D01*
X68644379Y-62129840D01*
X68755784Y-62152000D01*
X68884216Y-62152000D01*
X69010181Y-62126944D01*
X69128838Y-62077795D01*
X69235626Y-62006442D01*
X69326442Y-61915626D01*
X69397795Y-61808838D01*
X69446944Y-61690181D01*
X69472000Y-61564216D01*
X69472000Y-61435784D01*
X69446944Y-61309819D01*
X69397795Y-61191162D01*
X69326442Y-61084374D01*
X69235626Y-60993558D01*
X69128838Y-60922205D01*
X69084881Y-60903998D01*
X69173136Y-60845028D01*
X69263952Y-60754212D01*
X69335305Y-60647424D01*
X69384454Y-60528767D01*
X69409510Y-60402802D01*
X69409510Y-60274370D01*
X69384454Y-60148405D01*
X69335305Y-60029748D01*
X69263952Y-59922960D01*
X69173136Y-59832144D01*
X69158385Y-59822287D01*
X69156157Y-59799671D01*
X69146999Y-59769482D01*
X69146999Y-57929262D01*
X69148956Y-57909392D01*
X69141146Y-57830095D01*
X69130651Y-57795500D01*
X69118016Y-57753848D01*
X69080456Y-57683577D01*
X69029908Y-57621983D01*
X69014469Y-57609313D01*
X68677034Y-57271879D01*
X68677034Y-55274577D01*
X68678991Y-55254707D01*
X68671181Y-55175410D01*
X68662107Y-55145500D01*
X68648051Y-55099163D01*
X68610491Y-55028892D01*
X68559943Y-54967298D01*
X68544509Y-54954632D01*
X68216248Y-54626372D01*
X68216248Y-54444946D01*
X68894508Y-53766688D01*
X68909943Y-53754021D01*
X68942210Y-53714702D01*
X68942211Y-56361095D01*
G36*
X71692095Y-43555191D02*
G01*
X71741244Y-43673848D01*
X71812597Y-43780636D01*
X71903413Y-43871452D01*
X71912039Y-43877216D01*
X71912040Y-47299040D01*
X71910070Y-47319039D01*
X71916645Y-47385784D01*
X71917929Y-47398825D01*
X71918699Y-47401363D01*
X71941201Y-47475544D01*
X71978994Y-47546250D01*
X71992645Y-47562883D01*
X72029855Y-47608224D01*
X72045390Y-47620973D01*
X72702749Y-48278334D01*
X72702760Y-48278343D01*
X72726345Y-48301928D01*
X72746061Y-48318109D01*
X73975951Y-49548000D01*
X73955804Y-49548000D01*
X73829839Y-49573056D01*
X73711182Y-49622205D01*
X73604394Y-49693558D01*
X73513578Y-49784374D01*
X73442225Y-49891162D01*
X73393076Y-50009819D01*
X73368020Y-50135784D01*
X73368020Y-50264216D01*
X73370631Y-50277341D01*
X73153032Y-50494940D01*
X73137592Y-50507611D01*
X73097506Y-50556457D01*
X73087044Y-50569205D01*
X73049484Y-50639476D01*
X73026353Y-50715724D01*
X73018543Y-50795020D01*
X73020501Y-50814900D01*
X73020500Y-59632450D01*
X72303032Y-60349920D01*
X72287592Y-60362591D01*
X72238669Y-60422205D01*
X72237044Y-60424185D01*
X72199484Y-60494456D01*
X72176353Y-60570704D01*
X72168543Y-60650000D01*
X72170501Y-60669879D01*
X72170500Y-61180130D01*
X72168543Y-61200000D01*
X72176353Y-61279296D01*
X72178199Y-61285380D01*
X72199483Y-61355543D01*
X72237043Y-61425814D01*
X72287591Y-61487409D01*
X72303037Y-61500085D01*
X73095501Y-62292551D01*
X73095501Y-62575260D01*
X73090181Y-62573056D01*
X72964216Y-62548000D01*
X72835784Y-62548000D01*
X72822659Y-62550611D01*
X72164489Y-61892441D01*
X72164489Y-57001820D01*
X72253274Y-57019480D01*
X72381706Y-57019480D01*
X72507671Y-56994424D01*
X72626328Y-56945275D01*
X72733116Y-56873922D01*
X72823932Y-56783106D01*
X72895285Y-56676318D01*
X72944434Y-56557661D01*
X72969490Y-56431696D01*
X72969490Y-56303264D01*
X72944434Y-56177299D01*
X72895285Y-56058642D01*
X72823932Y-55951854D01*
X72733116Y-55861038D01*
X72626328Y-55789685D01*
X72507671Y-55740536D01*
X72381706Y-55715480D01*
X72253274Y-55715480D01*
X72164489Y-55733140D01*
X72164489Y-55103664D01*
X72205092Y-55054188D01*
X72242652Y-54983917D01*
X72265782Y-54907669D01*
X72268010Y-54885053D01*
X72282761Y-54875196D01*
X72373577Y-54784380D01*
X72444930Y-54677592D01*
X72494079Y-54558935D01*
X72519135Y-54432970D01*
X72519135Y-54304538D01*
X72494079Y-54178573D01*
X72444930Y-54059916D01*
X72373577Y-53953128D01*
X72282761Y-53862312D01*
X72175973Y-53790959D01*
X72057316Y-53741810D01*
X71931351Y-53716754D01*
X71802919Y-53716754D01*
X71676954Y-53741810D01*
X71558297Y-53790959D01*
X71479480Y-53843622D01*
X71479480Y-47648446D01*
X71482271Y-47620107D01*
X71471131Y-47506995D01*
X71438137Y-47398230D01*
X71416221Y-47357229D01*
X71384559Y-47297992D01*
X71312454Y-47210133D01*
X71290443Y-47192069D01*
X69504959Y-45406585D01*
X69572715Y-45393107D01*
X69691372Y-45343958D01*
X69798160Y-45272605D01*
X69888976Y-45181789D01*
X69960329Y-45075001D01*
X70009478Y-44956344D01*
X70030996Y-44848164D01*
X70138847Y-44848164D01*
X70158836Y-44850133D01*
X70178825Y-44848164D01*
X70178828Y-44848164D01*
X70238622Y-44842275D01*
X70315342Y-44819002D01*
X70386047Y-44781209D01*
X70448021Y-44730349D01*
X70460775Y-44714808D01*
X71680199Y-43495385D01*
X71692095Y-43555191D01*
X71692095Y-43555191D01*
G37*
X71692095Y-43555191D02*
X71741244Y-43673848D01*
X71812597Y-43780636D01*
X71903413Y-43871452D01*
X71912039Y-43877216D01*
X71912040Y-47299040D01*
X71910070Y-47319039D01*
X71916645Y-47385784D01*
X71917929Y-47398825D01*
X71918699Y-47401363D01*
X71941201Y-47475544D01*
X71978994Y-47546250D01*
X71992645Y-47562883D01*
X72029855Y-47608224D01*
X72045390Y-47620973D01*
X72702749Y-48278334D01*
X72702760Y-48278343D01*
X72726345Y-48301928D01*
X72746061Y-48318109D01*
X73975951Y-49548000D01*
X73955804Y-49548000D01*
X73829839Y-49573056D01*
X73711182Y-49622205D01*
X73604394Y-49693558D01*
X73513578Y-49784374D01*
X73442225Y-49891162D01*
X73393076Y-50009819D01*
X73368020Y-50135784D01*
X73368020Y-50264216D01*
X73370631Y-50277341D01*
X73153032Y-50494940D01*
X73137592Y-50507611D01*
X73097506Y-50556457D01*
X73087044Y-50569205D01*
X73049484Y-50639476D01*
X73026353Y-50715724D01*
X73018543Y-50795020D01*
X73020501Y-50814900D01*
X73020500Y-59632450D01*
X72303032Y-60349920D01*
X72287592Y-60362591D01*
X72238669Y-60422205D01*
X72237044Y-60424185D01*
X72199484Y-60494456D01*
X72176353Y-60570704D01*
X72168543Y-60650000D01*
X72170501Y-60669879D01*
X72170500Y-61180130D01*
X72168543Y-61200000D01*
X72176353Y-61279296D01*
X72178199Y-61285380D01*
X72199483Y-61355543D01*
X72237043Y-61425814D01*
X72287591Y-61487409D01*
X72303037Y-61500085D01*
X73095501Y-62292551D01*
X73095501Y-62575260D01*
X73090181Y-62573056D01*
X72964216Y-62548000D01*
X72835784Y-62548000D01*
X72822659Y-62550611D01*
X72164489Y-61892441D01*
X72164489Y-57001820D01*
X72253274Y-57019480D01*
X72381706Y-57019480D01*
X72507671Y-56994424D01*
X72626328Y-56945275D01*
X72733116Y-56873922D01*
X72823932Y-56783106D01*
X72895285Y-56676318D01*
X72944434Y-56557661D01*
X72969490Y-56431696D01*
X72969490Y-56303264D01*
X72944434Y-56177299D01*
X72895285Y-56058642D01*
X72823932Y-55951854D01*
X72733116Y-55861038D01*
X72626328Y-55789685D01*
X72507671Y-55740536D01*
X72381706Y-55715480D01*
X72253274Y-55715480D01*
X72164489Y-55733140D01*
X72164489Y-55103664D01*
X72205092Y-55054188D01*
X72242652Y-54983917D01*
X72265782Y-54907669D01*
X72268010Y-54885053D01*
X72282761Y-54875196D01*
X72373577Y-54784380D01*
X72444930Y-54677592D01*
X72494079Y-54558935D01*
X72519135Y-54432970D01*
X72519135Y-54304538D01*
X72494079Y-54178573D01*
X72444930Y-54059916D01*
X72373577Y-53953128D01*
X72282761Y-53862312D01*
X72175973Y-53790959D01*
X72057316Y-53741810D01*
X71931351Y-53716754D01*
X71802919Y-53716754D01*
X71676954Y-53741810D01*
X71558297Y-53790959D01*
X71479480Y-53843622D01*
X71479480Y-47648446D01*
X71482271Y-47620107D01*
X71471131Y-47506995D01*
X71438137Y-47398230D01*
X71416221Y-47357229D01*
X71384559Y-47297992D01*
X71312454Y-47210133D01*
X71290443Y-47192069D01*
X69504959Y-45406585D01*
X69572715Y-45393107D01*
X69691372Y-45343958D01*
X69798160Y-45272605D01*
X69888976Y-45181789D01*
X69960329Y-45075001D01*
X70009478Y-44956344D01*
X70030996Y-44848164D01*
X70138847Y-44848164D01*
X70158836Y-44850133D01*
X70178825Y-44848164D01*
X70178828Y-44848164D01*
X70238622Y-44842275D01*
X70315342Y-44819002D01*
X70386047Y-44781209D01*
X70448021Y-44730349D01*
X70460775Y-44714808D01*
X71680199Y-43495385D01*
X71692095Y-43555191D01*
G36*
X84719994Y-56091346D02*
G01*
X84791347Y-56198134D01*
X84882163Y-56288950D01*
X84988951Y-56360303D01*
X85107608Y-56409452D01*
X85233573Y-56434508D01*
X85362005Y-56434508D01*
X85487970Y-56409452D01*
X85495500Y-56406333D01*
X85495500Y-59132451D01*
X85446726Y-59181225D01*
X85466384Y-59082397D01*
X85466384Y-58953965D01*
X85441328Y-58828000D01*
X85392179Y-58709343D01*
X85320826Y-58602555D01*
X85230010Y-58511739D01*
X85123222Y-58440386D01*
X85004565Y-58391237D01*
X84878600Y-58366181D01*
X84750168Y-58366181D01*
X84662932Y-58383533D01*
X84629522Y-58302875D01*
X84558169Y-58196087D01*
X84467353Y-58105271D01*
X84360565Y-58033918D01*
X84241908Y-57984769D01*
X84115943Y-57959713D01*
X83987511Y-57959713D01*
X83861546Y-57984769D01*
X83742889Y-58033918D01*
X83636101Y-58105271D01*
X83545285Y-58196087D01*
X83473932Y-58302875D01*
X83424783Y-58421532D01*
X83399727Y-58547497D01*
X83399727Y-58675929D01*
X83424783Y-58801894D01*
X83473932Y-58920551D01*
X83545285Y-59027339D01*
X83636101Y-59118155D01*
X83742889Y-59189508D01*
X83861546Y-59238657D01*
X83987511Y-59263713D01*
X84115943Y-59263713D01*
X84203179Y-59246361D01*
X84236589Y-59327019D01*
X84307942Y-59433807D01*
X84398758Y-59524623D01*
X84505546Y-59595976D01*
X84624203Y-59645125D01*
X84750168Y-59670181D01*
X84878600Y-59670181D01*
X84977429Y-59650523D01*
X84292463Y-60335489D01*
X83705387Y-60335489D01*
X83680003Y-60332989D01*
X83337393Y-60332989D01*
X83317404Y-60331020D01*
X83297414Y-60332989D01*
X83297412Y-60332989D01*
X83237618Y-60338878D01*
X83160898Y-60362151D01*
X83090193Y-60399944D01*
X83028219Y-60450804D01*
X83015469Y-60466340D01*
X82823335Y-60658475D01*
X82813158Y-60656451D01*
X82684726Y-60656451D01*
X82558761Y-60681507D01*
X82440104Y-60730656D01*
X82333316Y-60802009D01*
X82242500Y-60892825D01*
X82171147Y-60999613D01*
X82121998Y-61118270D01*
X82119112Y-61132778D01*
X82049557Y-61063223D01*
X81942769Y-60991870D01*
X81933016Y-60987830D01*
X82613653Y-60307194D01*
X82629182Y-60294450D01*
X82662513Y-60253836D01*
X82680042Y-60232477D01*
X82717835Y-60161771D01*
X82721430Y-60149919D01*
X82727342Y-60130432D01*
X82835782Y-60152002D01*
X82964214Y-60152002D01*
X83090179Y-60126946D01*
X83208836Y-60077797D01*
X83315624Y-60006444D01*
X83406440Y-59915628D01*
X83477793Y-59808840D01*
X83526942Y-59690183D01*
X83551998Y-59564218D01*
X83551998Y-59435786D01*
X83526942Y-59309821D01*
X83477793Y-59191164D01*
X83406440Y-59084376D01*
X83315624Y-58993560D01*
X83208836Y-58922207D01*
X83090179Y-58873058D01*
X82964214Y-58848002D01*
X82835782Y-58848002D01*
X82746997Y-58865662D01*
X82746997Y-57940617D01*
X82748966Y-57920627D01*
X82746237Y-57892919D01*
X82741108Y-57840841D01*
X82717835Y-57764121D01*
X82702013Y-57734520D01*
X82710302Y-57731087D01*
X82755184Y-57701098D01*
X82804951Y-57775581D01*
X82895767Y-57866397D01*
X83002555Y-57937750D01*
X83121212Y-57986899D01*
X83247177Y-58011955D01*
X83375609Y-58011955D01*
X83501574Y-57986899D01*
X83620231Y-57937750D01*
X83727019Y-57866397D01*
X83817835Y-57775581D01*
X83870408Y-57696900D01*
X83872509Y-57697770D01*
X83998474Y-57722826D01*
X84126906Y-57722826D01*
X84252871Y-57697770D01*
X84371528Y-57648621D01*
X84478316Y-57577268D01*
X84569132Y-57486452D01*
X84640485Y-57379664D01*
X84689634Y-57261007D01*
X84714690Y-57135042D01*
X84714690Y-57006610D01*
X84689634Y-56880645D01*
X84640485Y-56761988D01*
X84569132Y-56655200D01*
X84478316Y-56564384D01*
X84371528Y-56493031D01*
X84316907Y-56470406D01*
X84712957Y-56074357D01*
X84719994Y-56091346D01*
X84719994Y-56091346D01*
G37*
X84719994Y-56091346D02*
X84791347Y-56198134D01*
X84882163Y-56288950D01*
X84988951Y-56360303D01*
X85107608Y-56409452D01*
X85233573Y-56434508D01*
X85362005Y-56434508D01*
X85487970Y-56409452D01*
X85495500Y-56406333D01*
X85495500Y-59132451D01*
X85446726Y-59181225D01*
X85466384Y-59082397D01*
X85466384Y-58953965D01*
X85441328Y-58828000D01*
X85392179Y-58709343D01*
X85320826Y-58602555D01*
X85230010Y-58511739D01*
X85123222Y-58440386D01*
X85004565Y-58391237D01*
X84878600Y-58366181D01*
X84750168Y-58366181D01*
X84662932Y-58383533D01*
X84629522Y-58302875D01*
X84558169Y-58196087D01*
X84467353Y-58105271D01*
X84360565Y-58033918D01*
X84241908Y-57984769D01*
X84115943Y-57959713D01*
X83987511Y-57959713D01*
X83861546Y-57984769D01*
X83742889Y-58033918D01*
X83636101Y-58105271D01*
X83545285Y-58196087D01*
X83473932Y-58302875D01*
X83424783Y-58421532D01*
X83399727Y-58547497D01*
X83399727Y-58675929D01*
X83424783Y-58801894D01*
X83473932Y-58920551D01*
X83545285Y-59027339D01*
X83636101Y-59118155D01*
X83742889Y-59189508D01*
X83861546Y-59238657D01*
X83987511Y-59263713D01*
X84115943Y-59263713D01*
X84203179Y-59246361D01*
X84236589Y-59327019D01*
X84307942Y-59433807D01*
X84398758Y-59524623D01*
X84505546Y-59595976D01*
X84624203Y-59645125D01*
X84750168Y-59670181D01*
X84878600Y-59670181D01*
X84977429Y-59650523D01*
X84292463Y-60335489D01*
X83705387Y-60335489D01*
X83680003Y-60332989D01*
X83337393Y-60332989D01*
X83317404Y-60331020D01*
X83297414Y-60332989D01*
X83297412Y-60332989D01*
X83237618Y-60338878D01*
X83160898Y-60362151D01*
X83090193Y-60399944D01*
X83028219Y-60450804D01*
X83015469Y-60466340D01*
X82823335Y-60658475D01*
X82813158Y-60656451D01*
X82684726Y-60656451D01*
X82558761Y-60681507D01*
X82440104Y-60730656D01*
X82333316Y-60802009D01*
X82242500Y-60892825D01*
X82171147Y-60999613D01*
X82121998Y-61118270D01*
X82119112Y-61132778D01*
X82049557Y-61063223D01*
X81942769Y-60991870D01*
X81933016Y-60987830D01*
X82613653Y-60307194D01*
X82629182Y-60294450D01*
X82662513Y-60253836D01*
X82680042Y-60232477D01*
X82717835Y-60161771D01*
X82721430Y-60149919D01*
X82727342Y-60130432D01*
X82835782Y-60152002D01*
X82964214Y-60152002D01*
X83090179Y-60126946D01*
X83208836Y-60077797D01*
X83315624Y-60006444D01*
X83406440Y-59915628D01*
X83477793Y-59808840D01*
X83526942Y-59690183D01*
X83551998Y-59564218D01*
X83551998Y-59435786D01*
X83526942Y-59309821D01*
X83477793Y-59191164D01*
X83406440Y-59084376D01*
X83315624Y-58993560D01*
X83208836Y-58922207D01*
X83090179Y-58873058D01*
X82964214Y-58848002D01*
X82835782Y-58848002D01*
X82746997Y-58865662D01*
X82746997Y-57940617D01*
X82748966Y-57920627D01*
X82746237Y-57892919D01*
X82741108Y-57840841D01*
X82717835Y-57764121D01*
X82702013Y-57734520D01*
X82710302Y-57731087D01*
X82755184Y-57701098D01*
X82804951Y-57775581D01*
X82895767Y-57866397D01*
X83002555Y-57937750D01*
X83121212Y-57986899D01*
X83247177Y-58011955D01*
X83375609Y-58011955D01*
X83501574Y-57986899D01*
X83620231Y-57937750D01*
X83727019Y-57866397D01*
X83817835Y-57775581D01*
X83870408Y-57696900D01*
X83872509Y-57697770D01*
X83998474Y-57722826D01*
X84126906Y-57722826D01*
X84252871Y-57697770D01*
X84371528Y-57648621D01*
X84478316Y-57577268D01*
X84569132Y-57486452D01*
X84640485Y-57379664D01*
X84689634Y-57261007D01*
X84714690Y-57135042D01*
X84714690Y-57006610D01*
X84689634Y-56880645D01*
X84640485Y-56761988D01*
X84569132Y-56655200D01*
X84478316Y-56564384D01*
X84371528Y-56493031D01*
X84316907Y-56470406D01*
X84712957Y-56074357D01*
X84719994Y-56091346D01*
G36*
X78043001Y-39372282D02*
G01*
X77316354Y-40098931D01*
X77300813Y-40111685D01*
X77269370Y-40150000D01*
X77249953Y-40173659D01*
X77216434Y-40236369D01*
X77212160Y-40244365D01*
X77188887Y-40321085D01*
X77183526Y-40375517D01*
X77181029Y-40400870D01*
X77182998Y-40420860D01*
X77182999Y-42216417D01*
X76785572Y-42613845D01*
X76769394Y-42633557D01*
X76478032Y-42924920D01*
X76462592Y-42937591D01*
X76424667Y-42983804D01*
X76412044Y-42999185D01*
X76374484Y-43069456D01*
X76351353Y-43145704D01*
X76343543Y-43225000D01*
X76345501Y-43244879D01*
X76345500Y-43905130D01*
X76345500Y-43905131D01*
X76345501Y-45432449D01*
X75736066Y-46041886D01*
X75700814Y-46070816D01*
X75649954Y-46132791D01*
X75612161Y-46203496D01*
X75588888Y-46280216D01*
X75582999Y-46340010D01*
X75583000Y-47048802D01*
X75581030Y-47068801D01*
X75585490Y-47114079D01*
X75585491Y-50716673D01*
X75575894Y-50728368D01*
X75559955Y-50747789D01*
X75527107Y-50809243D01*
X75522162Y-50818495D01*
X75498889Y-50895215D01*
X75493685Y-50948056D01*
X75491031Y-50975000D01*
X75493000Y-50994990D01*
X75493001Y-52280009D01*
X75491031Y-52300008D01*
X75496942Y-52360016D01*
X75498890Y-52379794D01*
X75502267Y-52390925D01*
X75522162Y-52456513D01*
X75559955Y-52527219D01*
X75577833Y-52549003D01*
X75585490Y-52558333D01*
X75585491Y-54772825D01*
X75576864Y-54778589D01*
X75486048Y-54869405D01*
X75414695Y-54976193D01*
X75365546Y-55094850D01*
X75340490Y-55220815D01*
X75340490Y-55349247D01*
X75365546Y-55475212D01*
X75414695Y-55593869D01*
X75486048Y-55700657D01*
X75576864Y-55791473D01*
X75683652Y-55862826D01*
X75802309Y-55911975D01*
X75928274Y-55937031D01*
X76040921Y-55937031D01*
X75878032Y-56099920D01*
X75862592Y-56112591D01*
X75817115Y-56168006D01*
X75812044Y-56174185D01*
X75774484Y-56244456D01*
X75751353Y-56320704D01*
X75743543Y-56400000D01*
X75745501Y-56419880D01*
X75745501Y-57098452D01*
X74704500Y-56057452D01*
X74704500Y-54870376D01*
X74707000Y-54844992D01*
X74707000Y-51355664D01*
X75163688Y-50898978D01*
X75179218Y-50886233D01*
X75230078Y-50824259D01*
X75267871Y-50753554D01*
X75291144Y-50676834D01*
X75297033Y-50617040D01*
X75297033Y-50617038D01*
X75299002Y-50597048D01*
X75297033Y-50577059D01*
X75297033Y-49360023D01*
X75299002Y-49340033D01*
X75295695Y-49306457D01*
X75291144Y-49260247D01*
X75267871Y-49183527D01*
X75230078Y-49112822D01*
X75179218Y-49050848D01*
X75163689Y-49038104D01*
X74036281Y-47910698D01*
X74038178Y-47909912D01*
X74144966Y-47838559D01*
X74235782Y-47747743D01*
X74307135Y-47640955D01*
X74356284Y-47522298D01*
X74381340Y-47396333D01*
X74381340Y-47267901D01*
X74356284Y-47141936D01*
X74307135Y-47023279D01*
X74235782Y-46916491D01*
X74144966Y-46825675D01*
X74038178Y-46754322D01*
X73919521Y-46705173D01*
X73793556Y-46680117D01*
X73665124Y-46680117D01*
X73576339Y-46697777D01*
X73576339Y-46219690D01*
X74002663Y-45793368D01*
X74015787Y-45795978D01*
X74144219Y-45795978D01*
X74270184Y-45770922D01*
X74388841Y-45721773D01*
X74495629Y-45650420D01*
X74586445Y-45559604D01*
X74657798Y-45452816D01*
X74706947Y-45334159D01*
X74732003Y-45208194D01*
X74732003Y-45079762D01*
X74706947Y-44953797D01*
X74657798Y-44835140D01*
X74586445Y-44728352D01*
X74495629Y-44637536D01*
X74388841Y-44566183D01*
X74270184Y-44517034D01*
X74144219Y-44491978D01*
X74015787Y-44491978D01*
X73889822Y-44517034D01*
X73771165Y-44566183D01*
X73664377Y-44637536D01*
X73573561Y-44728352D01*
X73502208Y-44835140D01*
X73453059Y-44953797D01*
X73428003Y-45079762D01*
X73428003Y-45208194D01*
X73430613Y-45221318D01*
X72899871Y-45752062D01*
X72884431Y-45764733D01*
X72848236Y-45808838D01*
X72833883Y-45826327D01*
X72796323Y-45896598D01*
X72773192Y-45972846D01*
X72765382Y-46052142D01*
X72767340Y-46072022D01*
X72767339Y-47191756D01*
X72726039Y-47150456D01*
X72726039Y-43877216D01*
X72734665Y-43871452D01*
X72825481Y-43780636D01*
X72896834Y-43673848D01*
X72945983Y-43555191D01*
X72971039Y-43429226D01*
X72971039Y-43300794D01*
X72945983Y-43174829D01*
X72896834Y-43056172D01*
X72880683Y-43032000D01*
X75187794Y-43032000D01*
X75193558Y-43040626D01*
X75284374Y-43131442D01*
X75391162Y-43202795D01*
X75509819Y-43251944D01*
X75635784Y-43277000D01*
X75764216Y-43277000D01*
X75890181Y-43251944D01*
X76008838Y-43202795D01*
X76115626Y-43131442D01*
X76206442Y-43040626D01*
X76277795Y-42933838D01*
X76326944Y-42815181D01*
X76343084Y-42734042D01*
X76358557Y-42734042D01*
X76484522Y-42708986D01*
X76603179Y-42659837D01*
X76709967Y-42588484D01*
X76800783Y-42497668D01*
X76872136Y-42390880D01*
X76921285Y-42272223D01*
X76946341Y-42146258D01*
X76946341Y-42017826D01*
X76921285Y-41891861D01*
X76872136Y-41773204D01*
X76800783Y-41666416D01*
X76709967Y-41575600D01*
X76603179Y-41504247D01*
X76484522Y-41455098D01*
X76483119Y-41454819D01*
X76397381Y-41369081D01*
X76379316Y-41347069D01*
X76291457Y-41274964D01*
X76191218Y-41221386D01*
X76127112Y-41201940D01*
X76082453Y-41188392D01*
X76027387Y-41182969D01*
X75997678Y-41180043D01*
X75997673Y-41180043D01*
X75969342Y-41177253D01*
X75941011Y-41180043D01*
X72503516Y-41180043D01*
X75906559Y-37777000D01*
X77339972Y-37777000D01*
X77341162Y-37777795D01*
X77459819Y-37826944D01*
X77585784Y-37852000D01*
X77714216Y-37852000D01*
X77840181Y-37826944D01*
X77958838Y-37777795D01*
X78043001Y-37721560D01*
X78043001Y-39372282D01*
X78043001Y-39372282D01*
G37*
X78043001Y-39372282D02*
X77316354Y-40098931D01*
X77300813Y-40111685D01*
X77269370Y-40150000D01*
X77249953Y-40173659D01*
X77216434Y-40236369D01*
X77212160Y-40244365D01*
X77188887Y-40321085D01*
X77183526Y-40375517D01*
X77181029Y-40400870D01*
X77182998Y-40420860D01*
X77182999Y-42216417D01*
X76785572Y-42613845D01*
X76769394Y-42633557D01*
X76478032Y-42924920D01*
X76462592Y-42937591D01*
X76424667Y-42983804D01*
X76412044Y-42999185D01*
X76374484Y-43069456D01*
X76351353Y-43145704D01*
X76343543Y-43225000D01*
X76345501Y-43244879D01*
X76345500Y-43905130D01*
X76345500Y-43905131D01*
X76345501Y-45432449D01*
X75736066Y-46041886D01*
X75700814Y-46070816D01*
X75649954Y-46132791D01*
X75612161Y-46203496D01*
X75588888Y-46280216D01*
X75582999Y-46340010D01*
X75583000Y-47048802D01*
X75581030Y-47068801D01*
X75585490Y-47114079D01*
X75585491Y-50716673D01*
X75575894Y-50728368D01*
X75559955Y-50747789D01*
X75527107Y-50809243D01*
X75522162Y-50818495D01*
X75498889Y-50895215D01*
X75493685Y-50948056D01*
X75491031Y-50975000D01*
X75493000Y-50994990D01*
X75493001Y-52280009D01*
X75491031Y-52300008D01*
X75496942Y-52360016D01*
X75498890Y-52379794D01*
X75502267Y-52390925D01*
X75522162Y-52456513D01*
X75559955Y-52527219D01*
X75577833Y-52549003D01*
X75585490Y-52558333D01*
X75585491Y-54772825D01*
X75576864Y-54778589D01*
X75486048Y-54869405D01*
X75414695Y-54976193D01*
X75365546Y-55094850D01*
X75340490Y-55220815D01*
X75340490Y-55349247D01*
X75365546Y-55475212D01*
X75414695Y-55593869D01*
X75486048Y-55700657D01*
X75576864Y-55791473D01*
X75683652Y-55862826D01*
X75802309Y-55911975D01*
X75928274Y-55937031D01*
X76040921Y-55937031D01*
X75878032Y-56099920D01*
X75862592Y-56112591D01*
X75817115Y-56168006D01*
X75812044Y-56174185D01*
X75774484Y-56244456D01*
X75751353Y-56320704D01*
X75743543Y-56400000D01*
X75745501Y-56419880D01*
X75745501Y-57098452D01*
X74704500Y-56057452D01*
X74704500Y-54870376D01*
X74707000Y-54844992D01*
X74707000Y-51355664D01*
X75163688Y-50898978D01*
X75179218Y-50886233D01*
X75230078Y-50824259D01*
X75267871Y-50753554D01*
X75291144Y-50676834D01*
X75297033Y-50617040D01*
X75297033Y-50617038D01*
X75299002Y-50597048D01*
X75297033Y-50577059D01*
X75297033Y-49360023D01*
X75299002Y-49340033D01*
X75295695Y-49306457D01*
X75291144Y-49260247D01*
X75267871Y-49183527D01*
X75230078Y-49112822D01*
X75179218Y-49050848D01*
X75163689Y-49038104D01*
X74036281Y-47910698D01*
X74038178Y-47909912D01*
X74144966Y-47838559D01*
X74235782Y-47747743D01*
X74307135Y-47640955D01*
X74356284Y-47522298D01*
X74381340Y-47396333D01*
X74381340Y-47267901D01*
X74356284Y-47141936D01*
X74307135Y-47023279D01*
X74235782Y-46916491D01*
X74144966Y-46825675D01*
X74038178Y-46754322D01*
X73919521Y-46705173D01*
X73793556Y-46680117D01*
X73665124Y-46680117D01*
X73576339Y-46697777D01*
X73576339Y-46219690D01*
X74002663Y-45793368D01*
X74015787Y-45795978D01*
X74144219Y-45795978D01*
X74270184Y-45770922D01*
X74388841Y-45721773D01*
X74495629Y-45650420D01*
X74586445Y-45559604D01*
X74657798Y-45452816D01*
X74706947Y-45334159D01*
X74732003Y-45208194D01*
X74732003Y-45079762D01*
X74706947Y-44953797D01*
X74657798Y-44835140D01*
X74586445Y-44728352D01*
X74495629Y-44637536D01*
X74388841Y-44566183D01*
X74270184Y-44517034D01*
X74144219Y-44491978D01*
X74015787Y-44491978D01*
X73889822Y-44517034D01*
X73771165Y-44566183D01*
X73664377Y-44637536D01*
X73573561Y-44728352D01*
X73502208Y-44835140D01*
X73453059Y-44953797D01*
X73428003Y-45079762D01*
X73428003Y-45208194D01*
X73430613Y-45221318D01*
X72899871Y-45752062D01*
X72884431Y-45764733D01*
X72848236Y-45808838D01*
X72833883Y-45826327D01*
X72796323Y-45896598D01*
X72773192Y-45972846D01*
X72765382Y-46052142D01*
X72767340Y-46072022D01*
X72767339Y-47191756D01*
X72726039Y-47150456D01*
X72726039Y-43877216D01*
X72734665Y-43871452D01*
X72825481Y-43780636D01*
X72896834Y-43673848D01*
X72945983Y-43555191D01*
X72971039Y-43429226D01*
X72971039Y-43300794D01*
X72945983Y-43174829D01*
X72896834Y-43056172D01*
X72880683Y-43032000D01*
X75187794Y-43032000D01*
X75193558Y-43040626D01*
X75284374Y-43131442D01*
X75391162Y-43202795D01*
X75509819Y-43251944D01*
X75635784Y-43277000D01*
X75764216Y-43277000D01*
X75890181Y-43251944D01*
X76008838Y-43202795D01*
X76115626Y-43131442D01*
X76206442Y-43040626D01*
X76277795Y-42933838D01*
X76326944Y-42815181D01*
X76343084Y-42734042D01*
X76358557Y-42734042D01*
X76484522Y-42708986D01*
X76603179Y-42659837D01*
X76709967Y-42588484D01*
X76800783Y-42497668D01*
X76872136Y-42390880D01*
X76921285Y-42272223D01*
X76946341Y-42146258D01*
X76946341Y-42017826D01*
X76921285Y-41891861D01*
X76872136Y-41773204D01*
X76800783Y-41666416D01*
X76709967Y-41575600D01*
X76603179Y-41504247D01*
X76484522Y-41455098D01*
X76483119Y-41454819D01*
X76397381Y-41369081D01*
X76379316Y-41347069D01*
X76291457Y-41274964D01*
X76191218Y-41221386D01*
X76127112Y-41201940D01*
X76082453Y-41188392D01*
X76027387Y-41182969D01*
X75997678Y-41180043D01*
X75997673Y-41180043D01*
X75969342Y-41177253D01*
X75941011Y-41180043D01*
X72503516Y-41180043D01*
X75906559Y-37777000D01*
X77339972Y-37777000D01*
X77341162Y-37777795D01*
X77459819Y-37826944D01*
X77585784Y-37852000D01*
X77714216Y-37852000D01*
X77840181Y-37826944D01*
X77958838Y-37777795D01*
X78043001Y-37721560D01*
X78043001Y-39372282D01*
G36*
X84060784Y-52227000D02*
G01*
X84178001Y-52227000D01*
X84178002Y-55458142D01*
X83037749Y-56598397D01*
X83022208Y-56611151D01*
X82990265Y-56650075D01*
X82971348Y-56673125D01*
X82937209Y-56736994D01*
X82933555Y-56743831D01*
X82926833Y-56765992D01*
X82907906Y-56737666D01*
X82817090Y-56646850D01*
X82710302Y-56575497D01*
X82591645Y-56526348D01*
X82504331Y-56508980D01*
X83301003Y-55712310D01*
X83316532Y-55699566D01*
X83348047Y-55661164D01*
X83367392Y-55637593D01*
X83405185Y-55566887D01*
X83405249Y-55566675D01*
X83428458Y-55490167D01*
X83434347Y-55430373D01*
X83434347Y-55430371D01*
X83436316Y-55410382D01*
X83434347Y-55390392D01*
X83434347Y-52841236D01*
X84050609Y-52224976D01*
X84060784Y-52227000D01*
X84060784Y-52227000D01*
G37*
X84060784Y-52227000D02*
X84178001Y-52227000D01*
X84178002Y-55458142D01*
X83037749Y-56598397D01*
X83022208Y-56611151D01*
X82990265Y-56650075D01*
X82971348Y-56673125D01*
X82937209Y-56736994D01*
X82933555Y-56743831D01*
X82926833Y-56765992D01*
X82907906Y-56737666D01*
X82817090Y-56646850D01*
X82710302Y-56575497D01*
X82591645Y-56526348D01*
X82504331Y-56508980D01*
X83301003Y-55712310D01*
X83316532Y-55699566D01*
X83348047Y-55661164D01*
X83367392Y-55637593D01*
X83405185Y-55566887D01*
X83405249Y-55566675D01*
X83428458Y-55490167D01*
X83434347Y-55430373D01*
X83434347Y-55430371D01*
X83436316Y-55410382D01*
X83434347Y-55390392D01*
X83434347Y-52841236D01*
X84050609Y-52224976D01*
X84060784Y-52227000D01*
G36*
X68098309Y-48362038D02*
G01*
X68224274Y-48387094D01*
X68311741Y-48387094D01*
X68242205Y-48491162D01*
X68193056Y-48609819D01*
X68168000Y-48735784D01*
X68168000Y-48864216D01*
X68193056Y-48990181D01*
X68242205Y-49108838D01*
X68313558Y-49215626D01*
X68404374Y-49306442D01*
X68511162Y-49377795D01*
X68629819Y-49426944D01*
X68755784Y-49452000D01*
X68829952Y-49452000D01*
X69695500Y-50317549D01*
X69695500Y-51716181D01*
X69583426Y-51693888D01*
X69454994Y-51693888D01*
X69329029Y-51718944D01*
X69210372Y-51768093D01*
X69103584Y-51839446D01*
X69027034Y-51915996D01*
X69027034Y-51721740D01*
X69028991Y-51701873D01*
X69026395Y-51675516D01*
X69021181Y-51622578D01*
X68998051Y-51546330D01*
X68960491Y-51476059D01*
X68909943Y-51414465D01*
X68894504Y-51401795D01*
X68097638Y-50604930D01*
X68097638Y-48361760D01*
X68098309Y-48362038D01*
X68098309Y-48362038D01*
G37*
X68098309Y-48362038D02*
X68224274Y-48387094D01*
X68311741Y-48387094D01*
X68242205Y-48491162D01*
X68193056Y-48609819D01*
X68168000Y-48735784D01*
X68168000Y-48864216D01*
X68193056Y-48990181D01*
X68242205Y-49108838D01*
X68313558Y-49215626D01*
X68404374Y-49306442D01*
X68511162Y-49377795D01*
X68629819Y-49426944D01*
X68755784Y-49452000D01*
X68829952Y-49452000D01*
X69695500Y-50317549D01*
X69695500Y-51716181D01*
X69583426Y-51693888D01*
X69454994Y-51693888D01*
X69329029Y-51718944D01*
X69210372Y-51768093D01*
X69103584Y-51839446D01*
X69027034Y-51915996D01*
X69027034Y-51721740D01*
X69028991Y-51701873D01*
X69026395Y-51675516D01*
X69021181Y-51622578D01*
X68998051Y-51546330D01*
X68960491Y-51476059D01*
X68909943Y-51414465D01*
X68894504Y-51401795D01*
X68097638Y-50604930D01*
X68097638Y-48361760D01*
X68098309Y-48362038D01*
G36*
X80658850Y-49397691D02*
G01*
X80707999Y-49516348D01*
X80779352Y-49623136D01*
X80870168Y-49713952D01*
X80881295Y-49721387D01*
X80881294Y-50271657D01*
X80071806Y-51081146D01*
X80029899Y-51030081D01*
X80014453Y-51017405D01*
X79929500Y-50932452D01*
X79929500Y-50107929D01*
X80655679Y-49381750D01*
X80658850Y-49397691D01*
X80658850Y-49397691D01*
G37*
X80658850Y-49397691D02*
X80707999Y-49516348D01*
X80779352Y-49623136D01*
X80870168Y-49713952D01*
X80881295Y-49721387D01*
X80881294Y-50271657D01*
X80071806Y-51081146D01*
X80029899Y-51030081D01*
X80014453Y-51017405D01*
X79929500Y-50932452D01*
X79929500Y-50107929D01*
X80655679Y-49381750D01*
X80658850Y-49397691D01*
G36*
X84163603Y-46839622D02*
G01*
X84160812Y-46867963D01*
X84171951Y-46981074D01*
X84194164Y-47054296D01*
X84204946Y-47089839D01*
X84258524Y-47190078D01*
X84274983Y-47210133D01*
X84312565Y-47255927D01*
X84312568Y-47255930D01*
X84330629Y-47277937D01*
X84352636Y-47295998D01*
X85378616Y-48321978D01*
X85378617Y-50656492D01*
X85023268Y-51011841D01*
X85020458Y-51006584D01*
X84969910Y-50944990D01*
X84954475Y-50932323D01*
X84504500Y-50482350D01*
X84504500Y-48810685D01*
X84506457Y-48790818D01*
X84504394Y-48769870D01*
X84498647Y-48711523D01*
X84475517Y-48635275D01*
X84437957Y-48565004D01*
X84387409Y-48503410D01*
X84371969Y-48490739D01*
X83517011Y-47635782D01*
X83517011Y-46128375D01*
X83635784Y-46152000D01*
X83764216Y-46152000D01*
X83890181Y-46126944D01*
X84008838Y-46077795D01*
X84115626Y-46006442D01*
X84163602Y-45958466D01*
X84163603Y-46839622D01*
X84163603Y-46839622D01*
G37*
X84163603Y-46839622D02*
X84160812Y-46867963D01*
X84171951Y-46981074D01*
X84194164Y-47054296D01*
X84204946Y-47089839D01*
X84258524Y-47190078D01*
X84274983Y-47210133D01*
X84312565Y-47255927D01*
X84312568Y-47255930D01*
X84330629Y-47277937D01*
X84352636Y-47295998D01*
X85378616Y-48321978D01*
X85378617Y-50656492D01*
X85023268Y-51011841D01*
X85020458Y-51006584D01*
X84969910Y-50944990D01*
X84954475Y-50932323D01*
X84504500Y-50482350D01*
X84504500Y-48810685D01*
X84506457Y-48790818D01*
X84504394Y-48769870D01*
X84498647Y-48711523D01*
X84475517Y-48635275D01*
X84437957Y-48565004D01*
X84387409Y-48503410D01*
X84371969Y-48490739D01*
X83517011Y-47635782D01*
X83517011Y-46128375D01*
X83635784Y-46152000D01*
X83764216Y-46152000D01*
X83890181Y-46126944D01*
X84008838Y-46077795D01*
X84115626Y-46006442D01*
X84163602Y-45958466D01*
X84163603Y-46839622D01*
G36*
X83176354Y-41155430D02*
G01*
X83105001Y-41262218D01*
X83055852Y-41380875D01*
X83030796Y-41506840D01*
X83030796Y-41635272D01*
X83033406Y-41648396D01*
X82515583Y-42166221D01*
X82500143Y-42178892D01*
X82463216Y-42223889D01*
X82449595Y-42240486D01*
X82412035Y-42310757D01*
X82388904Y-42387005D01*
X82381094Y-42466301D01*
X82383052Y-42486180D01*
X82383051Y-43073068D01*
X82213839Y-43242280D01*
X82198304Y-43255029D01*
X82173524Y-43285225D01*
X82147444Y-43317003D01*
X82119187Y-43369868D01*
X82109651Y-43387709D01*
X82086378Y-43464429D01*
X82081021Y-43518823D01*
X82078520Y-43544214D01*
X82080489Y-43564203D01*
X82080490Y-47478377D01*
X82033838Y-47447205D01*
X81915181Y-47398056D01*
X81789216Y-47373000D01*
X81660784Y-47373000D01*
X81534819Y-47398056D01*
X81416162Y-47447205D01*
X81309374Y-47518558D01*
X81218558Y-47609374D01*
X81211124Y-47620500D01*
X81019870Y-47620500D01*
X81000000Y-47618543D01*
X80920703Y-47626353D01*
X80844455Y-47649483D01*
X80806895Y-47669559D01*
X80774185Y-47687043D01*
X80712591Y-47737591D01*
X80699924Y-47753026D01*
X78943025Y-49509927D01*
X78927580Y-49522602D01*
X78877032Y-49584196D01*
X78839472Y-49654467D01*
X78821427Y-49713952D01*
X78816342Y-49730715D01*
X78808532Y-49810011D01*
X78810489Y-49829881D01*
X78810489Y-49865142D01*
X78810490Y-50797456D01*
X77832000Y-49818968D01*
X77832000Y-48730008D01*
X77829500Y-48704624D01*
X77829500Y-47385784D01*
X79273000Y-47385784D01*
X79273000Y-47514216D01*
X79298056Y-47640181D01*
X79347205Y-47758838D01*
X79418558Y-47865626D01*
X79509374Y-47956442D01*
X79616162Y-48027795D01*
X79734819Y-48076944D01*
X79860784Y-48102000D01*
X79989216Y-48102000D01*
X80115181Y-48076944D01*
X80233838Y-48027795D01*
X80340626Y-47956442D01*
X80431442Y-47865626D01*
X80502795Y-47758838D01*
X80551944Y-47640181D01*
X80577000Y-47514216D01*
X80577000Y-47385784D01*
X80551944Y-47259819D01*
X80502795Y-47141162D01*
X80431442Y-47034374D01*
X80340626Y-46943558D01*
X80233838Y-46872205D01*
X80115181Y-46823056D01*
X79989216Y-46798000D01*
X79860784Y-46798000D01*
X79734819Y-46823056D01*
X79616162Y-46872205D01*
X79509374Y-46943558D01*
X79418558Y-47034374D01*
X79347205Y-47141162D01*
X79298056Y-47259819D01*
X79273000Y-47385784D01*
X77829500Y-47385784D01*
X77829500Y-43692548D01*
X78717549Y-42804500D01*
X79780130Y-42804500D01*
X79800000Y-42806457D01*
X79829597Y-42803542D01*
X79879296Y-42798647D01*
X79883059Y-42797505D01*
X79916425Y-42878058D01*
X79987778Y-42984846D01*
X80078594Y-43075662D01*
X80185382Y-43147015D01*
X80304039Y-43196164D01*
X80430004Y-43221220D01*
X80558436Y-43221220D01*
X80684401Y-43196164D01*
X80803058Y-43147015D01*
X80909846Y-43075662D01*
X81000662Y-42984846D01*
X81072015Y-42878058D01*
X81121164Y-42759401D01*
X81146220Y-42633436D01*
X81146220Y-42505004D01*
X81121164Y-42379039D01*
X81072015Y-42260382D01*
X81000662Y-42153594D01*
X80909846Y-42062778D01*
X80803058Y-41991425D01*
X80787194Y-41984854D01*
X81650855Y-41121194D01*
X83210590Y-41121194D01*
X83176354Y-41155430D01*
X83176354Y-41155430D01*
G37*
X83176354Y-41155430D02*
X83105001Y-41262218D01*
X83055852Y-41380875D01*
X83030796Y-41506840D01*
X83030796Y-41635272D01*
X83033406Y-41648396D01*
X82515583Y-42166221D01*
X82500143Y-42178892D01*
X82463216Y-42223889D01*
X82449595Y-42240486D01*
X82412035Y-42310757D01*
X82388904Y-42387005D01*
X82381094Y-42466301D01*
X82383052Y-42486180D01*
X82383051Y-43073068D01*
X82213839Y-43242280D01*
X82198304Y-43255029D01*
X82173524Y-43285225D01*
X82147444Y-43317003D01*
X82119187Y-43369868D01*
X82109651Y-43387709D01*
X82086378Y-43464429D01*
X82081021Y-43518823D01*
X82078520Y-43544214D01*
X82080489Y-43564203D01*
X82080490Y-47478377D01*
X82033838Y-47447205D01*
X81915181Y-47398056D01*
X81789216Y-47373000D01*
X81660784Y-47373000D01*
X81534819Y-47398056D01*
X81416162Y-47447205D01*
X81309374Y-47518558D01*
X81218558Y-47609374D01*
X81211124Y-47620500D01*
X81019870Y-47620500D01*
X81000000Y-47618543D01*
X80920703Y-47626353D01*
X80844455Y-47649483D01*
X80806895Y-47669559D01*
X80774185Y-47687043D01*
X80712591Y-47737591D01*
X80699924Y-47753026D01*
X78943025Y-49509927D01*
X78927580Y-49522602D01*
X78877032Y-49584196D01*
X78839472Y-49654467D01*
X78821427Y-49713952D01*
X78816342Y-49730715D01*
X78808532Y-49810011D01*
X78810489Y-49829881D01*
X78810489Y-49865142D01*
X78810490Y-50797456D01*
X77832000Y-49818968D01*
X77832000Y-48730008D01*
X77829500Y-48704624D01*
X77829500Y-47385784D01*
X79273000Y-47385784D01*
X79273000Y-47514216D01*
X79298056Y-47640181D01*
X79347205Y-47758838D01*
X79418558Y-47865626D01*
X79509374Y-47956442D01*
X79616162Y-48027795D01*
X79734819Y-48076944D01*
X79860784Y-48102000D01*
X79989216Y-48102000D01*
X80115181Y-48076944D01*
X80233838Y-48027795D01*
X80340626Y-47956442D01*
X80431442Y-47865626D01*
X80502795Y-47758838D01*
X80551944Y-47640181D01*
X80577000Y-47514216D01*
X80577000Y-47385784D01*
X80551944Y-47259819D01*
X80502795Y-47141162D01*
X80431442Y-47034374D01*
X80340626Y-46943558D01*
X80233838Y-46872205D01*
X80115181Y-46823056D01*
X79989216Y-46798000D01*
X79860784Y-46798000D01*
X79734819Y-46823056D01*
X79616162Y-46872205D01*
X79509374Y-46943558D01*
X79418558Y-47034374D01*
X79347205Y-47141162D01*
X79298056Y-47259819D01*
X79273000Y-47385784D01*
X77829500Y-47385784D01*
X77829500Y-43692548D01*
X78717549Y-42804500D01*
X79780130Y-42804500D01*
X79800000Y-42806457D01*
X79829597Y-42803542D01*
X79879296Y-42798647D01*
X79883059Y-42797505D01*
X79916425Y-42878058D01*
X79987778Y-42984846D01*
X80078594Y-43075662D01*
X80185382Y-43147015D01*
X80304039Y-43196164D01*
X80430004Y-43221220D01*
X80558436Y-43221220D01*
X80684401Y-43196164D01*
X80803058Y-43147015D01*
X80909846Y-43075662D01*
X81000662Y-42984846D01*
X81072015Y-42878058D01*
X81121164Y-42759401D01*
X81146220Y-42633436D01*
X81146220Y-42505004D01*
X81121164Y-42379039D01*
X81072015Y-42260382D01*
X81000662Y-42153594D01*
X80909846Y-42062778D01*
X80803058Y-41991425D01*
X80787194Y-41984854D01*
X81650855Y-41121194D01*
X83210590Y-41121194D01*
X83176354Y-41155430D01*
G36*
X84062984Y-36221603D02*
G01*
X84090922Y-36362058D01*
X84145725Y-36494364D01*
X84225286Y-36613436D01*
X84326548Y-36714698D01*
X84445620Y-36794259D01*
X84577926Y-36849062D01*
X84718381Y-36877000D01*
X84861587Y-36877000D01*
X85002042Y-36849062D01*
X85134348Y-36794259D01*
X85235009Y-36727000D01*
X87460999Y-36727000D01*
X90722777Y-39988778D01*
X90723056Y-39990181D01*
X90772205Y-40108838D01*
X90843558Y-40215626D01*
X90934374Y-40306442D01*
X91041162Y-40377795D01*
X91159819Y-40426944D01*
X91285784Y-40452000D01*
X91414216Y-40452000D01*
X91540181Y-40426944D01*
X91658838Y-40377795D01*
X91765626Y-40306442D01*
X91856442Y-40215626D01*
X91927795Y-40108838D01*
X91940043Y-40079267D01*
X92542999Y-40682223D01*
X92543000Y-45068186D01*
X92540812Y-45090401D01*
X92549539Y-45179008D01*
X92575385Y-45264210D01*
X92594133Y-45299285D01*
X92617357Y-45342734D01*
X92673841Y-45411560D01*
X92691094Y-45425719D01*
X92840489Y-45575115D01*
X92840489Y-47299488D01*
X91703039Y-46162038D01*
X91684974Y-46140026D01*
X91597115Y-46067921D01*
X91496876Y-46014343D01*
X91432770Y-45994897D01*
X91388111Y-45981349D01*
X91333045Y-45975926D01*
X91303336Y-45973000D01*
X91303331Y-45973000D01*
X91275000Y-45970210D01*
X91246669Y-45973000D01*
X90628328Y-45973000D01*
X90599999Y-45970210D01*
X90571670Y-45973000D01*
X90571664Y-45973000D01*
X90486888Y-45981350D01*
X90378124Y-46014343D01*
X90277885Y-46067921D01*
X90190026Y-46140026D01*
X90171961Y-46162038D01*
X89420995Y-46913004D01*
X87207322Y-46913004D01*
X87421968Y-46698357D01*
X87437409Y-46685686D01*
X87487957Y-46624092D01*
X87525517Y-46553821D01*
X87548647Y-46477573D01*
X87554500Y-46418147D01*
X87556457Y-46398277D01*
X87554500Y-46378407D01*
X87554500Y-43208678D01*
X90198869Y-43208678D01*
X90198869Y-43337110D01*
X90223925Y-43463075D01*
X90273074Y-43581732D01*
X90344427Y-43688520D01*
X90435243Y-43779336D01*
X90542031Y-43850689D01*
X90660688Y-43899838D01*
X90786653Y-43924894D01*
X90915085Y-43924894D01*
X91041050Y-43899838D01*
X91159707Y-43850689D01*
X91266495Y-43779336D01*
X91357311Y-43688520D01*
X91428664Y-43581732D01*
X91477813Y-43463075D01*
X91502869Y-43337110D01*
X91502869Y-43208678D01*
X91477813Y-43082713D01*
X91428664Y-42964056D01*
X91357311Y-42857268D01*
X91266495Y-42766452D01*
X91159707Y-42695099D01*
X91041050Y-42645950D01*
X90915085Y-42620894D01*
X90786653Y-42620894D01*
X90660688Y-42645950D01*
X90542031Y-42695099D01*
X90435243Y-42766452D01*
X90344427Y-42857268D01*
X90273074Y-42964056D01*
X90223925Y-43082713D01*
X90198869Y-43208678D01*
X87554500Y-43208678D01*
X87554500Y-40917386D01*
X87556457Y-40897519D01*
X87554125Y-40873846D01*
X87548647Y-40818224D01*
X87525517Y-40741976D01*
X87487957Y-40671705D01*
X87437409Y-40610111D01*
X87421970Y-40597441D01*
X85052565Y-38228037D01*
X85039889Y-38212591D01*
X84978295Y-38162043D01*
X84908024Y-38124483D01*
X84831776Y-38101353D01*
X84772350Y-38095500D01*
X84752480Y-38093543D01*
X84732610Y-38095500D01*
X83285544Y-38095500D01*
X83265677Y-38093543D01*
X83245810Y-38095500D01*
X83245808Y-38095500D01*
X83186382Y-38101353D01*
X83110134Y-38124483D01*
X83039863Y-38162043D01*
X82978269Y-38212591D01*
X82965598Y-38228031D01*
X82461693Y-38731937D01*
X82448568Y-38729326D01*
X82320136Y-38729326D01*
X82194171Y-38754382D01*
X82075514Y-38803531D01*
X81968726Y-38874884D01*
X81877910Y-38965700D01*
X81806557Y-39072488D01*
X81757408Y-39191145D01*
X81732352Y-39317110D01*
X81732352Y-39445542D01*
X81757408Y-39571507D01*
X81806557Y-39690164D01*
X81877910Y-39796952D01*
X81968726Y-39887768D01*
X82075514Y-39959121D01*
X82179476Y-40002183D01*
X81299762Y-40002183D01*
X81279895Y-40000226D01*
X81260028Y-40002183D01*
X81260026Y-40002183D01*
X81200600Y-40008036D01*
X81124352Y-40031166D01*
X81054081Y-40068726D01*
X80992487Y-40119274D01*
X80979816Y-40134714D01*
X80016008Y-41098522D01*
X79956442Y-41009374D01*
X79902000Y-40954932D01*
X79902000Y-40337223D01*
X82945312Y-37293912D01*
X82972205Y-37358838D01*
X83043558Y-37465626D01*
X83134374Y-37556442D01*
X83241162Y-37627795D01*
X83359819Y-37676944D01*
X83485784Y-37702000D01*
X83614216Y-37702000D01*
X83740181Y-37676944D01*
X83858838Y-37627795D01*
X83965626Y-37556442D01*
X84056442Y-37465626D01*
X84127795Y-37358838D01*
X84176944Y-37240181D01*
X84202000Y-37114216D01*
X84202000Y-36985784D01*
X84176944Y-36859819D01*
X84127795Y-36741162D01*
X84056442Y-36634374D01*
X83965626Y-36543558D01*
X83858838Y-36472205D01*
X83793912Y-36445312D01*
X84062984Y-36176241D01*
X84062984Y-36221603D01*
X84062984Y-36221603D01*
G37*
X84062984Y-36221603D02*
X84090922Y-36362058D01*
X84145725Y-36494364D01*
X84225286Y-36613436D01*
X84326548Y-36714698D01*
X84445620Y-36794259D01*
X84577926Y-36849062D01*
X84718381Y-36877000D01*
X84861587Y-36877000D01*
X85002042Y-36849062D01*
X85134348Y-36794259D01*
X85235009Y-36727000D01*
X87460999Y-36727000D01*
X90722777Y-39988778D01*
X90723056Y-39990181D01*
X90772205Y-40108838D01*
X90843558Y-40215626D01*
X90934374Y-40306442D01*
X91041162Y-40377795D01*
X91159819Y-40426944D01*
X91285784Y-40452000D01*
X91414216Y-40452000D01*
X91540181Y-40426944D01*
X91658838Y-40377795D01*
X91765626Y-40306442D01*
X91856442Y-40215626D01*
X91927795Y-40108838D01*
X91940043Y-40079267D01*
X92542999Y-40682223D01*
X92543000Y-45068186D01*
X92540812Y-45090401D01*
X92549539Y-45179008D01*
X92575385Y-45264210D01*
X92594133Y-45299285D01*
X92617357Y-45342734D01*
X92673841Y-45411560D01*
X92691094Y-45425719D01*
X92840489Y-45575115D01*
X92840489Y-47299488D01*
X91703039Y-46162038D01*
X91684974Y-46140026D01*
X91597115Y-46067921D01*
X91496876Y-46014343D01*
X91432770Y-45994897D01*
X91388111Y-45981349D01*
X91333045Y-45975926D01*
X91303336Y-45973000D01*
X91303331Y-45973000D01*
X91275000Y-45970210D01*
X91246669Y-45973000D01*
X90628328Y-45973000D01*
X90599999Y-45970210D01*
X90571670Y-45973000D01*
X90571664Y-45973000D01*
X90486888Y-45981350D01*
X90378124Y-46014343D01*
X90277885Y-46067921D01*
X90190026Y-46140026D01*
X90171961Y-46162038D01*
X89420995Y-46913004D01*
X87207322Y-46913004D01*
X87421968Y-46698357D01*
X87437409Y-46685686D01*
X87487957Y-46624092D01*
X87525517Y-46553821D01*
X87548647Y-46477573D01*
X87554500Y-46418147D01*
X87556457Y-46398277D01*
X87554500Y-46378407D01*
X87554500Y-43208678D01*
X90198869Y-43208678D01*
X90198869Y-43337110D01*
X90223925Y-43463075D01*
X90273074Y-43581732D01*
X90344427Y-43688520D01*
X90435243Y-43779336D01*
X90542031Y-43850689D01*
X90660688Y-43899838D01*
X90786653Y-43924894D01*
X90915085Y-43924894D01*
X91041050Y-43899838D01*
X91159707Y-43850689D01*
X91266495Y-43779336D01*
X91357311Y-43688520D01*
X91428664Y-43581732D01*
X91477813Y-43463075D01*
X91502869Y-43337110D01*
X91502869Y-43208678D01*
X91477813Y-43082713D01*
X91428664Y-42964056D01*
X91357311Y-42857268D01*
X91266495Y-42766452D01*
X91159707Y-42695099D01*
X91041050Y-42645950D01*
X90915085Y-42620894D01*
X90786653Y-42620894D01*
X90660688Y-42645950D01*
X90542031Y-42695099D01*
X90435243Y-42766452D01*
X90344427Y-42857268D01*
X90273074Y-42964056D01*
X90223925Y-43082713D01*
X90198869Y-43208678D01*
X87554500Y-43208678D01*
X87554500Y-40917386D01*
X87556457Y-40897519D01*
X87554125Y-40873846D01*
X87548647Y-40818224D01*
X87525517Y-40741976D01*
X87487957Y-40671705D01*
X87437409Y-40610111D01*
X87421970Y-40597441D01*
X85052565Y-38228037D01*
X85039889Y-38212591D01*
X84978295Y-38162043D01*
X84908024Y-38124483D01*
X84831776Y-38101353D01*
X84772350Y-38095500D01*
X84752480Y-38093543D01*
X84732610Y-38095500D01*
X83285544Y-38095500D01*
X83265677Y-38093543D01*
X83245810Y-38095500D01*
X83245808Y-38095500D01*
X83186382Y-38101353D01*
X83110134Y-38124483D01*
X83039863Y-38162043D01*
X82978269Y-38212591D01*
X82965598Y-38228031D01*
X82461693Y-38731937D01*
X82448568Y-38729326D01*
X82320136Y-38729326D01*
X82194171Y-38754382D01*
X82075514Y-38803531D01*
X81968726Y-38874884D01*
X81877910Y-38965700D01*
X81806557Y-39072488D01*
X81757408Y-39191145D01*
X81732352Y-39317110D01*
X81732352Y-39445542D01*
X81757408Y-39571507D01*
X81806557Y-39690164D01*
X81877910Y-39796952D01*
X81968726Y-39887768D01*
X82075514Y-39959121D01*
X82179476Y-40002183D01*
X81299762Y-40002183D01*
X81279895Y-40000226D01*
X81260028Y-40002183D01*
X81260026Y-40002183D01*
X81200600Y-40008036D01*
X81124352Y-40031166D01*
X81054081Y-40068726D01*
X80992487Y-40119274D01*
X80979816Y-40134714D01*
X80016008Y-41098522D01*
X79956442Y-41009374D01*
X79902000Y-40954932D01*
X79902000Y-40337223D01*
X82945312Y-37293912D01*
X82972205Y-37358838D01*
X83043558Y-37465626D01*
X83134374Y-37556442D01*
X83241162Y-37627795D01*
X83359819Y-37676944D01*
X83485784Y-37702000D01*
X83614216Y-37702000D01*
X83740181Y-37676944D01*
X83858838Y-37627795D01*
X83965626Y-37556442D01*
X84056442Y-37465626D01*
X84127795Y-37358838D01*
X84176944Y-37240181D01*
X84202000Y-37114216D01*
X84202000Y-36985784D01*
X84176944Y-36859819D01*
X84127795Y-36741162D01*
X84056442Y-36634374D01*
X83965626Y-36543558D01*
X83858838Y-36472205D01*
X83793912Y-36445312D01*
X84062984Y-36176241D01*
X84062984Y-36221603D01*
G36*
X86745500Y-41065069D02*
G01*
X86745501Y-46230727D01*
X86040450Y-46935779D01*
X86025004Y-46948455D01*
X85974456Y-47010050D01*
X85936896Y-47080321D01*
X85927273Y-47112043D01*
X85913766Y-47156568D01*
X85907619Y-47218979D01*
X85317602Y-46628962D01*
X85317602Y-45187734D01*
X85320393Y-45159398D01*
X85309252Y-45046286D01*
X85276259Y-44937522D01*
X85222681Y-44837283D01*
X85150576Y-44749424D01*
X85062717Y-44677319D01*
X84962478Y-44623741D01*
X84853714Y-44590748D01*
X84768938Y-44582398D01*
X84740602Y-44579607D01*
X84712266Y-44582398D01*
X84698400Y-44582398D01*
X84397102Y-44281100D01*
X84403705Y-44265158D01*
X84428761Y-44139193D01*
X84428761Y-44010761D01*
X84403705Y-43884796D01*
X84354556Y-43766139D01*
X84283203Y-43659351D01*
X84243363Y-43619511D01*
X84409457Y-43619511D01*
X84429446Y-43621480D01*
X84449435Y-43619511D01*
X84449438Y-43619511D01*
X84509232Y-43613622D01*
X84585952Y-43590349D01*
X84656657Y-43552556D01*
X84718631Y-43501696D01*
X84731385Y-43486155D01*
X85786167Y-42431375D01*
X85801696Y-42418631D01*
X85827650Y-42387005D01*
X85852556Y-42356658D01*
X85890349Y-42285952D01*
X85893918Y-42274186D01*
X85913622Y-42209232D01*
X85919511Y-42149438D01*
X85919511Y-42149436D01*
X85921480Y-42129447D01*
X85919511Y-42109457D01*
X85919511Y-40239080D01*
X86745500Y-41065069D01*
X86745500Y-41065069D01*
G37*
X86745500Y-41065069D02*
X86745501Y-46230727D01*
X86040450Y-46935779D01*
X86025004Y-46948455D01*
X85974456Y-47010050D01*
X85936896Y-47080321D01*
X85927273Y-47112043D01*
X85913766Y-47156568D01*
X85907619Y-47218979D01*
X85317602Y-46628962D01*
X85317602Y-45187734D01*
X85320393Y-45159398D01*
X85309252Y-45046286D01*
X85276259Y-44937522D01*
X85222681Y-44837283D01*
X85150576Y-44749424D01*
X85062717Y-44677319D01*
X84962478Y-44623741D01*
X84853714Y-44590748D01*
X84768938Y-44582398D01*
X84740602Y-44579607D01*
X84712266Y-44582398D01*
X84698400Y-44582398D01*
X84397102Y-44281100D01*
X84403705Y-44265158D01*
X84428761Y-44139193D01*
X84428761Y-44010761D01*
X84403705Y-43884796D01*
X84354556Y-43766139D01*
X84283203Y-43659351D01*
X84243363Y-43619511D01*
X84409457Y-43619511D01*
X84429446Y-43621480D01*
X84449435Y-43619511D01*
X84449438Y-43619511D01*
X84509232Y-43613622D01*
X84585952Y-43590349D01*
X84656657Y-43552556D01*
X84718631Y-43501696D01*
X84731385Y-43486155D01*
X85786167Y-42431375D01*
X85801696Y-42418631D01*
X85827650Y-42387005D01*
X85852556Y-42356658D01*
X85890349Y-42285952D01*
X85893918Y-42274186D01*
X85913622Y-42209232D01*
X85919511Y-42149438D01*
X85919511Y-42149436D01*
X85921480Y-42129447D01*
X85919511Y-42109457D01*
X85919511Y-40239080D01*
X86745500Y-41065069D01*
G36*
X66081349Y-37474665D02*
G01*
X66056293Y-37600630D01*
X66056293Y-37729062D01*
X66081349Y-37855027D01*
X66130498Y-37973684D01*
X66201851Y-38080472D01*
X66248976Y-38127597D01*
X66243543Y-38182758D01*
X66245500Y-38202628D01*
X66245501Y-43622076D01*
X66243543Y-43641956D01*
X66251353Y-43721252D01*
X66269806Y-43782079D01*
X66274484Y-43797500D01*
X66312044Y-43867771D01*
X66350429Y-43914544D01*
X66318641Y-43927711D01*
X66211853Y-43999064D01*
X66152000Y-44058917D01*
X66152000Y-42019747D01*
X66153945Y-42000000D01*
X66146183Y-41921194D01*
X66123197Y-41845417D01*
X66085868Y-41775580D01*
X66035632Y-41714368D01*
X65974420Y-41664132D01*
X65904583Y-41626803D01*
X65828806Y-41603817D01*
X65750000Y-41596055D01*
X65730253Y-41598000D01*
X63269657Y-41598000D01*
X62842874Y-41556154D01*
X62451252Y-41437916D01*
X62090052Y-41245863D01*
X61773035Y-40987311D01*
X61512278Y-40672109D01*
X61317708Y-40312260D01*
X61196740Y-39921475D01*
X61153979Y-39514635D01*
X61191056Y-39107232D01*
X61306555Y-38714800D01*
X61496081Y-38352269D01*
X61752414Y-38033456D01*
X62065784Y-37770505D01*
X62424268Y-37573427D01*
X62814203Y-37449732D01*
X63238976Y-37402087D01*
X63251379Y-37402000D01*
X66111448Y-37402000D01*
X66081349Y-37474665D01*
X66081349Y-37474665D01*
G37*
X66081349Y-37474665D02*
X66056293Y-37600630D01*
X66056293Y-37729062D01*
X66081349Y-37855027D01*
X66130498Y-37973684D01*
X66201851Y-38080472D01*
X66248976Y-38127597D01*
X66243543Y-38182758D01*
X66245500Y-38202628D01*
X66245501Y-43622076D01*
X66243543Y-43641956D01*
X66251353Y-43721252D01*
X66269806Y-43782079D01*
X66274484Y-43797500D01*
X66312044Y-43867771D01*
X66350429Y-43914544D01*
X66318641Y-43927711D01*
X66211853Y-43999064D01*
X66152000Y-44058917D01*
X66152000Y-42019747D01*
X66153945Y-42000000D01*
X66146183Y-41921194D01*
X66123197Y-41845417D01*
X66085868Y-41775580D01*
X66035632Y-41714368D01*
X65974420Y-41664132D01*
X65904583Y-41626803D01*
X65828806Y-41603817D01*
X65750000Y-41596055D01*
X65730253Y-41598000D01*
X63269657Y-41598000D01*
X62842874Y-41556154D01*
X62451252Y-41437916D01*
X62090052Y-41245863D01*
X61773035Y-40987311D01*
X61512278Y-40672109D01*
X61317708Y-40312260D01*
X61196740Y-39921475D01*
X61153979Y-39514635D01*
X61191056Y-39107232D01*
X61306555Y-38714800D01*
X61496081Y-38352269D01*
X61752414Y-38033456D01*
X62065784Y-37770505D01*
X62424268Y-37573427D01*
X62814203Y-37449732D01*
X63238976Y-37402087D01*
X63251379Y-37402000D01*
X66111448Y-37402000D01*
X66081349Y-37474665D01*
G36*
X75468054Y-27984819D02*
G01*
X75442998Y-28110784D01*
X75442998Y-28239216D01*
X75468054Y-28365181D01*
X75517203Y-28483838D01*
X75588556Y-28590626D01*
X75679372Y-28681442D01*
X75786160Y-28752795D01*
X75904817Y-28801944D01*
X76030782Y-28827000D01*
X76159214Y-28827000D01*
X76285179Y-28801944D01*
X76403836Y-28752795D01*
X76510624Y-28681442D01*
X76601440Y-28590626D01*
X76672793Y-28483838D01*
X76721942Y-28365181D01*
X76746998Y-28239216D01*
X76746998Y-28110784D01*
X76721942Y-27984819D01*
X76687637Y-27902000D01*
X92348001Y-27902000D01*
X92348000Y-32480335D01*
X92344242Y-32518663D01*
X92338824Y-32536609D01*
X92330021Y-32553166D01*
X92318171Y-32567695D01*
X92303722Y-32579648D01*
X92287227Y-32588567D01*
X92269319Y-32594110D01*
X92232308Y-32598000D01*
X91230253Y-32598000D01*
X91228851Y-32598138D01*
X91219269Y-32598205D01*
X91201113Y-32600113D01*
X91182848Y-32600113D01*
X91177266Y-32600700D01*
X90789366Y-32644210D01*
X90753699Y-32651791D01*
X90717987Y-32658862D01*
X90712627Y-32660521D01*
X90712621Y-32660523D01*
X90340564Y-32778546D01*
X90307049Y-32792910D01*
X90273389Y-32806784D01*
X90268456Y-32809451D01*
X90268452Y-32809453D01*
X90268451Y-32809454D01*
X89926401Y-32997498D01*
X89896333Y-33018085D01*
X89865990Y-33038245D01*
X89861665Y-33041823D01*
X89562654Y-33292723D01*
X89537142Y-33318775D01*
X89511309Y-33344428D01*
X89507761Y-33348778D01*
X89263177Y-33652979D01*
X89243215Y-33683485D01*
X89222852Y-33713673D01*
X89220217Y-33718629D01*
X89039378Y-34064542D01*
X89025721Y-34098343D01*
X89011610Y-34131912D01*
X89009988Y-34137285D01*
X88899781Y-34511735D01*
X88892955Y-34547521D01*
X88885627Y-34583218D01*
X88885079Y-34588804D01*
X88849703Y-34977530D01*
X88849958Y-35013997D01*
X88849703Y-35050397D01*
X88850251Y-35055984D01*
X88891052Y-35444176D01*
X88898384Y-35479893D01*
X88905206Y-35515657D01*
X88906828Y-35521031D01*
X89017376Y-35878153D01*
X87605322Y-34466099D01*
X87591158Y-34448840D01*
X87522332Y-34392356D01*
X87443809Y-34350385D01*
X87358606Y-34324539D01*
X87292204Y-34317999D01*
X87269999Y-34315812D01*
X87247794Y-34317999D01*
X85204500Y-34317999D01*
X85204500Y-30780862D01*
X85207242Y-30779030D01*
X85298058Y-30688214D01*
X85369411Y-30581426D01*
X85418560Y-30462769D01*
X85443616Y-30336804D01*
X85443616Y-30208372D01*
X85418560Y-30082407D01*
X85369411Y-29963750D01*
X85298058Y-29856962D01*
X85207242Y-29766146D01*
X85100454Y-29694793D01*
X84981797Y-29645644D01*
X84855832Y-29620588D01*
X84727400Y-29620588D01*
X84601435Y-29645644D01*
X84482778Y-29694793D01*
X84375990Y-29766146D01*
X84285174Y-29856962D01*
X84213821Y-29963750D01*
X84164672Y-30082407D01*
X84151012Y-30151079D01*
X84106442Y-30084374D01*
X84015626Y-29993558D01*
X83908838Y-29922205D01*
X83790181Y-29873056D01*
X83664216Y-29848000D01*
X83535784Y-29848000D01*
X83409819Y-29873056D01*
X83291162Y-29922205D01*
X83184374Y-29993558D01*
X83093558Y-30084374D01*
X83022205Y-30191162D01*
X82973056Y-30309819D01*
X82948000Y-30435784D01*
X82948000Y-30564216D01*
X82973056Y-30690181D01*
X83022205Y-30808838D01*
X83093558Y-30915626D01*
X83184374Y-31006442D01*
X83291162Y-31077795D01*
X83409819Y-31126944D01*
X83535784Y-31152000D01*
X83664216Y-31152000D01*
X83790181Y-31126944D01*
X83908838Y-31077795D01*
X84015626Y-31006442D01*
X84106442Y-30915626D01*
X84177795Y-30808838D01*
X84226944Y-30690181D01*
X84240604Y-30621509D01*
X84285174Y-30688214D01*
X84375990Y-30779030D01*
X84390741Y-30788887D01*
X84392969Y-30811503D01*
X84395500Y-30819846D01*
X84395501Y-34565274D01*
X79146100Y-39814677D01*
X79128841Y-39828841D01*
X79072357Y-39897668D01*
X79039510Y-39959121D01*
X79030386Y-39976191D01*
X79004540Y-40061393D01*
X78995813Y-40150000D01*
X78998000Y-40172206D01*
X78998001Y-40943167D01*
X78998000Y-40943177D01*
X78998000Y-40954932D01*
X78943558Y-41009374D01*
X78872205Y-41116162D01*
X78823056Y-41234819D01*
X78798000Y-41360784D01*
X78798000Y-41489216D01*
X78823056Y-41615181D01*
X78852178Y-41685489D01*
X78391461Y-41685489D01*
X78371591Y-41683532D01*
X78292294Y-41691342D01*
X78216046Y-41714472D01*
X78191774Y-41727446D01*
X78145776Y-41752032D01*
X78084182Y-41802580D01*
X78071515Y-41818015D01*
X77996998Y-41892532D01*
X77996998Y-40569453D01*
X78723655Y-39842798D01*
X78739185Y-39830053D01*
X78762452Y-39801702D01*
X78790045Y-39768080D01*
X78807307Y-39735784D01*
X78827838Y-39697374D01*
X78851111Y-39620654D01*
X78857000Y-39560860D01*
X78857000Y-39560859D01*
X78858969Y-39540869D01*
X78857000Y-39520879D01*
X78857000Y-32541185D01*
X78858969Y-32521195D01*
X78856866Y-32499842D01*
X78851111Y-32441410D01*
X78827838Y-32364690D01*
X78799285Y-32311271D01*
X78790045Y-32293984D01*
X78751928Y-32247539D01*
X78739185Y-32232011D01*
X78723656Y-32219267D01*
X78173302Y-31668915D01*
X78173302Y-30838672D01*
X78175259Y-30818802D01*
X78167449Y-30739505D01*
X78144319Y-30663257D01*
X78139000Y-30653305D01*
X80848000Y-30653305D01*
X80848000Y-30781737D01*
X80873056Y-30907702D01*
X80922205Y-31026359D01*
X80993558Y-31133147D01*
X81084374Y-31223963D01*
X81191162Y-31295316D01*
X81309819Y-31344465D01*
X81435784Y-31369521D01*
X81564216Y-31369521D01*
X81690181Y-31344465D01*
X81808838Y-31295316D01*
X81915626Y-31223963D01*
X82006442Y-31133147D01*
X82077795Y-31026359D01*
X82126944Y-30907702D01*
X82152000Y-30781737D01*
X82152000Y-30653305D01*
X82126944Y-30527340D01*
X82077795Y-30408683D01*
X82006442Y-30301895D01*
X81915626Y-30211079D01*
X81808838Y-30139726D01*
X81690181Y-30090577D01*
X81564216Y-30065521D01*
X81435784Y-30065521D01*
X81309819Y-30090577D01*
X81191162Y-30139726D01*
X81084374Y-30211079D01*
X80993558Y-30301895D01*
X80922205Y-30408683D01*
X80873056Y-30527340D01*
X80848000Y-30653305D01*
X78139000Y-30653305D01*
X78106758Y-30592986D01*
X78068877Y-30546827D01*
X78056211Y-30531393D01*
X78040776Y-30518726D01*
X76600085Y-29078037D01*
X76587409Y-29062591D01*
X76525815Y-29012043D01*
X76455544Y-28974483D01*
X76379296Y-28951353D01*
X76319870Y-28945500D01*
X76300000Y-28943543D01*
X76280130Y-28945500D01*
X75167549Y-28945500D01*
X74879500Y-28657452D01*
X74879500Y-28269866D01*
X74881457Y-28249999D01*
X74879438Y-28229501D01*
X74873647Y-28170704D01*
X74850517Y-28094456D01*
X74812957Y-28024185D01*
X74762409Y-27962591D01*
X74746968Y-27949919D01*
X74699049Y-27902000D01*
X75502359Y-27902000D01*
X75468054Y-27984819D01*
X75468054Y-27984819D01*
G37*
X75468054Y-27984819D02*
X75442998Y-28110784D01*
X75442998Y-28239216D01*
X75468054Y-28365181D01*
X75517203Y-28483838D01*
X75588556Y-28590626D01*
X75679372Y-28681442D01*
X75786160Y-28752795D01*
X75904817Y-28801944D01*
X76030782Y-28827000D01*
X76159214Y-28827000D01*
X76285179Y-28801944D01*
X76403836Y-28752795D01*
X76510624Y-28681442D01*
X76601440Y-28590626D01*
X76672793Y-28483838D01*
X76721942Y-28365181D01*
X76746998Y-28239216D01*
X76746998Y-28110784D01*
X76721942Y-27984819D01*
X76687637Y-27902000D01*
X92348001Y-27902000D01*
X92348000Y-32480335D01*
X92344242Y-32518663D01*
X92338824Y-32536609D01*
X92330021Y-32553166D01*
X92318171Y-32567695D01*
X92303722Y-32579648D01*
X92287227Y-32588567D01*
X92269319Y-32594110D01*
X92232308Y-32598000D01*
X91230253Y-32598000D01*
X91228851Y-32598138D01*
X91219269Y-32598205D01*
X91201113Y-32600113D01*
X91182848Y-32600113D01*
X91177266Y-32600700D01*
X90789366Y-32644210D01*
X90753699Y-32651791D01*
X90717987Y-32658862D01*
X90712627Y-32660521D01*
X90712621Y-32660523D01*
X90340564Y-32778546D01*
X90307049Y-32792910D01*
X90273389Y-32806784D01*
X90268456Y-32809451D01*
X90268452Y-32809453D01*
X90268451Y-32809454D01*
X89926401Y-32997498D01*
X89896333Y-33018085D01*
X89865990Y-33038245D01*
X89861665Y-33041823D01*
X89562654Y-33292723D01*
X89537142Y-33318775D01*
X89511309Y-33344428D01*
X89507761Y-33348778D01*
X89263177Y-33652979D01*
X89243215Y-33683485D01*
X89222852Y-33713673D01*
X89220217Y-33718629D01*
X89039378Y-34064542D01*
X89025721Y-34098343D01*
X89011610Y-34131912D01*
X89009988Y-34137285D01*
X88899781Y-34511735D01*
X88892955Y-34547521D01*
X88885627Y-34583218D01*
X88885079Y-34588804D01*
X88849703Y-34977530D01*
X88849958Y-35013997D01*
X88849703Y-35050397D01*
X88850251Y-35055984D01*
X88891052Y-35444176D01*
X88898384Y-35479893D01*
X88905206Y-35515657D01*
X88906828Y-35521031D01*
X89017376Y-35878153D01*
X87605322Y-34466099D01*
X87591158Y-34448840D01*
X87522332Y-34392356D01*
X87443809Y-34350385D01*
X87358606Y-34324539D01*
X87292204Y-34317999D01*
X87269999Y-34315812D01*
X87247794Y-34317999D01*
X85204500Y-34317999D01*
X85204500Y-30780862D01*
X85207242Y-30779030D01*
X85298058Y-30688214D01*
X85369411Y-30581426D01*
X85418560Y-30462769D01*
X85443616Y-30336804D01*
X85443616Y-30208372D01*
X85418560Y-30082407D01*
X85369411Y-29963750D01*
X85298058Y-29856962D01*
X85207242Y-29766146D01*
X85100454Y-29694793D01*
X84981797Y-29645644D01*
X84855832Y-29620588D01*
X84727400Y-29620588D01*
X84601435Y-29645644D01*
X84482778Y-29694793D01*
X84375990Y-29766146D01*
X84285174Y-29856962D01*
X84213821Y-29963750D01*
X84164672Y-30082407D01*
X84151012Y-30151079D01*
X84106442Y-30084374D01*
X84015626Y-29993558D01*
X83908838Y-29922205D01*
X83790181Y-29873056D01*
X83664216Y-29848000D01*
X83535784Y-29848000D01*
X83409819Y-29873056D01*
X83291162Y-29922205D01*
X83184374Y-29993558D01*
X83093558Y-30084374D01*
X83022205Y-30191162D01*
X82973056Y-30309819D01*
X82948000Y-30435784D01*
X82948000Y-30564216D01*
X82973056Y-30690181D01*
X83022205Y-30808838D01*
X83093558Y-30915626D01*
X83184374Y-31006442D01*
X83291162Y-31077795D01*
X83409819Y-31126944D01*
X83535784Y-31152000D01*
X83664216Y-31152000D01*
X83790181Y-31126944D01*
X83908838Y-31077795D01*
X84015626Y-31006442D01*
X84106442Y-30915626D01*
X84177795Y-30808838D01*
X84226944Y-30690181D01*
X84240604Y-30621509D01*
X84285174Y-30688214D01*
X84375990Y-30779030D01*
X84390741Y-30788887D01*
X84392969Y-30811503D01*
X84395500Y-30819846D01*
X84395501Y-34565274D01*
X79146100Y-39814677D01*
X79128841Y-39828841D01*
X79072357Y-39897668D01*
X79039510Y-39959121D01*
X79030386Y-39976191D01*
X79004540Y-40061393D01*
X78995813Y-40150000D01*
X78998000Y-40172206D01*
X78998001Y-40943167D01*
X78998000Y-40943177D01*
X78998000Y-40954932D01*
X78943558Y-41009374D01*
X78872205Y-41116162D01*
X78823056Y-41234819D01*
X78798000Y-41360784D01*
X78798000Y-41489216D01*
X78823056Y-41615181D01*
X78852178Y-41685489D01*
X78391461Y-41685489D01*
X78371591Y-41683532D01*
X78292294Y-41691342D01*
X78216046Y-41714472D01*
X78191774Y-41727446D01*
X78145776Y-41752032D01*
X78084182Y-41802580D01*
X78071515Y-41818015D01*
X77996998Y-41892532D01*
X77996998Y-40569453D01*
X78723655Y-39842798D01*
X78739185Y-39830053D01*
X78762452Y-39801702D01*
X78790045Y-39768080D01*
X78807307Y-39735784D01*
X78827838Y-39697374D01*
X78851111Y-39620654D01*
X78857000Y-39560860D01*
X78857000Y-39560859D01*
X78858969Y-39540869D01*
X78857000Y-39520879D01*
X78857000Y-32541185D01*
X78858969Y-32521195D01*
X78856866Y-32499842D01*
X78851111Y-32441410D01*
X78827838Y-32364690D01*
X78799285Y-32311271D01*
X78790045Y-32293984D01*
X78751928Y-32247539D01*
X78739185Y-32232011D01*
X78723656Y-32219267D01*
X78173302Y-31668915D01*
X78173302Y-30838672D01*
X78175259Y-30818802D01*
X78167449Y-30739505D01*
X78144319Y-30663257D01*
X78139000Y-30653305D01*
X80848000Y-30653305D01*
X80848000Y-30781737D01*
X80873056Y-30907702D01*
X80922205Y-31026359D01*
X80993558Y-31133147D01*
X81084374Y-31223963D01*
X81191162Y-31295316D01*
X81309819Y-31344465D01*
X81435784Y-31369521D01*
X81564216Y-31369521D01*
X81690181Y-31344465D01*
X81808838Y-31295316D01*
X81915626Y-31223963D01*
X82006442Y-31133147D01*
X82077795Y-31026359D01*
X82126944Y-30907702D01*
X82152000Y-30781737D01*
X82152000Y-30653305D01*
X82126944Y-30527340D01*
X82077795Y-30408683D01*
X82006442Y-30301895D01*
X81915626Y-30211079D01*
X81808838Y-30139726D01*
X81690181Y-30090577D01*
X81564216Y-30065521D01*
X81435784Y-30065521D01*
X81309819Y-30090577D01*
X81191162Y-30139726D01*
X81084374Y-30211079D01*
X80993558Y-30301895D01*
X80922205Y-30408683D01*
X80873056Y-30527340D01*
X80848000Y-30653305D01*
X78139000Y-30653305D01*
X78106758Y-30592986D01*
X78068877Y-30546827D01*
X78056211Y-30531393D01*
X78040776Y-30518726D01*
X76600085Y-29078037D01*
X76587409Y-29062591D01*
X76525815Y-29012043D01*
X76455544Y-28974483D01*
X76379296Y-28951353D01*
X76319870Y-28945500D01*
X76300000Y-28943543D01*
X76280130Y-28945500D01*
X75167549Y-28945500D01*
X74879500Y-28657452D01*
X74879500Y-28269866D01*
X74881457Y-28249999D01*
X74879438Y-28229501D01*
X74873647Y-28170704D01*
X74850517Y-28094456D01*
X74812957Y-28024185D01*
X74762409Y-27962591D01*
X74746968Y-27949919D01*
X74699049Y-27902000D01*
X75502359Y-27902000D01*
X75468054Y-27984819D01*
G36*
X69536357Y-39088060D02*
G01*
X69520816Y-39100814D01*
X69484515Y-39145048D01*
X69469956Y-39162788D01*
X69438197Y-39222205D01*
X69432163Y-39233494D01*
X69408890Y-39310214D01*
X69405654Y-39343075D01*
X69401032Y-39389999D01*
X69403001Y-39409989D01*
X69403002Y-41740490D01*
X69280828Y-41740490D01*
X69193290Y-41757902D01*
X69191578Y-41740511D01*
X69188828Y-41712592D01*
X69183685Y-41660369D01*
X69163276Y-41593094D01*
X69150691Y-41551605D01*
X69097113Y-41451366D01*
X69025008Y-41363507D01*
X69002996Y-41345442D01*
X68434510Y-40776956D01*
X68434510Y-38918163D01*
X68435305Y-38916973D01*
X68484454Y-38798316D01*
X68509510Y-38672351D01*
X68509510Y-38543919D01*
X68484454Y-38417954D01*
X68437460Y-38304500D01*
X70319916Y-38304500D01*
X69536357Y-39088060D01*
X69536357Y-39088060D01*
G37*
X69536357Y-39088060D02*
X69520816Y-39100814D01*
X69484515Y-39145048D01*
X69469956Y-39162788D01*
X69438197Y-39222205D01*
X69432163Y-39233494D01*
X69408890Y-39310214D01*
X69405654Y-39343075D01*
X69401032Y-39389999D01*
X69403001Y-39409989D01*
X69403002Y-41740490D01*
X69280828Y-41740490D01*
X69193290Y-41757902D01*
X69191578Y-41740511D01*
X69188828Y-41712592D01*
X69183685Y-41660369D01*
X69163276Y-41593094D01*
X69150691Y-41551605D01*
X69097113Y-41451366D01*
X69025008Y-41363507D01*
X69002996Y-41345442D01*
X68434510Y-40776956D01*
X68434510Y-38918163D01*
X68435305Y-38916973D01*
X68484454Y-38798316D01*
X68509510Y-38672351D01*
X68509510Y-38543919D01*
X68484454Y-38417954D01*
X68437460Y-38304500D01*
X70319916Y-38304500D01*
X69536357Y-39088060D01*
G36*
X78043001Y-36678440D02*
G01*
X77958838Y-36622205D01*
X77840181Y-36573056D01*
X77714216Y-36548000D01*
X77585784Y-36548000D01*
X77459819Y-36573056D01*
X77341162Y-36622205D01*
X77339972Y-36623000D01*
X75695886Y-36623000D01*
X75667557Y-36620210D01*
X75639228Y-36623000D01*
X75639222Y-36623000D01*
X75554446Y-36631350D01*
X75445682Y-36664343D01*
X75445680Y-36664344D01*
X75441220Y-36666728D01*
X75345443Y-36717921D01*
X75257584Y-36790026D01*
X75239519Y-36812038D01*
X70414850Y-41636707D01*
X70413447Y-41636986D01*
X70294790Y-41686135D01*
X70217001Y-41738112D01*
X70217001Y-39558582D01*
X71216809Y-38558775D01*
X71223056Y-38590181D01*
X71272205Y-38708838D01*
X71343558Y-38815626D01*
X71434374Y-38906442D01*
X71541162Y-38977795D01*
X71659819Y-39026944D01*
X71785784Y-39052000D01*
X71914216Y-39052000D01*
X72040181Y-39026944D01*
X72158838Y-38977795D01*
X72265626Y-38906442D01*
X72356442Y-38815626D01*
X72427795Y-38708838D01*
X72476944Y-38590181D01*
X72502000Y-38464216D01*
X72502000Y-38335784D01*
X72476944Y-38209819D01*
X72427795Y-38091162D01*
X72356442Y-37984374D01*
X72265626Y-37893558D01*
X72158838Y-37822205D01*
X72149485Y-37818331D01*
X72712994Y-37818331D01*
X72732864Y-37820288D01*
X72758339Y-37817779D01*
X72812160Y-37812478D01*
X72888408Y-37789348D01*
X72958679Y-37751788D01*
X73020273Y-37701240D01*
X73032949Y-37685794D01*
X76006372Y-34712372D01*
X76100203Y-34775068D01*
X76218860Y-34824217D01*
X76344825Y-34849273D01*
X76473257Y-34849273D01*
X76599222Y-34824217D01*
X76717879Y-34775068D01*
X76824667Y-34703715D01*
X76915483Y-34612899D01*
X76986836Y-34506111D01*
X77035985Y-34387454D01*
X77061041Y-34261489D01*
X77061041Y-34133057D01*
X77035985Y-34007092D01*
X76986836Y-33888435D01*
X76915483Y-33781647D01*
X76824667Y-33690831D01*
X76717879Y-33619478D01*
X76599222Y-33570329D01*
X76473257Y-33545273D01*
X76344825Y-33545273D01*
X76218860Y-33570329D01*
X76100203Y-33619478D01*
X75993415Y-33690831D01*
X75902599Y-33781647D01*
X75892742Y-33796398D01*
X75870125Y-33798626D01*
X75846995Y-33805643D01*
X75793878Y-33821756D01*
X75723607Y-33859316D01*
X75662013Y-33909864D01*
X75649342Y-33925304D01*
X72565316Y-37009331D01*
X71962717Y-37009331D01*
X76167550Y-32804500D01*
X76986124Y-32804500D01*
X76993558Y-32815626D01*
X77084374Y-32906442D01*
X77191162Y-32977795D01*
X77309819Y-33026944D01*
X77435784Y-33052000D01*
X77564216Y-33052000D01*
X77690181Y-33026944D01*
X77808838Y-32977795D01*
X77915626Y-32906442D01*
X78006442Y-32815626D01*
X78043000Y-32760913D01*
X78043001Y-36678440D01*
X78043001Y-36678440D01*
G37*
X78043001Y-36678440D02*
X77958838Y-36622205D01*
X77840181Y-36573056D01*
X77714216Y-36548000D01*
X77585784Y-36548000D01*
X77459819Y-36573056D01*
X77341162Y-36622205D01*
X77339972Y-36623000D01*
X75695886Y-36623000D01*
X75667557Y-36620210D01*
X75639228Y-36623000D01*
X75639222Y-36623000D01*
X75554446Y-36631350D01*
X75445682Y-36664343D01*
X75445680Y-36664344D01*
X75441220Y-36666728D01*
X75345443Y-36717921D01*
X75257584Y-36790026D01*
X75239519Y-36812038D01*
X70414850Y-41636707D01*
X70413447Y-41636986D01*
X70294790Y-41686135D01*
X70217001Y-41738112D01*
X70217001Y-39558582D01*
X71216809Y-38558775D01*
X71223056Y-38590181D01*
X71272205Y-38708838D01*
X71343558Y-38815626D01*
X71434374Y-38906442D01*
X71541162Y-38977795D01*
X71659819Y-39026944D01*
X71785784Y-39052000D01*
X71914216Y-39052000D01*
X72040181Y-39026944D01*
X72158838Y-38977795D01*
X72265626Y-38906442D01*
X72356442Y-38815626D01*
X72427795Y-38708838D01*
X72476944Y-38590181D01*
X72502000Y-38464216D01*
X72502000Y-38335784D01*
X72476944Y-38209819D01*
X72427795Y-38091162D01*
X72356442Y-37984374D01*
X72265626Y-37893558D01*
X72158838Y-37822205D01*
X72149485Y-37818331D01*
X72712994Y-37818331D01*
X72732864Y-37820288D01*
X72758339Y-37817779D01*
X72812160Y-37812478D01*
X72888408Y-37789348D01*
X72958679Y-37751788D01*
X73020273Y-37701240D01*
X73032949Y-37685794D01*
X76006372Y-34712372D01*
X76100203Y-34775068D01*
X76218860Y-34824217D01*
X76344825Y-34849273D01*
X76473257Y-34849273D01*
X76599222Y-34824217D01*
X76717879Y-34775068D01*
X76824667Y-34703715D01*
X76915483Y-34612899D01*
X76986836Y-34506111D01*
X77035985Y-34387454D01*
X77061041Y-34261489D01*
X77061041Y-34133057D01*
X77035985Y-34007092D01*
X76986836Y-33888435D01*
X76915483Y-33781647D01*
X76824667Y-33690831D01*
X76717879Y-33619478D01*
X76599222Y-33570329D01*
X76473257Y-33545273D01*
X76344825Y-33545273D01*
X76218860Y-33570329D01*
X76100203Y-33619478D01*
X75993415Y-33690831D01*
X75902599Y-33781647D01*
X75892742Y-33796398D01*
X75870125Y-33798626D01*
X75846995Y-33805643D01*
X75793878Y-33821756D01*
X75723607Y-33859316D01*
X75662013Y-33909864D01*
X75649342Y-33925304D01*
X72565316Y-37009331D01*
X71962717Y-37009331D01*
X76167550Y-32804500D01*
X76986124Y-32804500D01*
X76993558Y-32815626D01*
X77084374Y-32906442D01*
X77191162Y-32977795D01*
X77309819Y-33026944D01*
X77435784Y-33052000D01*
X77564216Y-33052000D01*
X77690181Y-33026944D01*
X77808838Y-32977795D01*
X77915626Y-32906442D01*
X78006442Y-32815626D01*
X78043000Y-32760913D01*
X78043001Y-36678440D01*
G36*
X70322655Y-27912910D02*
G01*
X70297599Y-28038875D01*
X70297599Y-28167307D01*
X70322655Y-28293272D01*
X70371804Y-28411929D01*
X70443157Y-28518717D01*
X70533973Y-28609533D01*
X70640761Y-28680886D01*
X70759418Y-28730035D01*
X70885383Y-28755091D01*
X71013815Y-28755091D01*
X71139780Y-28730035D01*
X71258437Y-28680886D01*
X71365225Y-28609533D01*
X71456041Y-28518717D01*
X71465898Y-28503966D01*
X71488514Y-28501738D01*
X71564762Y-28478608D01*
X71635033Y-28441048D01*
X71696627Y-28390500D01*
X71709302Y-28375055D01*
X71854857Y-28229501D01*
X73882453Y-28229501D01*
X74070501Y-28417549D01*
X74070500Y-28805130D01*
X74068543Y-28825000D01*
X74070500Y-28844869D01*
X74076353Y-28904295D01*
X74099483Y-28980543D01*
X74137043Y-29050814D01*
X74187591Y-29112409D01*
X74203037Y-29125085D01*
X74699919Y-29621968D01*
X74712591Y-29637409D01*
X74774185Y-29687957D01*
X74844456Y-29725517D01*
X74920704Y-29748647D01*
X74980130Y-29754500D01*
X74980132Y-29754500D01*
X74999999Y-29756457D01*
X75019866Y-29754500D01*
X76132452Y-29754500D01*
X77364303Y-30986353D01*
X77364302Y-31762219D01*
X77309819Y-31773056D01*
X77191162Y-31822205D01*
X77084374Y-31893558D01*
X76993558Y-31984374D01*
X76986124Y-31995500D01*
X76019870Y-31995500D01*
X76000000Y-31993543D01*
X75920703Y-32001353D01*
X75844455Y-32024483D01*
X75774185Y-32062043D01*
X75712591Y-32112591D01*
X75699924Y-32128026D01*
X72329045Y-35498907D01*
X72380280Y-35422227D01*
X72429429Y-35303570D01*
X72454485Y-35177605D01*
X72454485Y-35049173D01*
X72429429Y-34923208D01*
X72380280Y-34804551D01*
X72308927Y-34697763D01*
X72218111Y-34606947D01*
X72111323Y-34535594D01*
X71992666Y-34486445D01*
X71866701Y-34461389D01*
X71738269Y-34461389D01*
X71612304Y-34486445D01*
X71596448Y-34493013D01*
X71594794Y-34484343D01*
X71593172Y-34478969D01*
X71477748Y-34106094D01*
X71463615Y-34072472D01*
X71449980Y-34038725D01*
X71447345Y-34033768D01*
X71261694Y-33690413D01*
X71241311Y-33660194D01*
X71221369Y-33629719D01*
X71217821Y-33625369D01*
X70969014Y-33324614D01*
X70943164Y-33298944D01*
X70917669Y-33272909D01*
X70913344Y-33269331D01*
X70610859Y-33022630D01*
X70580477Y-33002444D01*
X70550448Y-32981883D01*
X70545511Y-32979213D01*
X70200869Y-32795963D01*
X70167155Y-32782067D01*
X70133693Y-32767725D01*
X70128331Y-32766065D01*
X69754660Y-32653247D01*
X69718908Y-32646168D01*
X69683280Y-32638595D01*
X69677698Y-32638009D01*
X69289513Y-32599947D01*
X69269747Y-32598000D01*
X68269665Y-32598000D01*
X68231337Y-32594242D01*
X68213391Y-32588824D01*
X68196834Y-32580021D01*
X68182305Y-32568171D01*
X68170352Y-32553722D01*
X68161433Y-32537227D01*
X68155890Y-32519319D01*
X68152000Y-32482308D01*
X68152000Y-32235784D01*
X71048000Y-32235784D01*
X71048000Y-32364216D01*
X71073056Y-32490181D01*
X71122205Y-32608838D01*
X71193558Y-32715626D01*
X71284374Y-32806442D01*
X71391162Y-32877795D01*
X71509819Y-32926944D01*
X71635784Y-32952000D01*
X71764216Y-32952000D01*
X71890181Y-32926944D01*
X72008838Y-32877795D01*
X72115626Y-32806442D01*
X72206442Y-32715626D01*
X72277795Y-32608838D01*
X72326944Y-32490181D01*
X72352000Y-32364216D01*
X72352000Y-32235784D01*
X72326944Y-32109819D01*
X72277795Y-31991162D01*
X72206442Y-31884374D01*
X72115626Y-31793558D01*
X72008838Y-31722205D01*
X71890181Y-31673056D01*
X71764216Y-31648000D01*
X71635784Y-31648000D01*
X71509819Y-31673056D01*
X71391162Y-31722205D01*
X71284374Y-31793558D01*
X71193558Y-31884374D01*
X71122205Y-31991162D01*
X71073056Y-32109819D01*
X71048000Y-32235784D01*
X68152000Y-32235784D01*
X68152000Y-31235784D01*
X75898000Y-31235784D01*
X75898000Y-31364216D01*
X75923056Y-31490181D01*
X75972205Y-31608838D01*
X76043558Y-31715626D01*
X76134374Y-31806442D01*
X76241162Y-31877795D01*
X76359819Y-31926944D01*
X76485784Y-31952000D01*
X76614216Y-31952000D01*
X76740181Y-31926944D01*
X76858838Y-31877795D01*
X76965626Y-31806442D01*
X77056442Y-31715626D01*
X77127795Y-31608838D01*
X77176944Y-31490181D01*
X77202000Y-31364216D01*
X77202000Y-31235784D01*
X77176944Y-31109819D01*
X77127795Y-30991162D01*
X77056442Y-30884374D01*
X76965626Y-30793558D01*
X76858838Y-30722205D01*
X76740181Y-30673056D01*
X76614216Y-30648000D01*
X76485784Y-30648000D01*
X76359819Y-30673056D01*
X76241162Y-30722205D01*
X76134374Y-30793558D01*
X76043558Y-30884374D01*
X75972205Y-30991162D01*
X75923056Y-31109819D01*
X75898000Y-31235784D01*
X68152000Y-31235784D01*
X68152000Y-27902000D01*
X70327174Y-27902000D01*
X70322655Y-27912910D01*
X70322655Y-27912910D01*
G37*
X70322655Y-27912910D02*
X70297599Y-28038875D01*
X70297599Y-28167307D01*
X70322655Y-28293272D01*
X70371804Y-28411929D01*
X70443157Y-28518717D01*
X70533973Y-28609533D01*
X70640761Y-28680886D01*
X70759418Y-28730035D01*
X70885383Y-28755091D01*
X71013815Y-28755091D01*
X71139780Y-28730035D01*
X71258437Y-28680886D01*
X71365225Y-28609533D01*
X71456041Y-28518717D01*
X71465898Y-28503966D01*
X71488514Y-28501738D01*
X71564762Y-28478608D01*
X71635033Y-28441048D01*
X71696627Y-28390500D01*
X71709302Y-28375055D01*
X71854857Y-28229501D01*
X73882453Y-28229501D01*
X74070501Y-28417549D01*
X74070500Y-28805130D01*
X74068543Y-28825000D01*
X74070500Y-28844869D01*
X74076353Y-28904295D01*
X74099483Y-28980543D01*
X74137043Y-29050814D01*
X74187591Y-29112409D01*
X74203037Y-29125085D01*
X74699919Y-29621968D01*
X74712591Y-29637409D01*
X74774185Y-29687957D01*
X74844456Y-29725517D01*
X74920704Y-29748647D01*
X74980130Y-29754500D01*
X74980132Y-29754500D01*
X74999999Y-29756457D01*
X75019866Y-29754500D01*
X76132452Y-29754500D01*
X77364303Y-30986353D01*
X77364302Y-31762219D01*
X77309819Y-31773056D01*
X77191162Y-31822205D01*
X77084374Y-31893558D01*
X76993558Y-31984374D01*
X76986124Y-31995500D01*
X76019870Y-31995500D01*
X76000000Y-31993543D01*
X75920703Y-32001353D01*
X75844455Y-32024483D01*
X75774185Y-32062043D01*
X75712591Y-32112591D01*
X75699924Y-32128026D01*
X72329045Y-35498907D01*
X72380280Y-35422227D01*
X72429429Y-35303570D01*
X72454485Y-35177605D01*
X72454485Y-35049173D01*
X72429429Y-34923208D01*
X72380280Y-34804551D01*
X72308927Y-34697763D01*
X72218111Y-34606947D01*
X72111323Y-34535594D01*
X71992666Y-34486445D01*
X71866701Y-34461389D01*
X71738269Y-34461389D01*
X71612304Y-34486445D01*
X71596448Y-34493013D01*
X71594794Y-34484343D01*
X71593172Y-34478969D01*
X71477748Y-34106094D01*
X71463615Y-34072472D01*
X71449980Y-34038725D01*
X71447345Y-34033768D01*
X71261694Y-33690413D01*
X71241311Y-33660194D01*
X71221369Y-33629719D01*
X71217821Y-33625369D01*
X70969014Y-33324614D01*
X70943164Y-33298944D01*
X70917669Y-33272909D01*
X70913344Y-33269331D01*
X70610859Y-33022630D01*
X70580477Y-33002444D01*
X70550448Y-32981883D01*
X70545511Y-32979213D01*
X70200869Y-32795963D01*
X70167155Y-32782067D01*
X70133693Y-32767725D01*
X70128331Y-32766065D01*
X69754660Y-32653247D01*
X69718908Y-32646168D01*
X69683280Y-32638595D01*
X69677698Y-32638009D01*
X69289513Y-32599947D01*
X69269747Y-32598000D01*
X68269665Y-32598000D01*
X68231337Y-32594242D01*
X68213391Y-32588824D01*
X68196834Y-32580021D01*
X68182305Y-32568171D01*
X68170352Y-32553722D01*
X68161433Y-32537227D01*
X68155890Y-32519319D01*
X68152000Y-32482308D01*
X68152000Y-32235784D01*
X71048000Y-32235784D01*
X71048000Y-32364216D01*
X71073056Y-32490181D01*
X71122205Y-32608838D01*
X71193558Y-32715626D01*
X71284374Y-32806442D01*
X71391162Y-32877795D01*
X71509819Y-32926944D01*
X71635784Y-32952000D01*
X71764216Y-32952000D01*
X71890181Y-32926944D01*
X72008838Y-32877795D01*
X72115626Y-32806442D01*
X72206442Y-32715626D01*
X72277795Y-32608838D01*
X72326944Y-32490181D01*
X72352000Y-32364216D01*
X72352000Y-32235784D01*
X72326944Y-32109819D01*
X72277795Y-31991162D01*
X72206442Y-31884374D01*
X72115626Y-31793558D01*
X72008838Y-31722205D01*
X71890181Y-31673056D01*
X71764216Y-31648000D01*
X71635784Y-31648000D01*
X71509819Y-31673056D01*
X71391162Y-31722205D01*
X71284374Y-31793558D01*
X71193558Y-31884374D01*
X71122205Y-31991162D01*
X71073056Y-32109819D01*
X71048000Y-32235784D01*
X68152000Y-32235784D01*
X68152000Y-31235784D01*
X75898000Y-31235784D01*
X75898000Y-31364216D01*
X75923056Y-31490181D01*
X75972205Y-31608838D01*
X76043558Y-31715626D01*
X76134374Y-31806442D01*
X76241162Y-31877795D01*
X76359819Y-31926944D01*
X76485784Y-31952000D01*
X76614216Y-31952000D01*
X76740181Y-31926944D01*
X76858838Y-31877795D01*
X76965626Y-31806442D01*
X77056442Y-31715626D01*
X77127795Y-31608838D01*
X77176944Y-31490181D01*
X77202000Y-31364216D01*
X77202000Y-31235784D01*
X77176944Y-31109819D01*
X77127795Y-30991162D01*
X77056442Y-30884374D01*
X76965626Y-30793558D01*
X76858838Y-30722205D01*
X76740181Y-30673056D01*
X76614216Y-30648000D01*
X76485784Y-30648000D01*
X76359819Y-30673056D01*
X76241162Y-30722205D01*
X76134374Y-30793558D01*
X76043558Y-30884374D01*
X75972205Y-30991162D01*
X75923056Y-31109819D01*
X75898000Y-31235784D01*
X68152000Y-31235784D01*
X68152000Y-27902000D01*
X70327174Y-27902000D01*
X70322655Y-27912910D01*
M02*
