M48
; DRILL file {KiCad (5.1.0-0)} date 2019 May 27, Monday 15:35:59
; FORMAT={-:-/ absolute / inch / decimal}
; #@! TF.CreationDate,2019-05-27T15:35:59-07:00
; #@! TF.GenerationSoftware,Kicad,Pcbnew,(5.1.0-0)
; #@! TF.FileFunction,Plated,1,4,PTH
FMAT,2
INCH
T1C0.0118
T2C0.0157
T3C0.0866
%
G90
G05
T1
X2.5886Y-1.4724
X2.5886Y-1.4961
X2.5886Y-1.5197
X2.5886Y-1.5433
X2.5886Y-1.5669
X2.5886Y-1.5906
X2.5886Y-1.6142
X2.5886Y-1.6378
X2.5886Y-2.8898
X2.5886Y-2.9134
X2.5886Y-2.937
X2.5886Y-2.9606
X2.5886Y-2.9843
X2.5886Y-3.0079
X2.5886Y-3.0315
X2.5886Y-3.0551
X2.6107Y-1.7827
X2.6139Y-2.283
X2.6142Y-2.5492
X2.6181Y-2.3563
X2.6181Y-2.7244
X2.6231Y-1.7522
X2.6263Y-1.4829
X2.6398Y-2.6831
X2.6457Y-2.4685
X2.6476Y-1.6732
X2.6716Y-1.52
X2.6828Y-2.7205
X2.6885Y-1.8793
X2.6917Y-2.1474
X2.707Y-2.3755
X2.7081Y-1.9786
X2.7094Y-1.9213
X2.7094Y-2.4213
X2.7126Y-2.4786
X2.7185Y-1.8494
X2.7264Y-1.5866
X2.7264Y-2.5748
X2.7283Y-2.277
X2.7283Y-2.6811
X2.7301Y-1.669
X2.7316Y-1.7624
X2.7362Y-1.2717
X2.737Y-2.0609
X2.7379Y-2.229
X2.7567Y-2.8142
X2.7638Y-2.7598
X2.7797Y-1.6639
X2.7933Y-1.1064
X2.8012Y-1.1437
X2.8022Y-2.8435
X2.8032Y-2.2275
X2.811Y-1.2323
X2.811Y-1.7557
X2.8228Y-1.2717
X2.8242Y-2.7555
X2.8269Y-1.3824
X2.8271Y-2.5294
X2.8287Y-1.5118
X2.8294Y-2.1405
X2.8471Y-2.2192
X2.8472Y-1.7073
X2.8504Y-1.3425
X2.8504Y-2.8445
X2.856Y-2.9876
X2.8701Y-2.4882
X2.8747Y-1.2244
X2.8878Y-2.4016
X2.8927Y-2.8415
X2.9016Y-1.1191
X2.9027Y-1.8635
X2.9142Y-1.9764
X2.9165Y-1.7773
X2.9262Y-2.8957
X2.936Y-1.8937
X2.9478Y-1.815
X2.9547Y-2.7894
X2.9606Y-2.7519
X2.9626Y-2.2972
X2.966Y-2.8941
X2.967Y-2.4142
X2.9682Y-1.1282
X2.9694Y-2.0729
X2.9724Y-2.3605
X2.9734Y-2.6919
X2.9783Y-1.4272
X2.9803Y-1.6781
X2.9918Y-2.1766
X2.9959Y-1.1093
X3.0005Y-2.6196
X3.0037Y-1.6568
X3.0072Y-2.4891
X3.0082Y-1.3463
X3.0127Y-2.5238
X3.0138Y-1.2323
X3.0138Y-1.8425
X3.0194Y-2.3669
X3.0203Y-2.2916
X3.0226Y-2.2472
X3.0233Y-2.4108
X3.0239Y-2.0335
X3.0256Y-1.5256
X3.0295Y-2.9852
X3.0325Y-2.7555
X3.0335Y-2.4488
X3.0404Y-3.0453
X3.0462Y-2.4926
X3.0512Y-1.2756
X3.0514Y-2.153
X3.0571Y-1.4646
X3.0754Y-2.1739
X3.0759Y-2.946
X3.0768Y-2.0709
X3.0798Y-2.337
X3.0869Y-1.7498
X3.0948Y-2.4599
X3.0953Y-2.1492
X3.0954Y-2.5484
X3.0984Y-2.9232
X3.1019Y-2.9641
X3.1043Y-1.9203
X3.1083Y-1.2185
X3.1211Y-2.1701
X3.128Y-1.6309
X3.1331Y-2.9588
X3.1378Y-1.4626
X3.1384Y-2.3469
X3.1395Y-2.1388
X3.1395Y-2.54
X3.1467Y-1.8681
X3.1515Y-2.9078
X3.1543Y-1.9968
X3.1575Y-1.2185
X3.1691Y-1.676
X3.1811Y-2.9596
X3.1863Y-2.5453
X3.1869Y-2.031
X3.1967Y-2.4885
X3.2002Y-1.9373
X3.2037Y-1.1171
X3.205Y-2.5198
X3.2087Y-1.2094
X3.2139Y-2.424
X3.2175Y-1.8907
X3.2197Y-2.3416
X3.2233Y-2.1496
X3.2273Y-1.9547
X3.2283Y-1.3248
X3.2323Y-1.9885
X3.2421Y-1.9252
X3.2435Y-1.5504
X3.2442Y-2.2501
X3.2466Y-2.0168
X3.2467Y-2.1709
X3.2532Y-2.4856
X3.2578Y-2.4137
X3.2579Y-2.5472
X3.2638Y-2.3425
X3.2698Y-2.4586
X3.2756Y-1.5594
X3.2774Y-2.803
X3.28Y-2.2583
X3.28Y-2.5223
X3.2894Y-1.4587
X3.2913Y-1.2008
X3.2946Y-1.6367
X3.2953Y-1.7913
X3.2972Y-2.3681
X3.2983Y-1.7352
X3.3012Y-2.5945
X3.3025Y-2.4278
X3.3057Y-1.5811
X3.3071Y-2.1424
X3.3072Y-1.5494
X3.3091Y-2.3075
X3.3096Y-2.2469
X3.312Y-2.0305
X3.3121Y-1.6631
X3.3128Y-2.5108
X3.3141Y-2.625
X3.3258Y-2.5548
X3.3285Y-2.9091
X3.3316Y-1.603
X3.3383Y-1.1918
X3.3389Y-1.5505
X3.3391Y-2.3236
X3.3445Y-1.1322
X3.3445Y-2.6102
X3.3553Y-1.9889
X3.3582Y-2.1962
X3.3749Y-2.6326
X3.3809Y-1.8455
X3.386Y-2.7111
X3.3866Y-2.7543
X3.3927Y-2.8927
X3.4087Y-1.7247
X3.4108Y-2.4757
X3.4128Y-1.9876
X3.4166Y-2.3969
X3.4201Y-1.8697
X3.4232Y-2.7815
X3.4262Y-2.2907
X3.4291Y-2.1161
X3.4438Y-2.1508
X3.4489Y-2.7577
X3.4528Y-3.002
X3.4776Y-2.6387
X3.4791Y-2.6942
X3.481Y-1.3344
X3.4902Y-3.0049
X3.492Y-2.3376
X3.4921Y-2.222
X3.4922Y-2.0005
X3.5Y-2.1654
X3.502Y-2.2618
X3.5453Y-2.4173
X3.5463Y-1.747
X3.564Y-2.0384
X3.5768Y-2.748
X3.5768Y-1.7037
X3.5787Y-2.563
X3.5826Y-1.8624
X3.5886Y-1.9016
X3.5923Y-2.9446
X3.5965Y-1.5669
X3.6004Y-1.4823
X3.6116Y-1.7837
X3.6161Y-2.3228
X3.6201Y-2.9803
X3.6284Y-2.1707
X3.6285Y-2.2195
X3.6358Y-3.0236
X3.6407Y-2.6093
X3.6457Y-2.8661
X3.6481Y-1.9731
X3.655Y-2.2565
X3.6634Y-2.6535
X3.6739Y-2.2827
X3.685Y-1.7618
X3.687Y-2.1737
X3.7037Y-2.372
X3.7303Y-1.4724
X3.7303Y-1.4961
X3.7303Y-1.5197
X3.7303Y-1.5433
X3.7303Y-1.5669
X3.7303Y-1.5906
X3.7303Y-1.6142
X3.7303Y-1.6378
X3.7303Y-2.8898
X3.7303Y-2.9134
X3.7303Y-2.937
X3.7303Y-2.9606
X3.7303Y-2.9843
X3.7303Y-3.0079
X3.7303Y-3.0315
X3.7303Y-3.0551
X3.3819Y-1.3858
X3.4252Y-1.3858
X3.3947Y-1.75
X3.3947Y-1.7933
T2
X2.6398Y-2.0628
X3.3382Y-1.4232
X2.4252Y-1.5551
X2.4442Y-1.5092
X2.4442Y-1.6011
X2.4902Y-1.4902
X2.4902Y-1.6201
X2.5361Y-1.5092
X2.5361Y-1.6011
X3.8287Y-2.9075
X2.4252Y-2.9724
X2.4442Y-2.9265
X2.4442Y-3.0184
X2.4902Y-2.9075
X2.4902Y-3.0374
X2.5361Y-2.9265
X2.5361Y-3.0184
X2.5551Y-2.9724
X3.7638Y-2.9724
X3.7828Y-2.9265
X3.7828Y-3.0184
X3.8287Y-3.0374
X3.8747Y-2.9265
X3.8747Y-3.0184
X3.8937Y-2.9724
X2.5551Y-1.5551
X3.7638Y-1.5551
X3.7828Y-1.5092
X3.7828Y-1.6011
X3.8287Y-1.4902
X3.8287Y-1.6201
X3.8747Y-1.5092
X3.8747Y-1.6011
X3.8937Y-1.5551
T3
X2.4902Y-1.5551
X3.8287Y-1.5551
X3.8287Y-2.9724
X2.4902Y-2.9724
T0
M30
