G04 #@! TF.GenerationSoftware,KiCad,Pcbnew,(5.1.0-0)*
G04 #@! TF.CreationDate,2019-05-27T15:35:51-07:00*
G04 #@! TF.ProjectId,Nanopilot,4e616e6f-7069-46c6-9f74-2e6b69636164,rev?*
G04 #@! TF.SameCoordinates,Original*
G04 #@! TF.FileFunction,Legend,Bot*
G04 #@! TF.FilePolarity,Positive*
%FSLAX46Y46*%
G04 Gerber Fmt 4.6, Leading zero omitted, Abs format (unit mm)*
G04 Created by KiCad (PCBNEW (5.1.0-0)) date 2019-05-27 15:35:51*
%MOMM*%
%LPD*%
G04 APERTURE LIST*
%ADD10C,0.010000*%
%ADD11C,0.150000*%
%ADD12C,0.120000*%
%ADD13C,0.200000*%
G04 APERTURE END LIST*
D10*
G36*
X81309348Y-32329262D02*
G01*
X81310021Y-32340230D01*
X81311208Y-32348848D01*
X81312884Y-32353911D01*
X81313758Y-32354698D01*
X81316598Y-32357860D01*
X81316786Y-32359095D01*
X81318700Y-32363331D01*
X81323670Y-32369627D01*
X81330544Y-32376818D01*
X81338169Y-32383744D01*
X81345390Y-32389242D01*
X81348596Y-32391146D01*
X81361710Y-32395527D01*
X81377669Y-32397325D01*
X81394671Y-32396511D01*
X81410914Y-32393055D01*
X81413402Y-32392226D01*
X81422024Y-32388896D01*
X81428240Y-32385947D01*
X81430765Y-32383994D01*
X81430771Y-32383934D01*
X81432903Y-32381973D01*
X81434439Y-32381774D01*
X81437753Y-32380026D01*
X81443597Y-32375456D01*
X81450896Y-32369074D01*
X81458575Y-32361891D01*
X81465559Y-32354916D01*
X81470772Y-32349161D01*
X81473140Y-32345634D01*
X81473184Y-32345364D01*
X81474828Y-32341896D01*
X81478457Y-32337351D01*
X81481751Y-32332727D01*
X81486624Y-32324547D01*
X81492374Y-32314039D01*
X81497333Y-32304379D01*
X81502978Y-32293051D01*
X81507919Y-32283147D01*
X81511578Y-32275826D01*
X81513266Y-32272464D01*
X81515287Y-32265783D01*
X81515597Y-32262523D01*
X81516700Y-32258196D01*
X81518247Y-32257186D01*
X81520377Y-32254958D01*
X81520898Y-32251702D01*
X81521529Y-32246854D01*
X81523225Y-32238298D01*
X81525692Y-32227447D01*
X81527386Y-32220555D01*
X81530652Y-32206879D01*
X81533758Y-32192582D01*
X81536187Y-32180082D01*
X81536813Y-32176380D01*
X81539067Y-32165126D01*
X81541998Y-32154313D01*
X81544585Y-32147221D01*
X81548669Y-32139988D01*
X81554342Y-32132057D01*
X81560531Y-32124691D01*
X81566165Y-32119157D01*
X81570173Y-32116718D01*
X81570458Y-32116693D01*
X81574077Y-32115055D01*
X81578053Y-32111931D01*
X81582811Y-32108522D01*
X81590697Y-32103851D01*
X81600404Y-32098586D01*
X81610625Y-32093391D01*
X81620054Y-32088934D01*
X81627383Y-32085881D01*
X81631101Y-32084884D01*
X81634502Y-32083388D01*
X81634883Y-32082233D01*
X81637151Y-32080240D01*
X81641510Y-32079582D01*
X81646491Y-32078675D01*
X81648137Y-32076931D01*
X81650327Y-32074664D01*
X81652776Y-32074240D01*
X81658366Y-32073329D01*
X81665984Y-32071154D01*
X81673407Y-32068457D01*
X81678414Y-32065978D01*
X81679013Y-32065494D01*
X81682847Y-32064062D01*
X81687051Y-32063677D01*
X81694105Y-32062656D01*
X81697875Y-32061285D01*
X81703291Y-32059129D01*
X81711182Y-32056673D01*
X81713744Y-32055983D01*
X81744255Y-32048174D01*
X81770445Y-32041677D01*
X81793097Y-32036373D01*
X81812996Y-32032145D01*
X81830924Y-32028874D01*
X81847666Y-32026443D01*
X81864006Y-32024732D01*
X81880727Y-32023625D01*
X81898613Y-32023002D01*
X81918448Y-32022746D01*
X81934424Y-32022723D01*
X81955258Y-32022891D01*
X81976541Y-32023303D01*
X81997002Y-32023917D01*
X82015371Y-32024691D01*
X82030376Y-32025584D01*
X82036479Y-32026086D01*
X82049241Y-32027362D01*
X82065399Y-32029084D01*
X82083923Y-32031133D01*
X82103782Y-32033388D01*
X82123946Y-32035729D01*
X82143383Y-32038035D01*
X82161064Y-32040187D01*
X82175957Y-32042064D01*
X82187031Y-32043547D01*
X82190226Y-32044012D01*
X82198977Y-32045305D01*
X82209952Y-32046881D01*
X82216734Y-32047836D01*
X82227588Y-32049357D01*
X82240847Y-32051228D01*
X82253668Y-32053049D01*
X82253845Y-32053074D01*
X82266638Y-32054895D01*
X82279912Y-32056782D01*
X82290824Y-32058330D01*
X82290957Y-32058348D01*
X82312337Y-32061432D01*
X82335344Y-32064843D01*
X82357052Y-32068148D01*
X82363854Y-32069207D01*
X82375513Y-32070908D01*
X82387426Y-32072450D01*
X82394338Y-32073222D01*
X82403239Y-32074467D01*
X82410625Y-32076117D01*
X82412894Y-32076909D01*
X82418994Y-32078797D01*
X82427217Y-32080404D01*
X82428798Y-32080622D01*
X82437773Y-32081966D01*
X82448640Y-32083871D01*
X82453981Y-32084905D01*
X82464719Y-32086910D01*
X82475463Y-32088669D01*
X82479826Y-32089282D01*
X82486702Y-32090658D01*
X82490689Y-32092421D01*
X82491092Y-32093103D01*
X82493442Y-32094605D01*
X82499303Y-32095431D01*
X82501539Y-32095487D01*
X82508597Y-32096103D01*
X82513122Y-32097633D01*
X82513624Y-32098138D01*
X82517215Y-32100063D01*
X82522902Y-32100788D01*
X82528965Y-32101622D01*
X82532180Y-32103439D01*
X82535705Y-32105232D01*
X82542128Y-32106080D01*
X82542939Y-32106090D01*
X82549009Y-32106766D01*
X82551996Y-32108426D01*
X82552061Y-32108741D01*
X82554361Y-32110616D01*
X82559857Y-32111392D01*
X82565979Y-32112209D01*
X82569291Y-32114042D01*
X82573027Y-32116264D01*
X82576110Y-32116693D01*
X82583047Y-32117911D01*
X82585895Y-32119035D01*
X82591812Y-32121791D01*
X82597787Y-32124336D01*
X82606129Y-32127724D01*
X82612367Y-32130256D01*
X82619385Y-32133267D01*
X82624259Y-32135558D01*
X82629519Y-32137552D01*
X82631672Y-32137900D01*
X82635044Y-32139201D01*
X82641977Y-32142751D01*
X82651520Y-32148017D01*
X82662718Y-32154467D01*
X82674621Y-32161569D01*
X82680502Y-32165176D01*
X82685474Y-32169017D01*
X82692396Y-32175326D01*
X82700349Y-32183145D01*
X82708417Y-32191513D01*
X82715683Y-32199470D01*
X82721229Y-32206056D01*
X82724138Y-32210313D01*
X82724363Y-32211068D01*
X82725620Y-32214422D01*
X82726544Y-32214773D01*
X82728681Y-32217059D01*
X82732205Y-32223175D01*
X82736590Y-32232006D01*
X82741309Y-32242438D01*
X82745835Y-32253354D01*
X82749643Y-32263642D01*
X82749701Y-32263813D01*
X82752982Y-32273950D01*
X82755797Y-32283933D01*
X82758269Y-32294499D01*
X82760517Y-32306385D01*
X82762661Y-32320328D01*
X82764824Y-32337066D01*
X82767125Y-32357336D01*
X82769685Y-32381876D01*
X82770741Y-32392377D01*
X82772251Y-32408229D01*
X82773632Y-32424393D01*
X82774890Y-32441142D01*
X82776028Y-32458747D01*
X82777052Y-32477482D01*
X82777966Y-32497619D01*
X82778776Y-32519431D01*
X82779486Y-32543190D01*
X82780101Y-32569169D01*
X82780625Y-32597641D01*
X82781065Y-32628879D01*
X82781424Y-32663154D01*
X82781707Y-32700739D01*
X82781919Y-32741908D01*
X82782066Y-32786932D01*
X82782151Y-32836085D01*
X82782179Y-32889638D01*
X82782157Y-32947865D01*
X82782087Y-33011038D01*
X82782057Y-33031220D01*
X82781976Y-33088131D01*
X82781918Y-33140121D01*
X82781891Y-33187570D01*
X82781900Y-33230859D01*
X82781950Y-33270367D01*
X82782048Y-33306477D01*
X82782200Y-33339567D01*
X82782412Y-33370018D01*
X82782689Y-33398212D01*
X82783037Y-33424527D01*
X82783463Y-33449345D01*
X82783972Y-33473047D01*
X82784571Y-33496011D01*
X82785264Y-33518620D01*
X82786058Y-33541252D01*
X82786959Y-33564290D01*
X82787973Y-33588112D01*
X82789106Y-33613100D01*
X82790363Y-33639634D01*
X82791751Y-33668094D01*
X82792044Y-33674040D01*
X82795514Y-33752408D01*
X82797955Y-33826156D01*
X82799373Y-33895232D01*
X82799767Y-33959586D01*
X82799142Y-34019165D01*
X82797499Y-34073919D01*
X82794841Y-34123798D01*
X82791170Y-34168749D01*
X82786489Y-34208722D01*
X82780799Y-34243665D01*
X82774104Y-34273528D01*
X82766405Y-34298259D01*
X82762507Y-34307946D01*
X82757389Y-34316824D01*
X82750713Y-34324770D01*
X82743753Y-34330508D01*
X82737784Y-34332764D01*
X82737690Y-34332765D01*
X82730266Y-34335034D01*
X82725394Y-34340794D01*
X82724363Y-34345673D01*
X82723187Y-34350826D01*
X82721712Y-34352646D01*
X82719802Y-34356229D01*
X82719061Y-34362080D01*
X82718279Y-34367596D01*
X82716411Y-34369876D01*
X82714262Y-34372098D01*
X82713760Y-34375214D01*
X82712553Y-34382080D01*
X82711109Y-34385817D01*
X82707575Y-34392837D01*
X82705807Y-34396348D01*
X82703623Y-34402432D01*
X82703157Y-34405626D01*
X82702079Y-34409181D01*
X82701153Y-34409638D01*
X82698866Y-34411813D01*
X82695849Y-34417158D01*
X82695349Y-34418253D01*
X82690757Y-34427131D01*
X82683913Y-34438545D01*
X82675859Y-34450879D01*
X82667635Y-34462517D01*
X82662693Y-34468941D01*
X82652608Y-34480570D01*
X82640128Y-34493628D01*
X82626503Y-34506922D01*
X82612980Y-34519257D01*
X82600809Y-34529440D01*
X82594474Y-34534160D01*
X82588427Y-34538499D01*
X82584454Y-34541616D01*
X82583870Y-34542178D01*
X82581024Y-34544550D01*
X82575496Y-34548581D01*
X82573267Y-34550131D01*
X82567209Y-34554456D01*
X82563238Y-34557597D01*
X82562664Y-34558169D01*
X82560015Y-34560281D01*
X82553983Y-34564590D01*
X82545603Y-34570365D01*
X82540132Y-34574061D01*
X82530292Y-34580798D01*
X82521652Y-34586959D01*
X82515508Y-34591608D01*
X82513787Y-34593066D01*
X82508665Y-34596695D01*
X82505172Y-34597845D01*
X82501976Y-34599347D01*
X82501696Y-34600317D01*
X82499508Y-34603011D01*
X82496410Y-34604467D01*
X82490339Y-34607424D01*
X82487794Y-34609372D01*
X82483564Y-34612896D01*
X82477143Y-34617685D01*
X82475187Y-34619067D01*
X82468774Y-34623590D01*
X82464073Y-34626996D01*
X82463259Y-34627614D01*
X82460162Y-34629971D01*
X82453798Y-34634767D01*
X82445144Y-34641268D01*
X82436751Y-34647559D01*
X82408327Y-34670028D01*
X82384137Y-34691796D01*
X82363328Y-34713653D01*
X82355901Y-34722424D01*
X82349063Y-34730642D01*
X82342808Y-34737927D01*
X82338671Y-34742509D01*
X82333504Y-34748352D01*
X82327662Y-34755585D01*
X82326742Y-34756788D01*
X82321458Y-34763629D01*
X82316845Y-34769364D01*
X82316139Y-34770202D01*
X82312116Y-34775097D01*
X82306606Y-34782020D01*
X82304211Y-34785083D01*
X82299066Y-34791163D01*
X82291666Y-34799218D01*
X82282782Y-34808484D01*
X82273185Y-34818199D01*
X82263646Y-34827597D01*
X82254936Y-34835916D01*
X82247827Y-34842393D01*
X82243089Y-34846264D01*
X82241657Y-34847021D01*
X82237991Y-34848674D01*
X82233354Y-34852322D01*
X82228104Y-34856186D01*
X82224187Y-34857624D01*
X82220993Y-34859231D01*
X82220710Y-34860275D01*
X82218500Y-34862459D01*
X82215630Y-34862926D01*
X82210988Y-34863885D01*
X82209665Y-34865051D01*
X82206843Y-34867234D01*
X82200041Y-34870996D01*
X82190190Y-34875920D01*
X82178221Y-34881591D01*
X82165067Y-34887591D01*
X82151659Y-34893504D01*
X82138927Y-34898913D01*
X82127805Y-34903403D01*
X82119222Y-34906556D01*
X82114111Y-34907956D01*
X82113644Y-34907989D01*
X82109289Y-34909227D01*
X82108376Y-34910115D01*
X82105259Y-34911965D01*
X82098704Y-34914391D01*
X82093640Y-34915896D01*
X82086109Y-34918323D01*
X82081239Y-34920616D01*
X82080218Y-34921723D01*
X82077992Y-34923484D01*
X82074880Y-34923894D01*
X82067933Y-34925073D01*
X82064940Y-34926236D01*
X82059172Y-34928931D01*
X82052384Y-34931847D01*
X82045236Y-34934924D01*
X82039829Y-34937457D01*
X82033149Y-34939488D01*
X82029888Y-34939799D01*
X82025561Y-34940902D01*
X82024551Y-34942450D01*
X82022401Y-34944796D01*
X82020539Y-34945101D01*
X82014942Y-34946254D01*
X82011261Y-34947751D01*
X82004241Y-34951286D01*
X82000730Y-34953053D01*
X81994646Y-34955237D01*
X81991452Y-34955704D01*
X81987901Y-34957124D01*
X81987440Y-34958355D01*
X81985278Y-34960671D01*
X81983243Y-34961005D01*
X81980218Y-34962392D01*
X81980987Y-34965663D01*
X81985125Y-34969488D01*
X81986127Y-34970094D01*
X81992133Y-34974143D01*
X81996410Y-34977573D01*
X82001230Y-34981064D01*
X82004151Y-34982212D01*
X82007204Y-34984008D01*
X82012389Y-34988616D01*
X82016242Y-34992552D01*
X82028694Y-35003675D01*
X82045838Y-35015286D01*
X82067907Y-35027537D01*
X82076384Y-35031783D01*
X82090133Y-35038617D01*
X82100075Y-35043852D01*
X82107229Y-35048077D01*
X82112618Y-35051880D01*
X82115706Y-35054446D01*
X82120475Y-35057936D01*
X82123320Y-35059085D01*
X82127877Y-35061321D01*
X82131738Y-35066550D01*
X82133234Y-35072186D01*
X82131915Y-35078898D01*
X82129920Y-35083507D01*
X82126520Y-35088111D01*
X82120779Y-35094645D01*
X82113732Y-35102067D01*
X82106419Y-35109336D01*
X82099875Y-35115411D01*
X82095139Y-35119250D01*
X82093512Y-35120054D01*
X82089800Y-35121683D01*
X82087697Y-35123367D01*
X82083529Y-35126663D01*
X82076735Y-35131437D01*
X82072265Y-35134398D01*
X82062648Y-35140701D01*
X82052597Y-35147407D01*
X82049300Y-35149640D01*
X82042380Y-35153994D01*
X82037033Y-35156711D01*
X82035383Y-35157165D01*
X82032627Y-35159049D01*
X82032503Y-35159816D01*
X82030356Y-35162167D01*
X82028527Y-35162466D01*
X82024995Y-35163593D01*
X82024551Y-35164546D01*
X82022488Y-35167116D01*
X82017388Y-35170829D01*
X82016009Y-35171671D01*
X82007467Y-35176717D01*
X82016379Y-35180354D01*
X82023715Y-35181976D01*
X82034941Y-35182832D01*
X82048707Y-35182956D01*
X82063662Y-35182381D01*
X82078454Y-35181140D01*
X82091734Y-35179267D01*
X82096123Y-35178391D01*
X82105755Y-35176742D01*
X82118347Y-35175233D01*
X82131558Y-35174134D01*
X82134841Y-35173946D01*
X82158980Y-35172724D01*
X82165325Y-35180642D01*
X82171478Y-35188347D01*
X82177495Y-35195925D01*
X82177599Y-35196057D01*
X82181616Y-35202319D01*
X82183537Y-35207636D01*
X82183564Y-35208068D01*
X82184555Y-35213788D01*
X82186580Y-35219997D01*
X82189476Y-35227340D01*
X82191527Y-35232713D01*
X82196641Y-35245822D01*
X82201918Y-35257610D01*
X82204429Y-35262785D01*
X82207796Y-35270345D01*
X82209832Y-35276325D01*
X82210107Y-35278027D01*
X82211622Y-35281391D01*
X82212758Y-35281753D01*
X82214912Y-35283973D01*
X82215409Y-35287054D01*
X82216519Y-35291362D01*
X82218060Y-35292356D01*
X82220244Y-35294566D01*
X82220710Y-35297437D01*
X82221609Y-35302080D01*
X82222698Y-35303401D01*
X82225483Y-35306303D01*
X82229357Y-35312091D01*
X82233155Y-35318850D01*
X82235711Y-35324669D01*
X82235762Y-35324828D01*
X82238097Y-35328746D01*
X82239575Y-35329467D01*
X82241479Y-35331690D01*
X82241917Y-35334769D01*
X82242841Y-35339079D01*
X82244120Y-35340070D01*
X82246753Y-35342178D01*
X82250031Y-35347257D01*
X82250084Y-35347360D01*
X82254472Y-35354559D01*
X82258484Y-35359788D01*
X82262027Y-35364951D01*
X82263123Y-35368404D01*
X82264625Y-35371599D01*
X82265595Y-35371880D01*
X82268286Y-35374068D01*
X82269754Y-35377195D01*
X82272513Y-35381702D01*
X82278257Y-35388677D01*
X82285984Y-35397112D01*
X82294695Y-35406000D01*
X82303388Y-35414332D01*
X82311060Y-35421099D01*
X82316713Y-35425295D01*
X82318288Y-35426062D01*
X82322830Y-35428442D01*
X82324092Y-35430376D01*
X82326203Y-35432649D01*
X82327568Y-35432848D01*
X82331906Y-35434529D01*
X82336735Y-35438150D01*
X82342213Y-35442032D01*
X82346513Y-35443452D01*
X82350114Y-35444616D01*
X82350600Y-35445655D01*
X82352707Y-35448288D01*
X82357787Y-35451566D01*
X82357889Y-35451619D01*
X82364068Y-35455168D01*
X82368073Y-35458031D01*
X82372039Y-35461331D01*
X82378790Y-35466644D01*
X82386855Y-35472822D01*
X82390098Y-35475261D01*
X82393504Y-35479206D01*
X82398708Y-35486935D01*
X82405144Y-35497493D01*
X82412243Y-35509920D01*
X82419435Y-35523258D01*
X82424695Y-35533579D01*
X82430308Y-35544582D01*
X82435260Y-35553690D01*
X82439001Y-35559925D01*
X82440929Y-35562296D01*
X82443298Y-35565339D01*
X82443413Y-35566272D01*
X82445371Y-35571414D01*
X82450467Y-35578702D01*
X82457663Y-35587083D01*
X82465919Y-35595502D01*
X82474198Y-35602905D01*
X82481460Y-35608236D01*
X82486668Y-35610442D01*
X82486926Y-35610452D01*
X82491005Y-35612446D01*
X82491755Y-35613766D01*
X82494726Y-35615125D01*
X82501883Y-35616139D01*
X82512121Y-35616805D01*
X82524334Y-35617121D01*
X82537418Y-35617082D01*
X82550267Y-35616687D01*
X82561778Y-35615931D01*
X82570843Y-35614814D01*
X82574593Y-35613985D01*
X82584234Y-35611206D01*
X82594826Y-35608203D01*
X82597124Y-35607559D01*
X82604804Y-35605115D01*
X82610343Y-35602809D01*
X82611571Y-35602039D01*
X82616048Y-35600284D01*
X82620186Y-35599849D01*
X82624909Y-35598870D01*
X82626283Y-35597198D01*
X82628500Y-35595034D01*
X82631504Y-35594547D01*
X82637129Y-35593284D01*
X82644469Y-35590154D01*
X82646164Y-35589246D01*
X82653110Y-35585854D01*
X82658593Y-35584040D01*
X82659499Y-35583944D01*
X82662978Y-35582755D01*
X82663395Y-35581788D01*
X82665613Y-35579523D01*
X82671102Y-35576639D01*
X82672672Y-35575992D01*
X82678675Y-35573121D01*
X82681816Y-35570613D01*
X82681950Y-35570195D01*
X82684067Y-35568212D01*
X82685427Y-35568039D01*
X82689890Y-35566374D01*
X82694042Y-35563328D01*
X82699593Y-35558727D01*
X82706831Y-35553298D01*
X82708458Y-35552148D01*
X82716145Y-35546091D01*
X82724518Y-35538403D01*
X82732610Y-35530120D01*
X82739457Y-35522279D01*
X82744090Y-35515916D01*
X82745569Y-35512342D01*
X82747588Y-35509798D01*
X82748220Y-35509722D01*
X82750572Y-35507575D01*
X82750871Y-35505746D01*
X82751952Y-35502213D01*
X82752864Y-35501769D01*
X82755481Y-35499459D01*
X82759148Y-35493361D01*
X82763269Y-35484731D01*
X82767246Y-35474820D01*
X82770483Y-35464881D01*
X82770545Y-35464658D01*
X82772789Y-35455414D01*
X82775619Y-35442002D01*
X82778842Y-35425496D01*
X82782265Y-35406971D01*
X82785696Y-35387503D01*
X82788941Y-35368168D01*
X82791807Y-35350039D01*
X82794101Y-35334193D01*
X82794467Y-35331445D01*
X82797717Y-35311865D01*
X82801904Y-35296343D01*
X82805688Y-35286965D01*
X82809764Y-35278924D01*
X82813181Y-35273230D01*
X82815149Y-35271149D01*
X82816919Y-35268993D01*
X82817141Y-35267173D01*
X82818222Y-35263605D01*
X82819129Y-35263137D01*
X82821621Y-35261116D01*
X82826028Y-35255944D01*
X82830143Y-35250464D01*
X82837806Y-35241268D01*
X82847014Y-35232240D01*
X82851349Y-35228671D01*
X82858186Y-35223463D01*
X82863165Y-35219566D01*
X82864856Y-35218146D01*
X82867948Y-35216082D01*
X82873471Y-35213042D01*
X82878586Y-35209769D01*
X82880760Y-35207113D01*
X82880760Y-35207082D01*
X82882984Y-35205291D01*
X82886062Y-35204879D01*
X82890370Y-35203769D01*
X82891364Y-35202229D01*
X82893584Y-35200075D01*
X82896665Y-35199578D01*
X82900973Y-35198468D01*
X82901967Y-35196927D01*
X82904116Y-35194581D01*
X82905979Y-35194276D01*
X82911575Y-35193123D01*
X82915257Y-35191625D01*
X82922277Y-35188091D01*
X82925788Y-35186324D01*
X82931892Y-35184139D01*
X82935102Y-35183673D01*
X82940732Y-35182518D01*
X82944416Y-35181022D01*
X82951436Y-35177488D01*
X82954947Y-35175721D01*
X82961693Y-35173505D01*
X82965394Y-35173070D01*
X82970483Y-35171861D01*
X82972213Y-35170419D01*
X82975950Y-35168197D01*
X82979033Y-35167768D01*
X82985747Y-35166568D01*
X82989479Y-35165117D01*
X82996500Y-35161583D01*
X83000011Y-35159816D01*
X83006338Y-35157620D01*
X83009727Y-35157165D01*
X83013737Y-35155965D01*
X83021272Y-35152707D01*
X83031220Y-35147900D01*
X83041480Y-35142585D01*
X83052591Y-35136820D01*
X83062229Y-35132132D01*
X83069307Y-35129027D01*
X83072630Y-35128006D01*
X83076643Y-35126826D01*
X83077362Y-35125985D01*
X83080016Y-35123979D01*
X83086341Y-35120336D01*
X83095185Y-35115631D01*
X83105399Y-35110436D01*
X83115833Y-35105323D01*
X83125337Y-35100864D01*
X83132761Y-35097633D01*
X83136955Y-35096202D01*
X83137226Y-35096178D01*
X83140304Y-35094522D01*
X83140539Y-35093546D01*
X83142759Y-35091392D01*
X83145841Y-35090895D01*
X83150148Y-35089785D01*
X83151142Y-35088244D01*
X83153284Y-35085879D01*
X83155038Y-35085593D01*
X83159728Y-35084359D01*
X83166520Y-35081293D01*
X83168373Y-35080292D01*
X83175318Y-35076900D01*
X83180802Y-35075085D01*
X83181707Y-35074990D01*
X83185183Y-35073533D01*
X83185603Y-35072339D01*
X83187816Y-35070164D01*
X83190748Y-35069688D01*
X83195823Y-35068471D01*
X83197531Y-35067038D01*
X83201185Y-35064986D01*
X83205640Y-35064387D01*
X83210547Y-35063459D01*
X83212111Y-35061736D01*
X83214260Y-35059389D01*
X83216116Y-35059085D01*
X83220859Y-35058057D01*
X83228116Y-35055468D01*
X83231358Y-35054097D01*
X83240688Y-35050162D01*
X83249887Y-35046589D01*
X83251873Y-35045877D01*
X83259903Y-35042996D01*
X83266779Y-35040396D01*
X83267115Y-35040262D01*
X83274717Y-35037229D01*
X83279044Y-35035506D01*
X83287419Y-35032540D01*
X83299274Y-35028833D01*
X83313628Y-35024643D01*
X83329497Y-35020230D01*
X83345901Y-35015850D01*
X83361855Y-35011764D01*
X83376380Y-35008229D01*
X83388492Y-35005503D01*
X83397209Y-35003846D01*
X83400824Y-35003459D01*
X83406626Y-35002636D01*
X83409423Y-35001047D01*
X83412787Y-34999169D01*
X83419236Y-34997539D01*
X83420845Y-34997287D01*
X83430194Y-34995661D01*
X83440394Y-34993446D01*
X83442068Y-34993031D01*
X83452237Y-34990455D01*
X83462545Y-34987862D01*
X83463937Y-34987513D01*
X83473838Y-34985032D01*
X83484343Y-34982389D01*
X83485806Y-34982020D01*
X83495222Y-34979827D01*
X83504179Y-34978017D01*
X83505712Y-34977751D01*
X83512070Y-34976115D01*
X83515724Y-34974088D01*
X83515809Y-34973967D01*
X83519307Y-34972149D01*
X83523773Y-34971609D01*
X83530874Y-34970636D01*
X83534882Y-34969216D01*
X83540212Y-34967084D01*
X83548154Y-34964562D01*
X83551414Y-34963656D01*
X83559685Y-34961213D01*
X83566337Y-34958827D01*
X83567945Y-34958096D01*
X83574668Y-34956000D01*
X83577729Y-34955704D01*
X83582819Y-34954495D01*
X83584549Y-34953053D01*
X83588285Y-34950831D01*
X83591368Y-34950402D01*
X83598235Y-34949112D01*
X83601152Y-34947877D01*
X83605958Y-34945768D01*
X83614017Y-34942727D01*
X83622985Y-34939615D01*
X83632058Y-34936387D01*
X83639170Y-34933474D01*
X83642734Y-34931538D01*
X83647383Y-34929497D01*
X83650060Y-34929196D01*
X83656639Y-34927999D01*
X83659470Y-34926877D01*
X83672739Y-34920322D01*
X83682025Y-34916065D01*
X83687979Y-34913823D01*
X83690831Y-34913291D01*
X83694195Y-34911777D01*
X83694557Y-34910640D01*
X83696691Y-34908257D01*
X83698346Y-34907989D01*
X83701993Y-34906898D01*
X83709437Y-34903922D01*
X83719714Y-34899505D01*
X83731861Y-34894092D01*
X83744913Y-34888130D01*
X83757907Y-34882063D01*
X83769877Y-34876337D01*
X83779859Y-34871396D01*
X83786891Y-34867686D01*
X83789986Y-34865676D01*
X83792841Y-34863845D01*
X83799209Y-34860375D01*
X83807834Y-34855946D01*
X83809867Y-34854931D01*
X83818752Y-34850333D01*
X83825570Y-34846453D01*
X83829095Y-34843997D01*
X83829306Y-34843719D01*
X83832340Y-34842049D01*
X83835271Y-34841719D01*
X83839457Y-34840566D01*
X83840351Y-34839068D01*
X83842572Y-34836915D01*
X83845653Y-34836418D01*
X83849960Y-34835308D01*
X83850955Y-34833767D01*
X83853175Y-34831613D01*
X83856256Y-34831116D01*
X83860564Y-34830006D01*
X83861558Y-34828465D01*
X83863686Y-34826072D01*
X83865283Y-34825814D01*
X83869752Y-34824701D01*
X83876811Y-34821879D01*
X83880526Y-34820136D01*
X83888954Y-34816125D01*
X83896524Y-34812753D01*
X83898669Y-34811875D01*
X83905587Y-34808971D01*
X83909899Y-34806950D01*
X83915883Y-34804925D01*
X83918514Y-34804608D01*
X83922065Y-34803188D01*
X83922526Y-34801957D01*
X83924790Y-34799947D01*
X83928997Y-34799306D01*
X83934610Y-34798329D01*
X83937106Y-34796656D01*
X83940769Y-34794585D01*
X83945058Y-34794005D01*
X83950528Y-34793119D01*
X83952829Y-34791647D01*
X83956226Y-34789610D01*
X83962480Y-34787880D01*
X83962926Y-34787800D01*
X83970396Y-34786501D01*
X83980436Y-34784743D01*
X83987471Y-34783505D01*
X84006839Y-34780552D01*
X84026068Y-34778662D01*
X84045960Y-34777858D01*
X84067316Y-34778163D01*
X84090938Y-34779602D01*
X84117627Y-34782197D01*
X84148187Y-34785974D01*
X84169051Y-34788864D01*
X84180695Y-34790488D01*
X84194570Y-34792364D01*
X84207488Y-34794061D01*
X84220897Y-34795793D01*
X84235353Y-34797664D01*
X84247250Y-34799209D01*
X84259041Y-34800729D01*
X84273329Y-34802549D01*
X84287352Y-34804319D01*
X84289663Y-34804608D01*
X84303338Y-34806321D01*
X84317783Y-34808133D01*
X84330235Y-34809698D01*
X84332075Y-34809930D01*
X84343595Y-34811354D01*
X84357793Y-34813073D01*
X84372078Y-34814773D01*
X84375814Y-34815211D01*
X84402754Y-34818466D01*
X84429856Y-34821969D01*
X84457989Y-34825814D01*
X84471283Y-34827654D01*
X84485790Y-34829637D01*
X84496425Y-34831072D01*
X84509124Y-34832858D01*
X84522726Y-34834902D01*
X84531548Y-34836312D01*
X84554037Y-34840055D01*
X84572164Y-34843077D01*
X84586796Y-34845528D01*
X84598802Y-34847557D01*
X84609050Y-34849313D01*
X84618407Y-34850946D01*
X84627740Y-34852604D01*
X84637919Y-34854437D01*
X84649810Y-34856594D01*
X84655473Y-34857624D01*
X84678826Y-34861846D01*
X84697721Y-34865202D01*
X84712910Y-34867818D01*
X84725143Y-34869821D01*
X84735172Y-34871337D01*
X84743747Y-34872493D01*
X84744275Y-34872559D01*
X84752049Y-34873957D01*
X84757595Y-34875734D01*
X84758722Y-34876437D01*
X84763146Y-34878304D01*
X84767780Y-34878831D01*
X84776378Y-34880725D01*
X84787329Y-34885881D01*
X84799566Y-34893509D01*
X84812024Y-34902819D01*
X84823637Y-34913022D01*
X84833337Y-34923327D01*
X84839504Y-34931956D01*
X84844533Y-34941240D01*
X84850000Y-34952227D01*
X84854669Y-34962388D01*
X84856295Y-34966307D01*
X84859199Y-34973225D01*
X84861220Y-34977537D01*
X84863273Y-34984268D01*
X84863562Y-34987321D01*
X84864771Y-34992411D01*
X84866212Y-34994140D01*
X84868283Y-34997804D01*
X84868863Y-35002093D01*
X84869864Y-35007644D01*
X84871514Y-35010045D01*
X84873631Y-35013731D01*
X84874165Y-35017624D01*
X84875071Y-35023472D01*
X84876355Y-35026083D01*
X84878390Y-35029992D01*
X84880997Y-35036952D01*
X84882137Y-35040530D01*
X84891950Y-35065306D01*
X84905345Y-35086210D01*
X84922429Y-35103374D01*
X84943307Y-35116928D01*
X84944233Y-35117403D01*
X84956763Y-35121947D01*
X84970637Y-35124102D01*
X84984130Y-35123822D01*
X84995513Y-35121060D01*
X84999638Y-35118894D01*
X85011884Y-35107732D01*
X85022652Y-35091888D01*
X85031691Y-35071834D01*
X85038750Y-35048046D01*
X85039971Y-35042557D01*
X85041297Y-35033339D01*
X85042342Y-35020270D01*
X85043107Y-35004335D01*
X85043591Y-34986514D01*
X85043792Y-34967792D01*
X85043709Y-34949151D01*
X85043343Y-34931574D01*
X85042691Y-34916042D01*
X85041754Y-34903540D01*
X85040529Y-34895049D01*
X85040099Y-34893410D01*
X85033371Y-34876066D01*
X85024418Y-34860499D01*
X85012255Y-34845178D01*
X85002653Y-34835113D01*
X84992056Y-34825013D01*
X84984237Y-34818647D01*
X84978661Y-34815610D01*
X84976411Y-34815211D01*
X84972464Y-34814015D01*
X84971803Y-34813223D01*
X84969096Y-34810928D01*
X84962995Y-34807071D01*
X84954855Y-34802438D01*
X84946036Y-34797817D01*
X84941118Y-34795440D01*
X84936573Y-34792625D01*
X84935154Y-34790691D01*
X84933114Y-34788741D01*
X84932624Y-34788703D01*
X84929223Y-34787445D01*
X84922689Y-34784143D01*
X84914420Y-34779504D01*
X84914215Y-34779384D01*
X84903671Y-34772514D01*
X84893473Y-34764674D01*
X84884571Y-34756736D01*
X84877912Y-34749570D01*
X84874447Y-34744049D01*
X84874165Y-34742632D01*
X84872826Y-34738905D01*
X84871514Y-34738338D01*
X84869743Y-34736087D01*
X84868959Y-34730762D01*
X84869194Y-34724502D01*
X84870479Y-34719448D01*
X84871216Y-34718324D01*
X84873836Y-34713890D01*
X84875351Y-34709903D01*
X84875752Y-34705865D01*
X84873258Y-34702822D01*
X84866809Y-34699527D01*
X84866372Y-34699337D01*
X84859864Y-34696103D01*
X84856037Y-34693399D01*
X84855609Y-34692649D01*
X84853391Y-34690985D01*
X84850464Y-34690623D01*
X84845389Y-34689406D01*
X84843680Y-34687973D01*
X84839942Y-34685746D01*
X84836897Y-34685322D01*
X84832675Y-34684182D01*
X84831752Y-34682671D01*
X84829532Y-34680517D01*
X84826450Y-34680020D01*
X84822143Y-34678910D01*
X84821149Y-34677369D01*
X84818999Y-34675024D01*
X84817136Y-34674719D01*
X84811369Y-34673549D01*
X84808521Y-34672377D01*
X84801820Y-34669308D01*
X84791667Y-34665079D01*
X84778964Y-34660026D01*
X84764612Y-34654484D01*
X84749512Y-34648788D01*
X84734567Y-34643274D01*
X84720677Y-34638277D01*
X84708744Y-34634132D01*
X84699669Y-34631174D01*
X84694355Y-34629739D01*
X84693638Y-34629655D01*
X84688409Y-34628348D01*
X84687151Y-34627545D01*
X84683177Y-34625458D01*
X84676352Y-34622837D01*
X84674029Y-34622068D01*
X84653206Y-34614373D01*
X84645569Y-34610790D01*
X84638889Y-34608759D01*
X84635628Y-34608449D01*
X84631301Y-34607345D01*
X84630291Y-34605798D01*
X84628027Y-34603788D01*
X84623820Y-34603147D01*
X84618349Y-34602370D01*
X84616036Y-34601021D01*
X84612919Y-34599171D01*
X84606364Y-34596746D01*
X84601300Y-34595240D01*
X84593769Y-34592813D01*
X84588899Y-34590521D01*
X84587878Y-34589414D01*
X84585661Y-34587631D01*
X84582733Y-34587242D01*
X84577658Y-34586025D01*
X84575949Y-34584591D01*
X84572295Y-34582539D01*
X84567840Y-34581941D01*
X84562934Y-34581013D01*
X84561370Y-34579290D01*
X84559150Y-34577136D01*
X84556068Y-34576639D01*
X84551761Y-34575529D01*
X84550767Y-34573988D01*
X84548617Y-34571642D01*
X84546755Y-34571337D01*
X84540994Y-34570161D01*
X84538139Y-34568977D01*
X84533190Y-34566534D01*
X84525517Y-34562845D01*
X84520282Y-34560361D01*
X84512811Y-34556572D01*
X84507616Y-34553443D01*
X84506145Y-34552119D01*
X84503111Y-34550458D01*
X84500181Y-34550131D01*
X84495994Y-34548978D01*
X84495100Y-34547480D01*
X84492880Y-34545326D01*
X84489798Y-34544829D01*
X84485487Y-34543988D01*
X84484497Y-34542826D01*
X84482320Y-34540543D01*
X84476972Y-34537537D01*
X84475882Y-34537042D01*
X84470151Y-34534456D01*
X84460897Y-34530200D01*
X84449392Y-34524862D01*
X84436911Y-34519032D01*
X84436782Y-34518971D01*
X84424546Y-34513261D01*
X84413514Y-34508161D01*
X84404868Y-34504214D01*
X84399788Y-34501962D01*
X84399671Y-34501913D01*
X84392790Y-34498884D01*
X84388441Y-34496806D01*
X84382457Y-34494781D01*
X84379826Y-34494464D01*
X84376275Y-34493044D01*
X84375814Y-34491813D01*
X84373664Y-34489467D01*
X84371801Y-34489162D01*
X84366034Y-34487993D01*
X84363186Y-34486821D01*
X84357089Y-34484008D01*
X84351956Y-34481874D01*
X84344500Y-34478867D01*
X84337377Y-34475908D01*
X84329976Y-34472874D01*
X84324123Y-34470607D01*
X84315074Y-34467079D01*
X84305563Y-34463058D01*
X84298314Y-34459694D01*
X84292330Y-34457669D01*
X84289699Y-34457353D01*
X84286148Y-34455933D01*
X84285686Y-34454702D01*
X84283418Y-34452709D01*
X84279059Y-34452051D01*
X84274078Y-34451144D01*
X84272432Y-34449400D01*
X84270283Y-34447054D01*
X84268420Y-34446750D01*
X84262824Y-34445596D01*
X84259142Y-34444099D01*
X84252122Y-34440565D01*
X84248611Y-34438797D01*
X84242527Y-34436613D01*
X84239333Y-34436146D01*
X84235783Y-34434726D01*
X84235321Y-34433496D01*
X84233242Y-34431007D01*
X84232154Y-34430845D01*
X84228747Y-34429733D01*
X84221531Y-34426677D01*
X84211442Y-34422096D01*
X84199416Y-34416407D01*
X84194380Y-34413967D01*
X84181479Y-34407770D01*
X84169788Y-34402327D01*
X84160367Y-34398120D01*
X84154274Y-34395629D01*
X84153146Y-34395257D01*
X84147068Y-34393035D01*
X84138267Y-34389181D01*
X84128168Y-34384398D01*
X84118196Y-34379388D01*
X84109773Y-34374851D01*
X84104325Y-34371490D01*
X84103428Y-34370763D01*
X84098093Y-34367257D01*
X84094813Y-34365895D01*
X84090537Y-34363515D01*
X84089527Y-34361745D01*
X84087430Y-34359443D01*
X84086213Y-34359267D01*
X84082333Y-34357650D01*
X84076396Y-34353577D01*
X84073622Y-34351321D01*
X84067429Y-34346544D01*
X84062574Y-34343711D01*
X84061314Y-34343374D01*
X84057952Y-34341340D01*
X84056231Y-34337216D01*
X84057016Y-34334350D01*
X84060523Y-34333256D01*
X84066862Y-34332767D01*
X84067280Y-34332765D01*
X84073726Y-34332028D01*
X84077509Y-34330242D01*
X84077598Y-34330114D01*
X84081074Y-34328420D01*
X84087667Y-34327512D01*
X84089683Y-34327463D01*
X84096265Y-34326867D01*
X84099887Y-34325381D01*
X84100130Y-34324813D01*
X84102458Y-34323049D01*
X84108168Y-34322180D01*
X84109251Y-34322162D01*
X84115854Y-34321459D01*
X84119831Y-34319745D01*
X84120011Y-34319511D01*
X84123672Y-34317444D01*
X84127995Y-34316860D01*
X84135773Y-34315855D01*
X84140430Y-34314498D01*
X84145886Y-34312610D01*
X84154662Y-34309806D01*
X84164988Y-34306651D01*
X84166400Y-34306230D01*
X84176656Y-34303099D01*
X84185459Y-34300259D01*
X84191114Y-34298260D01*
X84191583Y-34298069D01*
X84196211Y-34296353D01*
X84204598Y-34293470D01*
X84215448Y-34289858D01*
X84224718Y-34286840D01*
X84237921Y-34282415D01*
X84253536Y-34276912D01*
X84270538Y-34270721D01*
X84287904Y-34264230D01*
X84304611Y-34257827D01*
X84319635Y-34251902D01*
X84331953Y-34246842D01*
X84340541Y-34243036D01*
X84341980Y-34242328D01*
X84347964Y-34240304D01*
X84350595Y-34239987D01*
X84354146Y-34238567D01*
X84354607Y-34237336D01*
X84356757Y-34234990D01*
X84358619Y-34234685D01*
X84364216Y-34233532D01*
X84367897Y-34232034D01*
X84374918Y-34228500D01*
X84378428Y-34226733D01*
X84384512Y-34224549D01*
X84387706Y-34224082D01*
X84391257Y-34222662D01*
X84391718Y-34221431D01*
X84393932Y-34219256D01*
X84396864Y-34218780D01*
X84401938Y-34217563D01*
X84403647Y-34216130D01*
X84407386Y-34213903D01*
X84410431Y-34213479D01*
X84414652Y-34212339D01*
X84415576Y-34210828D01*
X84417796Y-34208674D01*
X84420877Y-34208177D01*
X84425185Y-34207067D01*
X84426179Y-34205526D01*
X84428307Y-34203133D01*
X84429905Y-34202876D01*
X84434489Y-34201753D01*
X84441420Y-34198947D01*
X84443821Y-34197799D01*
X84448819Y-34195330D01*
X84457865Y-34190884D01*
X84470243Y-34184811D01*
X84485238Y-34177462D01*
X84502135Y-34169187D01*
X84520218Y-34160338D01*
X84522933Y-34159010D01*
X84540571Y-34150320D01*
X84556602Y-34142303D01*
X84570420Y-34135271D01*
X84581421Y-34129536D01*
X84589001Y-34125410D01*
X84592553Y-34123205D01*
X84592738Y-34122999D01*
X84595768Y-34121080D01*
X84598702Y-34120701D01*
X84602902Y-34119833D01*
X84603803Y-34118713D01*
X84605935Y-34116212D01*
X84609768Y-34113963D01*
X84616077Y-34110837D01*
X84623908Y-34106701D01*
X84631698Y-34102416D01*
X84637883Y-34098841D01*
X84640894Y-34096843D01*
X84644934Y-34093902D01*
X84651499Y-34089979D01*
X84658318Y-34086362D01*
X84662763Y-34084442D01*
X84666681Y-34082108D01*
X84667402Y-34080629D01*
X84669554Y-34078551D01*
X84671378Y-34078288D01*
X84674909Y-34077095D01*
X84675354Y-34076085D01*
X84677462Y-34073452D01*
X84682541Y-34070174D01*
X84682644Y-34070121D01*
X84690075Y-34065448D01*
X84695511Y-34061058D01*
X84700229Y-34056584D01*
X84707293Y-34049898D01*
X84715196Y-34042427D01*
X84715392Y-34042242D01*
X84723105Y-34034782D01*
X84730126Y-34027515D01*
X84737516Y-34019270D01*
X84746335Y-34008875D01*
X84754288Y-33999251D01*
X84763680Y-33988081D01*
X84773389Y-33976985D01*
X84782362Y-33967132D01*
X84789548Y-33959691D01*
X84791990Y-33957377D01*
X84802500Y-33948108D01*
X84809877Y-33942078D01*
X84814763Y-33938803D01*
X84817797Y-33937799D01*
X84817835Y-33937798D01*
X84820915Y-33936121D01*
X84821149Y-33935144D01*
X84823362Y-33932969D01*
X84826294Y-33932494D01*
X84831368Y-33931276D01*
X84833077Y-33929843D01*
X84836391Y-33928528D01*
X84843333Y-33927667D01*
X84852260Y-33927271D01*
X84861526Y-33927349D01*
X84869486Y-33927914D01*
X84874495Y-33928976D01*
X84875317Y-33929563D01*
X84879258Y-33931810D01*
X84887210Y-33933618D01*
X84897895Y-33934916D01*
X84910035Y-33935631D01*
X84922353Y-33935692D01*
X84933570Y-33935028D01*
X84942408Y-33933566D01*
X84943127Y-33933369D01*
X84963387Y-33925016D01*
X84981307Y-33912652D01*
X84995935Y-33897051D01*
X85004171Y-33883696D01*
X85007256Y-33876721D01*
X85009187Y-33869866D01*
X85010221Y-33861553D01*
X85010615Y-33850206D01*
X85010652Y-33843934D01*
X85009959Y-33824722D01*
X85007600Y-33808999D01*
X85003226Y-33795116D01*
X84997944Y-33784049D01*
X84989237Y-33770149D01*
X84979293Y-33757731D01*
X84969403Y-33748357D01*
X84966943Y-33746573D01*
X84960872Y-33742397D01*
X84956902Y-33739465D01*
X84956340Y-33738973D01*
X84952588Y-33736548D01*
X84945553Y-33733015D01*
X84936913Y-33729133D01*
X84928347Y-33725657D01*
X84921879Y-33723441D01*
X84912854Y-33720864D01*
X84903071Y-33718076D01*
X84901998Y-33717770D01*
X84894762Y-33716561D01*
X84884338Y-33715917D01*
X84871725Y-33715782D01*
X84857920Y-33716098D01*
X84843919Y-33716807D01*
X84830721Y-33717853D01*
X84819322Y-33719177D01*
X84810721Y-33720721D01*
X84805913Y-33722430D01*
X84805244Y-33723347D01*
X84802973Y-33725136D01*
X84798581Y-33725731D01*
X84790735Y-33727000D01*
X84785990Y-33728796D01*
X84777480Y-33733083D01*
X84772174Y-33735377D01*
X84768633Y-33736251D01*
X84767064Y-33736334D01*
X84763081Y-33737511D01*
X84762389Y-33738322D01*
X84759704Y-33740515D01*
X84753714Y-33744070D01*
X84748252Y-33746934D01*
X84740432Y-33750968D01*
X84734461Y-33754273D01*
X84732347Y-33755619D01*
X84728788Y-33758093D01*
X84722335Y-33762356D01*
X84716442Y-33766161D01*
X84708627Y-33771349D01*
X84702331Y-33775858D01*
X84699676Y-33778030D01*
X84695592Y-33781378D01*
X84688860Y-33786354D01*
X84683771Y-33789925D01*
X84675721Y-33795735D01*
X84668682Y-33801289D01*
X84665810Y-33803833D01*
X84659689Y-33809360D01*
X84652717Y-33815137D01*
X84652637Y-33815200D01*
X84639440Y-33825900D01*
X84626343Y-33837101D01*
X84616159Y-33846343D01*
X84608979Y-33852743D01*
X84600189Y-33860054D01*
X84595830Y-33863498D01*
X84588364Y-33869504D01*
X84582115Y-33874955D01*
X84579615Y-33877414D01*
X84575573Y-33881072D01*
X84573401Y-33882128D01*
X84570549Y-33883597D01*
X84564500Y-33887537D01*
X84556304Y-33893248D01*
X84551511Y-33896708D01*
X84542382Y-33903103D01*
X84534584Y-33908071D01*
X84529269Y-33910899D01*
X84527903Y-33911287D01*
X84524590Y-33912548D01*
X84524259Y-33913443D01*
X84522041Y-33915709D01*
X84516551Y-33918592D01*
X84514981Y-33919240D01*
X84508978Y-33922110D01*
X84505837Y-33924618D01*
X84505703Y-33925036D01*
X84503479Y-33926789D01*
X84500401Y-33927192D01*
X84496094Y-33928302D01*
X84495100Y-33929843D01*
X84492950Y-33932189D01*
X84491088Y-33932494D01*
X84485671Y-33933665D01*
X84481147Y-33935558D01*
X84472655Y-33939810D01*
X84467082Y-33942084D01*
X84462716Y-33942975D01*
X84459506Y-33943097D01*
X84453955Y-33943962D01*
X84451535Y-33945468D01*
X84447268Y-33948034D01*
X84438337Y-33950132D01*
X84425357Y-33951754D01*
X84408947Y-33952888D01*
X84389722Y-33953524D01*
X84368300Y-33953653D01*
X84345298Y-33953264D01*
X84321332Y-33952347D01*
X84297020Y-33950893D01*
X84272978Y-33948891D01*
X84268456Y-33948445D01*
X84242605Y-33946163D01*
X84212907Y-33944186D01*
X84179092Y-33942500D01*
X84140886Y-33941096D01*
X84098018Y-33939961D01*
X84050217Y-33939086D01*
X84033283Y-33938851D01*
X83922699Y-33937433D01*
X83920872Y-33927697D01*
X83920551Y-33922958D01*
X83920406Y-33913548D01*
X83920430Y-33900092D01*
X83920614Y-33883216D01*
X83920952Y-33863548D01*
X83921435Y-33841714D01*
X83922057Y-33818340D01*
X83922286Y-33810580D01*
X83923271Y-33778686D01*
X83924185Y-33751133D01*
X83925075Y-33726962D01*
X83925989Y-33705214D01*
X83926975Y-33684930D01*
X83928081Y-33665151D01*
X83929355Y-33644917D01*
X83930845Y-33623270D01*
X83932598Y-33599251D01*
X83933350Y-33589215D01*
X83934302Y-33573440D01*
X83935099Y-33553963D01*
X83935740Y-33531555D01*
X83936224Y-33506990D01*
X83936549Y-33481039D01*
X83936715Y-33454475D01*
X83936722Y-33428070D01*
X83936567Y-33402597D01*
X83936250Y-33378827D01*
X83935769Y-33357534D01*
X83935125Y-33339489D01*
X83934316Y-33325466D01*
X83933696Y-33318833D01*
X83932006Y-33304837D01*
X83930197Y-33290296D01*
X83928574Y-33277644D01*
X83928059Y-33273769D01*
X83926525Y-33261969D01*
X83924743Y-33247669D01*
X83923057Y-33233641D01*
X83922790Y-33231356D01*
X83920917Y-33216813D01*
X83918563Y-33200699D01*
X83916205Y-33186265D01*
X83915974Y-33184967D01*
X83913471Y-33170968D01*
X83912121Y-33161379D01*
X83912292Y-33155368D01*
X83914348Y-33152103D01*
X83918657Y-33150749D01*
X83925584Y-33150476D01*
X83931141Y-33150485D01*
X83954503Y-33149527D01*
X83982613Y-33146716D01*
X84015262Y-33142076D01*
X84029884Y-33139654D01*
X84045024Y-33137015D01*
X84056756Y-33134834D01*
X84066906Y-33132729D01*
X84077300Y-33130317D01*
X84089764Y-33127213D01*
X84092840Y-33126431D01*
X84102752Y-33123931D01*
X84112595Y-33121485D01*
X84114047Y-33121129D01*
X84131953Y-33116605D01*
X84147392Y-33112423D01*
X84159569Y-33108810D01*
X84167689Y-33105996D01*
X84169678Y-33105118D01*
X84175722Y-33103386D01*
X84182113Y-33102792D01*
X84188180Y-33102072D01*
X84191402Y-33100434D01*
X84194773Y-33098442D01*
X84201121Y-33096652D01*
X84202161Y-33096458D01*
X84211809Y-33094780D01*
X84220766Y-33093221D01*
X84227358Y-33091532D01*
X84231307Y-33089517D01*
X84231526Y-33089245D01*
X84234973Y-33087536D01*
X84240623Y-33086887D01*
X84246686Y-33086054D01*
X84249900Y-33084236D01*
X84253432Y-33082431D01*
X84259832Y-33081593D01*
X84260504Y-33081586D01*
X84267051Y-33080871D01*
X84270960Y-33079132D01*
X84271107Y-33078935D01*
X84274843Y-33076713D01*
X84277926Y-33076284D01*
X84284838Y-33075028D01*
X84287710Y-33073855D01*
X84292354Y-33071962D01*
X84300503Y-33069140D01*
X84310571Y-33065931D01*
X84312844Y-33065240D01*
X84322358Y-33062146D01*
X84329536Y-33059379D01*
X84333169Y-33057419D01*
X84333388Y-33057066D01*
X84335654Y-33055525D01*
X84339498Y-33055078D01*
X84345399Y-33054226D01*
X84348113Y-33052968D01*
X84352087Y-33050880D01*
X84358911Y-33048259D01*
X84361234Y-33047491D01*
X84369340Y-33044802D01*
X84376060Y-33042383D01*
X84377139Y-33041957D01*
X84383310Y-33039778D01*
X84393331Y-33036613D01*
X84405926Y-33032830D01*
X84419821Y-33028801D01*
X84433740Y-33024893D01*
X84446408Y-33021478D01*
X84456550Y-33018925D01*
X84456663Y-33018898D01*
X84474079Y-33015977D01*
X84493994Y-33014552D01*
X84514682Y-33014593D01*
X84534418Y-33016073D01*
X84551478Y-33018963D01*
X84557394Y-33020578D01*
X84569634Y-33024991D01*
X84583033Y-33030697D01*
X84596180Y-33037004D01*
X84607670Y-33043223D01*
X84616092Y-33048664D01*
X84618199Y-33050387D01*
X84622951Y-33053932D01*
X84625841Y-33055078D01*
X84629388Y-33056856D01*
X84632631Y-33059842D01*
X84637608Y-33064470D01*
X84644472Y-33069867D01*
X84646006Y-33070963D01*
X84653446Y-33076789D01*
X84663745Y-33085725D01*
X84676125Y-33097024D01*
X84689808Y-33109938D01*
X84704015Y-33123720D01*
X84717969Y-33137622D01*
X84730892Y-33150896D01*
X84742005Y-33162797D01*
X84744489Y-33165559D01*
X84752152Y-33174827D01*
X84760706Y-33186240D01*
X84769480Y-33198775D01*
X84777805Y-33211411D01*
X84785012Y-33223125D01*
X84790431Y-33232896D01*
X84793393Y-33239700D01*
X84793624Y-33240580D01*
X84795845Y-33248177D01*
X84797698Y-33252762D01*
X84798795Y-33258081D01*
X84799263Y-33267363D01*
X84799053Y-33279301D01*
X84798848Y-33283246D01*
X84797456Y-33306598D01*
X84796385Y-33325275D01*
X84795644Y-33339899D01*
X84795240Y-33351087D01*
X84795184Y-33359459D01*
X84795484Y-33365633D01*
X84796149Y-33370228D01*
X84797188Y-33373865D01*
X84798609Y-33377160D01*
X84800242Y-33380385D01*
X84805684Y-33388992D01*
X84813206Y-33398348D01*
X84821795Y-33407462D01*
X84830442Y-33415346D01*
X84838134Y-33421012D01*
X84843862Y-33423471D01*
X84844343Y-33423504D01*
X84847443Y-33424803D01*
X84847677Y-33425527D01*
X84849873Y-33427933D01*
X84855006Y-33430865D01*
X84860949Y-33433278D01*
X84865195Y-33434143D01*
X84868948Y-33436235D01*
X84869448Y-33437222D01*
X84872737Y-33438936D01*
X84881154Y-33439982D01*
X84894188Y-33440339D01*
X84906615Y-33440130D01*
X84915356Y-33439266D01*
X84922016Y-33437468D01*
X84928198Y-33434457D01*
X84928312Y-33434392D01*
X84942188Y-33424050D01*
X84955260Y-33409943D01*
X84966198Y-33393581D01*
X84968886Y-33388412D01*
X84972807Y-33380018D01*
X84975930Y-33372346D01*
X84978755Y-33363911D01*
X84981781Y-33353227D01*
X84985363Y-33339376D01*
X84990158Y-33311592D01*
X84991421Y-33280675D01*
X84989169Y-33247436D01*
X84983417Y-33212682D01*
X84982869Y-33210150D01*
X84980831Y-33200777D01*
X84979028Y-33192349D01*
X84978447Y-33189573D01*
X84976576Y-33183722D01*
X84974590Y-33180802D01*
X84972903Y-33177367D01*
X84972244Y-33171557D01*
X84971462Y-33166041D01*
X84969594Y-33163761D01*
X84967248Y-33161611D01*
X84966943Y-33159748D01*
X84965745Y-33154011D01*
X84964522Y-33151133D01*
X84962199Y-33146374D01*
X84958564Y-33138574D01*
X84954948Y-33130626D01*
X84948967Y-33117674D01*
X84942802Y-33104909D01*
X84936973Y-33093348D01*
X84932000Y-33084009D01*
X84928403Y-33077909D01*
X84927181Y-33076284D01*
X84925255Y-33073362D01*
X84921795Y-33067357D01*
X84919421Y-33063030D01*
X84915088Y-33055649D01*
X84908731Y-33045613D01*
X84901136Y-33034082D01*
X84893091Y-33022215D01*
X84885383Y-33011170D01*
X84878799Y-33002105D01*
X84874127Y-32996181D01*
X84873605Y-32995597D01*
X84870029Y-32990858D01*
X84868863Y-32987956D01*
X84867084Y-32984409D01*
X84864098Y-32981166D01*
X84859506Y-32976211D01*
X84854108Y-32969314D01*
X84852890Y-32967601D01*
X84847384Y-32960212D01*
X84842000Y-32953789D01*
X84841087Y-32952818D01*
X84835891Y-32946981D01*
X84830036Y-32939736D01*
X84829101Y-32938509D01*
X84822898Y-32930701D01*
X84816514Y-32923278D01*
X84815847Y-32922551D01*
X84809962Y-32916026D01*
X84803024Y-32908104D01*
X84800541Y-32905211D01*
X84795723Y-32899741D01*
X84788135Y-32891343D01*
X84778631Y-32880954D01*
X84768069Y-32869512D01*
X84762104Y-32863095D01*
X84750243Y-32850368D01*
X84737909Y-32837134D01*
X84726313Y-32824691D01*
X84716665Y-32814339D01*
X84713791Y-32811255D01*
X84705841Y-32802845D01*
X84699155Y-32795999D01*
X84694597Y-32791586D01*
X84693142Y-32790415D01*
X84690496Y-32788281D01*
X84684948Y-32783222D01*
X84677364Y-32776041D01*
X84670298Y-32769197D01*
X84652490Y-32751978D01*
X84637928Y-32738332D01*
X84626260Y-32727940D01*
X84617134Y-32720484D01*
X84614009Y-32718176D01*
X84605861Y-32711887D01*
X84597998Y-32705078D01*
X84597425Y-32704538D01*
X84591668Y-32699850D01*
X84586964Y-32697348D01*
X84586159Y-32697219D01*
X84582888Y-32695913D01*
X84582576Y-32695016D01*
X84580468Y-32692384D01*
X84575388Y-32689109D01*
X84575287Y-32689056D01*
X84569730Y-32685963D01*
X84566672Y-32683842D01*
X84563822Y-32681805D01*
X84557833Y-32678053D01*
X84552092Y-32674628D01*
X84538882Y-32667825D01*
X84524486Y-32661920D01*
X84510549Y-32657482D01*
X84498714Y-32655075D01*
X84494587Y-32654806D01*
X84487247Y-32655562D01*
X84476575Y-32657560D01*
X84464279Y-32660392D01*
X84452067Y-32663651D01*
X84441647Y-32666931D01*
X84438108Y-32668261D01*
X84435595Y-32669166D01*
X84432380Y-32669991D01*
X84427640Y-32670862D01*
X84420550Y-32671904D01*
X84410286Y-32673244D01*
X84396024Y-32675008D01*
X84386417Y-32676175D01*
X84362356Y-32677874D01*
X84341319Y-32676875D01*
X84323670Y-32673291D01*
X84309777Y-32667234D01*
X84300004Y-32658814D01*
X84294735Y-32648212D01*
X84290467Y-32641429D01*
X84282233Y-32637304D01*
X84273549Y-32636251D01*
X84266451Y-32635288D01*
X84262456Y-32633890D01*
X84257506Y-32631447D01*
X84249834Y-32627759D01*
X84244599Y-32625275D01*
X84237127Y-32621486D01*
X84231933Y-32618356D01*
X84230461Y-32617032D01*
X84227428Y-32615372D01*
X84224497Y-32615044D01*
X84220297Y-32614176D01*
X84219396Y-32613056D01*
X84217283Y-32610512D01*
X84213431Y-32608143D01*
X84207999Y-32605364D01*
X84199817Y-32601062D01*
X84191976Y-32596877D01*
X84183476Y-32592591D01*
X84176493Y-32589582D01*
X84172758Y-32588536D01*
X84169407Y-32587015D01*
X84169051Y-32585885D01*
X84166787Y-32583875D01*
X84162580Y-32583235D01*
X84156968Y-32582257D01*
X84154472Y-32580584D01*
X84150861Y-32578621D01*
X84145567Y-32577933D01*
X84139274Y-32577127D01*
X84135783Y-32575554D01*
X84131783Y-32573769D01*
X84124668Y-32572070D01*
X84121337Y-32571536D01*
X84100389Y-32568724D01*
X84083662Y-32566647D01*
X84070143Y-32565202D01*
X84058819Y-32564288D01*
X84048675Y-32563800D01*
X84043804Y-32563686D01*
X84034126Y-32563269D01*
X84026901Y-32562461D01*
X84023403Y-32561419D01*
X84023260Y-32561158D01*
X84025088Y-32558068D01*
X84030654Y-32552056D01*
X84040072Y-32543009D01*
X84053456Y-32530815D01*
X84061570Y-32523592D01*
X84072449Y-32513811D01*
X84084733Y-32502533D01*
X84096031Y-32491958D01*
X84097610Y-32490456D01*
X84106197Y-32482298D01*
X84117395Y-32471704D01*
X84129946Y-32459862D01*
X84142591Y-32447962D01*
X84146737Y-32444067D01*
X84169096Y-32422881D01*
X84189107Y-32403521D01*
X84206417Y-32386341D01*
X84220674Y-32371695D01*
X84231525Y-32359935D01*
X84236789Y-32353755D01*
X84243963Y-32345098D01*
X84251241Y-32336663D01*
X84255202Y-32332275D01*
X84259029Y-32328155D01*
X84262140Y-32324691D01*
X84265240Y-32321000D01*
X84269034Y-32316201D01*
X84274228Y-32309413D01*
X84281525Y-32299754D01*
X84286636Y-32292972D01*
X84294190Y-32282970D01*
X84300809Y-32274250D01*
X84305697Y-32267857D01*
X84307861Y-32265078D01*
X84312780Y-32258560D01*
X84318166Y-32250820D01*
X84323116Y-32243239D01*
X84326727Y-32237199D01*
X84328099Y-32234099D01*
X84330019Y-32230985D01*
X84333401Y-32228027D01*
X84337510Y-32223770D01*
X84338702Y-32220704D01*
X84340384Y-32216346D01*
X84344004Y-32211511D01*
X84347868Y-32206262D01*
X84349306Y-32202344D01*
X84350722Y-32199148D01*
X84351635Y-32198868D01*
X84354143Y-32196679D01*
X84357069Y-32191364D01*
X84357258Y-32190916D01*
X84360163Y-32185450D01*
X84362745Y-32182976D01*
X84362881Y-32182963D01*
X84365119Y-32180914D01*
X84365210Y-32180127D01*
X84366616Y-32176479D01*
X84370216Y-32170219D01*
X84373163Y-32165733D01*
X84377631Y-32158966D01*
X84380516Y-32154073D01*
X84381115Y-32152607D01*
X84382402Y-32149596D01*
X84385641Y-32143864D01*
X84387299Y-32141156D01*
X84394575Y-32129151D01*
X84402740Y-32115048D01*
X84411401Y-32099599D01*
X84420161Y-32083554D01*
X84428625Y-32067664D01*
X84436399Y-32052679D01*
X84443086Y-32039351D01*
X84448292Y-32028431D01*
X84451621Y-32020668D01*
X84452687Y-32016959D01*
X84454229Y-32013648D01*
X84455338Y-32013312D01*
X84457492Y-32011092D01*
X84457989Y-32008010D01*
X84459099Y-32003703D01*
X84460639Y-32002709D01*
X84462793Y-32000488D01*
X84463290Y-31997407D01*
X84464400Y-31993100D01*
X84465941Y-31992105D01*
X84468095Y-31989885D01*
X84468592Y-31986804D01*
X84469702Y-31982496D01*
X84471243Y-31981502D01*
X84473427Y-31979292D01*
X84473893Y-31976421D01*
X84474792Y-31971779D01*
X84475882Y-31970457D01*
X84478183Y-31967791D01*
X84481878Y-31961952D01*
X84484299Y-31957645D01*
X84488284Y-31950567D01*
X84491377Y-31945636D01*
X84492379Y-31944391D01*
X84494796Y-31941543D01*
X84498855Y-31936012D01*
X84500403Y-31933788D01*
X84508463Y-31923496D01*
X84517292Y-31915818D01*
X84529042Y-31908899D01*
X84529667Y-31908580D01*
X84547799Y-31901813D01*
X84569575Y-31897871D01*
X84594102Y-31896840D01*
X84620486Y-31898803D01*
X84625807Y-31899547D01*
X84637498Y-31901597D01*
X84651857Y-31904556D01*
X84667760Y-31908145D01*
X84684082Y-31912083D01*
X84699698Y-31916090D01*
X84713482Y-31919888D01*
X84724311Y-31923195D01*
X84731021Y-31925715D01*
X84735836Y-31927546D01*
X84743498Y-31930040D01*
X84747589Y-31931270D01*
X84754835Y-31933765D01*
X84759387Y-31936063D01*
X84760180Y-31937017D01*
X84762330Y-31938868D01*
X84764076Y-31939089D01*
X84768766Y-31940324D01*
X84775558Y-31943390D01*
X84777410Y-31944391D01*
X84784356Y-31947782D01*
X84789839Y-31949597D01*
X84790745Y-31949693D01*
X84794225Y-31950811D01*
X84794641Y-31951718D01*
X84796840Y-31953921D01*
X84802357Y-31957023D01*
X84804896Y-31958186D01*
X84812293Y-31961837D01*
X84817918Y-31965383D01*
X84818813Y-31966140D01*
X84823196Y-31969341D01*
X84830370Y-31973658D01*
X84835124Y-31976240D01*
X84843936Y-31981998D01*
X84849946Y-31988231D01*
X84851013Y-31990117D01*
X84853898Y-31995278D01*
X84856256Y-31997407D01*
X84858072Y-31999543D01*
X84858260Y-32001102D01*
X84860025Y-32004757D01*
X84864662Y-32010916D01*
X84871182Y-32018524D01*
X84878597Y-32026523D01*
X84885918Y-32033859D01*
X84892158Y-32039475D01*
X84896327Y-32042316D01*
X84896983Y-32042471D01*
X84900328Y-32043631D01*
X84900673Y-32044474D01*
X84902873Y-32046695D01*
X84908271Y-32049526D01*
X84909288Y-32049950D01*
X84916599Y-32053073D01*
X84922371Y-32055826D01*
X84922506Y-32055898D01*
X84928583Y-32057609D01*
X84937579Y-32058308D01*
X84948232Y-32058125D01*
X84959281Y-32057187D01*
X84969464Y-32055623D01*
X84977518Y-32053560D01*
X84982181Y-32051126D01*
X84982848Y-32049778D01*
X84984980Y-32047954D01*
X84986491Y-32047772D01*
X84991349Y-32045721D01*
X84997738Y-32040417D01*
X85004433Y-32033136D01*
X85010207Y-32025156D01*
X85012805Y-32020377D01*
X85017450Y-32005050D01*
X85019345Y-31985910D01*
X85018431Y-31963710D01*
X85017726Y-31957524D01*
X85016611Y-31947310D01*
X85015342Y-31933210D01*
X85014034Y-31916633D01*
X85012799Y-31898988D01*
X85011998Y-31886073D01*
X85010413Y-31862107D01*
X85008684Y-31842791D01*
X85006727Y-31827474D01*
X85004455Y-31815505D01*
X85001784Y-31806234D01*
X85001414Y-31805224D01*
X84997339Y-31795510D01*
X84992327Y-31785150D01*
X84987268Y-31775852D01*
X84983049Y-31769322D01*
X84982188Y-31768275D01*
X84978698Y-31763911D01*
X84977528Y-31761648D01*
X84975516Y-31759418D01*
X84970454Y-31755510D01*
X84967587Y-31753533D01*
X84960163Y-31748301D01*
X84953834Y-31743395D01*
X84952526Y-31742267D01*
X84947364Y-31738724D01*
X84943911Y-31737628D01*
X84940717Y-31736021D01*
X84940435Y-31734977D01*
X84938222Y-31732802D01*
X84935290Y-31732327D01*
X84930215Y-31731109D01*
X84928506Y-31729676D01*
X84924767Y-31727449D01*
X84921723Y-31727025D01*
X84917501Y-31725885D01*
X84916578Y-31724374D01*
X84914309Y-31722382D01*
X84909951Y-31721723D01*
X84904969Y-31720816D01*
X84903324Y-31719073D01*
X84901060Y-31717063D01*
X84896853Y-31716422D01*
X84891240Y-31715444D01*
X84888744Y-31713771D01*
X84885008Y-31711549D01*
X84881925Y-31711120D01*
X84874995Y-31709878D01*
X84872141Y-31708728D01*
X84866725Y-31706572D01*
X84858834Y-31704117D01*
X84856272Y-31703426D01*
X84845846Y-31700729D01*
X84835069Y-31697935D01*
X84833740Y-31697590D01*
X84825165Y-31695180D01*
X84817805Y-31692813D01*
X84816385Y-31692289D01*
X84808713Y-31690348D01*
X84803950Y-31689914D01*
X84798464Y-31689028D01*
X84796139Y-31687543D01*
X84792775Y-31685664D01*
X84786326Y-31684035D01*
X84784717Y-31683783D01*
X84775572Y-31682193D01*
X84765267Y-31679976D01*
X84762831Y-31679381D01*
X84739609Y-31673903D01*
X84712380Y-31668117D01*
X84682410Y-31662246D01*
X84650968Y-31656511D01*
X84619320Y-31651136D01*
X84588734Y-31646342D01*
X84560478Y-31642352D01*
X84535819Y-31639389D01*
X84533536Y-31639151D01*
X84519124Y-31638004D01*
X84501408Y-31637110D01*
X84481375Y-31636470D01*
X84460012Y-31636087D01*
X84438309Y-31635961D01*
X84417252Y-31636095D01*
X84397830Y-31636490D01*
X84381029Y-31637147D01*
X84367838Y-31638068D01*
X84361234Y-31638878D01*
X84335531Y-31644356D01*
X84313991Y-31651834D01*
X84295726Y-31661706D01*
X84279847Y-31674364D01*
X84278856Y-31675312D01*
X84273021Y-31680477D01*
X84265770Y-31686313D01*
X84264519Y-31687263D01*
X84258223Y-31692098D01*
X84253529Y-31695896D01*
X84252794Y-31696541D01*
X84248427Y-31699632D01*
X84242611Y-31702953D01*
X84237496Y-31706229D01*
X84235322Y-31708886D01*
X84235321Y-31708917D01*
X84233205Y-31710944D01*
X84231845Y-31711120D01*
X84227507Y-31712801D01*
X84222678Y-31716422D01*
X84217199Y-31720304D01*
X84212900Y-31721723D01*
X84209285Y-31722777D01*
X84208792Y-31723712D01*
X84206677Y-31726250D01*
X84202828Y-31728602D01*
X84198296Y-31730857D01*
X84190128Y-31734963D01*
X84179414Y-31740368D01*
X84167246Y-31746524D01*
X84165075Y-31747624D01*
X84150462Y-31754889D01*
X84134839Y-31762424D01*
X84120175Y-31769293D01*
X84109408Y-31774136D01*
X84095926Y-31779963D01*
X84084400Y-31784813D01*
X84072647Y-31789587D01*
X84058482Y-31795185D01*
X84055729Y-31796263D01*
X84048389Y-31799158D01*
X84043138Y-31801248D01*
X84035533Y-31804262D01*
X84030546Y-31806213D01*
X84024718Y-31808626D01*
X84016406Y-31812237D01*
X84011328Y-31814502D01*
X84002472Y-31818426D01*
X83994572Y-31821816D01*
X83991447Y-31823099D01*
X83984537Y-31826031D01*
X83980217Y-31828065D01*
X83973537Y-31830096D01*
X83970277Y-31830406D01*
X83965950Y-31831510D01*
X83964939Y-31833057D01*
X83962717Y-31835206D01*
X83959602Y-31835708D01*
X83952735Y-31836914D01*
X83948998Y-31838359D01*
X83941978Y-31841893D01*
X83938467Y-31843660D01*
X83931628Y-31845880D01*
X83927864Y-31846311D01*
X83923537Y-31847415D01*
X83922526Y-31848962D01*
X83920263Y-31850972D01*
X83916056Y-31851613D01*
X83910443Y-31852590D01*
X83907947Y-31854264D01*
X83904356Y-31856189D01*
X83898669Y-31856914D01*
X83892606Y-31857748D01*
X83889391Y-31859565D01*
X83885728Y-31861636D01*
X83881439Y-31862216D01*
X83875969Y-31863101D01*
X83873667Y-31864574D01*
X83870269Y-31866594D01*
X83864012Y-31868283D01*
X83863570Y-31868359D01*
X83855399Y-31869944D01*
X83845670Y-31872137D01*
X83843002Y-31872794D01*
X83818076Y-31878501D01*
X83793931Y-31882725D01*
X83769721Y-31885485D01*
X83744598Y-31886803D01*
X83717714Y-31886697D01*
X83688222Y-31885189D01*
X83655275Y-31882299D01*
X83619009Y-31878169D01*
X83608387Y-31876897D01*
X83594569Y-31875301D01*
X83579631Y-31873618D01*
X83569969Y-31872553D01*
X83557569Y-31871524D01*
X83541542Y-31870683D01*
X83522744Y-31870029D01*
X83502031Y-31869566D01*
X83480259Y-31869294D01*
X83458286Y-31869215D01*
X83436966Y-31869330D01*
X83417156Y-31869642D01*
X83399712Y-31870151D01*
X83385490Y-31870858D01*
X83375346Y-31871766D01*
X83372485Y-31872213D01*
X83360995Y-31874451D01*
X83349116Y-31876786D01*
X83343326Y-31877933D01*
X83333348Y-31879901D01*
X83323805Y-31881754D01*
X83320794Y-31882330D01*
X83313821Y-31884033D01*
X83309139Y-31885853D01*
X83308865Y-31886033D01*
X83304597Y-31887830D01*
X83297795Y-31889574D01*
X83297194Y-31889691D01*
X83292202Y-31891256D01*
X83283866Y-31894492D01*
X83273341Y-31898887D01*
X83261780Y-31903927D01*
X83250338Y-31909097D01*
X83240168Y-31913885D01*
X83232425Y-31917777D01*
X83228262Y-31920259D01*
X83228016Y-31920480D01*
X83225093Y-31922436D01*
X83219084Y-31925915D01*
X83214762Y-31928288D01*
X83207687Y-31932249D01*
X83202756Y-31935281D01*
X83201508Y-31936241D01*
X83198582Y-31938281D01*
X83192568Y-31941815D01*
X83188254Y-31944193D01*
X83181177Y-31948164D01*
X83176247Y-31951222D01*
X83175000Y-31952199D01*
X83172144Y-31954052D01*
X83165775Y-31957538D01*
X83157149Y-31961975D01*
X83155119Y-31962988D01*
X83146233Y-31967587D01*
X83139416Y-31971467D01*
X83135891Y-31973923D01*
X83135679Y-31974201D01*
X83132628Y-31976026D01*
X83131005Y-31976201D01*
X83125615Y-31977345D01*
X83121948Y-31978851D01*
X83114927Y-31982386D01*
X83111416Y-31984153D01*
X83104485Y-31986281D01*
X83099488Y-31986804D01*
X83094487Y-31987612D01*
X83092825Y-31989176D01*
X83090472Y-31990970D01*
X83084553Y-31992685D01*
X83081559Y-31993212D01*
X83073353Y-31994324D01*
X83062466Y-31995664D01*
X83050265Y-31997081D01*
X83038114Y-31998423D01*
X83027380Y-31999540D01*
X83019428Y-32000278D01*
X83015951Y-32000495D01*
X83010231Y-31999947D01*
X83000250Y-31998367D01*
X82986909Y-31995926D01*
X82971113Y-31992792D01*
X82953763Y-31989137D01*
X82942392Y-31986632D01*
X82932327Y-31984552D01*
X82922442Y-31982777D01*
X82919843Y-31982376D01*
X82913012Y-31980870D01*
X82908784Y-31978969D01*
X82908421Y-31978571D01*
X82904967Y-31976853D01*
X82899316Y-31976201D01*
X82893253Y-31975367D01*
X82890038Y-31973550D01*
X82886447Y-31971625D01*
X82880760Y-31970899D01*
X82874697Y-31970066D01*
X82871483Y-31968248D01*
X82867899Y-31966338D01*
X82862048Y-31965597D01*
X82856533Y-31964815D01*
X82854252Y-31962947D01*
X82851953Y-31961071D01*
X82846456Y-31960296D01*
X82840335Y-31959479D01*
X82837022Y-31957645D01*
X82833286Y-31955423D01*
X82830203Y-31954994D01*
X82823266Y-31953774D01*
X82820419Y-31952649D01*
X82815675Y-31950724D01*
X82807560Y-31947883D01*
X82797785Y-31944723D01*
X82797260Y-31944560D01*
X82787314Y-31941388D01*
X82778806Y-31938509D01*
X82773522Y-31936528D01*
X82773403Y-31936476D01*
X82768206Y-31934462D01*
X82759840Y-31931502D01*
X82750871Y-31928486D01*
X82741252Y-31925273D01*
X82733050Y-31922428D01*
X82728339Y-31920684D01*
X82723558Y-31918912D01*
X82715188Y-31915966D01*
X82704672Y-31912351D01*
X82699180Y-31910490D01*
X82677303Y-31903105D01*
X82659998Y-31897237D01*
X82646805Y-31892729D01*
X82637268Y-31889424D01*
X82630927Y-31887163D01*
X82627609Y-31885906D01*
X82621666Y-31883729D01*
X82613623Y-31881022D01*
X82611704Y-31880406D01*
X82604454Y-31877809D01*
X82599366Y-31875457D01*
X82598582Y-31874929D01*
X82594085Y-31873222D01*
X82590124Y-31872819D01*
X82584723Y-31871758D01*
X82582545Y-31870168D01*
X82578882Y-31868098D01*
X82574593Y-31867518D01*
X82569042Y-31866517D01*
X82566640Y-31864867D01*
X82562977Y-31862796D01*
X82558688Y-31862216D01*
X82553137Y-31861215D01*
X82550735Y-31859565D01*
X82547072Y-31857495D01*
X82542783Y-31856914D01*
X82537232Y-31855914D01*
X82534831Y-31854264D01*
X82531247Y-31852354D01*
X82525396Y-31851613D01*
X82519881Y-31850831D01*
X82517600Y-31848962D01*
X82515301Y-31847087D01*
X82509804Y-31846311D01*
X82503683Y-31845494D01*
X82500370Y-31843660D01*
X82496845Y-31841868D01*
X82490422Y-31841020D01*
X82489610Y-31841010D01*
X82483541Y-31840333D01*
X82480554Y-31838674D01*
X82480489Y-31838359D01*
X82478162Y-31836595D01*
X82472451Y-31835727D01*
X82471368Y-31835708D01*
X82464824Y-31835086D01*
X82460960Y-31833565D01*
X82460789Y-31833350D01*
X82458843Y-31831855D01*
X82454398Y-31830407D01*
X82446602Y-31828803D01*
X82434605Y-31826844D01*
X82430787Y-31826266D01*
X82422677Y-31824647D01*
X82416072Y-31822673D01*
X82415544Y-31822454D01*
X82409218Y-31820445D01*
X82401243Y-31818794D01*
X82400965Y-31818753D01*
X82392870Y-31817419D01*
X82382599Y-31815561D01*
X82377108Y-31814508D01*
X82349706Y-31809313D01*
X82324014Y-31804890D01*
X82299085Y-31801131D01*
X82273976Y-31797934D01*
X82247741Y-31795193D01*
X82219434Y-31792804D01*
X82188111Y-31790660D01*
X82152827Y-31788659D01*
X82136671Y-31787839D01*
X82094034Y-31786531D01*
X82047094Y-31786564D01*
X81996673Y-31787916D01*
X81943592Y-31790570D01*
X81902614Y-31793396D01*
X81879837Y-31795391D01*
X81854600Y-31798022D01*
X81827973Y-31801143D01*
X81801023Y-31804609D01*
X81774820Y-31808276D01*
X81750433Y-31811999D01*
X81728930Y-31815632D01*
X81711379Y-31819031D01*
X81707780Y-31819817D01*
X81697634Y-31821930D01*
X81687719Y-31823738D01*
X81684569Y-31824231D01*
X81677737Y-31825737D01*
X81673509Y-31827638D01*
X81673146Y-31828036D01*
X81669693Y-31829754D01*
X81664042Y-31830406D01*
X81657978Y-31831240D01*
X81654764Y-31833057D01*
X81651101Y-31835128D01*
X81646811Y-31835708D01*
X81641261Y-31836709D01*
X81638859Y-31838359D01*
X81635196Y-31840430D01*
X81630907Y-31841010D01*
X81625356Y-31842010D01*
X81622954Y-31843660D01*
X81619300Y-31845712D01*
X81614845Y-31846311D01*
X81609939Y-31847239D01*
X81608375Y-31848962D01*
X81606225Y-31851308D01*
X81604363Y-31851613D01*
X81598766Y-31852766D01*
X81595085Y-31854264D01*
X81588064Y-31857798D01*
X81584553Y-31859565D01*
X81578470Y-31861749D01*
X81575276Y-31862216D01*
X81571725Y-31863636D01*
X81571263Y-31864867D01*
X81569043Y-31867021D01*
X81565962Y-31867518D01*
X81561651Y-31868368D01*
X81560660Y-31869543D01*
X81558483Y-31871806D01*
X81553035Y-31875018D01*
X81550720Y-31876138D01*
X81541850Y-31880635D01*
X81531102Y-31886706D01*
X81519606Y-31893635D01*
X81508492Y-31900707D01*
X81498892Y-31907208D01*
X81491935Y-31912422D01*
X81489089Y-31915114D01*
X81486248Y-31917571D01*
X81480730Y-31921678D01*
X81478485Y-31923260D01*
X81472460Y-31928154D01*
X81463946Y-31935977D01*
X81453974Y-31945694D01*
X81443573Y-31956267D01*
X81433774Y-31966660D01*
X81425607Y-31975838D01*
X81422564Y-31979514D01*
X81415525Y-31988681D01*
X81408644Y-31998240D01*
X81402663Y-32007090D01*
X81398319Y-32014130D01*
X81396355Y-32018259D01*
X81396310Y-32018586D01*
X81394310Y-32021182D01*
X81393660Y-32021264D01*
X81391308Y-32023411D01*
X81391009Y-32025240D01*
X81389841Y-32028772D01*
X81388853Y-32029217D01*
X81386587Y-32031435D01*
X81383704Y-32036924D01*
X81383056Y-32038494D01*
X81380186Y-32044497D01*
X81377678Y-32047638D01*
X81377260Y-32047772D01*
X81375507Y-32049997D01*
X81375104Y-32053074D01*
X81373994Y-32057381D01*
X81372453Y-32058375D01*
X81370107Y-32060525D01*
X81369802Y-32062388D01*
X81368633Y-32068155D01*
X81367461Y-32071003D01*
X81364766Y-32076771D01*
X81361850Y-32083558D01*
X81358773Y-32090707D01*
X81356239Y-32096113D01*
X81354208Y-32102794D01*
X81353898Y-32106054D01*
X81352794Y-32110381D01*
X81351247Y-32111392D01*
X81349371Y-32113691D01*
X81348596Y-32119188D01*
X81347779Y-32125309D01*
X81345945Y-32128622D01*
X81344020Y-32132213D01*
X81343294Y-32137900D01*
X81342552Y-32143897D01*
X81340924Y-32147004D01*
X81339026Y-32150366D01*
X81337348Y-32156812D01*
X81337082Y-32158427D01*
X81335653Y-32167122D01*
X81333728Y-32177670D01*
X81332826Y-32182301D01*
X81329382Y-32199565D01*
X81326730Y-32213073D01*
X81324600Y-32224264D01*
X81322729Y-32234578D01*
X81320848Y-32245453D01*
X81318692Y-32258329D01*
X81318222Y-32261162D01*
X81316398Y-32270094D01*
X81313748Y-32280812D01*
X81312310Y-32285979D01*
X81310671Y-32294302D01*
X81309647Y-32305094D01*
X81309215Y-32317148D01*
X81309348Y-32329262D01*
X81309348Y-32329262D01*
G37*
X81309348Y-32329262D02*
X81310021Y-32340230D01*
X81311208Y-32348848D01*
X81312884Y-32353911D01*
X81313758Y-32354698D01*
X81316598Y-32357860D01*
X81316786Y-32359095D01*
X81318700Y-32363331D01*
X81323670Y-32369627D01*
X81330544Y-32376818D01*
X81338169Y-32383744D01*
X81345390Y-32389242D01*
X81348596Y-32391146D01*
X81361710Y-32395527D01*
X81377669Y-32397325D01*
X81394671Y-32396511D01*
X81410914Y-32393055D01*
X81413402Y-32392226D01*
X81422024Y-32388896D01*
X81428240Y-32385947D01*
X81430765Y-32383994D01*
X81430771Y-32383934D01*
X81432903Y-32381973D01*
X81434439Y-32381774D01*
X81437753Y-32380026D01*
X81443597Y-32375456D01*
X81450896Y-32369074D01*
X81458575Y-32361891D01*
X81465559Y-32354916D01*
X81470772Y-32349161D01*
X81473140Y-32345634D01*
X81473184Y-32345364D01*
X81474828Y-32341896D01*
X81478457Y-32337351D01*
X81481751Y-32332727D01*
X81486624Y-32324547D01*
X81492374Y-32314039D01*
X81497333Y-32304379D01*
X81502978Y-32293051D01*
X81507919Y-32283147D01*
X81511578Y-32275826D01*
X81513266Y-32272464D01*
X81515287Y-32265783D01*
X81515597Y-32262523D01*
X81516700Y-32258196D01*
X81518247Y-32257186D01*
X81520377Y-32254958D01*
X81520898Y-32251702D01*
X81521529Y-32246854D01*
X81523225Y-32238298D01*
X81525692Y-32227447D01*
X81527386Y-32220555D01*
X81530652Y-32206879D01*
X81533758Y-32192582D01*
X81536187Y-32180082D01*
X81536813Y-32176380D01*
X81539067Y-32165126D01*
X81541998Y-32154313D01*
X81544585Y-32147221D01*
X81548669Y-32139988D01*
X81554342Y-32132057D01*
X81560531Y-32124691D01*
X81566165Y-32119157D01*
X81570173Y-32116718D01*
X81570458Y-32116693D01*
X81574077Y-32115055D01*
X81578053Y-32111931D01*
X81582811Y-32108522D01*
X81590697Y-32103851D01*
X81600404Y-32098586D01*
X81610625Y-32093391D01*
X81620054Y-32088934D01*
X81627383Y-32085881D01*
X81631101Y-32084884D01*
X81634502Y-32083388D01*
X81634883Y-32082233D01*
X81637151Y-32080240D01*
X81641510Y-32079582D01*
X81646491Y-32078675D01*
X81648137Y-32076931D01*
X81650327Y-32074664D01*
X81652776Y-32074240D01*
X81658366Y-32073329D01*
X81665984Y-32071154D01*
X81673407Y-32068457D01*
X81678414Y-32065978D01*
X81679013Y-32065494D01*
X81682847Y-32064062D01*
X81687051Y-32063677D01*
X81694105Y-32062656D01*
X81697875Y-32061285D01*
X81703291Y-32059129D01*
X81711182Y-32056673D01*
X81713744Y-32055983D01*
X81744255Y-32048174D01*
X81770445Y-32041677D01*
X81793097Y-32036373D01*
X81812996Y-32032145D01*
X81830924Y-32028874D01*
X81847666Y-32026443D01*
X81864006Y-32024732D01*
X81880727Y-32023625D01*
X81898613Y-32023002D01*
X81918448Y-32022746D01*
X81934424Y-32022723D01*
X81955258Y-32022891D01*
X81976541Y-32023303D01*
X81997002Y-32023917D01*
X82015371Y-32024691D01*
X82030376Y-32025584D01*
X82036479Y-32026086D01*
X82049241Y-32027362D01*
X82065399Y-32029084D01*
X82083923Y-32031133D01*
X82103782Y-32033388D01*
X82123946Y-32035729D01*
X82143383Y-32038035D01*
X82161064Y-32040187D01*
X82175957Y-32042064D01*
X82187031Y-32043547D01*
X82190226Y-32044012D01*
X82198977Y-32045305D01*
X82209952Y-32046881D01*
X82216734Y-32047836D01*
X82227588Y-32049357D01*
X82240847Y-32051228D01*
X82253668Y-32053049D01*
X82253845Y-32053074D01*
X82266638Y-32054895D01*
X82279912Y-32056782D01*
X82290824Y-32058330D01*
X82290957Y-32058348D01*
X82312337Y-32061432D01*
X82335344Y-32064843D01*
X82357052Y-32068148D01*
X82363854Y-32069207D01*
X82375513Y-32070908D01*
X82387426Y-32072450D01*
X82394338Y-32073222D01*
X82403239Y-32074467D01*
X82410625Y-32076117D01*
X82412894Y-32076909D01*
X82418994Y-32078797D01*
X82427217Y-32080404D01*
X82428798Y-32080622D01*
X82437773Y-32081966D01*
X82448640Y-32083871D01*
X82453981Y-32084905D01*
X82464719Y-32086910D01*
X82475463Y-32088669D01*
X82479826Y-32089282D01*
X82486702Y-32090658D01*
X82490689Y-32092421D01*
X82491092Y-32093103D01*
X82493442Y-32094605D01*
X82499303Y-32095431D01*
X82501539Y-32095487D01*
X82508597Y-32096103D01*
X82513122Y-32097633D01*
X82513624Y-32098138D01*
X82517215Y-32100063D01*
X82522902Y-32100788D01*
X82528965Y-32101622D01*
X82532180Y-32103439D01*
X82535705Y-32105232D01*
X82542128Y-32106080D01*
X82542939Y-32106090D01*
X82549009Y-32106766D01*
X82551996Y-32108426D01*
X82552061Y-32108741D01*
X82554361Y-32110616D01*
X82559857Y-32111392D01*
X82565979Y-32112209D01*
X82569291Y-32114042D01*
X82573027Y-32116264D01*
X82576110Y-32116693D01*
X82583047Y-32117911D01*
X82585895Y-32119035D01*
X82591812Y-32121791D01*
X82597787Y-32124336D01*
X82606129Y-32127724D01*
X82612367Y-32130256D01*
X82619385Y-32133267D01*
X82624259Y-32135558D01*
X82629519Y-32137552D01*
X82631672Y-32137900D01*
X82635044Y-32139201D01*
X82641977Y-32142751D01*
X82651520Y-32148017D01*
X82662718Y-32154467D01*
X82674621Y-32161569D01*
X82680502Y-32165176D01*
X82685474Y-32169017D01*
X82692396Y-32175326D01*
X82700349Y-32183145D01*
X82708417Y-32191513D01*
X82715683Y-32199470D01*
X82721229Y-32206056D01*
X82724138Y-32210313D01*
X82724363Y-32211068D01*
X82725620Y-32214422D01*
X82726544Y-32214773D01*
X82728681Y-32217059D01*
X82732205Y-32223175D01*
X82736590Y-32232006D01*
X82741309Y-32242438D01*
X82745835Y-32253354D01*
X82749643Y-32263642D01*
X82749701Y-32263813D01*
X82752982Y-32273950D01*
X82755797Y-32283933D01*
X82758269Y-32294499D01*
X82760517Y-32306385D01*
X82762661Y-32320328D01*
X82764824Y-32337066D01*
X82767125Y-32357336D01*
X82769685Y-32381876D01*
X82770741Y-32392377D01*
X82772251Y-32408229D01*
X82773632Y-32424393D01*
X82774890Y-32441142D01*
X82776028Y-32458747D01*
X82777052Y-32477482D01*
X82777966Y-32497619D01*
X82778776Y-32519431D01*
X82779486Y-32543190D01*
X82780101Y-32569169D01*
X82780625Y-32597641D01*
X82781065Y-32628879D01*
X82781424Y-32663154D01*
X82781707Y-32700739D01*
X82781919Y-32741908D01*
X82782066Y-32786932D01*
X82782151Y-32836085D01*
X82782179Y-32889638D01*
X82782157Y-32947865D01*
X82782087Y-33011038D01*
X82782057Y-33031220D01*
X82781976Y-33088131D01*
X82781918Y-33140121D01*
X82781891Y-33187570D01*
X82781900Y-33230859D01*
X82781950Y-33270367D01*
X82782048Y-33306477D01*
X82782200Y-33339567D01*
X82782412Y-33370018D01*
X82782689Y-33398212D01*
X82783037Y-33424527D01*
X82783463Y-33449345D01*
X82783972Y-33473047D01*
X82784571Y-33496011D01*
X82785264Y-33518620D01*
X82786058Y-33541252D01*
X82786959Y-33564290D01*
X82787973Y-33588112D01*
X82789106Y-33613100D01*
X82790363Y-33639634D01*
X82791751Y-33668094D01*
X82792044Y-33674040D01*
X82795514Y-33752408D01*
X82797955Y-33826156D01*
X82799373Y-33895232D01*
X82799767Y-33959586D01*
X82799142Y-34019165D01*
X82797499Y-34073919D01*
X82794841Y-34123798D01*
X82791170Y-34168749D01*
X82786489Y-34208722D01*
X82780799Y-34243665D01*
X82774104Y-34273528D01*
X82766405Y-34298259D01*
X82762507Y-34307946D01*
X82757389Y-34316824D01*
X82750713Y-34324770D01*
X82743753Y-34330508D01*
X82737784Y-34332764D01*
X82737690Y-34332765D01*
X82730266Y-34335034D01*
X82725394Y-34340794D01*
X82724363Y-34345673D01*
X82723187Y-34350826D01*
X82721712Y-34352646D01*
X82719802Y-34356229D01*
X82719061Y-34362080D01*
X82718279Y-34367596D01*
X82716411Y-34369876D01*
X82714262Y-34372098D01*
X82713760Y-34375214D01*
X82712553Y-34382080D01*
X82711109Y-34385817D01*
X82707575Y-34392837D01*
X82705807Y-34396348D01*
X82703623Y-34402432D01*
X82703157Y-34405626D01*
X82702079Y-34409181D01*
X82701153Y-34409638D01*
X82698866Y-34411813D01*
X82695849Y-34417158D01*
X82695349Y-34418253D01*
X82690757Y-34427131D01*
X82683913Y-34438545D01*
X82675859Y-34450879D01*
X82667635Y-34462517D01*
X82662693Y-34468941D01*
X82652608Y-34480570D01*
X82640128Y-34493628D01*
X82626503Y-34506922D01*
X82612980Y-34519257D01*
X82600809Y-34529440D01*
X82594474Y-34534160D01*
X82588427Y-34538499D01*
X82584454Y-34541616D01*
X82583870Y-34542178D01*
X82581024Y-34544550D01*
X82575496Y-34548581D01*
X82573267Y-34550131D01*
X82567209Y-34554456D01*
X82563238Y-34557597D01*
X82562664Y-34558169D01*
X82560015Y-34560281D01*
X82553983Y-34564590D01*
X82545603Y-34570365D01*
X82540132Y-34574061D01*
X82530292Y-34580798D01*
X82521652Y-34586959D01*
X82515508Y-34591608D01*
X82513787Y-34593066D01*
X82508665Y-34596695D01*
X82505172Y-34597845D01*
X82501976Y-34599347D01*
X82501696Y-34600317D01*
X82499508Y-34603011D01*
X82496410Y-34604467D01*
X82490339Y-34607424D01*
X82487794Y-34609372D01*
X82483564Y-34612896D01*
X82477143Y-34617685D01*
X82475187Y-34619067D01*
X82468774Y-34623590D01*
X82464073Y-34626996D01*
X82463259Y-34627614D01*
X82460162Y-34629971D01*
X82453798Y-34634767D01*
X82445144Y-34641268D01*
X82436751Y-34647559D01*
X82408327Y-34670028D01*
X82384137Y-34691796D01*
X82363328Y-34713653D01*
X82355901Y-34722424D01*
X82349063Y-34730642D01*
X82342808Y-34737927D01*
X82338671Y-34742509D01*
X82333504Y-34748352D01*
X82327662Y-34755585D01*
X82326742Y-34756788D01*
X82321458Y-34763629D01*
X82316845Y-34769364D01*
X82316139Y-34770202D01*
X82312116Y-34775097D01*
X82306606Y-34782020D01*
X82304211Y-34785083D01*
X82299066Y-34791163D01*
X82291666Y-34799218D01*
X82282782Y-34808484D01*
X82273185Y-34818199D01*
X82263646Y-34827597D01*
X82254936Y-34835916D01*
X82247827Y-34842393D01*
X82243089Y-34846264D01*
X82241657Y-34847021D01*
X82237991Y-34848674D01*
X82233354Y-34852322D01*
X82228104Y-34856186D01*
X82224187Y-34857624D01*
X82220993Y-34859231D01*
X82220710Y-34860275D01*
X82218500Y-34862459D01*
X82215630Y-34862926D01*
X82210988Y-34863885D01*
X82209665Y-34865051D01*
X82206843Y-34867234D01*
X82200041Y-34870996D01*
X82190190Y-34875920D01*
X82178221Y-34881591D01*
X82165067Y-34887591D01*
X82151659Y-34893504D01*
X82138927Y-34898913D01*
X82127805Y-34903403D01*
X82119222Y-34906556D01*
X82114111Y-34907956D01*
X82113644Y-34907989D01*
X82109289Y-34909227D01*
X82108376Y-34910115D01*
X82105259Y-34911965D01*
X82098704Y-34914391D01*
X82093640Y-34915896D01*
X82086109Y-34918323D01*
X82081239Y-34920616D01*
X82080218Y-34921723D01*
X82077992Y-34923484D01*
X82074880Y-34923894D01*
X82067933Y-34925073D01*
X82064940Y-34926236D01*
X82059172Y-34928931D01*
X82052384Y-34931847D01*
X82045236Y-34934924D01*
X82039829Y-34937457D01*
X82033149Y-34939488D01*
X82029888Y-34939799D01*
X82025561Y-34940902D01*
X82024551Y-34942450D01*
X82022401Y-34944796D01*
X82020539Y-34945101D01*
X82014942Y-34946254D01*
X82011261Y-34947751D01*
X82004241Y-34951286D01*
X82000730Y-34953053D01*
X81994646Y-34955237D01*
X81991452Y-34955704D01*
X81987901Y-34957124D01*
X81987440Y-34958355D01*
X81985278Y-34960671D01*
X81983243Y-34961005D01*
X81980218Y-34962392D01*
X81980987Y-34965663D01*
X81985125Y-34969488D01*
X81986127Y-34970094D01*
X81992133Y-34974143D01*
X81996410Y-34977573D01*
X82001230Y-34981064D01*
X82004151Y-34982212D01*
X82007204Y-34984008D01*
X82012389Y-34988616D01*
X82016242Y-34992552D01*
X82028694Y-35003675D01*
X82045838Y-35015286D01*
X82067907Y-35027537D01*
X82076384Y-35031783D01*
X82090133Y-35038617D01*
X82100075Y-35043852D01*
X82107229Y-35048077D01*
X82112618Y-35051880D01*
X82115706Y-35054446D01*
X82120475Y-35057936D01*
X82123320Y-35059085D01*
X82127877Y-35061321D01*
X82131738Y-35066550D01*
X82133234Y-35072186D01*
X82131915Y-35078898D01*
X82129920Y-35083507D01*
X82126520Y-35088111D01*
X82120779Y-35094645D01*
X82113732Y-35102067D01*
X82106419Y-35109336D01*
X82099875Y-35115411D01*
X82095139Y-35119250D01*
X82093512Y-35120054D01*
X82089800Y-35121683D01*
X82087697Y-35123367D01*
X82083529Y-35126663D01*
X82076735Y-35131437D01*
X82072265Y-35134398D01*
X82062648Y-35140701D01*
X82052597Y-35147407D01*
X82049300Y-35149640D01*
X82042380Y-35153994D01*
X82037033Y-35156711D01*
X82035383Y-35157165D01*
X82032627Y-35159049D01*
X82032503Y-35159816D01*
X82030356Y-35162167D01*
X82028527Y-35162466D01*
X82024995Y-35163593D01*
X82024551Y-35164546D01*
X82022488Y-35167116D01*
X82017388Y-35170829D01*
X82016009Y-35171671D01*
X82007467Y-35176717D01*
X82016379Y-35180354D01*
X82023715Y-35181976D01*
X82034941Y-35182832D01*
X82048707Y-35182956D01*
X82063662Y-35182381D01*
X82078454Y-35181140D01*
X82091734Y-35179267D01*
X82096123Y-35178391D01*
X82105755Y-35176742D01*
X82118347Y-35175233D01*
X82131558Y-35174134D01*
X82134841Y-35173946D01*
X82158980Y-35172724D01*
X82165325Y-35180642D01*
X82171478Y-35188347D01*
X82177495Y-35195925D01*
X82177599Y-35196057D01*
X82181616Y-35202319D01*
X82183537Y-35207636D01*
X82183564Y-35208068D01*
X82184555Y-35213788D01*
X82186580Y-35219997D01*
X82189476Y-35227340D01*
X82191527Y-35232713D01*
X82196641Y-35245822D01*
X82201918Y-35257610D01*
X82204429Y-35262785D01*
X82207796Y-35270345D01*
X82209832Y-35276325D01*
X82210107Y-35278027D01*
X82211622Y-35281391D01*
X82212758Y-35281753D01*
X82214912Y-35283973D01*
X82215409Y-35287054D01*
X82216519Y-35291362D01*
X82218060Y-35292356D01*
X82220244Y-35294566D01*
X82220710Y-35297437D01*
X82221609Y-35302080D01*
X82222698Y-35303401D01*
X82225483Y-35306303D01*
X82229357Y-35312091D01*
X82233155Y-35318850D01*
X82235711Y-35324669D01*
X82235762Y-35324828D01*
X82238097Y-35328746D01*
X82239575Y-35329467D01*
X82241479Y-35331690D01*
X82241917Y-35334769D01*
X82242841Y-35339079D01*
X82244120Y-35340070D01*
X82246753Y-35342178D01*
X82250031Y-35347257D01*
X82250084Y-35347360D01*
X82254472Y-35354559D01*
X82258484Y-35359788D01*
X82262027Y-35364951D01*
X82263123Y-35368404D01*
X82264625Y-35371599D01*
X82265595Y-35371880D01*
X82268286Y-35374068D01*
X82269754Y-35377195D01*
X82272513Y-35381702D01*
X82278257Y-35388677D01*
X82285984Y-35397112D01*
X82294695Y-35406000D01*
X82303388Y-35414332D01*
X82311060Y-35421099D01*
X82316713Y-35425295D01*
X82318288Y-35426062D01*
X82322830Y-35428442D01*
X82324092Y-35430376D01*
X82326203Y-35432649D01*
X82327568Y-35432848D01*
X82331906Y-35434529D01*
X82336735Y-35438150D01*
X82342213Y-35442032D01*
X82346513Y-35443452D01*
X82350114Y-35444616D01*
X82350600Y-35445655D01*
X82352707Y-35448288D01*
X82357787Y-35451566D01*
X82357889Y-35451619D01*
X82364068Y-35455168D01*
X82368073Y-35458031D01*
X82372039Y-35461331D01*
X82378790Y-35466644D01*
X82386855Y-35472822D01*
X82390098Y-35475261D01*
X82393504Y-35479206D01*
X82398708Y-35486935D01*
X82405144Y-35497493D01*
X82412243Y-35509920D01*
X82419435Y-35523258D01*
X82424695Y-35533579D01*
X82430308Y-35544582D01*
X82435260Y-35553690D01*
X82439001Y-35559925D01*
X82440929Y-35562296D01*
X82443298Y-35565339D01*
X82443413Y-35566272D01*
X82445371Y-35571414D01*
X82450467Y-35578702D01*
X82457663Y-35587083D01*
X82465919Y-35595502D01*
X82474198Y-35602905D01*
X82481460Y-35608236D01*
X82486668Y-35610442D01*
X82486926Y-35610452D01*
X82491005Y-35612446D01*
X82491755Y-35613766D01*
X82494726Y-35615125D01*
X82501883Y-35616139D01*
X82512121Y-35616805D01*
X82524334Y-35617121D01*
X82537418Y-35617082D01*
X82550267Y-35616687D01*
X82561778Y-35615931D01*
X82570843Y-35614814D01*
X82574593Y-35613985D01*
X82584234Y-35611206D01*
X82594826Y-35608203D01*
X82597124Y-35607559D01*
X82604804Y-35605115D01*
X82610343Y-35602809D01*
X82611571Y-35602039D01*
X82616048Y-35600284D01*
X82620186Y-35599849D01*
X82624909Y-35598870D01*
X82626283Y-35597198D01*
X82628500Y-35595034D01*
X82631504Y-35594547D01*
X82637129Y-35593284D01*
X82644469Y-35590154D01*
X82646164Y-35589246D01*
X82653110Y-35585854D01*
X82658593Y-35584040D01*
X82659499Y-35583944D01*
X82662978Y-35582755D01*
X82663395Y-35581788D01*
X82665613Y-35579523D01*
X82671102Y-35576639D01*
X82672672Y-35575992D01*
X82678675Y-35573121D01*
X82681816Y-35570613D01*
X82681950Y-35570195D01*
X82684067Y-35568212D01*
X82685427Y-35568039D01*
X82689890Y-35566374D01*
X82694042Y-35563328D01*
X82699593Y-35558727D01*
X82706831Y-35553298D01*
X82708458Y-35552148D01*
X82716145Y-35546091D01*
X82724518Y-35538403D01*
X82732610Y-35530120D01*
X82739457Y-35522279D01*
X82744090Y-35515916D01*
X82745569Y-35512342D01*
X82747588Y-35509798D01*
X82748220Y-35509722D01*
X82750572Y-35507575D01*
X82750871Y-35505746D01*
X82751952Y-35502213D01*
X82752864Y-35501769D01*
X82755481Y-35499459D01*
X82759148Y-35493361D01*
X82763269Y-35484731D01*
X82767246Y-35474820D01*
X82770483Y-35464881D01*
X82770545Y-35464658D01*
X82772789Y-35455414D01*
X82775619Y-35442002D01*
X82778842Y-35425496D01*
X82782265Y-35406971D01*
X82785696Y-35387503D01*
X82788941Y-35368168D01*
X82791807Y-35350039D01*
X82794101Y-35334193D01*
X82794467Y-35331445D01*
X82797717Y-35311865D01*
X82801904Y-35296343D01*
X82805688Y-35286965D01*
X82809764Y-35278924D01*
X82813181Y-35273230D01*
X82815149Y-35271149D01*
X82816919Y-35268993D01*
X82817141Y-35267173D01*
X82818222Y-35263605D01*
X82819129Y-35263137D01*
X82821621Y-35261116D01*
X82826028Y-35255944D01*
X82830143Y-35250464D01*
X82837806Y-35241268D01*
X82847014Y-35232240D01*
X82851349Y-35228671D01*
X82858186Y-35223463D01*
X82863165Y-35219566D01*
X82864856Y-35218146D01*
X82867948Y-35216082D01*
X82873471Y-35213042D01*
X82878586Y-35209769D01*
X82880760Y-35207113D01*
X82880760Y-35207082D01*
X82882984Y-35205291D01*
X82886062Y-35204879D01*
X82890370Y-35203769D01*
X82891364Y-35202229D01*
X82893584Y-35200075D01*
X82896665Y-35199578D01*
X82900973Y-35198468D01*
X82901967Y-35196927D01*
X82904116Y-35194581D01*
X82905979Y-35194276D01*
X82911575Y-35193123D01*
X82915257Y-35191625D01*
X82922277Y-35188091D01*
X82925788Y-35186324D01*
X82931892Y-35184139D01*
X82935102Y-35183673D01*
X82940732Y-35182518D01*
X82944416Y-35181022D01*
X82951436Y-35177488D01*
X82954947Y-35175721D01*
X82961693Y-35173505D01*
X82965394Y-35173070D01*
X82970483Y-35171861D01*
X82972213Y-35170419D01*
X82975950Y-35168197D01*
X82979033Y-35167768D01*
X82985747Y-35166568D01*
X82989479Y-35165117D01*
X82996500Y-35161583D01*
X83000011Y-35159816D01*
X83006338Y-35157620D01*
X83009727Y-35157165D01*
X83013737Y-35155965D01*
X83021272Y-35152707D01*
X83031220Y-35147900D01*
X83041480Y-35142585D01*
X83052591Y-35136820D01*
X83062229Y-35132132D01*
X83069307Y-35129027D01*
X83072630Y-35128006D01*
X83076643Y-35126826D01*
X83077362Y-35125985D01*
X83080016Y-35123979D01*
X83086341Y-35120336D01*
X83095185Y-35115631D01*
X83105399Y-35110436D01*
X83115833Y-35105323D01*
X83125337Y-35100864D01*
X83132761Y-35097633D01*
X83136955Y-35096202D01*
X83137226Y-35096178D01*
X83140304Y-35094522D01*
X83140539Y-35093546D01*
X83142759Y-35091392D01*
X83145841Y-35090895D01*
X83150148Y-35089785D01*
X83151142Y-35088244D01*
X83153284Y-35085879D01*
X83155038Y-35085593D01*
X83159728Y-35084359D01*
X83166520Y-35081293D01*
X83168373Y-35080292D01*
X83175318Y-35076900D01*
X83180802Y-35075085D01*
X83181707Y-35074990D01*
X83185183Y-35073533D01*
X83185603Y-35072339D01*
X83187816Y-35070164D01*
X83190748Y-35069688D01*
X83195823Y-35068471D01*
X83197531Y-35067038D01*
X83201185Y-35064986D01*
X83205640Y-35064387D01*
X83210547Y-35063459D01*
X83212111Y-35061736D01*
X83214260Y-35059389D01*
X83216116Y-35059085D01*
X83220859Y-35058057D01*
X83228116Y-35055468D01*
X83231358Y-35054097D01*
X83240688Y-35050162D01*
X83249887Y-35046589D01*
X83251873Y-35045877D01*
X83259903Y-35042996D01*
X83266779Y-35040396D01*
X83267115Y-35040262D01*
X83274717Y-35037229D01*
X83279044Y-35035506D01*
X83287419Y-35032540D01*
X83299274Y-35028833D01*
X83313628Y-35024643D01*
X83329497Y-35020230D01*
X83345901Y-35015850D01*
X83361855Y-35011764D01*
X83376380Y-35008229D01*
X83388492Y-35005503D01*
X83397209Y-35003846D01*
X83400824Y-35003459D01*
X83406626Y-35002636D01*
X83409423Y-35001047D01*
X83412787Y-34999169D01*
X83419236Y-34997539D01*
X83420845Y-34997287D01*
X83430194Y-34995661D01*
X83440394Y-34993446D01*
X83442068Y-34993031D01*
X83452237Y-34990455D01*
X83462545Y-34987862D01*
X83463937Y-34987513D01*
X83473838Y-34985032D01*
X83484343Y-34982389D01*
X83485806Y-34982020D01*
X83495222Y-34979827D01*
X83504179Y-34978017D01*
X83505712Y-34977751D01*
X83512070Y-34976115D01*
X83515724Y-34974088D01*
X83515809Y-34973967D01*
X83519307Y-34972149D01*
X83523773Y-34971609D01*
X83530874Y-34970636D01*
X83534882Y-34969216D01*
X83540212Y-34967084D01*
X83548154Y-34964562D01*
X83551414Y-34963656D01*
X83559685Y-34961213D01*
X83566337Y-34958827D01*
X83567945Y-34958096D01*
X83574668Y-34956000D01*
X83577729Y-34955704D01*
X83582819Y-34954495D01*
X83584549Y-34953053D01*
X83588285Y-34950831D01*
X83591368Y-34950402D01*
X83598235Y-34949112D01*
X83601152Y-34947877D01*
X83605958Y-34945768D01*
X83614017Y-34942727D01*
X83622985Y-34939615D01*
X83632058Y-34936387D01*
X83639170Y-34933474D01*
X83642734Y-34931538D01*
X83647383Y-34929497D01*
X83650060Y-34929196D01*
X83656639Y-34927999D01*
X83659470Y-34926877D01*
X83672739Y-34920322D01*
X83682025Y-34916065D01*
X83687979Y-34913823D01*
X83690831Y-34913291D01*
X83694195Y-34911777D01*
X83694557Y-34910640D01*
X83696691Y-34908257D01*
X83698346Y-34907989D01*
X83701993Y-34906898D01*
X83709437Y-34903922D01*
X83719714Y-34899505D01*
X83731861Y-34894092D01*
X83744913Y-34888130D01*
X83757907Y-34882063D01*
X83769877Y-34876337D01*
X83779859Y-34871396D01*
X83786891Y-34867686D01*
X83789986Y-34865676D01*
X83792841Y-34863845D01*
X83799209Y-34860375D01*
X83807834Y-34855946D01*
X83809867Y-34854931D01*
X83818752Y-34850333D01*
X83825570Y-34846453D01*
X83829095Y-34843997D01*
X83829306Y-34843719D01*
X83832340Y-34842049D01*
X83835271Y-34841719D01*
X83839457Y-34840566D01*
X83840351Y-34839068D01*
X83842572Y-34836915D01*
X83845653Y-34836418D01*
X83849960Y-34835308D01*
X83850955Y-34833767D01*
X83853175Y-34831613D01*
X83856256Y-34831116D01*
X83860564Y-34830006D01*
X83861558Y-34828465D01*
X83863686Y-34826072D01*
X83865283Y-34825814D01*
X83869752Y-34824701D01*
X83876811Y-34821879D01*
X83880526Y-34820136D01*
X83888954Y-34816125D01*
X83896524Y-34812753D01*
X83898669Y-34811875D01*
X83905587Y-34808971D01*
X83909899Y-34806950D01*
X83915883Y-34804925D01*
X83918514Y-34804608D01*
X83922065Y-34803188D01*
X83922526Y-34801957D01*
X83924790Y-34799947D01*
X83928997Y-34799306D01*
X83934610Y-34798329D01*
X83937106Y-34796656D01*
X83940769Y-34794585D01*
X83945058Y-34794005D01*
X83950528Y-34793119D01*
X83952829Y-34791647D01*
X83956226Y-34789610D01*
X83962480Y-34787880D01*
X83962926Y-34787800D01*
X83970396Y-34786501D01*
X83980436Y-34784743D01*
X83987471Y-34783505D01*
X84006839Y-34780552D01*
X84026068Y-34778662D01*
X84045960Y-34777858D01*
X84067316Y-34778163D01*
X84090938Y-34779602D01*
X84117627Y-34782197D01*
X84148187Y-34785974D01*
X84169051Y-34788864D01*
X84180695Y-34790488D01*
X84194570Y-34792364D01*
X84207488Y-34794061D01*
X84220897Y-34795793D01*
X84235353Y-34797664D01*
X84247250Y-34799209D01*
X84259041Y-34800729D01*
X84273329Y-34802549D01*
X84287352Y-34804319D01*
X84289663Y-34804608D01*
X84303338Y-34806321D01*
X84317783Y-34808133D01*
X84330235Y-34809698D01*
X84332075Y-34809930D01*
X84343595Y-34811354D01*
X84357793Y-34813073D01*
X84372078Y-34814773D01*
X84375814Y-34815211D01*
X84402754Y-34818466D01*
X84429856Y-34821969D01*
X84457989Y-34825814D01*
X84471283Y-34827654D01*
X84485790Y-34829637D01*
X84496425Y-34831072D01*
X84509124Y-34832858D01*
X84522726Y-34834902D01*
X84531548Y-34836312D01*
X84554037Y-34840055D01*
X84572164Y-34843077D01*
X84586796Y-34845528D01*
X84598802Y-34847557D01*
X84609050Y-34849313D01*
X84618407Y-34850946D01*
X84627740Y-34852604D01*
X84637919Y-34854437D01*
X84649810Y-34856594D01*
X84655473Y-34857624D01*
X84678826Y-34861846D01*
X84697721Y-34865202D01*
X84712910Y-34867818D01*
X84725143Y-34869821D01*
X84735172Y-34871337D01*
X84743747Y-34872493D01*
X84744275Y-34872559D01*
X84752049Y-34873957D01*
X84757595Y-34875734D01*
X84758722Y-34876437D01*
X84763146Y-34878304D01*
X84767780Y-34878831D01*
X84776378Y-34880725D01*
X84787329Y-34885881D01*
X84799566Y-34893509D01*
X84812024Y-34902819D01*
X84823637Y-34913022D01*
X84833337Y-34923327D01*
X84839504Y-34931956D01*
X84844533Y-34941240D01*
X84850000Y-34952227D01*
X84854669Y-34962388D01*
X84856295Y-34966307D01*
X84859199Y-34973225D01*
X84861220Y-34977537D01*
X84863273Y-34984268D01*
X84863562Y-34987321D01*
X84864771Y-34992411D01*
X84866212Y-34994140D01*
X84868283Y-34997804D01*
X84868863Y-35002093D01*
X84869864Y-35007644D01*
X84871514Y-35010045D01*
X84873631Y-35013731D01*
X84874165Y-35017624D01*
X84875071Y-35023472D01*
X84876355Y-35026083D01*
X84878390Y-35029992D01*
X84880997Y-35036952D01*
X84882137Y-35040530D01*
X84891950Y-35065306D01*
X84905345Y-35086210D01*
X84922429Y-35103374D01*
X84943307Y-35116928D01*
X84944233Y-35117403D01*
X84956763Y-35121947D01*
X84970637Y-35124102D01*
X84984130Y-35123822D01*
X84995513Y-35121060D01*
X84999638Y-35118894D01*
X85011884Y-35107732D01*
X85022652Y-35091888D01*
X85031691Y-35071834D01*
X85038750Y-35048046D01*
X85039971Y-35042557D01*
X85041297Y-35033339D01*
X85042342Y-35020270D01*
X85043107Y-35004335D01*
X85043591Y-34986514D01*
X85043792Y-34967792D01*
X85043709Y-34949151D01*
X85043343Y-34931574D01*
X85042691Y-34916042D01*
X85041754Y-34903540D01*
X85040529Y-34895049D01*
X85040099Y-34893410D01*
X85033371Y-34876066D01*
X85024418Y-34860499D01*
X85012255Y-34845178D01*
X85002653Y-34835113D01*
X84992056Y-34825013D01*
X84984237Y-34818647D01*
X84978661Y-34815610D01*
X84976411Y-34815211D01*
X84972464Y-34814015D01*
X84971803Y-34813223D01*
X84969096Y-34810928D01*
X84962995Y-34807071D01*
X84954855Y-34802438D01*
X84946036Y-34797817D01*
X84941118Y-34795440D01*
X84936573Y-34792625D01*
X84935154Y-34790691D01*
X84933114Y-34788741D01*
X84932624Y-34788703D01*
X84929223Y-34787445D01*
X84922689Y-34784143D01*
X84914420Y-34779504D01*
X84914215Y-34779384D01*
X84903671Y-34772514D01*
X84893473Y-34764674D01*
X84884571Y-34756736D01*
X84877912Y-34749570D01*
X84874447Y-34744049D01*
X84874165Y-34742632D01*
X84872826Y-34738905D01*
X84871514Y-34738338D01*
X84869743Y-34736087D01*
X84868959Y-34730762D01*
X84869194Y-34724502D01*
X84870479Y-34719448D01*
X84871216Y-34718324D01*
X84873836Y-34713890D01*
X84875351Y-34709903D01*
X84875752Y-34705865D01*
X84873258Y-34702822D01*
X84866809Y-34699527D01*
X84866372Y-34699337D01*
X84859864Y-34696103D01*
X84856037Y-34693399D01*
X84855609Y-34692649D01*
X84853391Y-34690985D01*
X84850464Y-34690623D01*
X84845389Y-34689406D01*
X84843680Y-34687973D01*
X84839942Y-34685746D01*
X84836897Y-34685322D01*
X84832675Y-34684182D01*
X84831752Y-34682671D01*
X84829532Y-34680517D01*
X84826450Y-34680020D01*
X84822143Y-34678910D01*
X84821149Y-34677369D01*
X84818999Y-34675024D01*
X84817136Y-34674719D01*
X84811369Y-34673549D01*
X84808521Y-34672377D01*
X84801820Y-34669308D01*
X84791667Y-34665079D01*
X84778964Y-34660026D01*
X84764612Y-34654484D01*
X84749512Y-34648788D01*
X84734567Y-34643274D01*
X84720677Y-34638277D01*
X84708744Y-34634132D01*
X84699669Y-34631174D01*
X84694355Y-34629739D01*
X84693638Y-34629655D01*
X84688409Y-34628348D01*
X84687151Y-34627545D01*
X84683177Y-34625458D01*
X84676352Y-34622837D01*
X84674029Y-34622068D01*
X84653206Y-34614373D01*
X84645569Y-34610790D01*
X84638889Y-34608759D01*
X84635628Y-34608449D01*
X84631301Y-34607345D01*
X84630291Y-34605798D01*
X84628027Y-34603788D01*
X84623820Y-34603147D01*
X84618349Y-34602370D01*
X84616036Y-34601021D01*
X84612919Y-34599171D01*
X84606364Y-34596746D01*
X84601300Y-34595240D01*
X84593769Y-34592813D01*
X84588899Y-34590521D01*
X84587878Y-34589414D01*
X84585661Y-34587631D01*
X84582733Y-34587242D01*
X84577658Y-34586025D01*
X84575949Y-34584591D01*
X84572295Y-34582539D01*
X84567840Y-34581941D01*
X84562934Y-34581013D01*
X84561370Y-34579290D01*
X84559150Y-34577136D01*
X84556068Y-34576639D01*
X84551761Y-34575529D01*
X84550767Y-34573988D01*
X84548617Y-34571642D01*
X84546755Y-34571337D01*
X84540994Y-34570161D01*
X84538139Y-34568977D01*
X84533190Y-34566534D01*
X84525517Y-34562845D01*
X84520282Y-34560361D01*
X84512811Y-34556572D01*
X84507616Y-34553443D01*
X84506145Y-34552119D01*
X84503111Y-34550458D01*
X84500181Y-34550131D01*
X84495994Y-34548978D01*
X84495100Y-34547480D01*
X84492880Y-34545326D01*
X84489798Y-34544829D01*
X84485487Y-34543988D01*
X84484497Y-34542826D01*
X84482320Y-34540543D01*
X84476972Y-34537537D01*
X84475882Y-34537042D01*
X84470151Y-34534456D01*
X84460897Y-34530200D01*
X84449392Y-34524862D01*
X84436911Y-34519032D01*
X84436782Y-34518971D01*
X84424546Y-34513261D01*
X84413514Y-34508161D01*
X84404868Y-34504214D01*
X84399788Y-34501962D01*
X84399671Y-34501913D01*
X84392790Y-34498884D01*
X84388441Y-34496806D01*
X84382457Y-34494781D01*
X84379826Y-34494464D01*
X84376275Y-34493044D01*
X84375814Y-34491813D01*
X84373664Y-34489467D01*
X84371801Y-34489162D01*
X84366034Y-34487993D01*
X84363186Y-34486821D01*
X84357089Y-34484008D01*
X84351956Y-34481874D01*
X84344500Y-34478867D01*
X84337377Y-34475908D01*
X84329976Y-34472874D01*
X84324123Y-34470607D01*
X84315074Y-34467079D01*
X84305563Y-34463058D01*
X84298314Y-34459694D01*
X84292330Y-34457669D01*
X84289699Y-34457353D01*
X84286148Y-34455933D01*
X84285686Y-34454702D01*
X84283418Y-34452709D01*
X84279059Y-34452051D01*
X84274078Y-34451144D01*
X84272432Y-34449400D01*
X84270283Y-34447054D01*
X84268420Y-34446750D01*
X84262824Y-34445596D01*
X84259142Y-34444099D01*
X84252122Y-34440565D01*
X84248611Y-34438797D01*
X84242527Y-34436613D01*
X84239333Y-34436146D01*
X84235783Y-34434726D01*
X84235321Y-34433496D01*
X84233242Y-34431007D01*
X84232154Y-34430845D01*
X84228747Y-34429733D01*
X84221531Y-34426677D01*
X84211442Y-34422096D01*
X84199416Y-34416407D01*
X84194380Y-34413967D01*
X84181479Y-34407770D01*
X84169788Y-34402327D01*
X84160367Y-34398120D01*
X84154274Y-34395629D01*
X84153146Y-34395257D01*
X84147068Y-34393035D01*
X84138267Y-34389181D01*
X84128168Y-34384398D01*
X84118196Y-34379388D01*
X84109773Y-34374851D01*
X84104325Y-34371490D01*
X84103428Y-34370763D01*
X84098093Y-34367257D01*
X84094813Y-34365895D01*
X84090537Y-34363515D01*
X84089527Y-34361745D01*
X84087430Y-34359443D01*
X84086213Y-34359267D01*
X84082333Y-34357650D01*
X84076396Y-34353577D01*
X84073622Y-34351321D01*
X84067429Y-34346544D01*
X84062574Y-34343711D01*
X84061314Y-34343374D01*
X84057952Y-34341340D01*
X84056231Y-34337216D01*
X84057016Y-34334350D01*
X84060523Y-34333256D01*
X84066862Y-34332767D01*
X84067280Y-34332765D01*
X84073726Y-34332028D01*
X84077509Y-34330242D01*
X84077598Y-34330114D01*
X84081074Y-34328420D01*
X84087667Y-34327512D01*
X84089683Y-34327463D01*
X84096265Y-34326867D01*
X84099887Y-34325381D01*
X84100130Y-34324813D01*
X84102458Y-34323049D01*
X84108168Y-34322180D01*
X84109251Y-34322162D01*
X84115854Y-34321459D01*
X84119831Y-34319745D01*
X84120011Y-34319511D01*
X84123672Y-34317444D01*
X84127995Y-34316860D01*
X84135773Y-34315855D01*
X84140430Y-34314498D01*
X84145886Y-34312610D01*
X84154662Y-34309806D01*
X84164988Y-34306651D01*
X84166400Y-34306230D01*
X84176656Y-34303099D01*
X84185459Y-34300259D01*
X84191114Y-34298260D01*
X84191583Y-34298069D01*
X84196211Y-34296353D01*
X84204598Y-34293470D01*
X84215448Y-34289858D01*
X84224718Y-34286840D01*
X84237921Y-34282415D01*
X84253536Y-34276912D01*
X84270538Y-34270721D01*
X84287904Y-34264230D01*
X84304611Y-34257827D01*
X84319635Y-34251902D01*
X84331953Y-34246842D01*
X84340541Y-34243036D01*
X84341980Y-34242328D01*
X84347964Y-34240304D01*
X84350595Y-34239987D01*
X84354146Y-34238567D01*
X84354607Y-34237336D01*
X84356757Y-34234990D01*
X84358619Y-34234685D01*
X84364216Y-34233532D01*
X84367897Y-34232034D01*
X84374918Y-34228500D01*
X84378428Y-34226733D01*
X84384512Y-34224549D01*
X84387706Y-34224082D01*
X84391257Y-34222662D01*
X84391718Y-34221431D01*
X84393932Y-34219256D01*
X84396864Y-34218780D01*
X84401938Y-34217563D01*
X84403647Y-34216130D01*
X84407386Y-34213903D01*
X84410431Y-34213479D01*
X84414652Y-34212339D01*
X84415576Y-34210828D01*
X84417796Y-34208674D01*
X84420877Y-34208177D01*
X84425185Y-34207067D01*
X84426179Y-34205526D01*
X84428307Y-34203133D01*
X84429905Y-34202876D01*
X84434489Y-34201753D01*
X84441420Y-34198947D01*
X84443821Y-34197799D01*
X84448819Y-34195330D01*
X84457865Y-34190884D01*
X84470243Y-34184811D01*
X84485238Y-34177462D01*
X84502135Y-34169187D01*
X84520218Y-34160338D01*
X84522933Y-34159010D01*
X84540571Y-34150320D01*
X84556602Y-34142303D01*
X84570420Y-34135271D01*
X84581421Y-34129536D01*
X84589001Y-34125410D01*
X84592553Y-34123205D01*
X84592738Y-34122999D01*
X84595768Y-34121080D01*
X84598702Y-34120701D01*
X84602902Y-34119833D01*
X84603803Y-34118713D01*
X84605935Y-34116212D01*
X84609768Y-34113963D01*
X84616077Y-34110837D01*
X84623908Y-34106701D01*
X84631698Y-34102416D01*
X84637883Y-34098841D01*
X84640894Y-34096843D01*
X84644934Y-34093902D01*
X84651499Y-34089979D01*
X84658318Y-34086362D01*
X84662763Y-34084442D01*
X84666681Y-34082108D01*
X84667402Y-34080629D01*
X84669554Y-34078551D01*
X84671378Y-34078288D01*
X84674909Y-34077095D01*
X84675354Y-34076085D01*
X84677462Y-34073452D01*
X84682541Y-34070174D01*
X84682644Y-34070121D01*
X84690075Y-34065448D01*
X84695511Y-34061058D01*
X84700229Y-34056584D01*
X84707293Y-34049898D01*
X84715196Y-34042427D01*
X84715392Y-34042242D01*
X84723105Y-34034782D01*
X84730126Y-34027515D01*
X84737516Y-34019270D01*
X84746335Y-34008875D01*
X84754288Y-33999251D01*
X84763680Y-33988081D01*
X84773389Y-33976985D01*
X84782362Y-33967132D01*
X84789548Y-33959691D01*
X84791990Y-33957377D01*
X84802500Y-33948108D01*
X84809877Y-33942078D01*
X84814763Y-33938803D01*
X84817797Y-33937799D01*
X84817835Y-33937798D01*
X84820915Y-33936121D01*
X84821149Y-33935144D01*
X84823362Y-33932969D01*
X84826294Y-33932494D01*
X84831368Y-33931276D01*
X84833077Y-33929843D01*
X84836391Y-33928528D01*
X84843333Y-33927667D01*
X84852260Y-33927271D01*
X84861526Y-33927349D01*
X84869486Y-33927914D01*
X84874495Y-33928976D01*
X84875317Y-33929563D01*
X84879258Y-33931810D01*
X84887210Y-33933618D01*
X84897895Y-33934916D01*
X84910035Y-33935631D01*
X84922353Y-33935692D01*
X84933570Y-33935028D01*
X84942408Y-33933566D01*
X84943127Y-33933369D01*
X84963387Y-33925016D01*
X84981307Y-33912652D01*
X84995935Y-33897051D01*
X85004171Y-33883696D01*
X85007256Y-33876721D01*
X85009187Y-33869866D01*
X85010221Y-33861553D01*
X85010615Y-33850206D01*
X85010652Y-33843934D01*
X85009959Y-33824722D01*
X85007600Y-33808999D01*
X85003226Y-33795116D01*
X84997944Y-33784049D01*
X84989237Y-33770149D01*
X84979293Y-33757731D01*
X84969403Y-33748357D01*
X84966943Y-33746573D01*
X84960872Y-33742397D01*
X84956902Y-33739465D01*
X84956340Y-33738973D01*
X84952588Y-33736548D01*
X84945553Y-33733015D01*
X84936913Y-33729133D01*
X84928347Y-33725657D01*
X84921879Y-33723441D01*
X84912854Y-33720864D01*
X84903071Y-33718076D01*
X84901998Y-33717770D01*
X84894762Y-33716561D01*
X84884338Y-33715917D01*
X84871725Y-33715782D01*
X84857920Y-33716098D01*
X84843919Y-33716807D01*
X84830721Y-33717853D01*
X84819322Y-33719177D01*
X84810721Y-33720721D01*
X84805913Y-33722430D01*
X84805244Y-33723347D01*
X84802973Y-33725136D01*
X84798581Y-33725731D01*
X84790735Y-33727000D01*
X84785990Y-33728796D01*
X84777480Y-33733083D01*
X84772174Y-33735377D01*
X84768633Y-33736251D01*
X84767064Y-33736334D01*
X84763081Y-33737511D01*
X84762389Y-33738322D01*
X84759704Y-33740515D01*
X84753714Y-33744070D01*
X84748252Y-33746934D01*
X84740432Y-33750968D01*
X84734461Y-33754273D01*
X84732347Y-33755619D01*
X84728788Y-33758093D01*
X84722335Y-33762356D01*
X84716442Y-33766161D01*
X84708627Y-33771349D01*
X84702331Y-33775858D01*
X84699676Y-33778030D01*
X84695592Y-33781378D01*
X84688860Y-33786354D01*
X84683771Y-33789925D01*
X84675721Y-33795735D01*
X84668682Y-33801289D01*
X84665810Y-33803833D01*
X84659689Y-33809360D01*
X84652717Y-33815137D01*
X84652637Y-33815200D01*
X84639440Y-33825900D01*
X84626343Y-33837101D01*
X84616159Y-33846343D01*
X84608979Y-33852743D01*
X84600189Y-33860054D01*
X84595830Y-33863498D01*
X84588364Y-33869504D01*
X84582115Y-33874955D01*
X84579615Y-33877414D01*
X84575573Y-33881072D01*
X84573401Y-33882128D01*
X84570549Y-33883597D01*
X84564500Y-33887537D01*
X84556304Y-33893248D01*
X84551511Y-33896708D01*
X84542382Y-33903103D01*
X84534584Y-33908071D01*
X84529269Y-33910899D01*
X84527903Y-33911287D01*
X84524590Y-33912548D01*
X84524259Y-33913443D01*
X84522041Y-33915709D01*
X84516551Y-33918592D01*
X84514981Y-33919240D01*
X84508978Y-33922110D01*
X84505837Y-33924618D01*
X84505703Y-33925036D01*
X84503479Y-33926789D01*
X84500401Y-33927192D01*
X84496094Y-33928302D01*
X84495100Y-33929843D01*
X84492950Y-33932189D01*
X84491088Y-33932494D01*
X84485671Y-33933665D01*
X84481147Y-33935558D01*
X84472655Y-33939810D01*
X84467082Y-33942084D01*
X84462716Y-33942975D01*
X84459506Y-33943097D01*
X84453955Y-33943962D01*
X84451535Y-33945468D01*
X84447268Y-33948034D01*
X84438337Y-33950132D01*
X84425357Y-33951754D01*
X84408947Y-33952888D01*
X84389722Y-33953524D01*
X84368300Y-33953653D01*
X84345298Y-33953264D01*
X84321332Y-33952347D01*
X84297020Y-33950893D01*
X84272978Y-33948891D01*
X84268456Y-33948445D01*
X84242605Y-33946163D01*
X84212907Y-33944186D01*
X84179092Y-33942500D01*
X84140886Y-33941096D01*
X84098018Y-33939961D01*
X84050217Y-33939086D01*
X84033283Y-33938851D01*
X83922699Y-33937433D01*
X83920872Y-33927697D01*
X83920551Y-33922958D01*
X83920406Y-33913548D01*
X83920430Y-33900092D01*
X83920614Y-33883216D01*
X83920952Y-33863548D01*
X83921435Y-33841714D01*
X83922057Y-33818340D01*
X83922286Y-33810580D01*
X83923271Y-33778686D01*
X83924185Y-33751133D01*
X83925075Y-33726962D01*
X83925989Y-33705214D01*
X83926975Y-33684930D01*
X83928081Y-33665151D01*
X83929355Y-33644917D01*
X83930845Y-33623270D01*
X83932598Y-33599251D01*
X83933350Y-33589215D01*
X83934302Y-33573440D01*
X83935099Y-33553963D01*
X83935740Y-33531555D01*
X83936224Y-33506990D01*
X83936549Y-33481039D01*
X83936715Y-33454475D01*
X83936722Y-33428070D01*
X83936567Y-33402597D01*
X83936250Y-33378827D01*
X83935769Y-33357534D01*
X83935125Y-33339489D01*
X83934316Y-33325466D01*
X83933696Y-33318833D01*
X83932006Y-33304837D01*
X83930197Y-33290296D01*
X83928574Y-33277644D01*
X83928059Y-33273769D01*
X83926525Y-33261969D01*
X83924743Y-33247669D01*
X83923057Y-33233641D01*
X83922790Y-33231356D01*
X83920917Y-33216813D01*
X83918563Y-33200699D01*
X83916205Y-33186265D01*
X83915974Y-33184967D01*
X83913471Y-33170968D01*
X83912121Y-33161379D01*
X83912292Y-33155368D01*
X83914348Y-33152103D01*
X83918657Y-33150749D01*
X83925584Y-33150476D01*
X83931141Y-33150485D01*
X83954503Y-33149527D01*
X83982613Y-33146716D01*
X84015262Y-33142076D01*
X84029884Y-33139654D01*
X84045024Y-33137015D01*
X84056756Y-33134834D01*
X84066906Y-33132729D01*
X84077300Y-33130317D01*
X84089764Y-33127213D01*
X84092840Y-33126431D01*
X84102752Y-33123931D01*
X84112595Y-33121485D01*
X84114047Y-33121129D01*
X84131953Y-33116605D01*
X84147392Y-33112423D01*
X84159569Y-33108810D01*
X84167689Y-33105996D01*
X84169678Y-33105118D01*
X84175722Y-33103386D01*
X84182113Y-33102792D01*
X84188180Y-33102072D01*
X84191402Y-33100434D01*
X84194773Y-33098442D01*
X84201121Y-33096652D01*
X84202161Y-33096458D01*
X84211809Y-33094780D01*
X84220766Y-33093221D01*
X84227358Y-33091532D01*
X84231307Y-33089517D01*
X84231526Y-33089245D01*
X84234973Y-33087536D01*
X84240623Y-33086887D01*
X84246686Y-33086054D01*
X84249900Y-33084236D01*
X84253432Y-33082431D01*
X84259832Y-33081593D01*
X84260504Y-33081586D01*
X84267051Y-33080871D01*
X84270960Y-33079132D01*
X84271107Y-33078935D01*
X84274843Y-33076713D01*
X84277926Y-33076284D01*
X84284838Y-33075028D01*
X84287710Y-33073855D01*
X84292354Y-33071962D01*
X84300503Y-33069140D01*
X84310571Y-33065931D01*
X84312844Y-33065240D01*
X84322358Y-33062146D01*
X84329536Y-33059379D01*
X84333169Y-33057419D01*
X84333388Y-33057066D01*
X84335654Y-33055525D01*
X84339498Y-33055078D01*
X84345399Y-33054226D01*
X84348113Y-33052968D01*
X84352087Y-33050880D01*
X84358911Y-33048259D01*
X84361234Y-33047491D01*
X84369340Y-33044802D01*
X84376060Y-33042383D01*
X84377139Y-33041957D01*
X84383310Y-33039778D01*
X84393331Y-33036613D01*
X84405926Y-33032830D01*
X84419821Y-33028801D01*
X84433740Y-33024893D01*
X84446408Y-33021478D01*
X84456550Y-33018925D01*
X84456663Y-33018898D01*
X84474079Y-33015977D01*
X84493994Y-33014552D01*
X84514682Y-33014593D01*
X84534418Y-33016073D01*
X84551478Y-33018963D01*
X84557394Y-33020578D01*
X84569634Y-33024991D01*
X84583033Y-33030697D01*
X84596180Y-33037004D01*
X84607670Y-33043223D01*
X84616092Y-33048664D01*
X84618199Y-33050387D01*
X84622951Y-33053932D01*
X84625841Y-33055078D01*
X84629388Y-33056856D01*
X84632631Y-33059842D01*
X84637608Y-33064470D01*
X84644472Y-33069867D01*
X84646006Y-33070963D01*
X84653446Y-33076789D01*
X84663745Y-33085725D01*
X84676125Y-33097024D01*
X84689808Y-33109938D01*
X84704015Y-33123720D01*
X84717969Y-33137622D01*
X84730892Y-33150896D01*
X84742005Y-33162797D01*
X84744489Y-33165559D01*
X84752152Y-33174827D01*
X84760706Y-33186240D01*
X84769480Y-33198775D01*
X84777805Y-33211411D01*
X84785012Y-33223125D01*
X84790431Y-33232896D01*
X84793393Y-33239700D01*
X84793624Y-33240580D01*
X84795845Y-33248177D01*
X84797698Y-33252762D01*
X84798795Y-33258081D01*
X84799263Y-33267363D01*
X84799053Y-33279301D01*
X84798848Y-33283246D01*
X84797456Y-33306598D01*
X84796385Y-33325275D01*
X84795644Y-33339899D01*
X84795240Y-33351087D01*
X84795184Y-33359459D01*
X84795484Y-33365633D01*
X84796149Y-33370228D01*
X84797188Y-33373865D01*
X84798609Y-33377160D01*
X84800242Y-33380385D01*
X84805684Y-33388992D01*
X84813206Y-33398348D01*
X84821795Y-33407462D01*
X84830442Y-33415346D01*
X84838134Y-33421012D01*
X84843862Y-33423471D01*
X84844343Y-33423504D01*
X84847443Y-33424803D01*
X84847677Y-33425527D01*
X84849873Y-33427933D01*
X84855006Y-33430865D01*
X84860949Y-33433278D01*
X84865195Y-33434143D01*
X84868948Y-33436235D01*
X84869448Y-33437222D01*
X84872737Y-33438936D01*
X84881154Y-33439982D01*
X84894188Y-33440339D01*
X84906615Y-33440130D01*
X84915356Y-33439266D01*
X84922016Y-33437468D01*
X84928198Y-33434457D01*
X84928312Y-33434392D01*
X84942188Y-33424050D01*
X84955260Y-33409943D01*
X84966198Y-33393581D01*
X84968886Y-33388412D01*
X84972807Y-33380018D01*
X84975930Y-33372346D01*
X84978755Y-33363911D01*
X84981781Y-33353227D01*
X84985363Y-33339376D01*
X84990158Y-33311592D01*
X84991421Y-33280675D01*
X84989169Y-33247436D01*
X84983417Y-33212682D01*
X84982869Y-33210150D01*
X84980831Y-33200777D01*
X84979028Y-33192349D01*
X84978447Y-33189573D01*
X84976576Y-33183722D01*
X84974590Y-33180802D01*
X84972903Y-33177367D01*
X84972244Y-33171557D01*
X84971462Y-33166041D01*
X84969594Y-33163761D01*
X84967248Y-33161611D01*
X84966943Y-33159748D01*
X84965745Y-33154011D01*
X84964522Y-33151133D01*
X84962199Y-33146374D01*
X84958564Y-33138574D01*
X84954948Y-33130626D01*
X84948967Y-33117674D01*
X84942802Y-33104909D01*
X84936973Y-33093348D01*
X84932000Y-33084009D01*
X84928403Y-33077909D01*
X84927181Y-33076284D01*
X84925255Y-33073362D01*
X84921795Y-33067357D01*
X84919421Y-33063030D01*
X84915088Y-33055649D01*
X84908731Y-33045613D01*
X84901136Y-33034082D01*
X84893091Y-33022215D01*
X84885383Y-33011170D01*
X84878799Y-33002105D01*
X84874127Y-32996181D01*
X84873605Y-32995597D01*
X84870029Y-32990858D01*
X84868863Y-32987956D01*
X84867084Y-32984409D01*
X84864098Y-32981166D01*
X84859506Y-32976211D01*
X84854108Y-32969314D01*
X84852890Y-32967601D01*
X84847384Y-32960212D01*
X84842000Y-32953789D01*
X84841087Y-32952818D01*
X84835891Y-32946981D01*
X84830036Y-32939736D01*
X84829101Y-32938509D01*
X84822898Y-32930701D01*
X84816514Y-32923278D01*
X84815847Y-32922551D01*
X84809962Y-32916026D01*
X84803024Y-32908104D01*
X84800541Y-32905211D01*
X84795723Y-32899741D01*
X84788135Y-32891343D01*
X84778631Y-32880954D01*
X84768069Y-32869512D01*
X84762104Y-32863095D01*
X84750243Y-32850368D01*
X84737909Y-32837134D01*
X84726313Y-32824691D01*
X84716665Y-32814339D01*
X84713791Y-32811255D01*
X84705841Y-32802845D01*
X84699155Y-32795999D01*
X84694597Y-32791586D01*
X84693142Y-32790415D01*
X84690496Y-32788281D01*
X84684948Y-32783222D01*
X84677364Y-32776041D01*
X84670298Y-32769197D01*
X84652490Y-32751978D01*
X84637928Y-32738332D01*
X84626260Y-32727940D01*
X84617134Y-32720484D01*
X84614009Y-32718176D01*
X84605861Y-32711887D01*
X84597998Y-32705078D01*
X84597425Y-32704538D01*
X84591668Y-32699850D01*
X84586964Y-32697348D01*
X84586159Y-32697219D01*
X84582888Y-32695913D01*
X84582576Y-32695016D01*
X84580468Y-32692384D01*
X84575388Y-32689109D01*
X84575287Y-32689056D01*
X84569730Y-32685963D01*
X84566672Y-32683842D01*
X84563822Y-32681805D01*
X84557833Y-32678053D01*
X84552092Y-32674628D01*
X84538882Y-32667825D01*
X84524486Y-32661920D01*
X84510549Y-32657482D01*
X84498714Y-32655075D01*
X84494587Y-32654806D01*
X84487247Y-32655562D01*
X84476575Y-32657560D01*
X84464279Y-32660392D01*
X84452067Y-32663651D01*
X84441647Y-32666931D01*
X84438108Y-32668261D01*
X84435595Y-32669166D01*
X84432380Y-32669991D01*
X84427640Y-32670862D01*
X84420550Y-32671904D01*
X84410286Y-32673244D01*
X84396024Y-32675008D01*
X84386417Y-32676175D01*
X84362356Y-32677874D01*
X84341319Y-32676875D01*
X84323670Y-32673291D01*
X84309777Y-32667234D01*
X84300004Y-32658814D01*
X84294735Y-32648212D01*
X84290467Y-32641429D01*
X84282233Y-32637304D01*
X84273549Y-32636251D01*
X84266451Y-32635288D01*
X84262456Y-32633890D01*
X84257506Y-32631447D01*
X84249834Y-32627759D01*
X84244599Y-32625275D01*
X84237127Y-32621486D01*
X84231933Y-32618356D01*
X84230461Y-32617032D01*
X84227428Y-32615372D01*
X84224497Y-32615044D01*
X84220297Y-32614176D01*
X84219396Y-32613056D01*
X84217283Y-32610512D01*
X84213431Y-32608143D01*
X84207999Y-32605364D01*
X84199817Y-32601062D01*
X84191976Y-32596877D01*
X84183476Y-32592591D01*
X84176493Y-32589582D01*
X84172758Y-32588536D01*
X84169407Y-32587015D01*
X84169051Y-32585885D01*
X84166787Y-32583875D01*
X84162580Y-32583235D01*
X84156968Y-32582257D01*
X84154472Y-32580584D01*
X84150861Y-32578621D01*
X84145567Y-32577933D01*
X84139274Y-32577127D01*
X84135783Y-32575554D01*
X84131783Y-32573769D01*
X84124668Y-32572070D01*
X84121337Y-32571536D01*
X84100389Y-32568724D01*
X84083662Y-32566647D01*
X84070143Y-32565202D01*
X84058819Y-32564288D01*
X84048675Y-32563800D01*
X84043804Y-32563686D01*
X84034126Y-32563269D01*
X84026901Y-32562461D01*
X84023403Y-32561419D01*
X84023260Y-32561158D01*
X84025088Y-32558068D01*
X84030654Y-32552056D01*
X84040072Y-32543009D01*
X84053456Y-32530815D01*
X84061570Y-32523592D01*
X84072449Y-32513811D01*
X84084733Y-32502533D01*
X84096031Y-32491958D01*
X84097610Y-32490456D01*
X84106197Y-32482298D01*
X84117395Y-32471704D01*
X84129946Y-32459862D01*
X84142591Y-32447962D01*
X84146737Y-32444067D01*
X84169096Y-32422881D01*
X84189107Y-32403521D01*
X84206417Y-32386341D01*
X84220674Y-32371695D01*
X84231525Y-32359935D01*
X84236789Y-32353755D01*
X84243963Y-32345098D01*
X84251241Y-32336663D01*
X84255202Y-32332275D01*
X84259029Y-32328155D01*
X84262140Y-32324691D01*
X84265240Y-32321000D01*
X84269034Y-32316201D01*
X84274228Y-32309413D01*
X84281525Y-32299754D01*
X84286636Y-32292972D01*
X84294190Y-32282970D01*
X84300809Y-32274250D01*
X84305697Y-32267857D01*
X84307861Y-32265078D01*
X84312780Y-32258560D01*
X84318166Y-32250820D01*
X84323116Y-32243239D01*
X84326727Y-32237199D01*
X84328099Y-32234099D01*
X84330019Y-32230985D01*
X84333401Y-32228027D01*
X84337510Y-32223770D01*
X84338702Y-32220704D01*
X84340384Y-32216346D01*
X84344004Y-32211511D01*
X84347868Y-32206262D01*
X84349306Y-32202344D01*
X84350722Y-32199148D01*
X84351635Y-32198868D01*
X84354143Y-32196679D01*
X84357069Y-32191364D01*
X84357258Y-32190916D01*
X84360163Y-32185450D01*
X84362745Y-32182976D01*
X84362881Y-32182963D01*
X84365119Y-32180914D01*
X84365210Y-32180127D01*
X84366616Y-32176479D01*
X84370216Y-32170219D01*
X84373163Y-32165733D01*
X84377631Y-32158966D01*
X84380516Y-32154073D01*
X84381115Y-32152607D01*
X84382402Y-32149596D01*
X84385641Y-32143864D01*
X84387299Y-32141156D01*
X84394575Y-32129151D01*
X84402740Y-32115048D01*
X84411401Y-32099599D01*
X84420161Y-32083554D01*
X84428625Y-32067664D01*
X84436399Y-32052679D01*
X84443086Y-32039351D01*
X84448292Y-32028431D01*
X84451621Y-32020668D01*
X84452687Y-32016959D01*
X84454229Y-32013648D01*
X84455338Y-32013312D01*
X84457492Y-32011092D01*
X84457989Y-32008010D01*
X84459099Y-32003703D01*
X84460639Y-32002709D01*
X84462793Y-32000488D01*
X84463290Y-31997407D01*
X84464400Y-31993100D01*
X84465941Y-31992105D01*
X84468095Y-31989885D01*
X84468592Y-31986804D01*
X84469702Y-31982496D01*
X84471243Y-31981502D01*
X84473427Y-31979292D01*
X84473893Y-31976421D01*
X84474792Y-31971779D01*
X84475882Y-31970457D01*
X84478183Y-31967791D01*
X84481878Y-31961952D01*
X84484299Y-31957645D01*
X84488284Y-31950567D01*
X84491377Y-31945636D01*
X84492379Y-31944391D01*
X84494796Y-31941543D01*
X84498855Y-31936012D01*
X84500403Y-31933788D01*
X84508463Y-31923496D01*
X84517292Y-31915818D01*
X84529042Y-31908899D01*
X84529667Y-31908580D01*
X84547799Y-31901813D01*
X84569575Y-31897871D01*
X84594102Y-31896840D01*
X84620486Y-31898803D01*
X84625807Y-31899547D01*
X84637498Y-31901597D01*
X84651857Y-31904556D01*
X84667760Y-31908145D01*
X84684082Y-31912083D01*
X84699698Y-31916090D01*
X84713482Y-31919888D01*
X84724311Y-31923195D01*
X84731021Y-31925715D01*
X84735836Y-31927546D01*
X84743498Y-31930040D01*
X84747589Y-31931270D01*
X84754835Y-31933765D01*
X84759387Y-31936063D01*
X84760180Y-31937017D01*
X84762330Y-31938868D01*
X84764076Y-31939089D01*
X84768766Y-31940324D01*
X84775558Y-31943390D01*
X84777410Y-31944391D01*
X84784356Y-31947782D01*
X84789839Y-31949597D01*
X84790745Y-31949693D01*
X84794225Y-31950811D01*
X84794641Y-31951718D01*
X84796840Y-31953921D01*
X84802357Y-31957023D01*
X84804896Y-31958186D01*
X84812293Y-31961837D01*
X84817918Y-31965383D01*
X84818813Y-31966140D01*
X84823196Y-31969341D01*
X84830370Y-31973658D01*
X84835124Y-31976240D01*
X84843936Y-31981998D01*
X84849946Y-31988231D01*
X84851013Y-31990117D01*
X84853898Y-31995278D01*
X84856256Y-31997407D01*
X84858072Y-31999543D01*
X84858260Y-32001102D01*
X84860025Y-32004757D01*
X84864662Y-32010916D01*
X84871182Y-32018524D01*
X84878597Y-32026523D01*
X84885918Y-32033859D01*
X84892158Y-32039475D01*
X84896327Y-32042316D01*
X84896983Y-32042471D01*
X84900328Y-32043631D01*
X84900673Y-32044474D01*
X84902873Y-32046695D01*
X84908271Y-32049526D01*
X84909288Y-32049950D01*
X84916599Y-32053073D01*
X84922371Y-32055826D01*
X84922506Y-32055898D01*
X84928583Y-32057609D01*
X84937579Y-32058308D01*
X84948232Y-32058125D01*
X84959281Y-32057187D01*
X84969464Y-32055623D01*
X84977518Y-32053560D01*
X84982181Y-32051126D01*
X84982848Y-32049778D01*
X84984980Y-32047954D01*
X84986491Y-32047772D01*
X84991349Y-32045721D01*
X84997738Y-32040417D01*
X85004433Y-32033136D01*
X85010207Y-32025156D01*
X85012805Y-32020377D01*
X85017450Y-32005050D01*
X85019345Y-31985910D01*
X85018431Y-31963710D01*
X85017726Y-31957524D01*
X85016611Y-31947310D01*
X85015342Y-31933210D01*
X85014034Y-31916633D01*
X85012799Y-31898988D01*
X85011998Y-31886073D01*
X85010413Y-31862107D01*
X85008684Y-31842791D01*
X85006727Y-31827474D01*
X85004455Y-31815505D01*
X85001784Y-31806234D01*
X85001414Y-31805224D01*
X84997339Y-31795510D01*
X84992327Y-31785150D01*
X84987268Y-31775852D01*
X84983049Y-31769322D01*
X84982188Y-31768275D01*
X84978698Y-31763911D01*
X84977528Y-31761648D01*
X84975516Y-31759418D01*
X84970454Y-31755510D01*
X84967587Y-31753533D01*
X84960163Y-31748301D01*
X84953834Y-31743395D01*
X84952526Y-31742267D01*
X84947364Y-31738724D01*
X84943911Y-31737628D01*
X84940717Y-31736021D01*
X84940435Y-31734977D01*
X84938222Y-31732802D01*
X84935290Y-31732327D01*
X84930215Y-31731109D01*
X84928506Y-31729676D01*
X84924767Y-31727449D01*
X84921723Y-31727025D01*
X84917501Y-31725885D01*
X84916578Y-31724374D01*
X84914309Y-31722382D01*
X84909951Y-31721723D01*
X84904969Y-31720816D01*
X84903324Y-31719073D01*
X84901060Y-31717063D01*
X84896853Y-31716422D01*
X84891240Y-31715444D01*
X84888744Y-31713771D01*
X84885008Y-31711549D01*
X84881925Y-31711120D01*
X84874995Y-31709878D01*
X84872141Y-31708728D01*
X84866725Y-31706572D01*
X84858834Y-31704117D01*
X84856272Y-31703426D01*
X84845846Y-31700729D01*
X84835069Y-31697935D01*
X84833740Y-31697590D01*
X84825165Y-31695180D01*
X84817805Y-31692813D01*
X84816385Y-31692289D01*
X84808713Y-31690348D01*
X84803950Y-31689914D01*
X84798464Y-31689028D01*
X84796139Y-31687543D01*
X84792775Y-31685664D01*
X84786326Y-31684035D01*
X84784717Y-31683783D01*
X84775572Y-31682193D01*
X84765267Y-31679976D01*
X84762831Y-31679381D01*
X84739609Y-31673903D01*
X84712380Y-31668117D01*
X84682410Y-31662246D01*
X84650968Y-31656511D01*
X84619320Y-31651136D01*
X84588734Y-31646342D01*
X84560478Y-31642352D01*
X84535819Y-31639389D01*
X84533536Y-31639151D01*
X84519124Y-31638004D01*
X84501408Y-31637110D01*
X84481375Y-31636470D01*
X84460012Y-31636087D01*
X84438309Y-31635961D01*
X84417252Y-31636095D01*
X84397830Y-31636490D01*
X84381029Y-31637147D01*
X84367838Y-31638068D01*
X84361234Y-31638878D01*
X84335531Y-31644356D01*
X84313991Y-31651834D01*
X84295726Y-31661706D01*
X84279847Y-31674364D01*
X84278856Y-31675312D01*
X84273021Y-31680477D01*
X84265770Y-31686313D01*
X84264519Y-31687263D01*
X84258223Y-31692098D01*
X84253529Y-31695896D01*
X84252794Y-31696541D01*
X84248427Y-31699632D01*
X84242611Y-31702953D01*
X84237496Y-31706229D01*
X84235322Y-31708886D01*
X84235321Y-31708917D01*
X84233205Y-31710944D01*
X84231845Y-31711120D01*
X84227507Y-31712801D01*
X84222678Y-31716422D01*
X84217199Y-31720304D01*
X84212900Y-31721723D01*
X84209285Y-31722777D01*
X84208792Y-31723712D01*
X84206677Y-31726250D01*
X84202828Y-31728602D01*
X84198296Y-31730857D01*
X84190128Y-31734963D01*
X84179414Y-31740368D01*
X84167246Y-31746524D01*
X84165075Y-31747624D01*
X84150462Y-31754889D01*
X84134839Y-31762424D01*
X84120175Y-31769293D01*
X84109408Y-31774136D01*
X84095926Y-31779963D01*
X84084400Y-31784813D01*
X84072647Y-31789587D01*
X84058482Y-31795185D01*
X84055729Y-31796263D01*
X84048389Y-31799158D01*
X84043138Y-31801248D01*
X84035533Y-31804262D01*
X84030546Y-31806213D01*
X84024718Y-31808626D01*
X84016406Y-31812237D01*
X84011328Y-31814502D01*
X84002472Y-31818426D01*
X83994572Y-31821816D01*
X83991447Y-31823099D01*
X83984537Y-31826031D01*
X83980217Y-31828065D01*
X83973537Y-31830096D01*
X83970277Y-31830406D01*
X83965950Y-31831510D01*
X83964939Y-31833057D01*
X83962717Y-31835206D01*
X83959602Y-31835708D01*
X83952735Y-31836914D01*
X83948998Y-31838359D01*
X83941978Y-31841893D01*
X83938467Y-31843660D01*
X83931628Y-31845880D01*
X83927864Y-31846311D01*
X83923537Y-31847415D01*
X83922526Y-31848962D01*
X83920263Y-31850972D01*
X83916056Y-31851613D01*
X83910443Y-31852590D01*
X83907947Y-31854264D01*
X83904356Y-31856189D01*
X83898669Y-31856914D01*
X83892606Y-31857748D01*
X83889391Y-31859565D01*
X83885728Y-31861636D01*
X83881439Y-31862216D01*
X83875969Y-31863101D01*
X83873667Y-31864574D01*
X83870269Y-31866594D01*
X83864012Y-31868283D01*
X83863570Y-31868359D01*
X83855399Y-31869944D01*
X83845670Y-31872137D01*
X83843002Y-31872794D01*
X83818076Y-31878501D01*
X83793931Y-31882725D01*
X83769721Y-31885485D01*
X83744598Y-31886803D01*
X83717714Y-31886697D01*
X83688222Y-31885189D01*
X83655275Y-31882299D01*
X83619009Y-31878169D01*
X83608387Y-31876897D01*
X83594569Y-31875301D01*
X83579631Y-31873618D01*
X83569969Y-31872553D01*
X83557569Y-31871524D01*
X83541542Y-31870683D01*
X83522744Y-31870029D01*
X83502031Y-31869566D01*
X83480259Y-31869294D01*
X83458286Y-31869215D01*
X83436966Y-31869330D01*
X83417156Y-31869642D01*
X83399712Y-31870151D01*
X83385490Y-31870858D01*
X83375346Y-31871766D01*
X83372485Y-31872213D01*
X83360995Y-31874451D01*
X83349116Y-31876786D01*
X83343326Y-31877933D01*
X83333348Y-31879901D01*
X83323805Y-31881754D01*
X83320794Y-31882330D01*
X83313821Y-31884033D01*
X83309139Y-31885853D01*
X83308865Y-31886033D01*
X83304597Y-31887830D01*
X83297795Y-31889574D01*
X83297194Y-31889691D01*
X83292202Y-31891256D01*
X83283866Y-31894492D01*
X83273341Y-31898887D01*
X83261780Y-31903927D01*
X83250338Y-31909097D01*
X83240168Y-31913885D01*
X83232425Y-31917777D01*
X83228262Y-31920259D01*
X83228016Y-31920480D01*
X83225093Y-31922436D01*
X83219084Y-31925915D01*
X83214762Y-31928288D01*
X83207687Y-31932249D01*
X83202756Y-31935281D01*
X83201508Y-31936241D01*
X83198582Y-31938281D01*
X83192568Y-31941815D01*
X83188254Y-31944193D01*
X83181177Y-31948164D01*
X83176247Y-31951222D01*
X83175000Y-31952199D01*
X83172144Y-31954052D01*
X83165775Y-31957538D01*
X83157149Y-31961975D01*
X83155119Y-31962988D01*
X83146233Y-31967587D01*
X83139416Y-31971467D01*
X83135891Y-31973923D01*
X83135679Y-31974201D01*
X83132628Y-31976026D01*
X83131005Y-31976201D01*
X83125615Y-31977345D01*
X83121948Y-31978851D01*
X83114927Y-31982386D01*
X83111416Y-31984153D01*
X83104485Y-31986281D01*
X83099488Y-31986804D01*
X83094487Y-31987612D01*
X83092825Y-31989176D01*
X83090472Y-31990970D01*
X83084553Y-31992685D01*
X83081559Y-31993212D01*
X83073353Y-31994324D01*
X83062466Y-31995664D01*
X83050265Y-31997081D01*
X83038114Y-31998423D01*
X83027380Y-31999540D01*
X83019428Y-32000278D01*
X83015951Y-32000495D01*
X83010231Y-31999947D01*
X83000250Y-31998367D01*
X82986909Y-31995926D01*
X82971113Y-31992792D01*
X82953763Y-31989137D01*
X82942392Y-31986632D01*
X82932327Y-31984552D01*
X82922442Y-31982777D01*
X82919843Y-31982376D01*
X82913012Y-31980870D01*
X82908784Y-31978969D01*
X82908421Y-31978571D01*
X82904967Y-31976853D01*
X82899316Y-31976201D01*
X82893253Y-31975367D01*
X82890038Y-31973550D01*
X82886447Y-31971625D01*
X82880760Y-31970899D01*
X82874697Y-31970066D01*
X82871483Y-31968248D01*
X82867899Y-31966338D01*
X82862048Y-31965597D01*
X82856533Y-31964815D01*
X82854252Y-31962947D01*
X82851953Y-31961071D01*
X82846456Y-31960296D01*
X82840335Y-31959479D01*
X82837022Y-31957645D01*
X82833286Y-31955423D01*
X82830203Y-31954994D01*
X82823266Y-31953774D01*
X82820419Y-31952649D01*
X82815675Y-31950724D01*
X82807560Y-31947883D01*
X82797785Y-31944723D01*
X82797260Y-31944560D01*
X82787314Y-31941388D01*
X82778806Y-31938509D01*
X82773522Y-31936528D01*
X82773403Y-31936476D01*
X82768206Y-31934462D01*
X82759840Y-31931502D01*
X82750871Y-31928486D01*
X82741252Y-31925273D01*
X82733050Y-31922428D01*
X82728339Y-31920684D01*
X82723558Y-31918912D01*
X82715188Y-31915966D01*
X82704672Y-31912351D01*
X82699180Y-31910490D01*
X82677303Y-31903105D01*
X82659998Y-31897237D01*
X82646805Y-31892729D01*
X82637268Y-31889424D01*
X82630927Y-31887163D01*
X82627609Y-31885906D01*
X82621666Y-31883729D01*
X82613623Y-31881022D01*
X82611704Y-31880406D01*
X82604454Y-31877809D01*
X82599366Y-31875457D01*
X82598582Y-31874929D01*
X82594085Y-31873222D01*
X82590124Y-31872819D01*
X82584723Y-31871758D01*
X82582545Y-31870168D01*
X82578882Y-31868098D01*
X82574593Y-31867518D01*
X82569042Y-31866517D01*
X82566640Y-31864867D01*
X82562977Y-31862796D01*
X82558688Y-31862216D01*
X82553137Y-31861215D01*
X82550735Y-31859565D01*
X82547072Y-31857495D01*
X82542783Y-31856914D01*
X82537232Y-31855914D01*
X82534831Y-31854264D01*
X82531247Y-31852354D01*
X82525396Y-31851613D01*
X82519881Y-31850831D01*
X82517600Y-31848962D01*
X82515301Y-31847087D01*
X82509804Y-31846311D01*
X82503683Y-31845494D01*
X82500370Y-31843660D01*
X82496845Y-31841868D01*
X82490422Y-31841020D01*
X82489610Y-31841010D01*
X82483541Y-31840333D01*
X82480554Y-31838674D01*
X82480489Y-31838359D01*
X82478162Y-31836595D01*
X82472451Y-31835727D01*
X82471368Y-31835708D01*
X82464824Y-31835086D01*
X82460960Y-31833565D01*
X82460789Y-31833350D01*
X82458843Y-31831855D01*
X82454398Y-31830407D01*
X82446602Y-31828803D01*
X82434605Y-31826844D01*
X82430787Y-31826266D01*
X82422677Y-31824647D01*
X82416072Y-31822673D01*
X82415544Y-31822454D01*
X82409218Y-31820445D01*
X82401243Y-31818794D01*
X82400965Y-31818753D01*
X82392870Y-31817419D01*
X82382599Y-31815561D01*
X82377108Y-31814508D01*
X82349706Y-31809313D01*
X82324014Y-31804890D01*
X82299085Y-31801131D01*
X82273976Y-31797934D01*
X82247741Y-31795193D01*
X82219434Y-31792804D01*
X82188111Y-31790660D01*
X82152827Y-31788659D01*
X82136671Y-31787839D01*
X82094034Y-31786531D01*
X82047094Y-31786564D01*
X81996673Y-31787916D01*
X81943592Y-31790570D01*
X81902614Y-31793396D01*
X81879837Y-31795391D01*
X81854600Y-31798022D01*
X81827973Y-31801143D01*
X81801023Y-31804609D01*
X81774820Y-31808276D01*
X81750433Y-31811999D01*
X81728930Y-31815632D01*
X81711379Y-31819031D01*
X81707780Y-31819817D01*
X81697634Y-31821930D01*
X81687719Y-31823738D01*
X81684569Y-31824231D01*
X81677737Y-31825737D01*
X81673509Y-31827638D01*
X81673146Y-31828036D01*
X81669693Y-31829754D01*
X81664042Y-31830406D01*
X81657978Y-31831240D01*
X81654764Y-31833057D01*
X81651101Y-31835128D01*
X81646811Y-31835708D01*
X81641261Y-31836709D01*
X81638859Y-31838359D01*
X81635196Y-31840430D01*
X81630907Y-31841010D01*
X81625356Y-31842010D01*
X81622954Y-31843660D01*
X81619300Y-31845712D01*
X81614845Y-31846311D01*
X81609939Y-31847239D01*
X81608375Y-31848962D01*
X81606225Y-31851308D01*
X81604363Y-31851613D01*
X81598766Y-31852766D01*
X81595085Y-31854264D01*
X81588064Y-31857798D01*
X81584553Y-31859565D01*
X81578470Y-31861749D01*
X81575276Y-31862216D01*
X81571725Y-31863636D01*
X81571263Y-31864867D01*
X81569043Y-31867021D01*
X81565962Y-31867518D01*
X81561651Y-31868368D01*
X81560660Y-31869543D01*
X81558483Y-31871806D01*
X81553035Y-31875018D01*
X81550720Y-31876138D01*
X81541850Y-31880635D01*
X81531102Y-31886706D01*
X81519606Y-31893635D01*
X81508492Y-31900707D01*
X81498892Y-31907208D01*
X81491935Y-31912422D01*
X81489089Y-31915114D01*
X81486248Y-31917571D01*
X81480730Y-31921678D01*
X81478485Y-31923260D01*
X81472460Y-31928154D01*
X81463946Y-31935977D01*
X81453974Y-31945694D01*
X81443573Y-31956267D01*
X81433774Y-31966660D01*
X81425607Y-31975838D01*
X81422564Y-31979514D01*
X81415525Y-31988681D01*
X81408644Y-31998240D01*
X81402663Y-32007090D01*
X81398319Y-32014130D01*
X81396355Y-32018259D01*
X81396310Y-32018586D01*
X81394310Y-32021182D01*
X81393660Y-32021264D01*
X81391308Y-32023411D01*
X81391009Y-32025240D01*
X81389841Y-32028772D01*
X81388853Y-32029217D01*
X81386587Y-32031435D01*
X81383704Y-32036924D01*
X81383056Y-32038494D01*
X81380186Y-32044497D01*
X81377678Y-32047638D01*
X81377260Y-32047772D01*
X81375507Y-32049997D01*
X81375104Y-32053074D01*
X81373994Y-32057381D01*
X81372453Y-32058375D01*
X81370107Y-32060525D01*
X81369802Y-32062388D01*
X81368633Y-32068155D01*
X81367461Y-32071003D01*
X81364766Y-32076771D01*
X81361850Y-32083558D01*
X81358773Y-32090707D01*
X81356239Y-32096113D01*
X81354208Y-32102794D01*
X81353898Y-32106054D01*
X81352794Y-32110381D01*
X81351247Y-32111392D01*
X81349371Y-32113691D01*
X81348596Y-32119188D01*
X81347779Y-32125309D01*
X81345945Y-32128622D01*
X81344020Y-32132213D01*
X81343294Y-32137900D01*
X81342552Y-32143897D01*
X81340924Y-32147004D01*
X81339026Y-32150366D01*
X81337348Y-32156812D01*
X81337082Y-32158427D01*
X81335653Y-32167122D01*
X81333728Y-32177670D01*
X81332826Y-32182301D01*
X81329382Y-32199565D01*
X81326730Y-32213073D01*
X81324600Y-32224264D01*
X81322729Y-32234578D01*
X81320848Y-32245453D01*
X81318692Y-32258329D01*
X81318222Y-32261162D01*
X81316398Y-32270094D01*
X81313748Y-32280812D01*
X81312310Y-32285979D01*
X81310671Y-32294302D01*
X81309647Y-32305094D01*
X81309215Y-32317148D01*
X81309348Y-32329262D01*
G36*
X79566842Y-35662350D02*
G01*
X79493881Y-35682675D01*
X79395282Y-35715291D01*
X79384371Y-35719054D01*
X79296221Y-35747694D01*
X79224702Y-35767249D01*
X79175043Y-35776418D01*
X79155820Y-35775880D01*
X79122918Y-35758550D01*
X79080311Y-35727747D01*
X79064868Y-35714785D01*
X79036791Y-35691294D01*
X79011974Y-35676866D01*
X78981778Y-35669735D01*
X78937561Y-35668135D01*
X78870683Y-35670300D01*
X78851349Y-35671138D01*
X78771510Y-35676001D01*
X78711819Y-35684488D01*
X78659117Y-35699817D01*
X78600245Y-35725206D01*
X78569791Y-35740000D01*
X78479745Y-35791368D01*
X78402238Y-35852091D01*
X78334356Y-35926344D01*
X78273185Y-36018298D01*
X78215811Y-36132128D01*
X78159320Y-36272007D01*
X78119815Y-36384459D01*
X78074749Y-36544417D01*
X78040558Y-36719836D01*
X78033406Y-36769769D01*
X78021273Y-36867741D01*
X78016489Y-36940658D01*
X78021864Y-36996466D01*
X78040207Y-37043110D01*
X78074328Y-37088535D01*
X78127035Y-37140689D01*
X78182184Y-37190548D01*
X78308133Y-37303272D01*
X78212581Y-37411436D01*
X78153430Y-37471766D01*
X78086111Y-37530492D01*
X78024120Y-37575942D01*
X78017796Y-37579880D01*
X77868742Y-37688247D01*
X77728044Y-37825441D01*
X77597803Y-37987568D01*
X77480125Y-38170735D01*
X77377113Y-38371048D01*
X77290871Y-38584614D01*
X77223504Y-38807540D01*
X77177115Y-39035932D01*
X77161036Y-39165276D01*
X77153351Y-39239479D01*
X77145331Y-39288988D01*
X77134016Y-39322316D01*
X77116446Y-39347978D01*
X77089661Y-39374488D01*
X77087671Y-39376314D01*
X77036657Y-39410839D01*
X76960134Y-39447102D01*
X76865614Y-39482444D01*
X76760610Y-39514203D01*
X76652633Y-39539721D01*
X76598626Y-39549508D01*
X76541772Y-39555556D01*
X76460552Y-39560137D01*
X76363889Y-39562939D01*
X76260708Y-39563652D01*
X76208241Y-39563107D01*
X76103176Y-39561762D01*
X76025957Y-39562075D01*
X75971139Y-39564456D01*
X75933281Y-39569310D01*
X75906940Y-39577047D01*
X75888153Y-39587091D01*
X75857175Y-39618501D01*
X75859476Y-39650234D01*
X75895027Y-39682159D01*
X75911674Y-39691497D01*
X75969987Y-39711326D01*
X76055512Y-39726539D01*
X76162461Y-39737089D01*
X76285050Y-39742934D01*
X76417493Y-39744027D01*
X76554004Y-39740324D01*
X76688798Y-39731780D01*
X76816089Y-39718350D01*
X76930092Y-39699989D01*
X76932928Y-39699425D01*
X77007615Y-39686312D01*
X77074035Y-39677928D01*
X77122872Y-39675286D01*
X77139849Y-39676878D01*
X77170848Y-39688295D01*
X77223900Y-39711497D01*
X77291424Y-39743049D01*
X77361920Y-39777551D01*
X77542246Y-39867746D01*
X77542246Y-39947324D01*
X77548884Y-40012413D01*
X77569647Y-40051380D01*
X77571393Y-40053009D01*
X77596758Y-40065667D01*
X77648488Y-40084153D01*
X77720545Y-40106560D01*
X77806894Y-40130983D01*
X77875360Y-40148958D01*
X77980802Y-40177099D01*
X78088280Y-40208115D01*
X78187901Y-40238998D01*
X78269771Y-40266737D01*
X78300082Y-40278140D01*
X78425623Y-40320535D01*
X78533790Y-40339845D01*
X78631069Y-40336232D01*
X78723944Y-40309858D01*
X78767620Y-40289798D01*
X78833946Y-40248566D01*
X78868648Y-40206944D01*
X78873275Y-40161508D01*
X78849390Y-40108849D01*
X78822048Y-40067120D01*
X78917467Y-40062084D01*
X78975855Y-40056573D01*
X79012275Y-40044895D01*
X79038017Y-40022759D01*
X79045313Y-40013481D01*
X79066196Y-39980303D01*
X79066786Y-39953093D01*
X79052332Y-39920779D01*
X79004786Y-39858530D01*
X78932579Y-39810405D01*
X78833122Y-39775018D01*
X78746237Y-39757139D01*
X78675670Y-39745082D01*
X78615068Y-39733560D01*
X78573874Y-39724416D01*
X78564447Y-39721662D01*
X78519629Y-39697485D01*
X78486339Y-39665142D01*
X78474967Y-39637415D01*
X78485770Y-39615721D01*
X78514701Y-39576976D01*
X78556544Y-39527894D01*
X78579728Y-39502587D01*
X78634711Y-39441504D01*
X78687847Y-39378378D01*
X78729687Y-39324540D01*
X78737997Y-39312811D01*
X78780605Y-39257762D01*
X78823542Y-39213987D01*
X78861470Y-39185688D01*
X78889048Y-39177069D01*
X78899572Y-39185604D01*
X78912486Y-39221247D01*
X78934405Y-39282224D01*
X78963167Y-39362483D01*
X78996612Y-39455974D01*
X79032578Y-39556645D01*
X79068904Y-39658446D01*
X79103429Y-39755325D01*
X79133993Y-39841231D01*
X79158434Y-39910114D01*
X79168769Y-39939362D01*
X79228730Y-40095460D01*
X79287600Y-40219642D01*
X79346273Y-40313243D01*
X79405644Y-40377599D01*
X79466605Y-40414046D01*
X79491140Y-40421012D01*
X79533853Y-40426192D01*
X79597298Y-40429995D01*
X79668904Y-40431708D01*
X79680426Y-40431741D01*
X79758608Y-40429535D01*
X79813496Y-40421863D01*
X79854898Y-40407012D01*
X79869885Y-40398674D01*
X79909319Y-40365252D01*
X79924016Y-40331450D01*
X79915067Y-40288173D01*
X79892733Y-40237006D01*
X79863781Y-40190343D01*
X79834978Y-40160576D01*
X79828955Y-40157370D01*
X79810318Y-40147123D01*
X79820210Y-40137607D01*
X79836943Y-40130732D01*
X79873309Y-40107569D01*
X79883505Y-40073381D01*
X79867992Y-40023758D01*
X79851336Y-39992799D01*
X79804151Y-39933615D01*
X79744773Y-39889266D01*
X79683556Y-39866877D01*
X79666404Y-39865508D01*
X79624291Y-39859463D01*
X79592098Y-39839112D01*
X79568810Y-39801132D01*
X79553414Y-39742199D01*
X79544897Y-39658991D01*
X79542244Y-39548183D01*
X79543153Y-39461425D01*
X79543264Y-39345441D01*
X79539870Y-39219076D01*
X79533538Y-39096887D01*
X79524861Y-38993639D01*
X79516875Y-38907030D01*
X79513174Y-38826678D01*
X79514297Y-38746682D01*
X79520783Y-38661140D01*
X79533171Y-38564152D01*
X79552001Y-38449815D01*
X79577812Y-38312230D01*
X79595097Y-38224918D01*
X79609933Y-38139734D01*
X79621365Y-38052814D01*
X79627691Y-37978108D01*
X79628417Y-37952211D01*
X79626956Y-37903870D01*
X79620902Y-37861446D01*
X79607646Y-37816743D01*
X79584580Y-37761565D01*
X79549096Y-37687717D01*
X79535658Y-37660735D01*
X79466745Y-37508760D01*
X79406254Y-37347495D01*
X79356335Y-37184626D01*
X79330486Y-37075672D01*
X78949068Y-37075672D01*
X78948401Y-37155852D01*
X78944653Y-37212229D01*
X78936208Y-37254282D01*
X78921453Y-37291488D01*
X78907927Y-37317180D01*
X78850941Y-37388613D01*
X78777054Y-37433395D01*
X78691075Y-37450137D01*
X78597815Y-37437454D01*
X78551023Y-37420125D01*
X78485506Y-37390697D01*
X78600990Y-37396465D01*
X78669964Y-37397708D01*
X78717755Y-37391798D01*
X78756084Y-37376782D01*
X78770759Y-37368187D01*
X78836815Y-37307693D01*
X78881031Y-37224650D01*
X78902366Y-37122523D01*
X78899783Y-37004781D01*
X78892980Y-36960219D01*
X78879738Y-36903016D01*
X78859832Y-36844018D01*
X78830904Y-36778531D01*
X78790591Y-36701857D01*
X78736532Y-36609302D01*
X78666368Y-36496171D01*
X78634328Y-36445770D01*
X78573629Y-36348731D01*
X78530107Y-36273871D01*
X78501333Y-36216439D01*
X78484879Y-36171683D01*
X78478953Y-36141803D01*
X78477804Y-36091183D01*
X78485890Y-36069392D01*
X78498661Y-36077665D01*
X78511567Y-36117238D01*
X78514289Y-36132210D01*
X78530060Y-36177535D01*
X78566956Y-36248172D01*
X78625034Y-36344225D01*
X78698386Y-36456870D01*
X78775491Y-36574082D01*
X78835101Y-36669884D01*
X78879427Y-36749726D01*
X78910674Y-36819061D01*
X78931053Y-36883337D01*
X78942770Y-36948006D01*
X78948035Y-37018518D01*
X78949068Y-37075672D01*
X79330486Y-37075672D01*
X79319137Y-37027838D01*
X79296809Y-36884818D01*
X79291098Y-36786261D01*
X79295797Y-36713413D01*
X79312322Y-36650437D01*
X79344318Y-36591824D01*
X79395427Y-36532067D01*
X79469292Y-36465660D01*
X79540613Y-36409100D01*
X79631836Y-36336933D01*
X79698499Y-36277929D01*
X79744164Y-36227390D01*
X79772390Y-36180619D01*
X79786739Y-36132921D01*
X79790770Y-36079598D01*
X79790770Y-36079091D01*
X79784924Y-36013540D01*
X79769466Y-35929877D01*
X79747512Y-35840774D01*
X79722183Y-35758902D01*
X79696841Y-35697410D01*
X79679164Y-35671846D01*
X79654756Y-35657263D01*
X79618891Y-35653988D01*
X79566842Y-35662350D01*
X79566842Y-35662350D01*
G37*
X79566842Y-35662350D02*
X79493881Y-35682675D01*
X79395282Y-35715291D01*
X79384371Y-35719054D01*
X79296221Y-35747694D01*
X79224702Y-35767249D01*
X79175043Y-35776418D01*
X79155820Y-35775880D01*
X79122918Y-35758550D01*
X79080311Y-35727747D01*
X79064868Y-35714785D01*
X79036791Y-35691294D01*
X79011974Y-35676866D01*
X78981778Y-35669735D01*
X78937561Y-35668135D01*
X78870683Y-35670300D01*
X78851349Y-35671138D01*
X78771510Y-35676001D01*
X78711819Y-35684488D01*
X78659117Y-35699817D01*
X78600245Y-35725206D01*
X78569791Y-35740000D01*
X78479745Y-35791368D01*
X78402238Y-35852091D01*
X78334356Y-35926344D01*
X78273185Y-36018298D01*
X78215811Y-36132128D01*
X78159320Y-36272007D01*
X78119815Y-36384459D01*
X78074749Y-36544417D01*
X78040558Y-36719836D01*
X78033406Y-36769769D01*
X78021273Y-36867741D01*
X78016489Y-36940658D01*
X78021864Y-36996466D01*
X78040207Y-37043110D01*
X78074328Y-37088535D01*
X78127035Y-37140689D01*
X78182184Y-37190548D01*
X78308133Y-37303272D01*
X78212581Y-37411436D01*
X78153430Y-37471766D01*
X78086111Y-37530492D01*
X78024120Y-37575942D01*
X78017796Y-37579880D01*
X77868742Y-37688247D01*
X77728044Y-37825441D01*
X77597803Y-37987568D01*
X77480125Y-38170735D01*
X77377113Y-38371048D01*
X77290871Y-38584614D01*
X77223504Y-38807540D01*
X77177115Y-39035932D01*
X77161036Y-39165276D01*
X77153351Y-39239479D01*
X77145331Y-39288988D01*
X77134016Y-39322316D01*
X77116446Y-39347978D01*
X77089661Y-39374488D01*
X77087671Y-39376314D01*
X77036657Y-39410839D01*
X76960134Y-39447102D01*
X76865614Y-39482444D01*
X76760610Y-39514203D01*
X76652633Y-39539721D01*
X76598626Y-39549508D01*
X76541772Y-39555556D01*
X76460552Y-39560137D01*
X76363889Y-39562939D01*
X76260708Y-39563652D01*
X76208241Y-39563107D01*
X76103176Y-39561762D01*
X76025957Y-39562075D01*
X75971139Y-39564456D01*
X75933281Y-39569310D01*
X75906940Y-39577047D01*
X75888153Y-39587091D01*
X75857175Y-39618501D01*
X75859476Y-39650234D01*
X75895027Y-39682159D01*
X75911674Y-39691497D01*
X75969987Y-39711326D01*
X76055512Y-39726539D01*
X76162461Y-39737089D01*
X76285050Y-39742934D01*
X76417493Y-39744027D01*
X76554004Y-39740324D01*
X76688798Y-39731780D01*
X76816089Y-39718350D01*
X76930092Y-39699989D01*
X76932928Y-39699425D01*
X77007615Y-39686312D01*
X77074035Y-39677928D01*
X77122872Y-39675286D01*
X77139849Y-39676878D01*
X77170848Y-39688295D01*
X77223900Y-39711497D01*
X77291424Y-39743049D01*
X77361920Y-39777551D01*
X77542246Y-39867746D01*
X77542246Y-39947324D01*
X77548884Y-40012413D01*
X77569647Y-40051380D01*
X77571393Y-40053009D01*
X77596758Y-40065667D01*
X77648488Y-40084153D01*
X77720545Y-40106560D01*
X77806894Y-40130983D01*
X77875360Y-40148958D01*
X77980802Y-40177099D01*
X78088280Y-40208115D01*
X78187901Y-40238998D01*
X78269771Y-40266737D01*
X78300082Y-40278140D01*
X78425623Y-40320535D01*
X78533790Y-40339845D01*
X78631069Y-40336232D01*
X78723944Y-40309858D01*
X78767620Y-40289798D01*
X78833946Y-40248566D01*
X78868648Y-40206944D01*
X78873275Y-40161508D01*
X78849390Y-40108849D01*
X78822048Y-40067120D01*
X78917467Y-40062084D01*
X78975855Y-40056573D01*
X79012275Y-40044895D01*
X79038017Y-40022759D01*
X79045313Y-40013481D01*
X79066196Y-39980303D01*
X79066786Y-39953093D01*
X79052332Y-39920779D01*
X79004786Y-39858530D01*
X78932579Y-39810405D01*
X78833122Y-39775018D01*
X78746237Y-39757139D01*
X78675670Y-39745082D01*
X78615068Y-39733560D01*
X78573874Y-39724416D01*
X78564447Y-39721662D01*
X78519629Y-39697485D01*
X78486339Y-39665142D01*
X78474967Y-39637415D01*
X78485770Y-39615721D01*
X78514701Y-39576976D01*
X78556544Y-39527894D01*
X78579728Y-39502587D01*
X78634711Y-39441504D01*
X78687847Y-39378378D01*
X78729687Y-39324540D01*
X78737997Y-39312811D01*
X78780605Y-39257762D01*
X78823542Y-39213987D01*
X78861470Y-39185688D01*
X78889048Y-39177069D01*
X78899572Y-39185604D01*
X78912486Y-39221247D01*
X78934405Y-39282224D01*
X78963167Y-39362483D01*
X78996612Y-39455974D01*
X79032578Y-39556645D01*
X79068904Y-39658446D01*
X79103429Y-39755325D01*
X79133993Y-39841231D01*
X79158434Y-39910114D01*
X79168769Y-39939362D01*
X79228730Y-40095460D01*
X79287600Y-40219642D01*
X79346273Y-40313243D01*
X79405644Y-40377599D01*
X79466605Y-40414046D01*
X79491140Y-40421012D01*
X79533853Y-40426192D01*
X79597298Y-40429995D01*
X79668904Y-40431708D01*
X79680426Y-40431741D01*
X79758608Y-40429535D01*
X79813496Y-40421863D01*
X79854898Y-40407012D01*
X79869885Y-40398674D01*
X79909319Y-40365252D01*
X79924016Y-40331450D01*
X79915067Y-40288173D01*
X79892733Y-40237006D01*
X79863781Y-40190343D01*
X79834978Y-40160576D01*
X79828955Y-40157370D01*
X79810318Y-40147123D01*
X79820210Y-40137607D01*
X79836943Y-40130732D01*
X79873309Y-40107569D01*
X79883505Y-40073381D01*
X79867992Y-40023758D01*
X79851336Y-39992799D01*
X79804151Y-39933615D01*
X79744773Y-39889266D01*
X79683556Y-39866877D01*
X79666404Y-39865508D01*
X79624291Y-39859463D01*
X79592098Y-39839112D01*
X79568810Y-39801132D01*
X79553414Y-39742199D01*
X79544897Y-39658991D01*
X79542244Y-39548183D01*
X79543153Y-39461425D01*
X79543264Y-39345441D01*
X79539870Y-39219076D01*
X79533538Y-39096887D01*
X79524861Y-38993639D01*
X79516875Y-38907030D01*
X79513174Y-38826678D01*
X79514297Y-38746682D01*
X79520783Y-38661140D01*
X79533171Y-38564152D01*
X79552001Y-38449815D01*
X79577812Y-38312230D01*
X79595097Y-38224918D01*
X79609933Y-38139734D01*
X79621365Y-38052814D01*
X79627691Y-37978108D01*
X79628417Y-37952211D01*
X79626956Y-37903870D01*
X79620902Y-37861446D01*
X79607646Y-37816743D01*
X79584580Y-37761565D01*
X79549096Y-37687717D01*
X79535658Y-37660735D01*
X79466745Y-37508760D01*
X79406254Y-37347495D01*
X79356335Y-37184626D01*
X79330486Y-37075672D01*
X78949068Y-37075672D01*
X78948401Y-37155852D01*
X78944653Y-37212229D01*
X78936208Y-37254282D01*
X78921453Y-37291488D01*
X78907927Y-37317180D01*
X78850941Y-37388613D01*
X78777054Y-37433395D01*
X78691075Y-37450137D01*
X78597815Y-37437454D01*
X78551023Y-37420125D01*
X78485506Y-37390697D01*
X78600990Y-37396465D01*
X78669964Y-37397708D01*
X78717755Y-37391798D01*
X78756084Y-37376782D01*
X78770759Y-37368187D01*
X78836815Y-37307693D01*
X78881031Y-37224650D01*
X78902366Y-37122523D01*
X78899783Y-37004781D01*
X78892980Y-36960219D01*
X78879738Y-36903016D01*
X78859832Y-36844018D01*
X78830904Y-36778531D01*
X78790591Y-36701857D01*
X78736532Y-36609302D01*
X78666368Y-36496171D01*
X78634328Y-36445770D01*
X78573629Y-36348731D01*
X78530107Y-36273871D01*
X78501333Y-36216439D01*
X78484879Y-36171683D01*
X78478953Y-36141803D01*
X78477804Y-36091183D01*
X78485890Y-36069392D01*
X78498661Y-36077665D01*
X78511567Y-36117238D01*
X78514289Y-36132210D01*
X78530060Y-36177535D01*
X78566956Y-36248172D01*
X78625034Y-36344225D01*
X78698386Y-36456870D01*
X78775491Y-36574082D01*
X78835101Y-36669884D01*
X78879427Y-36749726D01*
X78910674Y-36819061D01*
X78931053Y-36883337D01*
X78942770Y-36948006D01*
X78948035Y-37018518D01*
X78949068Y-37075672D01*
X79330486Y-37075672D01*
X79319137Y-37027838D01*
X79296809Y-36884818D01*
X79291098Y-36786261D01*
X79295797Y-36713413D01*
X79312322Y-36650437D01*
X79344318Y-36591824D01*
X79395427Y-36532067D01*
X79469292Y-36465660D01*
X79540613Y-36409100D01*
X79631836Y-36336933D01*
X79698499Y-36277929D01*
X79744164Y-36227390D01*
X79772390Y-36180619D01*
X79786739Y-36132921D01*
X79790770Y-36079598D01*
X79790770Y-36079091D01*
X79784924Y-36013540D01*
X79769466Y-35929877D01*
X79747512Y-35840774D01*
X79722183Y-35758902D01*
X79696841Y-35697410D01*
X79679164Y-35671846D01*
X79654756Y-35657263D01*
X79618891Y-35653988D01*
X79566842Y-35662350D01*
D11*
X92920000Y-80350000D02*
G75*
G03X92920000Y-80350000I-2000000J0D01*
G01*
X71580000Y-80350000D02*
G75*
G03X71580000Y-80350000I-2000000J0D01*
G01*
X71580000Y-35060000D02*
G75*
G03X71580000Y-35060000I-2000000J0D01*
G01*
X92920000Y-35060000D02*
G75*
G03X92920000Y-35060000I-2000000J0D01*
G01*
X92950000Y-82500000D02*
X92950000Y-27500000D01*
X67550000Y-82500000D02*
X92950000Y-82500000D01*
X67550000Y-27500000D02*
X67550000Y-82500000D01*
X92950000Y-27500000D02*
X67550000Y-27500000D01*
X78325000Y-72600000D02*
X78325000Y-71525000D01*
X81400000Y-72600000D02*
X81400000Y-75850000D01*
X78150000Y-72600000D02*
X78150000Y-75850000D01*
X81400000Y-72600000D02*
X81125000Y-72600000D01*
X81400000Y-75850000D02*
X81125000Y-75850000D01*
X78150000Y-75850000D02*
X78425000Y-75850000D01*
X78150000Y-72600000D02*
X78325000Y-72600000D01*
X86591421Y-47875000D02*
G75*
G03X86591421Y-47875000I-141421J0D01*
G01*
X86750000Y-50175000D02*
X86750000Y-49775000D01*
X85050000Y-50175000D02*
X86750000Y-50175000D01*
X84250000Y-49975000D02*
X85050000Y-49975000D01*
X83550000Y-50175000D02*
X84250000Y-50175000D01*
X83550000Y-49775000D02*
X83550000Y-50175000D01*
X83550000Y-50175000D02*
X83550000Y-49775000D01*
X86750000Y-47575000D02*
X86750000Y-47975000D01*
X83550000Y-47575000D02*
X83550000Y-47975000D01*
X84250000Y-47575000D02*
X83550000Y-47575000D01*
X85050000Y-47775000D02*
X84250000Y-47775000D01*
X86750000Y-47575000D02*
X85050000Y-47575000D01*
D12*
X87640000Y-48837779D02*
X87640000Y-48512221D01*
X88660000Y-48837779D02*
X88660000Y-48512221D01*
X89135000Y-53020000D02*
X89135000Y-54430000D01*
X86815000Y-54430000D02*
X86815000Y-52400000D01*
X86815000Y-54430000D02*
X87475000Y-54430000D01*
X88475000Y-54430000D02*
X89135000Y-54430000D01*
D13*
X81850000Y-49500000D02*
G75*
G03X81850000Y-49500000I0J0D01*
G01*
D12*
X79315000Y-49490000D02*
X78640000Y-49490000D01*
X78640000Y-49490000D02*
X78640000Y-49665000D01*
X79315000Y-52710000D02*
X78640000Y-52710000D01*
X78640000Y-52710000D02*
X78640000Y-52535000D01*
X81185000Y-52710000D02*
X81860000Y-52710000D01*
X81860000Y-52710000D02*
X81860000Y-52535000D01*
X76487221Y-68590000D02*
X76812779Y-68590000D01*
X76487221Y-69610000D02*
X76812779Y-69610000D01*
X71840000Y-58550279D02*
X71840000Y-58224721D01*
X72860000Y-58550279D02*
X72860000Y-58224721D01*
X86262779Y-68710000D02*
X85937221Y-68710000D01*
X86262779Y-67690000D02*
X85937221Y-67690000D01*
X88710000Y-43437221D02*
X88710000Y-43762779D01*
X87690000Y-43437221D02*
X87690000Y-43762779D01*
X90060000Y-43537221D02*
X90060000Y-43862779D01*
X89040000Y-43537221D02*
X89040000Y-43862779D01*
X71540000Y-41350279D02*
X71540000Y-41024721D01*
X72560000Y-41350279D02*
X72560000Y-41024721D01*
X87387221Y-45840000D02*
X87712779Y-45840000D01*
X87387221Y-46860000D02*
X87712779Y-46860000D01*
X88990000Y-48862779D02*
X88990000Y-48537221D01*
X90010000Y-48862779D02*
X90010000Y-48537221D01*
X70740000Y-66650279D02*
X70740000Y-66324721D01*
X71760000Y-66650279D02*
X71760000Y-66324721D01*
X88260000Y-62737221D02*
X88260000Y-63062779D01*
X87240000Y-62737221D02*
X87240000Y-63062779D01*
X86740000Y-74462779D02*
X86740000Y-74137221D01*
X87760000Y-74462779D02*
X87760000Y-74137221D01*
X88990000Y-63762779D02*
X88990000Y-63437221D01*
X90010000Y-63762779D02*
X90010000Y-63437221D01*
X88040000Y-74450279D02*
X88040000Y-74124721D01*
X89060000Y-74450279D02*
X89060000Y-74124721D01*
X72810000Y-30949721D02*
X72810000Y-31275279D01*
X71790000Y-30949721D02*
X71790000Y-31275279D01*
X88774721Y-39090000D02*
X89100279Y-39090000D01*
X88774721Y-40110000D02*
X89100279Y-40110000D01*
X88787221Y-37790000D02*
X89112779Y-37790000D01*
X88787221Y-38810000D02*
X89112779Y-38810000D01*
X86025000Y-45250000D02*
X83475000Y-45250000D01*
X86025000Y-46950000D02*
X83475000Y-46950000D01*
X86025000Y-45250000D02*
X86025000Y-46950000D01*
X87890000Y-65912779D02*
X87890000Y-65587221D01*
X88910000Y-65912779D02*
X88910000Y-65587221D01*
X88687221Y-67790000D02*
X89012779Y-67790000D01*
X88687221Y-68810000D02*
X89012779Y-68810000D01*
X87599721Y-69090000D02*
X87925279Y-69090000D01*
X87599721Y-70110000D02*
X87925279Y-70110000D01*
X87487221Y-70940000D02*
X87812779Y-70940000D01*
X87487221Y-71960000D02*
X87812779Y-71960000D01*
X87490000Y-59562779D02*
X87490000Y-59237221D01*
X88510000Y-59562779D02*
X88510000Y-59237221D01*
X76787221Y-51040000D02*
X77112779Y-51040000D01*
X76787221Y-52060000D02*
X77112779Y-52060000D01*
X90937221Y-28990000D02*
X91262779Y-28990000D01*
X90937221Y-30010000D02*
X91262779Y-30010000D01*
X72290000Y-52449721D02*
X72290000Y-52775279D01*
X73310000Y-52449721D02*
X73310000Y-52775279D01*
X89037221Y-31510000D02*
X89362779Y-31510000D01*
X89037221Y-30490000D02*
X89362779Y-30490000D01*
X71040000Y-46362779D02*
X71040000Y-46037221D01*
X72060000Y-46362779D02*
X72060000Y-46037221D01*
X77710000Y-46050279D02*
X77710000Y-45724721D01*
X76690000Y-46050279D02*
X76690000Y-45724721D01*
X79660000Y-45937779D02*
X79660000Y-45612221D01*
X78640000Y-45937779D02*
X78640000Y-45612221D01*
X79612779Y-68490000D02*
X79287221Y-68490000D01*
X79612779Y-69510000D02*
X79287221Y-69510000D01*
X83362779Y-68790000D02*
X83037221Y-68790000D01*
X83362779Y-69810000D02*
X83037221Y-69810000D01*
X83387221Y-75990000D02*
X83712779Y-75990000D01*
X83387221Y-77010000D02*
X83712779Y-77010000D01*
X70590000Y-56587221D02*
X70590000Y-56912779D01*
X71610000Y-56587221D02*
X71610000Y-56912779D01*
X73260000Y-65437221D02*
X73260000Y-65762779D01*
X72240000Y-65437221D02*
X72240000Y-65762779D01*
X76387221Y-70315000D02*
X76712779Y-70315000D01*
X76387221Y-71335000D02*
X76712779Y-71335000D01*
X87460000Y-65962779D02*
X87460000Y-65637221D01*
X86440000Y-65962779D02*
X86440000Y-65637221D01*
X85512779Y-54090000D02*
X85187221Y-54090000D01*
X85512779Y-55110000D02*
X85187221Y-55110000D01*
X76940000Y-72687221D02*
X76940000Y-73012779D01*
X77960000Y-72687221D02*
X77960000Y-73012779D01*
X80012779Y-48685000D02*
X79687221Y-48685000D01*
X80012779Y-47665000D02*
X79687221Y-47665000D01*
X80960000Y-45962779D02*
X80960000Y-45637221D01*
X79940000Y-45962779D02*
X79940000Y-45637221D01*
X83785000Y-53537221D02*
X83785000Y-53862779D01*
X82765000Y-53537221D02*
X82765000Y-53862779D01*
X76787221Y-49060000D02*
X77112779Y-49060000D01*
X76787221Y-48040000D02*
X77112779Y-48040000D01*
X76940000Y-75687779D02*
X76940000Y-75362221D01*
X77960000Y-75687779D02*
X77960000Y-75362221D01*
X82610000Y-45962779D02*
X82610000Y-45637221D01*
X81590000Y-45962779D02*
X81590000Y-45637221D01*
X75187221Y-53190000D02*
X75512779Y-53190000D01*
X75187221Y-54210000D02*
X75512779Y-54210000D01*
X76787221Y-50810000D02*
X77112779Y-50810000D01*
X76787221Y-49790000D02*
X77112779Y-49790000D01*
X71765000Y-74412779D02*
X71765000Y-74087221D01*
X72785000Y-74412779D02*
X72785000Y-74087221D01*
X71737779Y-76040000D02*
X71412221Y-76040000D01*
X71737779Y-77060000D02*
X71412221Y-77060000D01*
X90937221Y-28760000D02*
X91262779Y-28760000D01*
X90937221Y-27740000D02*
X91262779Y-27740000D01*
X92010000Y-31337221D02*
X92010000Y-31662779D01*
X90990000Y-31337221D02*
X90990000Y-31662779D01*
X70690000Y-50837221D02*
X70690000Y-51162779D01*
X71710000Y-50837221D02*
X71710000Y-51162779D01*
X87990000Y-28837221D02*
X87990000Y-29162779D01*
X89010000Y-28837221D02*
X89010000Y-29162779D01*
X89037221Y-31790000D02*
X89362779Y-31790000D01*
X89037221Y-32810000D02*
X89362779Y-32810000D01*
X87340000Y-56762779D02*
X87340000Y-56437221D01*
X88360000Y-56762779D02*
X88360000Y-56437221D01*
X71885000Y-61212779D02*
X71885000Y-60887221D01*
X70865000Y-61212779D02*
X70865000Y-60887221D01*
X85487779Y-53610000D02*
X85162221Y-53610000D01*
X85487779Y-52590000D02*
X85162221Y-52590000D01*
X73420000Y-44440000D02*
X75180000Y-44440000D01*
X75180000Y-47510000D02*
X72750000Y-47510000D01*
D11*
X85125000Y-66975000D02*
X84125000Y-66975000D01*
X85125000Y-56625000D02*
X84050000Y-56625000D01*
X74775000Y-56625000D02*
X75850000Y-56625000D01*
X74775000Y-66975000D02*
X75850000Y-66975000D01*
X85125000Y-66975000D02*
X85125000Y-65900000D01*
X74775000Y-66975000D02*
X74775000Y-65900000D01*
X74775000Y-56625000D02*
X74775000Y-57700000D01*
X85125000Y-56625000D02*
X85125000Y-57700000D01*
X84125000Y-66975000D02*
X84125000Y-68000000D01*
X76500000Y-76200000D02*
X76325000Y-76200000D01*
X76500000Y-72850000D02*
X76250000Y-72850000D01*
X73150000Y-72850000D02*
X73400000Y-72850000D01*
X73150000Y-76200000D02*
X73400000Y-76200000D01*
X76500000Y-76200000D02*
X76500000Y-72850000D01*
X73150000Y-76200000D02*
X73150000Y-72850000D01*
X76325000Y-76200000D02*
X76325000Y-77450000D01*
D12*
X81750000Y-70000000D02*
X85750000Y-70000000D01*
X85750000Y-70000000D02*
X85750000Y-75800000D01*
X68015000Y-28825000D02*
X68015000Y-31525000D01*
X70735000Y-29415000D02*
X71365000Y-29415000D01*
X70735000Y-31575000D02*
X70735000Y-30935000D01*
X70735000Y-28775000D02*
X70735000Y-29415000D01*
X74040000Y-35900000D02*
X74040000Y-33900000D01*
X86460000Y-35900000D02*
X86460000Y-33900000D01*
X74040000Y-27890000D02*
X86460000Y-27890000D01*
X74150000Y-44110000D02*
X86460000Y-44110000D01*
X74040000Y-28500000D02*
X74040000Y-27890000D01*
X86460000Y-44110000D02*
X86460000Y-43500000D01*
X86460000Y-28500000D02*
X86460000Y-27900000D01*
M02*
