G04 #@! TF.GenerationSoftware,KiCad,Pcbnew,(5.1.0-0)*
G04 #@! TF.CreationDate,2019-06-19T09:49:27-07:00*
G04 #@! TF.ProjectId,differential_i2c,64696666-6572-4656-9e74-69616c5f6932,rev?*
G04 #@! TF.SameCoordinates,Original*
G04 #@! TF.FileFunction,Soldermask,Top*
G04 #@! TF.FilePolarity,Negative*
%FSLAX46Y46*%
G04 Gerber Fmt 4.6, Leading zero omitted, Abs format (unit mm)*
G04 Created by KiCad (PCBNEW (5.1.0-0)) date 2019-06-19 09:49:27*
%MOMM*%
%LPD*%
G04 APERTURE LIST*
%ADD10O,1.350000X1.350000*%
%ADD11R,1.350000X1.350000*%
%ADD12C,0.100000*%
%ADD13C,1.000000*%
%ADD14C,0.600000*%
%ADD15C,0.300000*%
G04 APERTURE END LIST*
D10*
X109400000Y-54600000D03*
X109400000Y-56600000D03*
X109400000Y-58600000D03*
X109400000Y-60600000D03*
D11*
X109400000Y-62600000D03*
D12*
G36*
X119099504Y-60701204D02*
G01*
X119123773Y-60704804D01*
X119147571Y-60710765D01*
X119170671Y-60719030D01*
X119192849Y-60729520D01*
X119213893Y-60742133D01*
X119233598Y-60756747D01*
X119251777Y-60773223D01*
X119268253Y-60791402D01*
X119282867Y-60811107D01*
X119295480Y-60832151D01*
X119305970Y-60854329D01*
X119314235Y-60877429D01*
X119320196Y-60901227D01*
X119323796Y-60925496D01*
X119325000Y-60950000D01*
X119325000Y-63150000D01*
X119323796Y-63174504D01*
X119320196Y-63198773D01*
X119314235Y-63222571D01*
X119305970Y-63245671D01*
X119295480Y-63267849D01*
X119282867Y-63288893D01*
X119268253Y-63308598D01*
X119251777Y-63326777D01*
X119233598Y-63343253D01*
X119213893Y-63357867D01*
X119192849Y-63370480D01*
X119170671Y-63380970D01*
X119147571Y-63389235D01*
X119123773Y-63395196D01*
X119099504Y-63398796D01*
X119075000Y-63400000D01*
X118575000Y-63400000D01*
X118550496Y-63398796D01*
X118526227Y-63395196D01*
X118502429Y-63389235D01*
X118479329Y-63380970D01*
X118457151Y-63370480D01*
X118436107Y-63357867D01*
X118416402Y-63343253D01*
X118398223Y-63326777D01*
X118381747Y-63308598D01*
X118367133Y-63288893D01*
X118354520Y-63267849D01*
X118344030Y-63245671D01*
X118335765Y-63222571D01*
X118329804Y-63198773D01*
X118326204Y-63174504D01*
X118325000Y-63150000D01*
X118325000Y-60950000D01*
X118326204Y-60925496D01*
X118329804Y-60901227D01*
X118335765Y-60877429D01*
X118344030Y-60854329D01*
X118354520Y-60832151D01*
X118367133Y-60811107D01*
X118381747Y-60791402D01*
X118398223Y-60773223D01*
X118416402Y-60756747D01*
X118436107Y-60742133D01*
X118457151Y-60729520D01*
X118479329Y-60719030D01*
X118502429Y-60710765D01*
X118526227Y-60704804D01*
X118550496Y-60701204D01*
X118575000Y-60700000D01*
X119075000Y-60700000D01*
X119099504Y-60701204D01*
X119099504Y-60701204D01*
G37*
D13*
X118825000Y-62050000D03*
D12*
G36*
X111649504Y-60701204D02*
G01*
X111673773Y-60704804D01*
X111697571Y-60710765D01*
X111720671Y-60719030D01*
X111742849Y-60729520D01*
X111763893Y-60742133D01*
X111783598Y-60756747D01*
X111801777Y-60773223D01*
X111818253Y-60791402D01*
X111832867Y-60811107D01*
X111845480Y-60832151D01*
X111855970Y-60854329D01*
X111864235Y-60877429D01*
X111870196Y-60901227D01*
X111873796Y-60925496D01*
X111875000Y-60950000D01*
X111875000Y-63150000D01*
X111873796Y-63174504D01*
X111870196Y-63198773D01*
X111864235Y-63222571D01*
X111855970Y-63245671D01*
X111845480Y-63267849D01*
X111832867Y-63288893D01*
X111818253Y-63308598D01*
X111801777Y-63326777D01*
X111783598Y-63343253D01*
X111763893Y-63357867D01*
X111742849Y-63370480D01*
X111720671Y-63380970D01*
X111697571Y-63389235D01*
X111673773Y-63395196D01*
X111649504Y-63398796D01*
X111625000Y-63400000D01*
X111125000Y-63400000D01*
X111100496Y-63398796D01*
X111076227Y-63395196D01*
X111052429Y-63389235D01*
X111029329Y-63380970D01*
X111007151Y-63370480D01*
X110986107Y-63357867D01*
X110966402Y-63343253D01*
X110948223Y-63326777D01*
X110931747Y-63308598D01*
X110917133Y-63288893D01*
X110904520Y-63267849D01*
X110894030Y-63245671D01*
X110885765Y-63222571D01*
X110879804Y-63198773D01*
X110876204Y-63174504D01*
X110875000Y-63150000D01*
X110875000Y-60950000D01*
X110876204Y-60925496D01*
X110879804Y-60901227D01*
X110885765Y-60877429D01*
X110894030Y-60854329D01*
X110904520Y-60832151D01*
X110917133Y-60811107D01*
X110931747Y-60791402D01*
X110948223Y-60773223D01*
X110966402Y-60756747D01*
X110986107Y-60742133D01*
X111007151Y-60729520D01*
X111029329Y-60719030D01*
X111052429Y-60710765D01*
X111076227Y-60704804D01*
X111100496Y-60701204D01*
X111125000Y-60700000D01*
X111625000Y-60700000D01*
X111649504Y-60701204D01*
X111649504Y-60701204D01*
G37*
D13*
X111375000Y-62050000D03*
D12*
G36*
X117139703Y-58000722D02*
G01*
X117154264Y-58002882D01*
X117168543Y-58006459D01*
X117182403Y-58011418D01*
X117195710Y-58017712D01*
X117208336Y-58025280D01*
X117220159Y-58034048D01*
X117231066Y-58043934D01*
X117240952Y-58054841D01*
X117249720Y-58066664D01*
X117257288Y-58079290D01*
X117263582Y-58092597D01*
X117268541Y-58106457D01*
X117272118Y-58120736D01*
X117274278Y-58135297D01*
X117275000Y-58150000D01*
X117275000Y-59550000D01*
X117274278Y-59564703D01*
X117272118Y-59579264D01*
X117268541Y-59593543D01*
X117263582Y-59607403D01*
X117257288Y-59620710D01*
X117249720Y-59633336D01*
X117240952Y-59645159D01*
X117231066Y-59656066D01*
X117220159Y-59665952D01*
X117208336Y-59674720D01*
X117195710Y-59682288D01*
X117182403Y-59688582D01*
X117168543Y-59693541D01*
X117154264Y-59697118D01*
X117139703Y-59699278D01*
X117125000Y-59700000D01*
X116825000Y-59700000D01*
X116810297Y-59699278D01*
X116795736Y-59697118D01*
X116781457Y-59693541D01*
X116767597Y-59688582D01*
X116754290Y-59682288D01*
X116741664Y-59674720D01*
X116729841Y-59665952D01*
X116718934Y-59656066D01*
X116709048Y-59645159D01*
X116700280Y-59633336D01*
X116692712Y-59620710D01*
X116686418Y-59607403D01*
X116681459Y-59593543D01*
X116677882Y-59579264D01*
X116675722Y-59564703D01*
X116675000Y-59550000D01*
X116675000Y-58150000D01*
X116675722Y-58135297D01*
X116677882Y-58120736D01*
X116681459Y-58106457D01*
X116686418Y-58092597D01*
X116692712Y-58079290D01*
X116700280Y-58066664D01*
X116709048Y-58054841D01*
X116718934Y-58043934D01*
X116729841Y-58034048D01*
X116741664Y-58025280D01*
X116754290Y-58017712D01*
X116767597Y-58011418D01*
X116781457Y-58006459D01*
X116795736Y-58002882D01*
X116810297Y-58000722D01*
X116825000Y-58000000D01*
X117125000Y-58000000D01*
X117139703Y-58000722D01*
X117139703Y-58000722D01*
G37*
D14*
X116975000Y-58850000D03*
D12*
G36*
X115889703Y-58000722D02*
G01*
X115904264Y-58002882D01*
X115918543Y-58006459D01*
X115932403Y-58011418D01*
X115945710Y-58017712D01*
X115958336Y-58025280D01*
X115970159Y-58034048D01*
X115981066Y-58043934D01*
X115990952Y-58054841D01*
X115999720Y-58066664D01*
X116007288Y-58079290D01*
X116013582Y-58092597D01*
X116018541Y-58106457D01*
X116022118Y-58120736D01*
X116024278Y-58135297D01*
X116025000Y-58150000D01*
X116025000Y-59550000D01*
X116024278Y-59564703D01*
X116022118Y-59579264D01*
X116018541Y-59593543D01*
X116013582Y-59607403D01*
X116007288Y-59620710D01*
X115999720Y-59633336D01*
X115990952Y-59645159D01*
X115981066Y-59656066D01*
X115970159Y-59665952D01*
X115958336Y-59674720D01*
X115945710Y-59682288D01*
X115932403Y-59688582D01*
X115918543Y-59693541D01*
X115904264Y-59697118D01*
X115889703Y-59699278D01*
X115875000Y-59700000D01*
X115575000Y-59700000D01*
X115560297Y-59699278D01*
X115545736Y-59697118D01*
X115531457Y-59693541D01*
X115517597Y-59688582D01*
X115504290Y-59682288D01*
X115491664Y-59674720D01*
X115479841Y-59665952D01*
X115468934Y-59656066D01*
X115459048Y-59645159D01*
X115450280Y-59633336D01*
X115442712Y-59620710D01*
X115436418Y-59607403D01*
X115431459Y-59593543D01*
X115427882Y-59579264D01*
X115425722Y-59564703D01*
X115425000Y-59550000D01*
X115425000Y-58150000D01*
X115425722Y-58135297D01*
X115427882Y-58120736D01*
X115431459Y-58106457D01*
X115436418Y-58092597D01*
X115442712Y-58079290D01*
X115450280Y-58066664D01*
X115459048Y-58054841D01*
X115468934Y-58043934D01*
X115479841Y-58034048D01*
X115491664Y-58025280D01*
X115504290Y-58017712D01*
X115517597Y-58011418D01*
X115531457Y-58006459D01*
X115545736Y-58002882D01*
X115560297Y-58000722D01*
X115575000Y-58000000D01*
X115875000Y-58000000D01*
X115889703Y-58000722D01*
X115889703Y-58000722D01*
G37*
D14*
X115725000Y-58850000D03*
D12*
G36*
X114639703Y-58000722D02*
G01*
X114654264Y-58002882D01*
X114668543Y-58006459D01*
X114682403Y-58011418D01*
X114695710Y-58017712D01*
X114708336Y-58025280D01*
X114720159Y-58034048D01*
X114731066Y-58043934D01*
X114740952Y-58054841D01*
X114749720Y-58066664D01*
X114757288Y-58079290D01*
X114763582Y-58092597D01*
X114768541Y-58106457D01*
X114772118Y-58120736D01*
X114774278Y-58135297D01*
X114775000Y-58150000D01*
X114775000Y-59550000D01*
X114774278Y-59564703D01*
X114772118Y-59579264D01*
X114768541Y-59593543D01*
X114763582Y-59607403D01*
X114757288Y-59620710D01*
X114749720Y-59633336D01*
X114740952Y-59645159D01*
X114731066Y-59656066D01*
X114720159Y-59665952D01*
X114708336Y-59674720D01*
X114695710Y-59682288D01*
X114682403Y-59688582D01*
X114668543Y-59693541D01*
X114654264Y-59697118D01*
X114639703Y-59699278D01*
X114625000Y-59700000D01*
X114325000Y-59700000D01*
X114310297Y-59699278D01*
X114295736Y-59697118D01*
X114281457Y-59693541D01*
X114267597Y-59688582D01*
X114254290Y-59682288D01*
X114241664Y-59674720D01*
X114229841Y-59665952D01*
X114218934Y-59656066D01*
X114209048Y-59645159D01*
X114200280Y-59633336D01*
X114192712Y-59620710D01*
X114186418Y-59607403D01*
X114181459Y-59593543D01*
X114177882Y-59579264D01*
X114175722Y-59564703D01*
X114175000Y-59550000D01*
X114175000Y-58150000D01*
X114175722Y-58135297D01*
X114177882Y-58120736D01*
X114181459Y-58106457D01*
X114186418Y-58092597D01*
X114192712Y-58079290D01*
X114200280Y-58066664D01*
X114209048Y-58054841D01*
X114218934Y-58043934D01*
X114229841Y-58034048D01*
X114241664Y-58025280D01*
X114254290Y-58017712D01*
X114267597Y-58011418D01*
X114281457Y-58006459D01*
X114295736Y-58002882D01*
X114310297Y-58000722D01*
X114325000Y-58000000D01*
X114625000Y-58000000D01*
X114639703Y-58000722D01*
X114639703Y-58000722D01*
G37*
D14*
X114475000Y-58850000D03*
D12*
G36*
X113389703Y-58000722D02*
G01*
X113404264Y-58002882D01*
X113418543Y-58006459D01*
X113432403Y-58011418D01*
X113445710Y-58017712D01*
X113458336Y-58025280D01*
X113470159Y-58034048D01*
X113481066Y-58043934D01*
X113490952Y-58054841D01*
X113499720Y-58066664D01*
X113507288Y-58079290D01*
X113513582Y-58092597D01*
X113518541Y-58106457D01*
X113522118Y-58120736D01*
X113524278Y-58135297D01*
X113525000Y-58150000D01*
X113525000Y-59550000D01*
X113524278Y-59564703D01*
X113522118Y-59579264D01*
X113518541Y-59593543D01*
X113513582Y-59607403D01*
X113507288Y-59620710D01*
X113499720Y-59633336D01*
X113490952Y-59645159D01*
X113481066Y-59656066D01*
X113470159Y-59665952D01*
X113458336Y-59674720D01*
X113445710Y-59682288D01*
X113432403Y-59688582D01*
X113418543Y-59693541D01*
X113404264Y-59697118D01*
X113389703Y-59699278D01*
X113375000Y-59700000D01*
X113075000Y-59700000D01*
X113060297Y-59699278D01*
X113045736Y-59697118D01*
X113031457Y-59693541D01*
X113017597Y-59688582D01*
X113004290Y-59682288D01*
X112991664Y-59674720D01*
X112979841Y-59665952D01*
X112968934Y-59656066D01*
X112959048Y-59645159D01*
X112950280Y-59633336D01*
X112942712Y-59620710D01*
X112936418Y-59607403D01*
X112931459Y-59593543D01*
X112927882Y-59579264D01*
X112925722Y-59564703D01*
X112925000Y-59550000D01*
X112925000Y-58150000D01*
X112925722Y-58135297D01*
X112927882Y-58120736D01*
X112931459Y-58106457D01*
X112936418Y-58092597D01*
X112942712Y-58079290D01*
X112950280Y-58066664D01*
X112959048Y-58054841D01*
X112968934Y-58043934D01*
X112979841Y-58034048D01*
X112991664Y-58025280D01*
X113004290Y-58017712D01*
X113017597Y-58011418D01*
X113031457Y-58006459D01*
X113045736Y-58002882D01*
X113060297Y-58000722D01*
X113075000Y-58000000D01*
X113375000Y-58000000D01*
X113389703Y-58000722D01*
X113389703Y-58000722D01*
G37*
D14*
X113225000Y-58850000D03*
D15*
X118400000Y-52675000D03*
D12*
G36*
X118400000Y-53675000D02*
G01*
X117650000Y-53175000D01*
X117650000Y-52175000D01*
X119150000Y-52175000D01*
X119150000Y-53175000D01*
X118400000Y-53675000D01*
X118400000Y-53675000D01*
G37*
D15*
X118400000Y-54125000D03*
D12*
G36*
X117650000Y-54625000D02*
G01*
X117650000Y-53475000D01*
X118400000Y-53975000D01*
X119150000Y-53475000D01*
X119150000Y-54625000D01*
X117650000Y-54625000D01*
X117650000Y-54625000D01*
G37*
D15*
X115500000Y-52625000D03*
D12*
G36*
X115500000Y-53625000D02*
G01*
X114750000Y-53125000D01*
X114750000Y-52125000D01*
X116250000Y-52125000D01*
X116250000Y-53125000D01*
X115500000Y-53625000D01*
X115500000Y-53625000D01*
G37*
D15*
X115500000Y-54075000D03*
D12*
G36*
X114750000Y-54575000D02*
G01*
X114750000Y-53425000D01*
X115500000Y-53925000D01*
X116250000Y-53425000D01*
X116250000Y-54575000D01*
X114750000Y-54575000D01*
X114750000Y-54575000D01*
G37*
D15*
X116725000Y-56000000D03*
D12*
G36*
X115725000Y-56000000D02*
G01*
X116225000Y-55250000D01*
X117225000Y-55250000D01*
X117225000Y-56750000D01*
X116225000Y-56750000D01*
X115725000Y-56000000D01*
X115725000Y-56000000D01*
G37*
D15*
X115275000Y-56000000D03*
D12*
G36*
X114775000Y-55250000D02*
G01*
X115925000Y-55250000D01*
X115425000Y-56000000D01*
X115925000Y-56750000D01*
X114775000Y-56750000D01*
X114775000Y-55250000D01*
X114775000Y-55250000D01*
G37*
D15*
X111700000Y-52675000D03*
D12*
G36*
X111700000Y-53675000D02*
G01*
X110950000Y-53175000D01*
X110950000Y-52175000D01*
X112450000Y-52175000D01*
X112450000Y-53175000D01*
X111700000Y-53675000D01*
X111700000Y-53675000D01*
G37*
D15*
X111700000Y-54125000D03*
D12*
G36*
X110950000Y-54625000D02*
G01*
X110950000Y-53475000D01*
X111700000Y-53975000D01*
X112450000Y-53475000D01*
X112450000Y-54625000D01*
X110950000Y-54625000D01*
X110950000Y-54625000D01*
G37*
D15*
X113600000Y-52675000D03*
D12*
G36*
X113600000Y-53675000D02*
G01*
X112850000Y-53175000D01*
X112850000Y-52175000D01*
X114350000Y-52175000D01*
X114350000Y-53175000D01*
X113600000Y-53675000D01*
X113600000Y-53675000D01*
G37*
D15*
X113600000Y-54125000D03*
D12*
G36*
X112850000Y-54625000D02*
G01*
X112850000Y-53475000D01*
X113600000Y-53975000D01*
X114350000Y-53475000D01*
X114350000Y-54625000D01*
X112850000Y-54625000D01*
X112850000Y-54625000D01*
G37*
G36*
X109299504Y-45551204D02*
G01*
X109323773Y-45554804D01*
X109347571Y-45560765D01*
X109370671Y-45569030D01*
X109392849Y-45579520D01*
X109413893Y-45592133D01*
X109433598Y-45606747D01*
X109451777Y-45623223D01*
X109468253Y-45641402D01*
X109482867Y-45661107D01*
X109495480Y-45682151D01*
X109505970Y-45704329D01*
X109514235Y-45727429D01*
X109520196Y-45751227D01*
X109523796Y-45775496D01*
X109525000Y-45800000D01*
X109525000Y-48000000D01*
X109523796Y-48024504D01*
X109520196Y-48048773D01*
X109514235Y-48072571D01*
X109505970Y-48095671D01*
X109495480Y-48117849D01*
X109482867Y-48138893D01*
X109468253Y-48158598D01*
X109451777Y-48176777D01*
X109433598Y-48193253D01*
X109413893Y-48207867D01*
X109392849Y-48220480D01*
X109370671Y-48230970D01*
X109347571Y-48239235D01*
X109323773Y-48245196D01*
X109299504Y-48248796D01*
X109275000Y-48250000D01*
X108775000Y-48250000D01*
X108750496Y-48248796D01*
X108726227Y-48245196D01*
X108702429Y-48239235D01*
X108679329Y-48230970D01*
X108657151Y-48220480D01*
X108636107Y-48207867D01*
X108616402Y-48193253D01*
X108598223Y-48176777D01*
X108581747Y-48158598D01*
X108567133Y-48138893D01*
X108554520Y-48117849D01*
X108544030Y-48095671D01*
X108535765Y-48072571D01*
X108529804Y-48048773D01*
X108526204Y-48024504D01*
X108525000Y-48000000D01*
X108525000Y-45800000D01*
X108526204Y-45775496D01*
X108529804Y-45751227D01*
X108535765Y-45727429D01*
X108544030Y-45704329D01*
X108554520Y-45682151D01*
X108567133Y-45661107D01*
X108581747Y-45641402D01*
X108598223Y-45623223D01*
X108616402Y-45606747D01*
X108636107Y-45592133D01*
X108657151Y-45579520D01*
X108679329Y-45569030D01*
X108702429Y-45560765D01*
X108726227Y-45554804D01*
X108750496Y-45551204D01*
X108775000Y-45550000D01*
X109275000Y-45550000D01*
X109299504Y-45551204D01*
X109299504Y-45551204D01*
G37*
D13*
X109025000Y-46900000D03*
D12*
G36*
X119249504Y-45551204D02*
G01*
X119273773Y-45554804D01*
X119297571Y-45560765D01*
X119320671Y-45569030D01*
X119342849Y-45579520D01*
X119363893Y-45592133D01*
X119383598Y-45606747D01*
X119401777Y-45623223D01*
X119418253Y-45641402D01*
X119432867Y-45661107D01*
X119445480Y-45682151D01*
X119455970Y-45704329D01*
X119464235Y-45727429D01*
X119470196Y-45751227D01*
X119473796Y-45775496D01*
X119475000Y-45800000D01*
X119475000Y-48000000D01*
X119473796Y-48024504D01*
X119470196Y-48048773D01*
X119464235Y-48072571D01*
X119455970Y-48095671D01*
X119445480Y-48117849D01*
X119432867Y-48138893D01*
X119418253Y-48158598D01*
X119401777Y-48176777D01*
X119383598Y-48193253D01*
X119363893Y-48207867D01*
X119342849Y-48220480D01*
X119320671Y-48230970D01*
X119297571Y-48239235D01*
X119273773Y-48245196D01*
X119249504Y-48248796D01*
X119225000Y-48250000D01*
X118725000Y-48250000D01*
X118700496Y-48248796D01*
X118676227Y-48245196D01*
X118652429Y-48239235D01*
X118629329Y-48230970D01*
X118607151Y-48220480D01*
X118586107Y-48207867D01*
X118566402Y-48193253D01*
X118548223Y-48176777D01*
X118531747Y-48158598D01*
X118517133Y-48138893D01*
X118504520Y-48117849D01*
X118494030Y-48095671D01*
X118485765Y-48072571D01*
X118479804Y-48048773D01*
X118476204Y-48024504D01*
X118475000Y-48000000D01*
X118475000Y-45800000D01*
X118476204Y-45775496D01*
X118479804Y-45751227D01*
X118485765Y-45727429D01*
X118494030Y-45704329D01*
X118504520Y-45682151D01*
X118517133Y-45661107D01*
X118531747Y-45641402D01*
X118548223Y-45623223D01*
X118566402Y-45606747D01*
X118586107Y-45592133D01*
X118607151Y-45579520D01*
X118629329Y-45569030D01*
X118652429Y-45560765D01*
X118676227Y-45554804D01*
X118700496Y-45551204D01*
X118725000Y-45550000D01*
X119225000Y-45550000D01*
X119249504Y-45551204D01*
X119249504Y-45551204D01*
G37*
D13*
X118975000Y-46900000D03*
D12*
G36*
X111039703Y-49250722D02*
G01*
X111054264Y-49252882D01*
X111068543Y-49256459D01*
X111082403Y-49261418D01*
X111095710Y-49267712D01*
X111108336Y-49275280D01*
X111120159Y-49284048D01*
X111131066Y-49293934D01*
X111140952Y-49304841D01*
X111149720Y-49316664D01*
X111157288Y-49329290D01*
X111163582Y-49342597D01*
X111168541Y-49356457D01*
X111172118Y-49370736D01*
X111174278Y-49385297D01*
X111175000Y-49400000D01*
X111175000Y-50800000D01*
X111174278Y-50814703D01*
X111172118Y-50829264D01*
X111168541Y-50843543D01*
X111163582Y-50857403D01*
X111157288Y-50870710D01*
X111149720Y-50883336D01*
X111140952Y-50895159D01*
X111131066Y-50906066D01*
X111120159Y-50915952D01*
X111108336Y-50924720D01*
X111095710Y-50932288D01*
X111082403Y-50938582D01*
X111068543Y-50943541D01*
X111054264Y-50947118D01*
X111039703Y-50949278D01*
X111025000Y-50950000D01*
X110725000Y-50950000D01*
X110710297Y-50949278D01*
X110695736Y-50947118D01*
X110681457Y-50943541D01*
X110667597Y-50938582D01*
X110654290Y-50932288D01*
X110641664Y-50924720D01*
X110629841Y-50915952D01*
X110618934Y-50906066D01*
X110609048Y-50895159D01*
X110600280Y-50883336D01*
X110592712Y-50870710D01*
X110586418Y-50857403D01*
X110581459Y-50843543D01*
X110577882Y-50829264D01*
X110575722Y-50814703D01*
X110575000Y-50800000D01*
X110575000Y-49400000D01*
X110575722Y-49385297D01*
X110577882Y-49370736D01*
X110581459Y-49356457D01*
X110586418Y-49342597D01*
X110592712Y-49329290D01*
X110600280Y-49316664D01*
X110609048Y-49304841D01*
X110618934Y-49293934D01*
X110629841Y-49284048D01*
X110641664Y-49275280D01*
X110654290Y-49267712D01*
X110667597Y-49261418D01*
X110681457Y-49256459D01*
X110695736Y-49252882D01*
X110710297Y-49250722D01*
X110725000Y-49250000D01*
X111025000Y-49250000D01*
X111039703Y-49250722D01*
X111039703Y-49250722D01*
G37*
D14*
X110875000Y-50100000D03*
D12*
G36*
X112289703Y-49250722D02*
G01*
X112304264Y-49252882D01*
X112318543Y-49256459D01*
X112332403Y-49261418D01*
X112345710Y-49267712D01*
X112358336Y-49275280D01*
X112370159Y-49284048D01*
X112381066Y-49293934D01*
X112390952Y-49304841D01*
X112399720Y-49316664D01*
X112407288Y-49329290D01*
X112413582Y-49342597D01*
X112418541Y-49356457D01*
X112422118Y-49370736D01*
X112424278Y-49385297D01*
X112425000Y-49400000D01*
X112425000Y-50800000D01*
X112424278Y-50814703D01*
X112422118Y-50829264D01*
X112418541Y-50843543D01*
X112413582Y-50857403D01*
X112407288Y-50870710D01*
X112399720Y-50883336D01*
X112390952Y-50895159D01*
X112381066Y-50906066D01*
X112370159Y-50915952D01*
X112358336Y-50924720D01*
X112345710Y-50932288D01*
X112332403Y-50938582D01*
X112318543Y-50943541D01*
X112304264Y-50947118D01*
X112289703Y-50949278D01*
X112275000Y-50950000D01*
X111975000Y-50950000D01*
X111960297Y-50949278D01*
X111945736Y-50947118D01*
X111931457Y-50943541D01*
X111917597Y-50938582D01*
X111904290Y-50932288D01*
X111891664Y-50924720D01*
X111879841Y-50915952D01*
X111868934Y-50906066D01*
X111859048Y-50895159D01*
X111850280Y-50883336D01*
X111842712Y-50870710D01*
X111836418Y-50857403D01*
X111831459Y-50843543D01*
X111827882Y-50829264D01*
X111825722Y-50814703D01*
X111825000Y-50800000D01*
X111825000Y-49400000D01*
X111825722Y-49385297D01*
X111827882Y-49370736D01*
X111831459Y-49356457D01*
X111836418Y-49342597D01*
X111842712Y-49329290D01*
X111850280Y-49316664D01*
X111859048Y-49304841D01*
X111868934Y-49293934D01*
X111879841Y-49284048D01*
X111891664Y-49275280D01*
X111904290Y-49267712D01*
X111917597Y-49261418D01*
X111931457Y-49256459D01*
X111945736Y-49252882D01*
X111960297Y-49250722D01*
X111975000Y-49250000D01*
X112275000Y-49250000D01*
X112289703Y-49250722D01*
X112289703Y-49250722D01*
G37*
D14*
X112125000Y-50100000D03*
D12*
G36*
X113539703Y-49250722D02*
G01*
X113554264Y-49252882D01*
X113568543Y-49256459D01*
X113582403Y-49261418D01*
X113595710Y-49267712D01*
X113608336Y-49275280D01*
X113620159Y-49284048D01*
X113631066Y-49293934D01*
X113640952Y-49304841D01*
X113649720Y-49316664D01*
X113657288Y-49329290D01*
X113663582Y-49342597D01*
X113668541Y-49356457D01*
X113672118Y-49370736D01*
X113674278Y-49385297D01*
X113675000Y-49400000D01*
X113675000Y-50800000D01*
X113674278Y-50814703D01*
X113672118Y-50829264D01*
X113668541Y-50843543D01*
X113663582Y-50857403D01*
X113657288Y-50870710D01*
X113649720Y-50883336D01*
X113640952Y-50895159D01*
X113631066Y-50906066D01*
X113620159Y-50915952D01*
X113608336Y-50924720D01*
X113595710Y-50932288D01*
X113582403Y-50938582D01*
X113568543Y-50943541D01*
X113554264Y-50947118D01*
X113539703Y-50949278D01*
X113525000Y-50950000D01*
X113225000Y-50950000D01*
X113210297Y-50949278D01*
X113195736Y-50947118D01*
X113181457Y-50943541D01*
X113167597Y-50938582D01*
X113154290Y-50932288D01*
X113141664Y-50924720D01*
X113129841Y-50915952D01*
X113118934Y-50906066D01*
X113109048Y-50895159D01*
X113100280Y-50883336D01*
X113092712Y-50870710D01*
X113086418Y-50857403D01*
X113081459Y-50843543D01*
X113077882Y-50829264D01*
X113075722Y-50814703D01*
X113075000Y-50800000D01*
X113075000Y-49400000D01*
X113075722Y-49385297D01*
X113077882Y-49370736D01*
X113081459Y-49356457D01*
X113086418Y-49342597D01*
X113092712Y-49329290D01*
X113100280Y-49316664D01*
X113109048Y-49304841D01*
X113118934Y-49293934D01*
X113129841Y-49284048D01*
X113141664Y-49275280D01*
X113154290Y-49267712D01*
X113167597Y-49261418D01*
X113181457Y-49256459D01*
X113195736Y-49252882D01*
X113210297Y-49250722D01*
X113225000Y-49250000D01*
X113525000Y-49250000D01*
X113539703Y-49250722D01*
X113539703Y-49250722D01*
G37*
D14*
X113375000Y-50100000D03*
D12*
G36*
X114789703Y-49250722D02*
G01*
X114804264Y-49252882D01*
X114818543Y-49256459D01*
X114832403Y-49261418D01*
X114845710Y-49267712D01*
X114858336Y-49275280D01*
X114870159Y-49284048D01*
X114881066Y-49293934D01*
X114890952Y-49304841D01*
X114899720Y-49316664D01*
X114907288Y-49329290D01*
X114913582Y-49342597D01*
X114918541Y-49356457D01*
X114922118Y-49370736D01*
X114924278Y-49385297D01*
X114925000Y-49400000D01*
X114925000Y-50800000D01*
X114924278Y-50814703D01*
X114922118Y-50829264D01*
X114918541Y-50843543D01*
X114913582Y-50857403D01*
X114907288Y-50870710D01*
X114899720Y-50883336D01*
X114890952Y-50895159D01*
X114881066Y-50906066D01*
X114870159Y-50915952D01*
X114858336Y-50924720D01*
X114845710Y-50932288D01*
X114832403Y-50938582D01*
X114818543Y-50943541D01*
X114804264Y-50947118D01*
X114789703Y-50949278D01*
X114775000Y-50950000D01*
X114475000Y-50950000D01*
X114460297Y-50949278D01*
X114445736Y-50947118D01*
X114431457Y-50943541D01*
X114417597Y-50938582D01*
X114404290Y-50932288D01*
X114391664Y-50924720D01*
X114379841Y-50915952D01*
X114368934Y-50906066D01*
X114359048Y-50895159D01*
X114350280Y-50883336D01*
X114342712Y-50870710D01*
X114336418Y-50857403D01*
X114331459Y-50843543D01*
X114327882Y-50829264D01*
X114325722Y-50814703D01*
X114325000Y-50800000D01*
X114325000Y-49400000D01*
X114325722Y-49385297D01*
X114327882Y-49370736D01*
X114331459Y-49356457D01*
X114336418Y-49342597D01*
X114342712Y-49329290D01*
X114350280Y-49316664D01*
X114359048Y-49304841D01*
X114368934Y-49293934D01*
X114379841Y-49284048D01*
X114391664Y-49275280D01*
X114404290Y-49267712D01*
X114417597Y-49261418D01*
X114431457Y-49256459D01*
X114445736Y-49252882D01*
X114460297Y-49250722D01*
X114475000Y-49250000D01*
X114775000Y-49250000D01*
X114789703Y-49250722D01*
X114789703Y-49250722D01*
G37*
D14*
X114625000Y-50100000D03*
D12*
G36*
X116039703Y-49250722D02*
G01*
X116054264Y-49252882D01*
X116068543Y-49256459D01*
X116082403Y-49261418D01*
X116095710Y-49267712D01*
X116108336Y-49275280D01*
X116120159Y-49284048D01*
X116131066Y-49293934D01*
X116140952Y-49304841D01*
X116149720Y-49316664D01*
X116157288Y-49329290D01*
X116163582Y-49342597D01*
X116168541Y-49356457D01*
X116172118Y-49370736D01*
X116174278Y-49385297D01*
X116175000Y-49400000D01*
X116175000Y-50800000D01*
X116174278Y-50814703D01*
X116172118Y-50829264D01*
X116168541Y-50843543D01*
X116163582Y-50857403D01*
X116157288Y-50870710D01*
X116149720Y-50883336D01*
X116140952Y-50895159D01*
X116131066Y-50906066D01*
X116120159Y-50915952D01*
X116108336Y-50924720D01*
X116095710Y-50932288D01*
X116082403Y-50938582D01*
X116068543Y-50943541D01*
X116054264Y-50947118D01*
X116039703Y-50949278D01*
X116025000Y-50950000D01*
X115725000Y-50950000D01*
X115710297Y-50949278D01*
X115695736Y-50947118D01*
X115681457Y-50943541D01*
X115667597Y-50938582D01*
X115654290Y-50932288D01*
X115641664Y-50924720D01*
X115629841Y-50915952D01*
X115618934Y-50906066D01*
X115609048Y-50895159D01*
X115600280Y-50883336D01*
X115592712Y-50870710D01*
X115586418Y-50857403D01*
X115581459Y-50843543D01*
X115577882Y-50829264D01*
X115575722Y-50814703D01*
X115575000Y-50800000D01*
X115575000Y-49400000D01*
X115575722Y-49385297D01*
X115577882Y-49370736D01*
X115581459Y-49356457D01*
X115586418Y-49342597D01*
X115592712Y-49329290D01*
X115600280Y-49316664D01*
X115609048Y-49304841D01*
X115618934Y-49293934D01*
X115629841Y-49284048D01*
X115641664Y-49275280D01*
X115654290Y-49267712D01*
X115667597Y-49261418D01*
X115681457Y-49256459D01*
X115695736Y-49252882D01*
X115710297Y-49250722D01*
X115725000Y-49250000D01*
X116025000Y-49250000D01*
X116039703Y-49250722D01*
X116039703Y-49250722D01*
G37*
D14*
X115875000Y-50100000D03*
D12*
G36*
X117289703Y-49250722D02*
G01*
X117304264Y-49252882D01*
X117318543Y-49256459D01*
X117332403Y-49261418D01*
X117345710Y-49267712D01*
X117358336Y-49275280D01*
X117370159Y-49284048D01*
X117381066Y-49293934D01*
X117390952Y-49304841D01*
X117399720Y-49316664D01*
X117407288Y-49329290D01*
X117413582Y-49342597D01*
X117418541Y-49356457D01*
X117422118Y-49370736D01*
X117424278Y-49385297D01*
X117425000Y-49400000D01*
X117425000Y-50800000D01*
X117424278Y-50814703D01*
X117422118Y-50829264D01*
X117418541Y-50843543D01*
X117413582Y-50857403D01*
X117407288Y-50870710D01*
X117399720Y-50883336D01*
X117390952Y-50895159D01*
X117381066Y-50906066D01*
X117370159Y-50915952D01*
X117358336Y-50924720D01*
X117345710Y-50932288D01*
X117332403Y-50938582D01*
X117318543Y-50943541D01*
X117304264Y-50947118D01*
X117289703Y-50949278D01*
X117275000Y-50950000D01*
X116975000Y-50950000D01*
X116960297Y-50949278D01*
X116945736Y-50947118D01*
X116931457Y-50943541D01*
X116917597Y-50938582D01*
X116904290Y-50932288D01*
X116891664Y-50924720D01*
X116879841Y-50915952D01*
X116868934Y-50906066D01*
X116859048Y-50895159D01*
X116850280Y-50883336D01*
X116842712Y-50870710D01*
X116836418Y-50857403D01*
X116831459Y-50843543D01*
X116827882Y-50829264D01*
X116825722Y-50814703D01*
X116825000Y-50800000D01*
X116825000Y-49400000D01*
X116825722Y-49385297D01*
X116827882Y-49370736D01*
X116831459Y-49356457D01*
X116836418Y-49342597D01*
X116842712Y-49329290D01*
X116850280Y-49316664D01*
X116859048Y-49304841D01*
X116868934Y-49293934D01*
X116879841Y-49284048D01*
X116891664Y-49275280D01*
X116904290Y-49267712D01*
X116917597Y-49261418D01*
X116931457Y-49256459D01*
X116945736Y-49252882D01*
X116960297Y-49250722D01*
X116975000Y-49250000D01*
X117275000Y-49250000D01*
X117289703Y-49250722D01*
X117289703Y-49250722D01*
G37*
D14*
X117125000Y-50100000D03*
M02*
