G04 #@! TF.GenerationSoftware,KiCad,Pcbnew,(5.1.0-0)*
G04 #@! TF.CreationDate,2019-06-19T09:49:27-07:00*
G04 #@! TF.ProjectId,differential_i2c,64696666-6572-4656-9e74-69616c5f6932,rev?*
G04 #@! TF.SameCoordinates,Original*
G04 #@! TF.FileFunction,Copper,L2,Bot*
G04 #@! TF.FilePolarity,Positive*
%FSLAX46Y46*%
G04 Gerber Fmt 4.6, Leading zero omitted, Abs format (unit mm)*
G04 Created by KiCad (PCBNEW (5.1.0-0)) date 2019-06-19 09:49:27*
%MOMM*%
%LPD*%
G04 APERTURE LIST*
%ADD10O,1.350000X1.350000*%
%ADD11R,1.350000X1.350000*%
%ADD12R,0.650000X1.220000*%
%ADD13C,0.100000*%
%ADD14C,0.875000*%
%ADD15C,1.250000*%
%ADD16C,1.000000*%
%ADD17C,0.600000*%
%ADD18R,0.250000X1.100000*%
%ADD19C,0.800000*%
%ADD20C,0.250000*%
%ADD21C,0.160000*%
%ADD22C,0.254000*%
G04 APERTURE END LIST*
D10*
X109400000Y-54600000D03*
X109400000Y-56600000D03*
X109400000Y-58600000D03*
X109400000Y-60600000D03*
D11*
X109400000Y-62600000D03*
D12*
X116850000Y-60710000D03*
X118750000Y-60710000D03*
X118750000Y-58090000D03*
X117800000Y-58090000D03*
X116850000Y-58090000D03*
D13*
G36*
X117440191Y-51426053D02*
G01*
X117461426Y-51429203D01*
X117482250Y-51434419D01*
X117502462Y-51441651D01*
X117521868Y-51450830D01*
X117540281Y-51461866D01*
X117557524Y-51474654D01*
X117573430Y-51489070D01*
X117587846Y-51504976D01*
X117600634Y-51522219D01*
X117611670Y-51540632D01*
X117620849Y-51560038D01*
X117628081Y-51580250D01*
X117633297Y-51601074D01*
X117636447Y-51622309D01*
X117637500Y-51643750D01*
X117637500Y-52156250D01*
X117636447Y-52177691D01*
X117633297Y-52198926D01*
X117628081Y-52219750D01*
X117620849Y-52239962D01*
X117611670Y-52259368D01*
X117600634Y-52277781D01*
X117587846Y-52295024D01*
X117573430Y-52310930D01*
X117557524Y-52325346D01*
X117540281Y-52338134D01*
X117521868Y-52349170D01*
X117502462Y-52358349D01*
X117482250Y-52365581D01*
X117461426Y-52370797D01*
X117440191Y-52373947D01*
X117418750Y-52375000D01*
X116981250Y-52375000D01*
X116959809Y-52373947D01*
X116938574Y-52370797D01*
X116917750Y-52365581D01*
X116897538Y-52358349D01*
X116878132Y-52349170D01*
X116859719Y-52338134D01*
X116842476Y-52325346D01*
X116826570Y-52310930D01*
X116812154Y-52295024D01*
X116799366Y-52277781D01*
X116788330Y-52259368D01*
X116779151Y-52239962D01*
X116771919Y-52219750D01*
X116766703Y-52198926D01*
X116763553Y-52177691D01*
X116762500Y-52156250D01*
X116762500Y-51643750D01*
X116763553Y-51622309D01*
X116766703Y-51601074D01*
X116771919Y-51580250D01*
X116779151Y-51560038D01*
X116788330Y-51540632D01*
X116799366Y-51522219D01*
X116812154Y-51504976D01*
X116826570Y-51489070D01*
X116842476Y-51474654D01*
X116859719Y-51461866D01*
X116878132Y-51450830D01*
X116897538Y-51441651D01*
X116917750Y-51434419D01*
X116938574Y-51429203D01*
X116959809Y-51426053D01*
X116981250Y-51425000D01*
X117418750Y-51425000D01*
X117440191Y-51426053D01*
X117440191Y-51426053D01*
G37*
D14*
X117200000Y-51900000D03*
D13*
G36*
X119015191Y-51426053D02*
G01*
X119036426Y-51429203D01*
X119057250Y-51434419D01*
X119077462Y-51441651D01*
X119096868Y-51450830D01*
X119115281Y-51461866D01*
X119132524Y-51474654D01*
X119148430Y-51489070D01*
X119162846Y-51504976D01*
X119175634Y-51522219D01*
X119186670Y-51540632D01*
X119195849Y-51560038D01*
X119203081Y-51580250D01*
X119208297Y-51601074D01*
X119211447Y-51622309D01*
X119212500Y-51643750D01*
X119212500Y-52156250D01*
X119211447Y-52177691D01*
X119208297Y-52198926D01*
X119203081Y-52219750D01*
X119195849Y-52239962D01*
X119186670Y-52259368D01*
X119175634Y-52277781D01*
X119162846Y-52295024D01*
X119148430Y-52310930D01*
X119132524Y-52325346D01*
X119115281Y-52338134D01*
X119096868Y-52349170D01*
X119077462Y-52358349D01*
X119057250Y-52365581D01*
X119036426Y-52370797D01*
X119015191Y-52373947D01*
X118993750Y-52375000D01*
X118556250Y-52375000D01*
X118534809Y-52373947D01*
X118513574Y-52370797D01*
X118492750Y-52365581D01*
X118472538Y-52358349D01*
X118453132Y-52349170D01*
X118434719Y-52338134D01*
X118417476Y-52325346D01*
X118401570Y-52310930D01*
X118387154Y-52295024D01*
X118374366Y-52277781D01*
X118363330Y-52259368D01*
X118354151Y-52239962D01*
X118346919Y-52219750D01*
X118341703Y-52198926D01*
X118338553Y-52177691D01*
X118337500Y-52156250D01*
X118337500Y-51643750D01*
X118338553Y-51622309D01*
X118341703Y-51601074D01*
X118346919Y-51580250D01*
X118354151Y-51560038D01*
X118363330Y-51540632D01*
X118374366Y-51522219D01*
X118387154Y-51504976D01*
X118401570Y-51489070D01*
X118417476Y-51474654D01*
X118434719Y-51461866D01*
X118453132Y-51450830D01*
X118472538Y-51441651D01*
X118492750Y-51434419D01*
X118513574Y-51429203D01*
X118534809Y-51426053D01*
X118556250Y-51425000D01*
X118993750Y-51425000D01*
X119015191Y-51426053D01*
X119015191Y-51426053D01*
G37*
D14*
X118775000Y-51900000D03*
D13*
G36*
X119049504Y-52876204D02*
G01*
X119073773Y-52879804D01*
X119097571Y-52885765D01*
X119120671Y-52894030D01*
X119142849Y-52904520D01*
X119163893Y-52917133D01*
X119183598Y-52931747D01*
X119201777Y-52948223D01*
X119218253Y-52966402D01*
X119232867Y-52986107D01*
X119245480Y-53007151D01*
X119255970Y-53029329D01*
X119264235Y-53052429D01*
X119270196Y-53076227D01*
X119273796Y-53100496D01*
X119275000Y-53125000D01*
X119275000Y-54375000D01*
X119273796Y-54399504D01*
X119270196Y-54423773D01*
X119264235Y-54447571D01*
X119255970Y-54470671D01*
X119245480Y-54492849D01*
X119232867Y-54513893D01*
X119218253Y-54533598D01*
X119201777Y-54551777D01*
X119183598Y-54568253D01*
X119163893Y-54582867D01*
X119142849Y-54595480D01*
X119120671Y-54605970D01*
X119097571Y-54614235D01*
X119073773Y-54620196D01*
X119049504Y-54623796D01*
X119025000Y-54625000D01*
X118275000Y-54625000D01*
X118250496Y-54623796D01*
X118226227Y-54620196D01*
X118202429Y-54614235D01*
X118179329Y-54605970D01*
X118157151Y-54595480D01*
X118136107Y-54582867D01*
X118116402Y-54568253D01*
X118098223Y-54551777D01*
X118081747Y-54533598D01*
X118067133Y-54513893D01*
X118054520Y-54492849D01*
X118044030Y-54470671D01*
X118035765Y-54447571D01*
X118029804Y-54423773D01*
X118026204Y-54399504D01*
X118025000Y-54375000D01*
X118025000Y-53125000D01*
X118026204Y-53100496D01*
X118029804Y-53076227D01*
X118035765Y-53052429D01*
X118044030Y-53029329D01*
X118054520Y-53007151D01*
X118067133Y-52986107D01*
X118081747Y-52966402D01*
X118098223Y-52948223D01*
X118116402Y-52931747D01*
X118136107Y-52917133D01*
X118157151Y-52904520D01*
X118179329Y-52894030D01*
X118202429Y-52885765D01*
X118226227Y-52879804D01*
X118250496Y-52876204D01*
X118275000Y-52875000D01*
X119025000Y-52875000D01*
X119049504Y-52876204D01*
X119049504Y-52876204D01*
G37*
D15*
X118650000Y-53750000D03*
D13*
G36*
X116249504Y-52876204D02*
G01*
X116273773Y-52879804D01*
X116297571Y-52885765D01*
X116320671Y-52894030D01*
X116342849Y-52904520D01*
X116363893Y-52917133D01*
X116383598Y-52931747D01*
X116401777Y-52948223D01*
X116418253Y-52966402D01*
X116432867Y-52986107D01*
X116445480Y-53007151D01*
X116455970Y-53029329D01*
X116464235Y-53052429D01*
X116470196Y-53076227D01*
X116473796Y-53100496D01*
X116475000Y-53125000D01*
X116475000Y-54375000D01*
X116473796Y-54399504D01*
X116470196Y-54423773D01*
X116464235Y-54447571D01*
X116455970Y-54470671D01*
X116445480Y-54492849D01*
X116432867Y-54513893D01*
X116418253Y-54533598D01*
X116401777Y-54551777D01*
X116383598Y-54568253D01*
X116363893Y-54582867D01*
X116342849Y-54595480D01*
X116320671Y-54605970D01*
X116297571Y-54614235D01*
X116273773Y-54620196D01*
X116249504Y-54623796D01*
X116225000Y-54625000D01*
X115475000Y-54625000D01*
X115450496Y-54623796D01*
X115426227Y-54620196D01*
X115402429Y-54614235D01*
X115379329Y-54605970D01*
X115357151Y-54595480D01*
X115336107Y-54582867D01*
X115316402Y-54568253D01*
X115298223Y-54551777D01*
X115281747Y-54533598D01*
X115267133Y-54513893D01*
X115254520Y-54492849D01*
X115244030Y-54470671D01*
X115235765Y-54447571D01*
X115229804Y-54423773D01*
X115226204Y-54399504D01*
X115225000Y-54375000D01*
X115225000Y-53125000D01*
X115226204Y-53100496D01*
X115229804Y-53076227D01*
X115235765Y-53052429D01*
X115244030Y-53029329D01*
X115254520Y-53007151D01*
X115267133Y-52986107D01*
X115281747Y-52966402D01*
X115298223Y-52948223D01*
X115316402Y-52931747D01*
X115336107Y-52917133D01*
X115357151Y-52904520D01*
X115379329Y-52894030D01*
X115402429Y-52885765D01*
X115426227Y-52879804D01*
X115450496Y-52876204D01*
X115475000Y-52875000D01*
X116225000Y-52875000D01*
X116249504Y-52876204D01*
X116249504Y-52876204D01*
G37*
D15*
X115850000Y-53750000D03*
D13*
G36*
X118777691Y-55276053D02*
G01*
X118798926Y-55279203D01*
X118819750Y-55284419D01*
X118839962Y-55291651D01*
X118859368Y-55300830D01*
X118877781Y-55311866D01*
X118895024Y-55324654D01*
X118910930Y-55339070D01*
X118925346Y-55354976D01*
X118938134Y-55372219D01*
X118949170Y-55390632D01*
X118958349Y-55410038D01*
X118965581Y-55430250D01*
X118970797Y-55451074D01*
X118973947Y-55472309D01*
X118975000Y-55493750D01*
X118975000Y-56006250D01*
X118973947Y-56027691D01*
X118970797Y-56048926D01*
X118965581Y-56069750D01*
X118958349Y-56089962D01*
X118949170Y-56109368D01*
X118938134Y-56127781D01*
X118925346Y-56145024D01*
X118910930Y-56160930D01*
X118895024Y-56175346D01*
X118877781Y-56188134D01*
X118859368Y-56199170D01*
X118839962Y-56208349D01*
X118819750Y-56215581D01*
X118798926Y-56220797D01*
X118777691Y-56223947D01*
X118756250Y-56225000D01*
X118318750Y-56225000D01*
X118297309Y-56223947D01*
X118276074Y-56220797D01*
X118255250Y-56215581D01*
X118235038Y-56208349D01*
X118215632Y-56199170D01*
X118197219Y-56188134D01*
X118179976Y-56175346D01*
X118164070Y-56160930D01*
X118149654Y-56145024D01*
X118136866Y-56127781D01*
X118125830Y-56109368D01*
X118116651Y-56089962D01*
X118109419Y-56069750D01*
X118104203Y-56048926D01*
X118101053Y-56027691D01*
X118100000Y-56006250D01*
X118100000Y-55493750D01*
X118101053Y-55472309D01*
X118104203Y-55451074D01*
X118109419Y-55430250D01*
X118116651Y-55410038D01*
X118125830Y-55390632D01*
X118136866Y-55372219D01*
X118149654Y-55354976D01*
X118164070Y-55339070D01*
X118179976Y-55324654D01*
X118197219Y-55311866D01*
X118215632Y-55300830D01*
X118235038Y-55291651D01*
X118255250Y-55284419D01*
X118276074Y-55279203D01*
X118297309Y-55276053D01*
X118318750Y-55275000D01*
X118756250Y-55275000D01*
X118777691Y-55276053D01*
X118777691Y-55276053D01*
G37*
D14*
X118537500Y-55750000D03*
D13*
G36*
X117202691Y-55276053D02*
G01*
X117223926Y-55279203D01*
X117244750Y-55284419D01*
X117264962Y-55291651D01*
X117284368Y-55300830D01*
X117302781Y-55311866D01*
X117320024Y-55324654D01*
X117335930Y-55339070D01*
X117350346Y-55354976D01*
X117363134Y-55372219D01*
X117374170Y-55390632D01*
X117383349Y-55410038D01*
X117390581Y-55430250D01*
X117395797Y-55451074D01*
X117398947Y-55472309D01*
X117400000Y-55493750D01*
X117400000Y-56006250D01*
X117398947Y-56027691D01*
X117395797Y-56048926D01*
X117390581Y-56069750D01*
X117383349Y-56089962D01*
X117374170Y-56109368D01*
X117363134Y-56127781D01*
X117350346Y-56145024D01*
X117335930Y-56160930D01*
X117320024Y-56175346D01*
X117302781Y-56188134D01*
X117284368Y-56199170D01*
X117264962Y-56208349D01*
X117244750Y-56215581D01*
X117223926Y-56220797D01*
X117202691Y-56223947D01*
X117181250Y-56225000D01*
X116743750Y-56225000D01*
X116722309Y-56223947D01*
X116701074Y-56220797D01*
X116680250Y-56215581D01*
X116660038Y-56208349D01*
X116640632Y-56199170D01*
X116622219Y-56188134D01*
X116604976Y-56175346D01*
X116589070Y-56160930D01*
X116574654Y-56145024D01*
X116561866Y-56127781D01*
X116550830Y-56109368D01*
X116541651Y-56089962D01*
X116534419Y-56069750D01*
X116529203Y-56048926D01*
X116526053Y-56027691D01*
X116525000Y-56006250D01*
X116525000Y-55493750D01*
X116526053Y-55472309D01*
X116529203Y-55451074D01*
X116534419Y-55430250D01*
X116541651Y-55410038D01*
X116550830Y-55390632D01*
X116561866Y-55372219D01*
X116574654Y-55354976D01*
X116589070Y-55339070D01*
X116604976Y-55324654D01*
X116622219Y-55311866D01*
X116640632Y-55300830D01*
X116660038Y-55291651D01*
X116680250Y-55284419D01*
X116701074Y-55279203D01*
X116722309Y-55276053D01*
X116743750Y-55275000D01*
X117181250Y-55275000D01*
X117202691Y-55276053D01*
X117202691Y-55276053D01*
G37*
D14*
X116962500Y-55750000D03*
D13*
G36*
X109702691Y-51526053D02*
G01*
X109723926Y-51529203D01*
X109744750Y-51534419D01*
X109764962Y-51541651D01*
X109784368Y-51550830D01*
X109802781Y-51561866D01*
X109820024Y-51574654D01*
X109835930Y-51589070D01*
X109850346Y-51604976D01*
X109863134Y-51622219D01*
X109874170Y-51640632D01*
X109883349Y-51660038D01*
X109890581Y-51680250D01*
X109895797Y-51701074D01*
X109898947Y-51722309D01*
X109900000Y-51743750D01*
X109900000Y-52256250D01*
X109898947Y-52277691D01*
X109895797Y-52298926D01*
X109890581Y-52319750D01*
X109883349Y-52339962D01*
X109874170Y-52359368D01*
X109863134Y-52377781D01*
X109850346Y-52395024D01*
X109835930Y-52410930D01*
X109820024Y-52425346D01*
X109802781Y-52438134D01*
X109784368Y-52449170D01*
X109764962Y-52458349D01*
X109744750Y-52465581D01*
X109723926Y-52470797D01*
X109702691Y-52473947D01*
X109681250Y-52475000D01*
X109243750Y-52475000D01*
X109222309Y-52473947D01*
X109201074Y-52470797D01*
X109180250Y-52465581D01*
X109160038Y-52458349D01*
X109140632Y-52449170D01*
X109122219Y-52438134D01*
X109104976Y-52425346D01*
X109089070Y-52410930D01*
X109074654Y-52395024D01*
X109061866Y-52377781D01*
X109050830Y-52359368D01*
X109041651Y-52339962D01*
X109034419Y-52319750D01*
X109029203Y-52298926D01*
X109026053Y-52277691D01*
X109025000Y-52256250D01*
X109025000Y-51743750D01*
X109026053Y-51722309D01*
X109029203Y-51701074D01*
X109034419Y-51680250D01*
X109041651Y-51660038D01*
X109050830Y-51640632D01*
X109061866Y-51622219D01*
X109074654Y-51604976D01*
X109089070Y-51589070D01*
X109104976Y-51574654D01*
X109122219Y-51561866D01*
X109140632Y-51550830D01*
X109160038Y-51541651D01*
X109180250Y-51534419D01*
X109201074Y-51529203D01*
X109222309Y-51526053D01*
X109243750Y-51525000D01*
X109681250Y-51525000D01*
X109702691Y-51526053D01*
X109702691Y-51526053D01*
G37*
D14*
X109462500Y-52000000D03*
D13*
G36*
X111277691Y-51526053D02*
G01*
X111298926Y-51529203D01*
X111319750Y-51534419D01*
X111339962Y-51541651D01*
X111359368Y-51550830D01*
X111377781Y-51561866D01*
X111395024Y-51574654D01*
X111410930Y-51589070D01*
X111425346Y-51604976D01*
X111438134Y-51622219D01*
X111449170Y-51640632D01*
X111458349Y-51660038D01*
X111465581Y-51680250D01*
X111470797Y-51701074D01*
X111473947Y-51722309D01*
X111475000Y-51743750D01*
X111475000Y-52256250D01*
X111473947Y-52277691D01*
X111470797Y-52298926D01*
X111465581Y-52319750D01*
X111458349Y-52339962D01*
X111449170Y-52359368D01*
X111438134Y-52377781D01*
X111425346Y-52395024D01*
X111410930Y-52410930D01*
X111395024Y-52425346D01*
X111377781Y-52438134D01*
X111359368Y-52449170D01*
X111339962Y-52458349D01*
X111319750Y-52465581D01*
X111298926Y-52470797D01*
X111277691Y-52473947D01*
X111256250Y-52475000D01*
X110818750Y-52475000D01*
X110797309Y-52473947D01*
X110776074Y-52470797D01*
X110755250Y-52465581D01*
X110735038Y-52458349D01*
X110715632Y-52449170D01*
X110697219Y-52438134D01*
X110679976Y-52425346D01*
X110664070Y-52410930D01*
X110649654Y-52395024D01*
X110636866Y-52377781D01*
X110625830Y-52359368D01*
X110616651Y-52339962D01*
X110609419Y-52319750D01*
X110604203Y-52298926D01*
X110601053Y-52277691D01*
X110600000Y-52256250D01*
X110600000Y-51743750D01*
X110601053Y-51722309D01*
X110604203Y-51701074D01*
X110609419Y-51680250D01*
X110616651Y-51660038D01*
X110625830Y-51640632D01*
X110636866Y-51622219D01*
X110649654Y-51604976D01*
X110664070Y-51589070D01*
X110679976Y-51574654D01*
X110697219Y-51561866D01*
X110715632Y-51550830D01*
X110735038Y-51541651D01*
X110755250Y-51534419D01*
X110776074Y-51529203D01*
X110797309Y-51526053D01*
X110818750Y-51525000D01*
X111256250Y-51525000D01*
X111277691Y-51526053D01*
X111277691Y-51526053D01*
G37*
D14*
X111037500Y-52000000D03*
D13*
G36*
X111499504Y-52876204D02*
G01*
X111523773Y-52879804D01*
X111547571Y-52885765D01*
X111570671Y-52894030D01*
X111592849Y-52904520D01*
X111613893Y-52917133D01*
X111633598Y-52931747D01*
X111651777Y-52948223D01*
X111668253Y-52966402D01*
X111682867Y-52986107D01*
X111695480Y-53007151D01*
X111705970Y-53029329D01*
X111714235Y-53052429D01*
X111720196Y-53076227D01*
X111723796Y-53100496D01*
X111725000Y-53125000D01*
X111725000Y-54375000D01*
X111723796Y-54399504D01*
X111720196Y-54423773D01*
X111714235Y-54447571D01*
X111705970Y-54470671D01*
X111695480Y-54492849D01*
X111682867Y-54513893D01*
X111668253Y-54533598D01*
X111651777Y-54551777D01*
X111633598Y-54568253D01*
X111613893Y-54582867D01*
X111592849Y-54595480D01*
X111570671Y-54605970D01*
X111547571Y-54614235D01*
X111523773Y-54620196D01*
X111499504Y-54623796D01*
X111475000Y-54625000D01*
X110725000Y-54625000D01*
X110700496Y-54623796D01*
X110676227Y-54620196D01*
X110652429Y-54614235D01*
X110629329Y-54605970D01*
X110607151Y-54595480D01*
X110586107Y-54582867D01*
X110566402Y-54568253D01*
X110548223Y-54551777D01*
X110531747Y-54533598D01*
X110517133Y-54513893D01*
X110504520Y-54492849D01*
X110494030Y-54470671D01*
X110485765Y-54447571D01*
X110479804Y-54423773D01*
X110476204Y-54399504D01*
X110475000Y-54375000D01*
X110475000Y-53125000D01*
X110476204Y-53100496D01*
X110479804Y-53076227D01*
X110485765Y-53052429D01*
X110494030Y-53029329D01*
X110504520Y-53007151D01*
X110517133Y-52986107D01*
X110531747Y-52966402D01*
X110548223Y-52948223D01*
X110566402Y-52931747D01*
X110586107Y-52917133D01*
X110607151Y-52904520D01*
X110629329Y-52894030D01*
X110652429Y-52885765D01*
X110676227Y-52879804D01*
X110700496Y-52876204D01*
X110725000Y-52875000D01*
X111475000Y-52875000D01*
X111499504Y-52876204D01*
X111499504Y-52876204D01*
G37*
D15*
X111100000Y-53750000D03*
D13*
G36*
X114299504Y-52876204D02*
G01*
X114323773Y-52879804D01*
X114347571Y-52885765D01*
X114370671Y-52894030D01*
X114392849Y-52904520D01*
X114413893Y-52917133D01*
X114433598Y-52931747D01*
X114451777Y-52948223D01*
X114468253Y-52966402D01*
X114482867Y-52986107D01*
X114495480Y-53007151D01*
X114505970Y-53029329D01*
X114514235Y-53052429D01*
X114520196Y-53076227D01*
X114523796Y-53100496D01*
X114525000Y-53125000D01*
X114525000Y-54375000D01*
X114523796Y-54399504D01*
X114520196Y-54423773D01*
X114514235Y-54447571D01*
X114505970Y-54470671D01*
X114495480Y-54492849D01*
X114482867Y-54513893D01*
X114468253Y-54533598D01*
X114451777Y-54551777D01*
X114433598Y-54568253D01*
X114413893Y-54582867D01*
X114392849Y-54595480D01*
X114370671Y-54605970D01*
X114347571Y-54614235D01*
X114323773Y-54620196D01*
X114299504Y-54623796D01*
X114275000Y-54625000D01*
X113525000Y-54625000D01*
X113500496Y-54623796D01*
X113476227Y-54620196D01*
X113452429Y-54614235D01*
X113429329Y-54605970D01*
X113407151Y-54595480D01*
X113386107Y-54582867D01*
X113366402Y-54568253D01*
X113348223Y-54551777D01*
X113331747Y-54533598D01*
X113317133Y-54513893D01*
X113304520Y-54492849D01*
X113294030Y-54470671D01*
X113285765Y-54447571D01*
X113279804Y-54423773D01*
X113276204Y-54399504D01*
X113275000Y-54375000D01*
X113275000Y-53125000D01*
X113276204Y-53100496D01*
X113279804Y-53076227D01*
X113285765Y-53052429D01*
X113294030Y-53029329D01*
X113304520Y-53007151D01*
X113317133Y-52986107D01*
X113331747Y-52966402D01*
X113348223Y-52948223D01*
X113366402Y-52931747D01*
X113386107Y-52917133D01*
X113407151Y-52904520D01*
X113429329Y-52894030D01*
X113452429Y-52885765D01*
X113476227Y-52879804D01*
X113500496Y-52876204D01*
X113525000Y-52875000D01*
X114275000Y-52875000D01*
X114299504Y-52876204D01*
X114299504Y-52876204D01*
G37*
D15*
X113900000Y-53750000D03*
D13*
G36*
X114202691Y-55276053D02*
G01*
X114223926Y-55279203D01*
X114244750Y-55284419D01*
X114264962Y-55291651D01*
X114284368Y-55300830D01*
X114302781Y-55311866D01*
X114320024Y-55324654D01*
X114335930Y-55339070D01*
X114350346Y-55354976D01*
X114363134Y-55372219D01*
X114374170Y-55390632D01*
X114383349Y-55410038D01*
X114390581Y-55430250D01*
X114395797Y-55451074D01*
X114398947Y-55472309D01*
X114400000Y-55493750D01*
X114400000Y-56006250D01*
X114398947Y-56027691D01*
X114395797Y-56048926D01*
X114390581Y-56069750D01*
X114383349Y-56089962D01*
X114374170Y-56109368D01*
X114363134Y-56127781D01*
X114350346Y-56145024D01*
X114335930Y-56160930D01*
X114320024Y-56175346D01*
X114302781Y-56188134D01*
X114284368Y-56199170D01*
X114264962Y-56208349D01*
X114244750Y-56215581D01*
X114223926Y-56220797D01*
X114202691Y-56223947D01*
X114181250Y-56225000D01*
X113743750Y-56225000D01*
X113722309Y-56223947D01*
X113701074Y-56220797D01*
X113680250Y-56215581D01*
X113660038Y-56208349D01*
X113640632Y-56199170D01*
X113622219Y-56188134D01*
X113604976Y-56175346D01*
X113589070Y-56160930D01*
X113574654Y-56145024D01*
X113561866Y-56127781D01*
X113550830Y-56109368D01*
X113541651Y-56089962D01*
X113534419Y-56069750D01*
X113529203Y-56048926D01*
X113526053Y-56027691D01*
X113525000Y-56006250D01*
X113525000Y-55493750D01*
X113526053Y-55472309D01*
X113529203Y-55451074D01*
X113534419Y-55430250D01*
X113541651Y-55410038D01*
X113550830Y-55390632D01*
X113561866Y-55372219D01*
X113574654Y-55354976D01*
X113589070Y-55339070D01*
X113604976Y-55324654D01*
X113622219Y-55311866D01*
X113640632Y-55300830D01*
X113660038Y-55291651D01*
X113680250Y-55284419D01*
X113701074Y-55279203D01*
X113722309Y-55276053D01*
X113743750Y-55275000D01*
X114181250Y-55275000D01*
X114202691Y-55276053D01*
X114202691Y-55276053D01*
G37*
D14*
X113962500Y-55750000D03*
D13*
G36*
X115777691Y-55276053D02*
G01*
X115798926Y-55279203D01*
X115819750Y-55284419D01*
X115839962Y-55291651D01*
X115859368Y-55300830D01*
X115877781Y-55311866D01*
X115895024Y-55324654D01*
X115910930Y-55339070D01*
X115925346Y-55354976D01*
X115938134Y-55372219D01*
X115949170Y-55390632D01*
X115958349Y-55410038D01*
X115965581Y-55430250D01*
X115970797Y-55451074D01*
X115973947Y-55472309D01*
X115975000Y-55493750D01*
X115975000Y-56006250D01*
X115973947Y-56027691D01*
X115970797Y-56048926D01*
X115965581Y-56069750D01*
X115958349Y-56089962D01*
X115949170Y-56109368D01*
X115938134Y-56127781D01*
X115925346Y-56145024D01*
X115910930Y-56160930D01*
X115895024Y-56175346D01*
X115877781Y-56188134D01*
X115859368Y-56199170D01*
X115839962Y-56208349D01*
X115819750Y-56215581D01*
X115798926Y-56220797D01*
X115777691Y-56223947D01*
X115756250Y-56225000D01*
X115318750Y-56225000D01*
X115297309Y-56223947D01*
X115276074Y-56220797D01*
X115255250Y-56215581D01*
X115235038Y-56208349D01*
X115215632Y-56199170D01*
X115197219Y-56188134D01*
X115179976Y-56175346D01*
X115164070Y-56160930D01*
X115149654Y-56145024D01*
X115136866Y-56127781D01*
X115125830Y-56109368D01*
X115116651Y-56089962D01*
X115109419Y-56069750D01*
X115104203Y-56048926D01*
X115101053Y-56027691D01*
X115100000Y-56006250D01*
X115100000Y-55493750D01*
X115101053Y-55472309D01*
X115104203Y-55451074D01*
X115109419Y-55430250D01*
X115116651Y-55410038D01*
X115125830Y-55390632D01*
X115136866Y-55372219D01*
X115149654Y-55354976D01*
X115164070Y-55339070D01*
X115179976Y-55324654D01*
X115197219Y-55311866D01*
X115215632Y-55300830D01*
X115235038Y-55291651D01*
X115255250Y-55284419D01*
X115276074Y-55279203D01*
X115297309Y-55276053D01*
X115318750Y-55275000D01*
X115756250Y-55275000D01*
X115777691Y-55276053D01*
X115777691Y-55276053D01*
G37*
D14*
X115537500Y-55750000D03*
D13*
G36*
X119249504Y-45551204D02*
G01*
X119273773Y-45554804D01*
X119297571Y-45560765D01*
X119320671Y-45569030D01*
X119342849Y-45579520D01*
X119363893Y-45592133D01*
X119383598Y-45606747D01*
X119401777Y-45623223D01*
X119418253Y-45641402D01*
X119432867Y-45661107D01*
X119445480Y-45682151D01*
X119455970Y-45704329D01*
X119464235Y-45727429D01*
X119470196Y-45751227D01*
X119473796Y-45775496D01*
X119475000Y-45800000D01*
X119475000Y-48000000D01*
X119473796Y-48024504D01*
X119470196Y-48048773D01*
X119464235Y-48072571D01*
X119455970Y-48095671D01*
X119445480Y-48117849D01*
X119432867Y-48138893D01*
X119418253Y-48158598D01*
X119401777Y-48176777D01*
X119383598Y-48193253D01*
X119363893Y-48207867D01*
X119342849Y-48220480D01*
X119320671Y-48230970D01*
X119297571Y-48239235D01*
X119273773Y-48245196D01*
X119249504Y-48248796D01*
X119225000Y-48250000D01*
X118725000Y-48250000D01*
X118700496Y-48248796D01*
X118676227Y-48245196D01*
X118652429Y-48239235D01*
X118629329Y-48230970D01*
X118607151Y-48220480D01*
X118586107Y-48207867D01*
X118566402Y-48193253D01*
X118548223Y-48176777D01*
X118531747Y-48158598D01*
X118517133Y-48138893D01*
X118504520Y-48117849D01*
X118494030Y-48095671D01*
X118485765Y-48072571D01*
X118479804Y-48048773D01*
X118476204Y-48024504D01*
X118475000Y-48000000D01*
X118475000Y-45800000D01*
X118476204Y-45775496D01*
X118479804Y-45751227D01*
X118485765Y-45727429D01*
X118494030Y-45704329D01*
X118504520Y-45682151D01*
X118517133Y-45661107D01*
X118531747Y-45641402D01*
X118548223Y-45623223D01*
X118566402Y-45606747D01*
X118586107Y-45592133D01*
X118607151Y-45579520D01*
X118629329Y-45569030D01*
X118652429Y-45560765D01*
X118676227Y-45554804D01*
X118700496Y-45551204D01*
X118725000Y-45550000D01*
X119225000Y-45550000D01*
X119249504Y-45551204D01*
X119249504Y-45551204D01*
G37*
D16*
X118975000Y-46900000D03*
D13*
G36*
X109299504Y-45551204D02*
G01*
X109323773Y-45554804D01*
X109347571Y-45560765D01*
X109370671Y-45569030D01*
X109392849Y-45579520D01*
X109413893Y-45592133D01*
X109433598Y-45606747D01*
X109451777Y-45623223D01*
X109468253Y-45641402D01*
X109482867Y-45661107D01*
X109495480Y-45682151D01*
X109505970Y-45704329D01*
X109514235Y-45727429D01*
X109520196Y-45751227D01*
X109523796Y-45775496D01*
X109525000Y-45800000D01*
X109525000Y-48000000D01*
X109523796Y-48024504D01*
X109520196Y-48048773D01*
X109514235Y-48072571D01*
X109505970Y-48095671D01*
X109495480Y-48117849D01*
X109482867Y-48138893D01*
X109468253Y-48158598D01*
X109451777Y-48176777D01*
X109433598Y-48193253D01*
X109413893Y-48207867D01*
X109392849Y-48220480D01*
X109370671Y-48230970D01*
X109347571Y-48239235D01*
X109323773Y-48245196D01*
X109299504Y-48248796D01*
X109275000Y-48250000D01*
X108775000Y-48250000D01*
X108750496Y-48248796D01*
X108726227Y-48245196D01*
X108702429Y-48239235D01*
X108679329Y-48230970D01*
X108657151Y-48220480D01*
X108636107Y-48207867D01*
X108616402Y-48193253D01*
X108598223Y-48176777D01*
X108581747Y-48158598D01*
X108567133Y-48138893D01*
X108554520Y-48117849D01*
X108544030Y-48095671D01*
X108535765Y-48072571D01*
X108529804Y-48048773D01*
X108526204Y-48024504D01*
X108525000Y-48000000D01*
X108525000Y-45800000D01*
X108526204Y-45775496D01*
X108529804Y-45751227D01*
X108535765Y-45727429D01*
X108544030Y-45704329D01*
X108554520Y-45682151D01*
X108567133Y-45661107D01*
X108581747Y-45641402D01*
X108598223Y-45623223D01*
X108616402Y-45606747D01*
X108636107Y-45592133D01*
X108657151Y-45579520D01*
X108679329Y-45569030D01*
X108702429Y-45560765D01*
X108726227Y-45554804D01*
X108750496Y-45551204D01*
X108775000Y-45550000D01*
X109275000Y-45550000D01*
X109299504Y-45551204D01*
X109299504Y-45551204D01*
G37*
D16*
X109025000Y-46900000D03*
D13*
G36*
X117289703Y-49250722D02*
G01*
X117304264Y-49252882D01*
X117318543Y-49256459D01*
X117332403Y-49261418D01*
X117345710Y-49267712D01*
X117358336Y-49275280D01*
X117370159Y-49284048D01*
X117381066Y-49293934D01*
X117390952Y-49304841D01*
X117399720Y-49316664D01*
X117407288Y-49329290D01*
X117413582Y-49342597D01*
X117418541Y-49356457D01*
X117422118Y-49370736D01*
X117424278Y-49385297D01*
X117425000Y-49400000D01*
X117425000Y-50800000D01*
X117424278Y-50814703D01*
X117422118Y-50829264D01*
X117418541Y-50843543D01*
X117413582Y-50857403D01*
X117407288Y-50870710D01*
X117399720Y-50883336D01*
X117390952Y-50895159D01*
X117381066Y-50906066D01*
X117370159Y-50915952D01*
X117358336Y-50924720D01*
X117345710Y-50932288D01*
X117332403Y-50938582D01*
X117318543Y-50943541D01*
X117304264Y-50947118D01*
X117289703Y-50949278D01*
X117275000Y-50950000D01*
X116975000Y-50950000D01*
X116960297Y-50949278D01*
X116945736Y-50947118D01*
X116931457Y-50943541D01*
X116917597Y-50938582D01*
X116904290Y-50932288D01*
X116891664Y-50924720D01*
X116879841Y-50915952D01*
X116868934Y-50906066D01*
X116859048Y-50895159D01*
X116850280Y-50883336D01*
X116842712Y-50870710D01*
X116836418Y-50857403D01*
X116831459Y-50843543D01*
X116827882Y-50829264D01*
X116825722Y-50814703D01*
X116825000Y-50800000D01*
X116825000Y-49400000D01*
X116825722Y-49385297D01*
X116827882Y-49370736D01*
X116831459Y-49356457D01*
X116836418Y-49342597D01*
X116842712Y-49329290D01*
X116850280Y-49316664D01*
X116859048Y-49304841D01*
X116868934Y-49293934D01*
X116879841Y-49284048D01*
X116891664Y-49275280D01*
X116904290Y-49267712D01*
X116917597Y-49261418D01*
X116931457Y-49256459D01*
X116945736Y-49252882D01*
X116960297Y-49250722D01*
X116975000Y-49250000D01*
X117275000Y-49250000D01*
X117289703Y-49250722D01*
X117289703Y-49250722D01*
G37*
D17*
X117125000Y-50100000D03*
D13*
G36*
X116039703Y-49250722D02*
G01*
X116054264Y-49252882D01*
X116068543Y-49256459D01*
X116082403Y-49261418D01*
X116095710Y-49267712D01*
X116108336Y-49275280D01*
X116120159Y-49284048D01*
X116131066Y-49293934D01*
X116140952Y-49304841D01*
X116149720Y-49316664D01*
X116157288Y-49329290D01*
X116163582Y-49342597D01*
X116168541Y-49356457D01*
X116172118Y-49370736D01*
X116174278Y-49385297D01*
X116175000Y-49400000D01*
X116175000Y-50800000D01*
X116174278Y-50814703D01*
X116172118Y-50829264D01*
X116168541Y-50843543D01*
X116163582Y-50857403D01*
X116157288Y-50870710D01*
X116149720Y-50883336D01*
X116140952Y-50895159D01*
X116131066Y-50906066D01*
X116120159Y-50915952D01*
X116108336Y-50924720D01*
X116095710Y-50932288D01*
X116082403Y-50938582D01*
X116068543Y-50943541D01*
X116054264Y-50947118D01*
X116039703Y-50949278D01*
X116025000Y-50950000D01*
X115725000Y-50950000D01*
X115710297Y-50949278D01*
X115695736Y-50947118D01*
X115681457Y-50943541D01*
X115667597Y-50938582D01*
X115654290Y-50932288D01*
X115641664Y-50924720D01*
X115629841Y-50915952D01*
X115618934Y-50906066D01*
X115609048Y-50895159D01*
X115600280Y-50883336D01*
X115592712Y-50870710D01*
X115586418Y-50857403D01*
X115581459Y-50843543D01*
X115577882Y-50829264D01*
X115575722Y-50814703D01*
X115575000Y-50800000D01*
X115575000Y-49400000D01*
X115575722Y-49385297D01*
X115577882Y-49370736D01*
X115581459Y-49356457D01*
X115586418Y-49342597D01*
X115592712Y-49329290D01*
X115600280Y-49316664D01*
X115609048Y-49304841D01*
X115618934Y-49293934D01*
X115629841Y-49284048D01*
X115641664Y-49275280D01*
X115654290Y-49267712D01*
X115667597Y-49261418D01*
X115681457Y-49256459D01*
X115695736Y-49252882D01*
X115710297Y-49250722D01*
X115725000Y-49250000D01*
X116025000Y-49250000D01*
X116039703Y-49250722D01*
X116039703Y-49250722D01*
G37*
D17*
X115875000Y-50100000D03*
D13*
G36*
X114789703Y-49250722D02*
G01*
X114804264Y-49252882D01*
X114818543Y-49256459D01*
X114832403Y-49261418D01*
X114845710Y-49267712D01*
X114858336Y-49275280D01*
X114870159Y-49284048D01*
X114881066Y-49293934D01*
X114890952Y-49304841D01*
X114899720Y-49316664D01*
X114907288Y-49329290D01*
X114913582Y-49342597D01*
X114918541Y-49356457D01*
X114922118Y-49370736D01*
X114924278Y-49385297D01*
X114925000Y-49400000D01*
X114925000Y-50800000D01*
X114924278Y-50814703D01*
X114922118Y-50829264D01*
X114918541Y-50843543D01*
X114913582Y-50857403D01*
X114907288Y-50870710D01*
X114899720Y-50883336D01*
X114890952Y-50895159D01*
X114881066Y-50906066D01*
X114870159Y-50915952D01*
X114858336Y-50924720D01*
X114845710Y-50932288D01*
X114832403Y-50938582D01*
X114818543Y-50943541D01*
X114804264Y-50947118D01*
X114789703Y-50949278D01*
X114775000Y-50950000D01*
X114475000Y-50950000D01*
X114460297Y-50949278D01*
X114445736Y-50947118D01*
X114431457Y-50943541D01*
X114417597Y-50938582D01*
X114404290Y-50932288D01*
X114391664Y-50924720D01*
X114379841Y-50915952D01*
X114368934Y-50906066D01*
X114359048Y-50895159D01*
X114350280Y-50883336D01*
X114342712Y-50870710D01*
X114336418Y-50857403D01*
X114331459Y-50843543D01*
X114327882Y-50829264D01*
X114325722Y-50814703D01*
X114325000Y-50800000D01*
X114325000Y-49400000D01*
X114325722Y-49385297D01*
X114327882Y-49370736D01*
X114331459Y-49356457D01*
X114336418Y-49342597D01*
X114342712Y-49329290D01*
X114350280Y-49316664D01*
X114359048Y-49304841D01*
X114368934Y-49293934D01*
X114379841Y-49284048D01*
X114391664Y-49275280D01*
X114404290Y-49267712D01*
X114417597Y-49261418D01*
X114431457Y-49256459D01*
X114445736Y-49252882D01*
X114460297Y-49250722D01*
X114475000Y-49250000D01*
X114775000Y-49250000D01*
X114789703Y-49250722D01*
X114789703Y-49250722D01*
G37*
D17*
X114625000Y-50100000D03*
D13*
G36*
X113539703Y-49250722D02*
G01*
X113554264Y-49252882D01*
X113568543Y-49256459D01*
X113582403Y-49261418D01*
X113595710Y-49267712D01*
X113608336Y-49275280D01*
X113620159Y-49284048D01*
X113631066Y-49293934D01*
X113640952Y-49304841D01*
X113649720Y-49316664D01*
X113657288Y-49329290D01*
X113663582Y-49342597D01*
X113668541Y-49356457D01*
X113672118Y-49370736D01*
X113674278Y-49385297D01*
X113675000Y-49400000D01*
X113675000Y-50800000D01*
X113674278Y-50814703D01*
X113672118Y-50829264D01*
X113668541Y-50843543D01*
X113663582Y-50857403D01*
X113657288Y-50870710D01*
X113649720Y-50883336D01*
X113640952Y-50895159D01*
X113631066Y-50906066D01*
X113620159Y-50915952D01*
X113608336Y-50924720D01*
X113595710Y-50932288D01*
X113582403Y-50938582D01*
X113568543Y-50943541D01*
X113554264Y-50947118D01*
X113539703Y-50949278D01*
X113525000Y-50950000D01*
X113225000Y-50950000D01*
X113210297Y-50949278D01*
X113195736Y-50947118D01*
X113181457Y-50943541D01*
X113167597Y-50938582D01*
X113154290Y-50932288D01*
X113141664Y-50924720D01*
X113129841Y-50915952D01*
X113118934Y-50906066D01*
X113109048Y-50895159D01*
X113100280Y-50883336D01*
X113092712Y-50870710D01*
X113086418Y-50857403D01*
X113081459Y-50843543D01*
X113077882Y-50829264D01*
X113075722Y-50814703D01*
X113075000Y-50800000D01*
X113075000Y-49400000D01*
X113075722Y-49385297D01*
X113077882Y-49370736D01*
X113081459Y-49356457D01*
X113086418Y-49342597D01*
X113092712Y-49329290D01*
X113100280Y-49316664D01*
X113109048Y-49304841D01*
X113118934Y-49293934D01*
X113129841Y-49284048D01*
X113141664Y-49275280D01*
X113154290Y-49267712D01*
X113167597Y-49261418D01*
X113181457Y-49256459D01*
X113195736Y-49252882D01*
X113210297Y-49250722D01*
X113225000Y-49250000D01*
X113525000Y-49250000D01*
X113539703Y-49250722D01*
X113539703Y-49250722D01*
G37*
D17*
X113375000Y-50100000D03*
D13*
G36*
X112289703Y-49250722D02*
G01*
X112304264Y-49252882D01*
X112318543Y-49256459D01*
X112332403Y-49261418D01*
X112345710Y-49267712D01*
X112358336Y-49275280D01*
X112370159Y-49284048D01*
X112381066Y-49293934D01*
X112390952Y-49304841D01*
X112399720Y-49316664D01*
X112407288Y-49329290D01*
X112413582Y-49342597D01*
X112418541Y-49356457D01*
X112422118Y-49370736D01*
X112424278Y-49385297D01*
X112425000Y-49400000D01*
X112425000Y-50800000D01*
X112424278Y-50814703D01*
X112422118Y-50829264D01*
X112418541Y-50843543D01*
X112413582Y-50857403D01*
X112407288Y-50870710D01*
X112399720Y-50883336D01*
X112390952Y-50895159D01*
X112381066Y-50906066D01*
X112370159Y-50915952D01*
X112358336Y-50924720D01*
X112345710Y-50932288D01*
X112332403Y-50938582D01*
X112318543Y-50943541D01*
X112304264Y-50947118D01*
X112289703Y-50949278D01*
X112275000Y-50950000D01*
X111975000Y-50950000D01*
X111960297Y-50949278D01*
X111945736Y-50947118D01*
X111931457Y-50943541D01*
X111917597Y-50938582D01*
X111904290Y-50932288D01*
X111891664Y-50924720D01*
X111879841Y-50915952D01*
X111868934Y-50906066D01*
X111859048Y-50895159D01*
X111850280Y-50883336D01*
X111842712Y-50870710D01*
X111836418Y-50857403D01*
X111831459Y-50843543D01*
X111827882Y-50829264D01*
X111825722Y-50814703D01*
X111825000Y-50800000D01*
X111825000Y-49400000D01*
X111825722Y-49385297D01*
X111827882Y-49370736D01*
X111831459Y-49356457D01*
X111836418Y-49342597D01*
X111842712Y-49329290D01*
X111850280Y-49316664D01*
X111859048Y-49304841D01*
X111868934Y-49293934D01*
X111879841Y-49284048D01*
X111891664Y-49275280D01*
X111904290Y-49267712D01*
X111917597Y-49261418D01*
X111931457Y-49256459D01*
X111945736Y-49252882D01*
X111960297Y-49250722D01*
X111975000Y-49250000D01*
X112275000Y-49250000D01*
X112289703Y-49250722D01*
X112289703Y-49250722D01*
G37*
D17*
X112125000Y-50100000D03*
D13*
G36*
X111039703Y-49250722D02*
G01*
X111054264Y-49252882D01*
X111068543Y-49256459D01*
X111082403Y-49261418D01*
X111095710Y-49267712D01*
X111108336Y-49275280D01*
X111120159Y-49284048D01*
X111131066Y-49293934D01*
X111140952Y-49304841D01*
X111149720Y-49316664D01*
X111157288Y-49329290D01*
X111163582Y-49342597D01*
X111168541Y-49356457D01*
X111172118Y-49370736D01*
X111174278Y-49385297D01*
X111175000Y-49400000D01*
X111175000Y-50800000D01*
X111174278Y-50814703D01*
X111172118Y-50829264D01*
X111168541Y-50843543D01*
X111163582Y-50857403D01*
X111157288Y-50870710D01*
X111149720Y-50883336D01*
X111140952Y-50895159D01*
X111131066Y-50906066D01*
X111120159Y-50915952D01*
X111108336Y-50924720D01*
X111095710Y-50932288D01*
X111082403Y-50938582D01*
X111068543Y-50943541D01*
X111054264Y-50947118D01*
X111039703Y-50949278D01*
X111025000Y-50950000D01*
X110725000Y-50950000D01*
X110710297Y-50949278D01*
X110695736Y-50947118D01*
X110681457Y-50943541D01*
X110667597Y-50938582D01*
X110654290Y-50932288D01*
X110641664Y-50924720D01*
X110629841Y-50915952D01*
X110618934Y-50906066D01*
X110609048Y-50895159D01*
X110600280Y-50883336D01*
X110592712Y-50870710D01*
X110586418Y-50857403D01*
X110581459Y-50843543D01*
X110577882Y-50829264D01*
X110575722Y-50814703D01*
X110575000Y-50800000D01*
X110575000Y-49400000D01*
X110575722Y-49385297D01*
X110577882Y-49370736D01*
X110581459Y-49356457D01*
X110586418Y-49342597D01*
X110592712Y-49329290D01*
X110600280Y-49316664D01*
X110609048Y-49304841D01*
X110618934Y-49293934D01*
X110629841Y-49284048D01*
X110641664Y-49275280D01*
X110654290Y-49267712D01*
X110667597Y-49261418D01*
X110681457Y-49256459D01*
X110695736Y-49252882D01*
X110710297Y-49250722D01*
X110725000Y-49250000D01*
X111025000Y-49250000D01*
X111039703Y-49250722D01*
X111039703Y-49250722D01*
G37*
D17*
X110875000Y-50100000D03*
D13*
G36*
X114577691Y-59051053D02*
G01*
X114598926Y-59054203D01*
X114619750Y-59059419D01*
X114639962Y-59066651D01*
X114659368Y-59075830D01*
X114677781Y-59086866D01*
X114695024Y-59099654D01*
X114710930Y-59114070D01*
X114725346Y-59129976D01*
X114738134Y-59147219D01*
X114749170Y-59165632D01*
X114758349Y-59185038D01*
X114765581Y-59205250D01*
X114770797Y-59226074D01*
X114773947Y-59247309D01*
X114775000Y-59268750D01*
X114775000Y-59706250D01*
X114773947Y-59727691D01*
X114770797Y-59748926D01*
X114765581Y-59769750D01*
X114758349Y-59789962D01*
X114749170Y-59809368D01*
X114738134Y-59827781D01*
X114725346Y-59845024D01*
X114710930Y-59860930D01*
X114695024Y-59875346D01*
X114677781Y-59888134D01*
X114659368Y-59899170D01*
X114639962Y-59908349D01*
X114619750Y-59915581D01*
X114598926Y-59920797D01*
X114577691Y-59923947D01*
X114556250Y-59925000D01*
X114043750Y-59925000D01*
X114022309Y-59923947D01*
X114001074Y-59920797D01*
X113980250Y-59915581D01*
X113960038Y-59908349D01*
X113940632Y-59899170D01*
X113922219Y-59888134D01*
X113904976Y-59875346D01*
X113889070Y-59860930D01*
X113874654Y-59845024D01*
X113861866Y-59827781D01*
X113850830Y-59809368D01*
X113841651Y-59789962D01*
X113834419Y-59769750D01*
X113829203Y-59748926D01*
X113826053Y-59727691D01*
X113825000Y-59706250D01*
X113825000Y-59268750D01*
X113826053Y-59247309D01*
X113829203Y-59226074D01*
X113834419Y-59205250D01*
X113841651Y-59185038D01*
X113850830Y-59165632D01*
X113861866Y-59147219D01*
X113874654Y-59129976D01*
X113889070Y-59114070D01*
X113904976Y-59099654D01*
X113922219Y-59086866D01*
X113940632Y-59075830D01*
X113960038Y-59066651D01*
X113980250Y-59059419D01*
X114001074Y-59054203D01*
X114022309Y-59051053D01*
X114043750Y-59050000D01*
X114556250Y-59050000D01*
X114577691Y-59051053D01*
X114577691Y-59051053D01*
G37*
D14*
X114300000Y-59487500D03*
D13*
G36*
X114577691Y-57476053D02*
G01*
X114598926Y-57479203D01*
X114619750Y-57484419D01*
X114639962Y-57491651D01*
X114659368Y-57500830D01*
X114677781Y-57511866D01*
X114695024Y-57524654D01*
X114710930Y-57539070D01*
X114725346Y-57554976D01*
X114738134Y-57572219D01*
X114749170Y-57590632D01*
X114758349Y-57610038D01*
X114765581Y-57630250D01*
X114770797Y-57651074D01*
X114773947Y-57672309D01*
X114775000Y-57693750D01*
X114775000Y-58131250D01*
X114773947Y-58152691D01*
X114770797Y-58173926D01*
X114765581Y-58194750D01*
X114758349Y-58214962D01*
X114749170Y-58234368D01*
X114738134Y-58252781D01*
X114725346Y-58270024D01*
X114710930Y-58285930D01*
X114695024Y-58300346D01*
X114677781Y-58313134D01*
X114659368Y-58324170D01*
X114639962Y-58333349D01*
X114619750Y-58340581D01*
X114598926Y-58345797D01*
X114577691Y-58348947D01*
X114556250Y-58350000D01*
X114043750Y-58350000D01*
X114022309Y-58348947D01*
X114001074Y-58345797D01*
X113980250Y-58340581D01*
X113960038Y-58333349D01*
X113940632Y-58324170D01*
X113922219Y-58313134D01*
X113904976Y-58300346D01*
X113889070Y-58285930D01*
X113874654Y-58270024D01*
X113861866Y-58252781D01*
X113850830Y-58234368D01*
X113841651Y-58214962D01*
X113834419Y-58194750D01*
X113829203Y-58173926D01*
X113826053Y-58152691D01*
X113825000Y-58131250D01*
X113825000Y-57693750D01*
X113826053Y-57672309D01*
X113829203Y-57651074D01*
X113834419Y-57630250D01*
X113841651Y-57610038D01*
X113850830Y-57590632D01*
X113861866Y-57572219D01*
X113874654Y-57554976D01*
X113889070Y-57539070D01*
X113904976Y-57524654D01*
X113922219Y-57511866D01*
X113940632Y-57500830D01*
X113960038Y-57491651D01*
X113980250Y-57484419D01*
X114001074Y-57479203D01*
X114022309Y-57476053D01*
X114043750Y-57475000D01*
X114556250Y-57475000D01*
X114577691Y-57476053D01*
X114577691Y-57476053D01*
G37*
D14*
X114300000Y-57912500D03*
D13*
G36*
X115877691Y-60276053D02*
G01*
X115898926Y-60279203D01*
X115919750Y-60284419D01*
X115939962Y-60291651D01*
X115959368Y-60300830D01*
X115977781Y-60311866D01*
X115995024Y-60324654D01*
X116010930Y-60339070D01*
X116025346Y-60354976D01*
X116038134Y-60372219D01*
X116049170Y-60390632D01*
X116058349Y-60410038D01*
X116065581Y-60430250D01*
X116070797Y-60451074D01*
X116073947Y-60472309D01*
X116075000Y-60493750D01*
X116075000Y-60931250D01*
X116073947Y-60952691D01*
X116070797Y-60973926D01*
X116065581Y-60994750D01*
X116058349Y-61014962D01*
X116049170Y-61034368D01*
X116038134Y-61052781D01*
X116025346Y-61070024D01*
X116010930Y-61085930D01*
X115995024Y-61100346D01*
X115977781Y-61113134D01*
X115959368Y-61124170D01*
X115939962Y-61133349D01*
X115919750Y-61140581D01*
X115898926Y-61145797D01*
X115877691Y-61148947D01*
X115856250Y-61150000D01*
X115343750Y-61150000D01*
X115322309Y-61148947D01*
X115301074Y-61145797D01*
X115280250Y-61140581D01*
X115260038Y-61133349D01*
X115240632Y-61124170D01*
X115222219Y-61113134D01*
X115204976Y-61100346D01*
X115189070Y-61085930D01*
X115174654Y-61070024D01*
X115161866Y-61052781D01*
X115150830Y-61034368D01*
X115141651Y-61014962D01*
X115134419Y-60994750D01*
X115129203Y-60973926D01*
X115126053Y-60952691D01*
X115125000Y-60931250D01*
X115125000Y-60493750D01*
X115126053Y-60472309D01*
X115129203Y-60451074D01*
X115134419Y-60430250D01*
X115141651Y-60410038D01*
X115150830Y-60390632D01*
X115161866Y-60372219D01*
X115174654Y-60354976D01*
X115189070Y-60339070D01*
X115204976Y-60324654D01*
X115222219Y-60311866D01*
X115240632Y-60300830D01*
X115260038Y-60291651D01*
X115280250Y-60284419D01*
X115301074Y-60279203D01*
X115322309Y-60276053D01*
X115343750Y-60275000D01*
X115856250Y-60275000D01*
X115877691Y-60276053D01*
X115877691Y-60276053D01*
G37*
D14*
X115600000Y-60712500D03*
D13*
G36*
X115877691Y-61851053D02*
G01*
X115898926Y-61854203D01*
X115919750Y-61859419D01*
X115939962Y-61866651D01*
X115959368Y-61875830D01*
X115977781Y-61886866D01*
X115995024Y-61899654D01*
X116010930Y-61914070D01*
X116025346Y-61929976D01*
X116038134Y-61947219D01*
X116049170Y-61965632D01*
X116058349Y-61985038D01*
X116065581Y-62005250D01*
X116070797Y-62026074D01*
X116073947Y-62047309D01*
X116075000Y-62068750D01*
X116075000Y-62506250D01*
X116073947Y-62527691D01*
X116070797Y-62548926D01*
X116065581Y-62569750D01*
X116058349Y-62589962D01*
X116049170Y-62609368D01*
X116038134Y-62627781D01*
X116025346Y-62645024D01*
X116010930Y-62660930D01*
X115995024Y-62675346D01*
X115977781Y-62688134D01*
X115959368Y-62699170D01*
X115939962Y-62708349D01*
X115919750Y-62715581D01*
X115898926Y-62720797D01*
X115877691Y-62723947D01*
X115856250Y-62725000D01*
X115343750Y-62725000D01*
X115322309Y-62723947D01*
X115301074Y-62720797D01*
X115280250Y-62715581D01*
X115260038Y-62708349D01*
X115240632Y-62699170D01*
X115222219Y-62688134D01*
X115204976Y-62675346D01*
X115189070Y-62660930D01*
X115174654Y-62645024D01*
X115161866Y-62627781D01*
X115150830Y-62609368D01*
X115141651Y-62589962D01*
X115134419Y-62569750D01*
X115129203Y-62548926D01*
X115126053Y-62527691D01*
X115125000Y-62506250D01*
X115125000Y-62068750D01*
X115126053Y-62047309D01*
X115129203Y-62026074D01*
X115134419Y-62005250D01*
X115141651Y-61985038D01*
X115150830Y-61965632D01*
X115161866Y-61947219D01*
X115174654Y-61929976D01*
X115189070Y-61914070D01*
X115204976Y-61899654D01*
X115222219Y-61886866D01*
X115240632Y-61875830D01*
X115260038Y-61866651D01*
X115280250Y-61859419D01*
X115301074Y-61854203D01*
X115322309Y-61851053D01*
X115343750Y-61850000D01*
X115856250Y-61850000D01*
X115877691Y-61851053D01*
X115877691Y-61851053D01*
G37*
D14*
X115600000Y-62287500D03*
D13*
G36*
X118927691Y-62026053D02*
G01*
X118948926Y-62029203D01*
X118969750Y-62034419D01*
X118989962Y-62041651D01*
X119009368Y-62050830D01*
X119027781Y-62061866D01*
X119045024Y-62074654D01*
X119060930Y-62089070D01*
X119075346Y-62104976D01*
X119088134Y-62122219D01*
X119099170Y-62140632D01*
X119108349Y-62160038D01*
X119115581Y-62180250D01*
X119120797Y-62201074D01*
X119123947Y-62222309D01*
X119125000Y-62243750D01*
X119125000Y-62756250D01*
X119123947Y-62777691D01*
X119120797Y-62798926D01*
X119115581Y-62819750D01*
X119108349Y-62839962D01*
X119099170Y-62859368D01*
X119088134Y-62877781D01*
X119075346Y-62895024D01*
X119060930Y-62910930D01*
X119045024Y-62925346D01*
X119027781Y-62938134D01*
X119009368Y-62949170D01*
X118989962Y-62958349D01*
X118969750Y-62965581D01*
X118948926Y-62970797D01*
X118927691Y-62973947D01*
X118906250Y-62975000D01*
X118468750Y-62975000D01*
X118447309Y-62973947D01*
X118426074Y-62970797D01*
X118405250Y-62965581D01*
X118385038Y-62958349D01*
X118365632Y-62949170D01*
X118347219Y-62938134D01*
X118329976Y-62925346D01*
X118314070Y-62910930D01*
X118299654Y-62895024D01*
X118286866Y-62877781D01*
X118275830Y-62859368D01*
X118266651Y-62839962D01*
X118259419Y-62819750D01*
X118254203Y-62798926D01*
X118251053Y-62777691D01*
X118250000Y-62756250D01*
X118250000Y-62243750D01*
X118251053Y-62222309D01*
X118254203Y-62201074D01*
X118259419Y-62180250D01*
X118266651Y-62160038D01*
X118275830Y-62140632D01*
X118286866Y-62122219D01*
X118299654Y-62104976D01*
X118314070Y-62089070D01*
X118329976Y-62074654D01*
X118347219Y-62061866D01*
X118365632Y-62050830D01*
X118385038Y-62041651D01*
X118405250Y-62034419D01*
X118426074Y-62029203D01*
X118447309Y-62026053D01*
X118468750Y-62025000D01*
X118906250Y-62025000D01*
X118927691Y-62026053D01*
X118927691Y-62026053D01*
G37*
D14*
X118687500Y-62500000D03*
D13*
G36*
X117352691Y-62026053D02*
G01*
X117373926Y-62029203D01*
X117394750Y-62034419D01*
X117414962Y-62041651D01*
X117434368Y-62050830D01*
X117452781Y-62061866D01*
X117470024Y-62074654D01*
X117485930Y-62089070D01*
X117500346Y-62104976D01*
X117513134Y-62122219D01*
X117524170Y-62140632D01*
X117533349Y-62160038D01*
X117540581Y-62180250D01*
X117545797Y-62201074D01*
X117548947Y-62222309D01*
X117550000Y-62243750D01*
X117550000Y-62756250D01*
X117548947Y-62777691D01*
X117545797Y-62798926D01*
X117540581Y-62819750D01*
X117533349Y-62839962D01*
X117524170Y-62859368D01*
X117513134Y-62877781D01*
X117500346Y-62895024D01*
X117485930Y-62910930D01*
X117470024Y-62925346D01*
X117452781Y-62938134D01*
X117434368Y-62949170D01*
X117414962Y-62958349D01*
X117394750Y-62965581D01*
X117373926Y-62970797D01*
X117352691Y-62973947D01*
X117331250Y-62975000D01*
X116893750Y-62975000D01*
X116872309Y-62973947D01*
X116851074Y-62970797D01*
X116830250Y-62965581D01*
X116810038Y-62958349D01*
X116790632Y-62949170D01*
X116772219Y-62938134D01*
X116754976Y-62925346D01*
X116739070Y-62910930D01*
X116724654Y-62895024D01*
X116711866Y-62877781D01*
X116700830Y-62859368D01*
X116691651Y-62839962D01*
X116684419Y-62819750D01*
X116679203Y-62798926D01*
X116676053Y-62777691D01*
X116675000Y-62756250D01*
X116675000Y-62243750D01*
X116676053Y-62222309D01*
X116679203Y-62201074D01*
X116684419Y-62180250D01*
X116691651Y-62160038D01*
X116700830Y-62140632D01*
X116711866Y-62122219D01*
X116724654Y-62104976D01*
X116739070Y-62089070D01*
X116754976Y-62074654D01*
X116772219Y-62061866D01*
X116790632Y-62050830D01*
X116810038Y-62041651D01*
X116830250Y-62034419D01*
X116851074Y-62029203D01*
X116872309Y-62026053D01*
X116893750Y-62025000D01*
X117331250Y-62025000D01*
X117352691Y-62026053D01*
X117352691Y-62026053D01*
G37*
D14*
X117112500Y-62500000D03*
D13*
G36*
X114577691Y-60276053D02*
G01*
X114598926Y-60279203D01*
X114619750Y-60284419D01*
X114639962Y-60291651D01*
X114659368Y-60300830D01*
X114677781Y-60311866D01*
X114695024Y-60324654D01*
X114710930Y-60339070D01*
X114725346Y-60354976D01*
X114738134Y-60372219D01*
X114749170Y-60390632D01*
X114758349Y-60410038D01*
X114765581Y-60430250D01*
X114770797Y-60451074D01*
X114773947Y-60472309D01*
X114775000Y-60493750D01*
X114775000Y-60931250D01*
X114773947Y-60952691D01*
X114770797Y-60973926D01*
X114765581Y-60994750D01*
X114758349Y-61014962D01*
X114749170Y-61034368D01*
X114738134Y-61052781D01*
X114725346Y-61070024D01*
X114710930Y-61085930D01*
X114695024Y-61100346D01*
X114677781Y-61113134D01*
X114659368Y-61124170D01*
X114639962Y-61133349D01*
X114619750Y-61140581D01*
X114598926Y-61145797D01*
X114577691Y-61148947D01*
X114556250Y-61150000D01*
X114043750Y-61150000D01*
X114022309Y-61148947D01*
X114001074Y-61145797D01*
X113980250Y-61140581D01*
X113960038Y-61133349D01*
X113940632Y-61124170D01*
X113922219Y-61113134D01*
X113904976Y-61100346D01*
X113889070Y-61085930D01*
X113874654Y-61070024D01*
X113861866Y-61052781D01*
X113850830Y-61034368D01*
X113841651Y-61014962D01*
X113834419Y-60994750D01*
X113829203Y-60973926D01*
X113826053Y-60952691D01*
X113825000Y-60931250D01*
X113825000Y-60493750D01*
X113826053Y-60472309D01*
X113829203Y-60451074D01*
X113834419Y-60430250D01*
X113841651Y-60410038D01*
X113850830Y-60390632D01*
X113861866Y-60372219D01*
X113874654Y-60354976D01*
X113889070Y-60339070D01*
X113904976Y-60324654D01*
X113922219Y-60311866D01*
X113940632Y-60300830D01*
X113960038Y-60291651D01*
X113980250Y-60284419D01*
X114001074Y-60279203D01*
X114022309Y-60276053D01*
X114043750Y-60275000D01*
X114556250Y-60275000D01*
X114577691Y-60276053D01*
X114577691Y-60276053D01*
G37*
D14*
X114300000Y-60712500D03*
D13*
G36*
X114577691Y-61851053D02*
G01*
X114598926Y-61854203D01*
X114619750Y-61859419D01*
X114639962Y-61866651D01*
X114659368Y-61875830D01*
X114677781Y-61886866D01*
X114695024Y-61899654D01*
X114710930Y-61914070D01*
X114725346Y-61929976D01*
X114738134Y-61947219D01*
X114749170Y-61965632D01*
X114758349Y-61985038D01*
X114765581Y-62005250D01*
X114770797Y-62026074D01*
X114773947Y-62047309D01*
X114775000Y-62068750D01*
X114775000Y-62506250D01*
X114773947Y-62527691D01*
X114770797Y-62548926D01*
X114765581Y-62569750D01*
X114758349Y-62589962D01*
X114749170Y-62609368D01*
X114738134Y-62627781D01*
X114725346Y-62645024D01*
X114710930Y-62660930D01*
X114695024Y-62675346D01*
X114677781Y-62688134D01*
X114659368Y-62699170D01*
X114639962Y-62708349D01*
X114619750Y-62715581D01*
X114598926Y-62720797D01*
X114577691Y-62723947D01*
X114556250Y-62725000D01*
X114043750Y-62725000D01*
X114022309Y-62723947D01*
X114001074Y-62720797D01*
X113980250Y-62715581D01*
X113960038Y-62708349D01*
X113940632Y-62699170D01*
X113922219Y-62688134D01*
X113904976Y-62675346D01*
X113889070Y-62660930D01*
X113874654Y-62645024D01*
X113861866Y-62627781D01*
X113850830Y-62609368D01*
X113841651Y-62589962D01*
X113834419Y-62569750D01*
X113829203Y-62548926D01*
X113826053Y-62527691D01*
X113825000Y-62506250D01*
X113825000Y-62068750D01*
X113826053Y-62047309D01*
X113829203Y-62026074D01*
X113834419Y-62005250D01*
X113841651Y-61985038D01*
X113850830Y-61965632D01*
X113861866Y-61947219D01*
X113874654Y-61929976D01*
X113889070Y-61914070D01*
X113904976Y-61899654D01*
X113922219Y-61886866D01*
X113940632Y-61875830D01*
X113960038Y-61866651D01*
X113980250Y-61859419D01*
X114001074Y-61854203D01*
X114022309Y-61851053D01*
X114043750Y-61850000D01*
X114556250Y-61850000D01*
X114577691Y-61851053D01*
X114577691Y-61851053D01*
G37*
D14*
X114300000Y-62287500D03*
D13*
G36*
X115877691Y-59051053D02*
G01*
X115898926Y-59054203D01*
X115919750Y-59059419D01*
X115939962Y-59066651D01*
X115959368Y-59075830D01*
X115977781Y-59086866D01*
X115995024Y-59099654D01*
X116010930Y-59114070D01*
X116025346Y-59129976D01*
X116038134Y-59147219D01*
X116049170Y-59165632D01*
X116058349Y-59185038D01*
X116065581Y-59205250D01*
X116070797Y-59226074D01*
X116073947Y-59247309D01*
X116075000Y-59268750D01*
X116075000Y-59706250D01*
X116073947Y-59727691D01*
X116070797Y-59748926D01*
X116065581Y-59769750D01*
X116058349Y-59789962D01*
X116049170Y-59809368D01*
X116038134Y-59827781D01*
X116025346Y-59845024D01*
X116010930Y-59860930D01*
X115995024Y-59875346D01*
X115977781Y-59888134D01*
X115959368Y-59899170D01*
X115939962Y-59908349D01*
X115919750Y-59915581D01*
X115898926Y-59920797D01*
X115877691Y-59923947D01*
X115856250Y-59925000D01*
X115343750Y-59925000D01*
X115322309Y-59923947D01*
X115301074Y-59920797D01*
X115280250Y-59915581D01*
X115260038Y-59908349D01*
X115240632Y-59899170D01*
X115222219Y-59888134D01*
X115204976Y-59875346D01*
X115189070Y-59860930D01*
X115174654Y-59845024D01*
X115161866Y-59827781D01*
X115150830Y-59809368D01*
X115141651Y-59789962D01*
X115134419Y-59769750D01*
X115129203Y-59748926D01*
X115126053Y-59727691D01*
X115125000Y-59706250D01*
X115125000Y-59268750D01*
X115126053Y-59247309D01*
X115129203Y-59226074D01*
X115134419Y-59205250D01*
X115141651Y-59185038D01*
X115150830Y-59165632D01*
X115161866Y-59147219D01*
X115174654Y-59129976D01*
X115189070Y-59114070D01*
X115204976Y-59099654D01*
X115222219Y-59086866D01*
X115240632Y-59075830D01*
X115260038Y-59066651D01*
X115280250Y-59059419D01*
X115301074Y-59054203D01*
X115322309Y-59051053D01*
X115343750Y-59050000D01*
X115856250Y-59050000D01*
X115877691Y-59051053D01*
X115877691Y-59051053D01*
G37*
D14*
X115600000Y-59487500D03*
D13*
G36*
X115877691Y-57476053D02*
G01*
X115898926Y-57479203D01*
X115919750Y-57484419D01*
X115939962Y-57491651D01*
X115959368Y-57500830D01*
X115977781Y-57511866D01*
X115995024Y-57524654D01*
X116010930Y-57539070D01*
X116025346Y-57554976D01*
X116038134Y-57572219D01*
X116049170Y-57590632D01*
X116058349Y-57610038D01*
X116065581Y-57630250D01*
X116070797Y-57651074D01*
X116073947Y-57672309D01*
X116075000Y-57693750D01*
X116075000Y-58131250D01*
X116073947Y-58152691D01*
X116070797Y-58173926D01*
X116065581Y-58194750D01*
X116058349Y-58214962D01*
X116049170Y-58234368D01*
X116038134Y-58252781D01*
X116025346Y-58270024D01*
X116010930Y-58285930D01*
X115995024Y-58300346D01*
X115977781Y-58313134D01*
X115959368Y-58324170D01*
X115939962Y-58333349D01*
X115919750Y-58340581D01*
X115898926Y-58345797D01*
X115877691Y-58348947D01*
X115856250Y-58350000D01*
X115343750Y-58350000D01*
X115322309Y-58348947D01*
X115301074Y-58345797D01*
X115280250Y-58340581D01*
X115260038Y-58333349D01*
X115240632Y-58324170D01*
X115222219Y-58313134D01*
X115204976Y-58300346D01*
X115189070Y-58285930D01*
X115174654Y-58270024D01*
X115161866Y-58252781D01*
X115150830Y-58234368D01*
X115141651Y-58214962D01*
X115134419Y-58194750D01*
X115129203Y-58173926D01*
X115126053Y-58152691D01*
X115125000Y-58131250D01*
X115125000Y-57693750D01*
X115126053Y-57672309D01*
X115129203Y-57651074D01*
X115134419Y-57630250D01*
X115141651Y-57610038D01*
X115150830Y-57590632D01*
X115161866Y-57572219D01*
X115174654Y-57554976D01*
X115189070Y-57539070D01*
X115204976Y-57524654D01*
X115222219Y-57511866D01*
X115240632Y-57500830D01*
X115260038Y-57491651D01*
X115280250Y-57484419D01*
X115301074Y-57479203D01*
X115322309Y-57476053D01*
X115343750Y-57475000D01*
X115856250Y-57475000D01*
X115877691Y-57476053D01*
X115877691Y-57476053D01*
G37*
D14*
X115600000Y-57912500D03*
D18*
X113100000Y-62150000D03*
X112600000Y-62150000D03*
X112100000Y-62150000D03*
X111600000Y-62150000D03*
X111100000Y-62150000D03*
X111100000Y-57850000D03*
X111600000Y-57850000D03*
X112100000Y-57850000D03*
X112600000Y-57850000D03*
X113100000Y-57850000D03*
D19*
X114097468Y-46274990D03*
D17*
X109300000Y-49400000D03*
X117800000Y-59200000D03*
X117100000Y-52900000D03*
X115000000Y-61300000D03*
X110308945Y-61483104D03*
X117300000Y-47200000D03*
X111100000Y-55700000D03*
D19*
X115000000Y-47000000D03*
X109900000Y-50900000D03*
D17*
X112400000Y-59200000D03*
X112959104Y-60638845D03*
X111300000Y-59839980D03*
X112956153Y-47456153D03*
X116207669Y-48491290D03*
X114000000Y-48800000D03*
X114136331Y-48011690D03*
X112300000Y-51700000D03*
X112740754Y-48491811D03*
X113492751Y-51486989D03*
X113900000Y-54900000D03*
X111200000Y-54800000D03*
X115000000Y-56800000D03*
X115400000Y-54600000D03*
X118233590Y-54424615D03*
D20*
X117125000Y-50100000D02*
X117125000Y-48051998D01*
X115347992Y-46274990D02*
X114663153Y-46274990D01*
X117125000Y-48051998D02*
X115347992Y-46274990D01*
X114663153Y-46274990D02*
X114097468Y-46274990D01*
D21*
X117125000Y-51837500D02*
X117287500Y-52000000D01*
X117125000Y-50100000D02*
X117125000Y-51837500D01*
X109219999Y-51226401D02*
X109219999Y-49580001D01*
X109462500Y-51468902D02*
X109219999Y-51226401D01*
X109462500Y-52000000D02*
X109462500Y-51468902D01*
X109300000Y-49500000D02*
X109300000Y-49400000D01*
X109219999Y-49580001D02*
X109300000Y-49500000D01*
X114300000Y-59487500D02*
X114300000Y-60712500D01*
X114300000Y-60712500D02*
X115600000Y-60712500D01*
X115600000Y-60712500D02*
X115600000Y-59487500D01*
X115600000Y-59487500D02*
X114300000Y-59487500D01*
X117800000Y-58090000D02*
X117800000Y-59200000D01*
X117512500Y-59487500D02*
X117800000Y-59200000D01*
X115600000Y-59487500D02*
X117512500Y-59487500D01*
X117100000Y-52000000D02*
X117200000Y-51900000D01*
X117100000Y-52900000D02*
X117100000Y-52000000D01*
D20*
X117125000Y-52875000D02*
X117100000Y-52900000D01*
X117125000Y-50100000D02*
X117125000Y-52875000D01*
D21*
X110975841Y-62150000D02*
X110308945Y-61483104D01*
X111100000Y-62150000D02*
X110975841Y-62150000D01*
D20*
X114887500Y-61300000D02*
X114300000Y-60712500D01*
X115000000Y-61300000D02*
X114887500Y-61300000D01*
X115012500Y-61300000D02*
X115600000Y-60712500D01*
X115000000Y-61300000D02*
X115012500Y-61300000D01*
X113531783Y-46274990D02*
X113506773Y-46300000D01*
X114097468Y-46274990D02*
X113531783Y-46274990D01*
X113506773Y-46300000D02*
X111900000Y-46300000D01*
X111900000Y-46800000D02*
X109300000Y-49400000D01*
X111900000Y-46300000D02*
X111900000Y-46800000D01*
X109400000Y-54600000D02*
X110000000Y-54600000D01*
X110000000Y-54600000D02*
X111100000Y-55700000D01*
X110700000Y-50100000D02*
X109900000Y-50900000D01*
X110875000Y-50100000D02*
X110700000Y-50100000D01*
X113256154Y-46831152D02*
X112656152Y-46831152D01*
X112656152Y-46831152D02*
X110875000Y-48612304D01*
X110875000Y-48612304D02*
X110875000Y-49150000D01*
X110875000Y-49150000D02*
X110875000Y-50100000D01*
X113425002Y-47000000D02*
X113256154Y-46831152D01*
X115000000Y-47000000D02*
X113425002Y-47000000D01*
D21*
X114300000Y-57912500D02*
X115600000Y-57912500D01*
X116672500Y-57912500D02*
X116850000Y-58090000D01*
X115600000Y-57912500D02*
X116672500Y-57912500D01*
X113162500Y-57912500D02*
X113100000Y-57850000D01*
X114300000Y-57912500D02*
X113162500Y-57912500D01*
X118750000Y-57320000D02*
X118430000Y-57000000D01*
X118750000Y-58090000D02*
X118750000Y-57320000D01*
X116850000Y-57320000D02*
X116850000Y-58090000D01*
X117170000Y-57000000D02*
X116850000Y-57320000D01*
X118430000Y-57000000D02*
X117170000Y-57000000D01*
D20*
X113012500Y-59200000D02*
X114300000Y-57912500D01*
X112400000Y-59200000D02*
X113012500Y-59200000D01*
D21*
X110235000Y-62600000D02*
X110635000Y-63000000D01*
X109400000Y-62600000D02*
X110235000Y-62600000D01*
X113100000Y-62860000D02*
X113100000Y-62150000D01*
X112960000Y-63000000D02*
X113100000Y-62860000D01*
X110635000Y-63000000D02*
X112960000Y-63000000D01*
X114162500Y-62150000D02*
X114300000Y-62287500D01*
X113100000Y-62150000D02*
X114162500Y-62150000D01*
X114300000Y-62287500D02*
X115600000Y-62287500D01*
X116900000Y-62287500D02*
X117112500Y-62500000D01*
X115600000Y-62287500D02*
X116900000Y-62287500D01*
X117112500Y-62500000D02*
X117112500Y-60612500D01*
X117015000Y-60710000D02*
X116850000Y-60710000D01*
X117112500Y-60612500D02*
X117015000Y-60710000D01*
X118750000Y-62437500D02*
X118687500Y-62500000D01*
X118750000Y-60710000D02*
X118750000Y-62437500D01*
X112600000Y-61000000D02*
X112600000Y-62150000D01*
X112600000Y-61000000D02*
X112600000Y-60997949D01*
X112659105Y-60938844D02*
X112959104Y-60638845D01*
X112600000Y-60997949D02*
X112659105Y-60938844D01*
X112600000Y-61000000D02*
X112600000Y-60281576D01*
X112600000Y-60281576D02*
X111578402Y-59259978D01*
X110074999Y-57274999D02*
X109400000Y-56600000D01*
X111578402Y-59259978D02*
X111418380Y-59259978D01*
X111418380Y-59259978D02*
X110074999Y-57916597D01*
X110074999Y-57916597D02*
X110074999Y-57274999D01*
X110474999Y-59274999D02*
X111600000Y-60400000D01*
X110074999Y-59274999D02*
X110474999Y-59274999D01*
X111600000Y-60400000D02*
X111600000Y-62150000D01*
X109400000Y-58600000D02*
X110074999Y-59274999D01*
X111450000Y-59989980D02*
X111300000Y-59839980D01*
X111450000Y-60250000D02*
X111450000Y-59989980D01*
X113380417Y-47456153D02*
X112956153Y-47456153D01*
X114378402Y-47419998D02*
X113416572Y-47419998D01*
X113416572Y-47419998D02*
X113380417Y-47456153D01*
X115875000Y-50100000D02*
X115875000Y-48916596D01*
X115875000Y-48916596D02*
X114378402Y-47419998D01*
X115875000Y-48823959D02*
X115875000Y-50100000D01*
X116207669Y-48491290D02*
X115875000Y-48823959D01*
X113992856Y-56900000D02*
X112840000Y-56900000D01*
X115875000Y-51675000D02*
X114805010Y-52744990D01*
X114805010Y-52744990D02*
X114805010Y-56087846D01*
X112840000Y-56900000D02*
X112600000Y-57140000D01*
X115875000Y-50100000D02*
X115875000Y-51675000D01*
X114805010Y-56087846D02*
X113992856Y-56900000D01*
X112600000Y-57140000D02*
X112600000Y-57850000D01*
X114625000Y-49000736D02*
X114625000Y-50100000D01*
X114424264Y-48800000D02*
X114625000Y-49000736D01*
X114000000Y-48800000D02*
X114424264Y-48800000D01*
X114254290Y-51583852D02*
X113771152Y-52066990D01*
X114254290Y-50470710D02*
X114254290Y-51583852D01*
X114625000Y-50100000D02*
X114254290Y-50470710D01*
X113771152Y-52066990D02*
X113633010Y-52066990D01*
X112725032Y-52974968D02*
X112725032Y-56125032D01*
X113633010Y-52066990D02*
X112725032Y-52974968D01*
X112100000Y-56750064D02*
X112100000Y-57850000D01*
X112725032Y-56125032D02*
X112100000Y-56750064D01*
X113375000Y-48348757D02*
X113712067Y-48011690D01*
X113712067Y-48011690D02*
X114136331Y-48011690D01*
X113375000Y-50100000D02*
X113375000Y-48348757D01*
X112300000Y-51700000D02*
X112312500Y-51712500D01*
X112312500Y-51712500D02*
X112712500Y-51712500D01*
X112712500Y-50762500D02*
X112712500Y-51712500D01*
X113375000Y-50100000D02*
X112712500Y-50762500D01*
X112005010Y-55826790D02*
X111100000Y-56731800D01*
X112712500Y-51712500D02*
X112005010Y-52419990D01*
X112005010Y-52419990D02*
X112005010Y-55826790D01*
X111100000Y-56731800D02*
X111100000Y-57140000D01*
X111100000Y-57140000D02*
X111100000Y-57850000D01*
X112740754Y-49484246D02*
X112740754Y-48916075D01*
X112740754Y-48916075D02*
X112740754Y-48491811D01*
X112125000Y-50100000D02*
X112740754Y-49484246D01*
X112365021Y-52614719D02*
X113192752Y-51786988D01*
X112365021Y-55975911D02*
X112365021Y-52614719D01*
X113192752Y-51786988D02*
X113492751Y-51486989D01*
X111600000Y-57850000D02*
X111600000Y-56740932D01*
X111600000Y-56740932D02*
X112365021Y-55975911D01*
X113900000Y-54900000D02*
X113900000Y-53750000D01*
X113900000Y-55687500D02*
X113962500Y-55750000D01*
X113900000Y-54900000D02*
X113900000Y-55687500D01*
X111200000Y-53850000D02*
X111100000Y-53750000D01*
X111200000Y-54800000D02*
X111200000Y-53850000D01*
X111037500Y-53687500D02*
X111100000Y-53750000D01*
X111037500Y-52000000D02*
X111037500Y-53687500D01*
X116962500Y-55750000D02*
X115469928Y-55750000D01*
X115537500Y-55750000D02*
X115469928Y-55750000D01*
X115469928Y-56330070D02*
X115299999Y-56500001D01*
X115299999Y-56500001D02*
X115000000Y-56800000D01*
X115469928Y-55750000D02*
X115469928Y-56330070D01*
X118075888Y-55288388D02*
X118537500Y-55750000D01*
X117692510Y-54905010D02*
X118075888Y-55288388D01*
X117005010Y-54905010D02*
X117692510Y-54905010D01*
X115850000Y-53750000D02*
X117005010Y-54905010D01*
X115850000Y-54150000D02*
X115699999Y-54300001D01*
X115850000Y-53750000D02*
X115850000Y-54150000D01*
X115699999Y-54300001D02*
X115400000Y-54600000D01*
X118537500Y-53862500D02*
X118650000Y-53750000D01*
X118650000Y-54008205D02*
X118233590Y-54424615D01*
X118650000Y-53750000D02*
X118650000Y-54008205D01*
X118775000Y-53625000D02*
X118650000Y-53750000D01*
X118775000Y-51900000D02*
X118775000Y-53625000D01*
D22*
G36*
X117927000Y-57963000D02*
G01*
X117947000Y-57963000D01*
X117947000Y-58217000D01*
X117927000Y-58217000D01*
X117927000Y-59176250D01*
X118085750Y-59335000D01*
X118125000Y-59338072D01*
X118249482Y-59325812D01*
X118369180Y-59289502D01*
X118479494Y-59230537D01*
X118576185Y-59151185D01*
X118655537Y-59054494D01*
X118665091Y-59036620D01*
X119075000Y-59036620D01*
X119115001Y-59032680D01*
X119115001Y-59767320D01*
X119075000Y-59763380D01*
X118425000Y-59763380D01*
X118359329Y-59769848D01*
X118296181Y-59789004D01*
X118237984Y-59820111D01*
X118186974Y-59861974D01*
X118145111Y-59912984D01*
X118114004Y-59971181D01*
X118094848Y-60034329D01*
X118088380Y-60100000D01*
X118088380Y-61320000D01*
X118094848Y-61385671D01*
X118114004Y-61448819D01*
X118145111Y-61507016D01*
X118186974Y-61558026D01*
X118237984Y-61599889D01*
X118296181Y-61630996D01*
X118335001Y-61642772D01*
X118335001Y-61706757D01*
X118256219Y-61730655D01*
X118160203Y-61781977D01*
X118076044Y-61851044D01*
X118006977Y-61935203D01*
X117955655Y-62031219D01*
X117924051Y-62135403D01*
X117913380Y-62243750D01*
X117913380Y-62756250D01*
X117924051Y-62864597D01*
X117955655Y-62968781D01*
X118006977Y-63064797D01*
X118048177Y-63115000D01*
X117751823Y-63115000D01*
X117793023Y-63064797D01*
X117844345Y-62968781D01*
X117875949Y-62864597D01*
X117886620Y-62756250D01*
X117886620Y-62243750D01*
X117875949Y-62135403D01*
X117844345Y-62031219D01*
X117793023Y-61935203D01*
X117723956Y-61851044D01*
X117639797Y-61781977D01*
X117543781Y-61730655D01*
X117527500Y-61725716D01*
X117527500Y-60632877D01*
X117529507Y-60612500D01*
X117527500Y-60592123D01*
X117527500Y-60592113D01*
X117521495Y-60531146D01*
X117511620Y-60498592D01*
X117511620Y-60100000D01*
X117505152Y-60034329D01*
X117485996Y-59971181D01*
X117454889Y-59912984D01*
X117413026Y-59861974D01*
X117362016Y-59820111D01*
X117303819Y-59789004D01*
X117240671Y-59769848D01*
X117175000Y-59763380D01*
X116700130Y-59763380D01*
X116551250Y-59614500D01*
X115727000Y-59614500D01*
X115727000Y-60585500D01*
X115747000Y-60585500D01*
X115747000Y-60839500D01*
X115727000Y-60839500D01*
X115727000Y-60859500D01*
X115473000Y-60859500D01*
X115473000Y-60839500D01*
X114427000Y-60839500D01*
X114427000Y-60859500D01*
X114173000Y-60859500D01*
X114173000Y-60839500D01*
X114153000Y-60839500D01*
X114153000Y-60585500D01*
X114173000Y-60585500D01*
X114173000Y-59614500D01*
X114427000Y-59614500D01*
X114427000Y-60585500D01*
X115473000Y-60585500D01*
X115473000Y-59614500D01*
X114427000Y-59614500D01*
X114173000Y-59614500D01*
X114153000Y-59614500D01*
X114153000Y-59360500D01*
X114173000Y-59360500D01*
X114173000Y-59340500D01*
X114427000Y-59340500D01*
X114427000Y-59360500D01*
X115473000Y-59360500D01*
X115473000Y-59340500D01*
X115727000Y-59340500D01*
X115727000Y-59360500D01*
X116551250Y-59360500D01*
X116710000Y-59201750D01*
X116713072Y-59050000D01*
X116711754Y-59036620D01*
X116934909Y-59036620D01*
X116944463Y-59054494D01*
X117023815Y-59151185D01*
X117120506Y-59230537D01*
X117230820Y-59289502D01*
X117350518Y-59325812D01*
X117475000Y-59338072D01*
X117514250Y-59335000D01*
X117673000Y-59176250D01*
X117673000Y-58217000D01*
X117653000Y-58217000D01*
X117653000Y-57963000D01*
X117673000Y-57963000D01*
X117673000Y-57943000D01*
X117927000Y-57943000D01*
X117927000Y-57963000D01*
X117927000Y-57963000D01*
G37*
X117927000Y-57963000D02*
X117947000Y-57963000D01*
X117947000Y-58217000D01*
X117927000Y-58217000D01*
X117927000Y-59176250D01*
X118085750Y-59335000D01*
X118125000Y-59338072D01*
X118249482Y-59325812D01*
X118369180Y-59289502D01*
X118479494Y-59230537D01*
X118576185Y-59151185D01*
X118655537Y-59054494D01*
X118665091Y-59036620D01*
X119075000Y-59036620D01*
X119115001Y-59032680D01*
X119115001Y-59767320D01*
X119075000Y-59763380D01*
X118425000Y-59763380D01*
X118359329Y-59769848D01*
X118296181Y-59789004D01*
X118237984Y-59820111D01*
X118186974Y-59861974D01*
X118145111Y-59912984D01*
X118114004Y-59971181D01*
X118094848Y-60034329D01*
X118088380Y-60100000D01*
X118088380Y-61320000D01*
X118094848Y-61385671D01*
X118114004Y-61448819D01*
X118145111Y-61507016D01*
X118186974Y-61558026D01*
X118237984Y-61599889D01*
X118296181Y-61630996D01*
X118335001Y-61642772D01*
X118335001Y-61706757D01*
X118256219Y-61730655D01*
X118160203Y-61781977D01*
X118076044Y-61851044D01*
X118006977Y-61935203D01*
X117955655Y-62031219D01*
X117924051Y-62135403D01*
X117913380Y-62243750D01*
X117913380Y-62756250D01*
X117924051Y-62864597D01*
X117955655Y-62968781D01*
X118006977Y-63064797D01*
X118048177Y-63115000D01*
X117751823Y-63115000D01*
X117793023Y-63064797D01*
X117844345Y-62968781D01*
X117875949Y-62864597D01*
X117886620Y-62756250D01*
X117886620Y-62243750D01*
X117875949Y-62135403D01*
X117844345Y-62031219D01*
X117793023Y-61935203D01*
X117723956Y-61851044D01*
X117639797Y-61781977D01*
X117543781Y-61730655D01*
X117527500Y-61725716D01*
X117527500Y-60632877D01*
X117529507Y-60612500D01*
X117527500Y-60592123D01*
X117527500Y-60592113D01*
X117521495Y-60531146D01*
X117511620Y-60498592D01*
X117511620Y-60100000D01*
X117505152Y-60034329D01*
X117485996Y-59971181D01*
X117454889Y-59912984D01*
X117413026Y-59861974D01*
X117362016Y-59820111D01*
X117303819Y-59789004D01*
X117240671Y-59769848D01*
X117175000Y-59763380D01*
X116700130Y-59763380D01*
X116551250Y-59614500D01*
X115727000Y-59614500D01*
X115727000Y-60585500D01*
X115747000Y-60585500D01*
X115747000Y-60839500D01*
X115727000Y-60839500D01*
X115727000Y-60859500D01*
X115473000Y-60859500D01*
X115473000Y-60839500D01*
X114427000Y-60839500D01*
X114427000Y-60859500D01*
X114173000Y-60859500D01*
X114173000Y-60839500D01*
X114153000Y-60839500D01*
X114153000Y-60585500D01*
X114173000Y-60585500D01*
X114173000Y-59614500D01*
X114427000Y-59614500D01*
X114427000Y-60585500D01*
X115473000Y-60585500D01*
X115473000Y-59614500D01*
X114427000Y-59614500D01*
X114173000Y-59614500D01*
X114153000Y-59614500D01*
X114153000Y-59360500D01*
X114173000Y-59360500D01*
X114173000Y-59340500D01*
X114427000Y-59340500D01*
X114427000Y-59360500D01*
X115473000Y-59360500D01*
X115473000Y-59340500D01*
X115727000Y-59340500D01*
X115727000Y-59360500D01*
X116551250Y-59360500D01*
X116710000Y-59201750D01*
X116713072Y-59050000D01*
X116711754Y-59036620D01*
X116934909Y-59036620D01*
X116944463Y-59054494D01*
X117023815Y-59151185D01*
X117120506Y-59230537D01*
X117230820Y-59289502D01*
X117350518Y-59325812D01*
X117475000Y-59338072D01*
X117514250Y-59335000D01*
X117673000Y-59176250D01*
X117673000Y-58217000D01*
X117653000Y-58217000D01*
X117653000Y-57963000D01*
X117673000Y-57963000D01*
X117673000Y-57943000D01*
X117927000Y-57943000D01*
X117927000Y-57963000D01*
G36*
X111138380Y-62277000D02*
G01*
X110975000Y-62277000D01*
X110975000Y-62023000D01*
X111138380Y-62023000D01*
X111138380Y-62277000D01*
X111138380Y-62277000D01*
G37*
X111138380Y-62277000D02*
X110975000Y-62277000D01*
X110975000Y-62023000D01*
X111138380Y-62023000D01*
X111138380Y-62277000D01*
G36*
X109767137Y-59554036D02*
G01*
X109780130Y-59569868D01*
X109795961Y-59582860D01*
X109795965Y-59582864D01*
X109843322Y-59621728D01*
X109915417Y-59660264D01*
X109993645Y-59683994D01*
X110054612Y-59689999D01*
X110054622Y-59689999D01*
X110074999Y-59692006D01*
X110095376Y-59689999D01*
X110303101Y-59689999D01*
X110725536Y-60112434D01*
X110737271Y-60140765D01*
X110806764Y-60244769D01*
X110895211Y-60333216D01*
X110999215Y-60402709D01*
X111027545Y-60414444D01*
X111142139Y-60529038D01*
X111155131Y-60544869D01*
X111170963Y-60557862D01*
X111185000Y-60571899D01*
X111185000Y-61038750D01*
X111100000Y-61123750D01*
X110941250Y-60965000D01*
X110838371Y-60976728D01*
X110719402Y-61015359D01*
X110610255Y-61076457D01*
X110515125Y-61157675D01*
X110437668Y-61255892D01*
X110380861Y-61367332D01*
X110346886Y-61487713D01*
X110337049Y-61612410D01*
X110338283Y-61717750D01*
X110313026Y-61686974D01*
X110262016Y-61645111D01*
X110203819Y-61614004D01*
X110140671Y-61594848D01*
X110075000Y-61588380D01*
X109621086Y-61588380D01*
X109788380Y-61537632D01*
X109963840Y-61443847D01*
X110117633Y-61317633D01*
X110243847Y-61163840D01*
X110337632Y-60988380D01*
X110395385Y-60797994D01*
X110414886Y-60600000D01*
X110395385Y-60402006D01*
X110337632Y-60211620D01*
X110243847Y-60036160D01*
X110117633Y-59882367D01*
X109963840Y-59756153D01*
X109788380Y-59662368D01*
X109597994Y-59604615D01*
X109551138Y-59600000D01*
X109597994Y-59595385D01*
X109759495Y-59546394D01*
X109767137Y-59554036D01*
X109767137Y-59554036D01*
G37*
X109767137Y-59554036D02*
X109780130Y-59569868D01*
X109795961Y-59582860D01*
X109795965Y-59582864D01*
X109843322Y-59621728D01*
X109915417Y-59660264D01*
X109993645Y-59683994D01*
X110054612Y-59689999D01*
X110054622Y-59689999D01*
X110074999Y-59692006D01*
X110095376Y-59689999D01*
X110303101Y-59689999D01*
X110725536Y-60112434D01*
X110737271Y-60140765D01*
X110806764Y-60244769D01*
X110895211Y-60333216D01*
X110999215Y-60402709D01*
X111027545Y-60414444D01*
X111142139Y-60529038D01*
X111155131Y-60544869D01*
X111170963Y-60557862D01*
X111185000Y-60571899D01*
X111185000Y-61038750D01*
X111100000Y-61123750D01*
X110941250Y-60965000D01*
X110838371Y-60976728D01*
X110719402Y-61015359D01*
X110610255Y-61076457D01*
X110515125Y-61157675D01*
X110437668Y-61255892D01*
X110380861Y-61367332D01*
X110346886Y-61487713D01*
X110337049Y-61612410D01*
X110338283Y-61717750D01*
X110313026Y-61686974D01*
X110262016Y-61645111D01*
X110203819Y-61614004D01*
X110140671Y-61594848D01*
X110075000Y-61588380D01*
X109621086Y-61588380D01*
X109788380Y-61537632D01*
X109963840Y-61443847D01*
X110117633Y-61317633D01*
X110243847Y-61163840D01*
X110337632Y-60988380D01*
X110395385Y-60797994D01*
X110414886Y-60600000D01*
X110395385Y-60402006D01*
X110337632Y-60211620D01*
X110243847Y-60036160D01*
X110117633Y-59882367D01*
X109963840Y-59756153D01*
X109788380Y-59662368D01*
X109597994Y-59604615D01*
X109551138Y-59600000D01*
X109597994Y-59595385D01*
X109759495Y-59546394D01*
X109767137Y-59554036D01*
G36*
X110637271Y-55100785D02*
G01*
X110706764Y-55204789D01*
X110795211Y-55293236D01*
X110899215Y-55362729D01*
X111014777Y-55410597D01*
X111137458Y-55435000D01*
X111262542Y-55435000D01*
X111385223Y-55410597D01*
X111500785Y-55362729D01*
X111590011Y-55303110D01*
X111590011Y-55654891D01*
X110820968Y-56423934D01*
X110805131Y-56436931D01*
X110792135Y-56452767D01*
X110753271Y-56500123D01*
X110720332Y-56561747D01*
X110714735Y-56572219D01*
X110691005Y-56650447D01*
X110685000Y-56711414D01*
X110685000Y-56711423D01*
X110682993Y-56731800D01*
X110685000Y-56752177D01*
X110685000Y-57131900D01*
X110664004Y-57171181D01*
X110644848Y-57234329D01*
X110638380Y-57300000D01*
X110638380Y-57893080D01*
X110489999Y-57744699D01*
X110489999Y-57295376D01*
X110492006Y-57274999D01*
X110489999Y-57254622D01*
X110489999Y-57254612D01*
X110483994Y-57193645D01*
X110460264Y-57115417D01*
X110421728Y-57043322D01*
X110419795Y-57040967D01*
X110382864Y-56995965D01*
X110382860Y-56995961D01*
X110369868Y-56980130D01*
X110354036Y-56967137D01*
X110346394Y-56959495D01*
X110395385Y-56797994D01*
X110414886Y-56600000D01*
X110395385Y-56402006D01*
X110337632Y-56211620D01*
X110243847Y-56036160D01*
X110117633Y-55882367D01*
X109982810Y-55771721D01*
X110189537Y-55645344D01*
X110378303Y-55471227D01*
X110529473Y-55263629D01*
X110621906Y-55063692D01*
X110637271Y-55100785D01*
X110637271Y-55100785D01*
G37*
X110637271Y-55100785D02*
X110706764Y-55204789D01*
X110795211Y-55293236D01*
X110899215Y-55362729D01*
X111014777Y-55410597D01*
X111137458Y-55435000D01*
X111262542Y-55435000D01*
X111385223Y-55410597D01*
X111500785Y-55362729D01*
X111590011Y-55303110D01*
X111590011Y-55654891D01*
X110820968Y-56423934D01*
X110805131Y-56436931D01*
X110792135Y-56452767D01*
X110753271Y-56500123D01*
X110720332Y-56561747D01*
X110714735Y-56572219D01*
X110691005Y-56650447D01*
X110685000Y-56711414D01*
X110685000Y-56711423D01*
X110682993Y-56731800D01*
X110685000Y-56752177D01*
X110685000Y-57131900D01*
X110664004Y-57171181D01*
X110644848Y-57234329D01*
X110638380Y-57300000D01*
X110638380Y-57893080D01*
X110489999Y-57744699D01*
X110489999Y-57295376D01*
X110492006Y-57274999D01*
X110489999Y-57254622D01*
X110489999Y-57254612D01*
X110483994Y-57193645D01*
X110460264Y-57115417D01*
X110421728Y-57043322D01*
X110419795Y-57040967D01*
X110382864Y-56995965D01*
X110382860Y-56995961D01*
X110369868Y-56980130D01*
X110354036Y-56967137D01*
X110346394Y-56959495D01*
X110395385Y-56797994D01*
X110414886Y-56600000D01*
X110395385Y-56402006D01*
X110337632Y-56211620D01*
X110243847Y-56036160D01*
X110117633Y-55882367D01*
X109982810Y-55771721D01*
X110189537Y-55645344D01*
X110378303Y-55471227D01*
X110529473Y-55263629D01*
X110621906Y-55063692D01*
X110637271Y-55100785D01*
G36*
X109589500Y-51873000D02*
G01*
X109609500Y-51873000D01*
X109609500Y-52127000D01*
X109589500Y-52127000D01*
X109589500Y-52951250D01*
X109748250Y-53110000D01*
X109900000Y-53113072D01*
X110024482Y-53100812D01*
X110144180Y-53064502D01*
X110144347Y-53064412D01*
X110138380Y-53125000D01*
X110138380Y-53523383D01*
X109970430Y-53420711D01*
X109729401Y-53332085D01*
X109527000Y-53454915D01*
X109527000Y-54473000D01*
X109547000Y-54473000D01*
X109547000Y-54727000D01*
X109527000Y-54727000D01*
X109527000Y-54747000D01*
X109273000Y-54747000D01*
X109273000Y-54727000D01*
X109253000Y-54727000D01*
X109253000Y-54473000D01*
X109273000Y-54473000D01*
X109273000Y-53454915D01*
X109070599Y-53332085D01*
X108885000Y-53400329D01*
X108885000Y-53096105D01*
X108900518Y-53100812D01*
X109025000Y-53113072D01*
X109176750Y-53110000D01*
X109335500Y-52951250D01*
X109335500Y-52127000D01*
X109315500Y-52127000D01*
X109315500Y-51873000D01*
X109335500Y-51873000D01*
X109335500Y-51853000D01*
X109589500Y-51853000D01*
X109589500Y-51873000D01*
X109589500Y-51873000D01*
G37*
X109589500Y-51873000D02*
X109609500Y-51873000D01*
X109609500Y-52127000D01*
X109589500Y-52127000D01*
X109589500Y-52951250D01*
X109748250Y-53110000D01*
X109900000Y-53113072D01*
X110024482Y-53100812D01*
X110144180Y-53064502D01*
X110144347Y-53064412D01*
X110138380Y-53125000D01*
X110138380Y-53523383D01*
X109970430Y-53420711D01*
X109729401Y-53332085D01*
X109527000Y-53454915D01*
X109527000Y-54473000D01*
X109547000Y-54473000D01*
X109547000Y-54727000D01*
X109527000Y-54727000D01*
X109527000Y-54747000D01*
X109273000Y-54747000D01*
X109273000Y-54727000D01*
X109253000Y-54727000D01*
X109253000Y-54473000D01*
X109273000Y-54473000D01*
X109273000Y-53454915D01*
X109070599Y-53332085D01*
X108885000Y-53400329D01*
X108885000Y-53096105D01*
X108900518Y-53100812D01*
X109025000Y-53113072D01*
X109176750Y-53110000D01*
X109335500Y-52951250D01*
X109335500Y-52127000D01*
X109315500Y-52127000D01*
X109315500Y-51873000D01*
X109335500Y-51873000D01*
X109335500Y-51853000D01*
X109589500Y-51853000D01*
X109589500Y-51873000D01*
G36*
X118138380Y-48000000D02*
G01*
X118149652Y-48114444D01*
X118183034Y-48224490D01*
X118237243Y-48325909D01*
X118310197Y-48414803D01*
X118399091Y-48487757D01*
X118500510Y-48541966D01*
X118610556Y-48575348D01*
X118725000Y-48586620D01*
X119115000Y-48586620D01*
X119115000Y-51102965D01*
X119102097Y-51099051D01*
X118993750Y-51088380D01*
X118556250Y-51088380D01*
X118447903Y-51099051D01*
X118343719Y-51130655D01*
X118247703Y-51181977D01*
X118231409Y-51195349D01*
X118227002Y-51180820D01*
X118168037Y-51070506D01*
X118088685Y-50973815D01*
X118062817Y-50952586D01*
X118063072Y-50950000D01*
X118060000Y-50385750D01*
X117901250Y-50227000D01*
X117252000Y-50227000D01*
X117252000Y-51426250D01*
X117327000Y-51501250D01*
X117327000Y-51773000D01*
X117347000Y-51773000D01*
X117347000Y-52027000D01*
X117327000Y-52027000D01*
X117327000Y-52851250D01*
X117485750Y-53010000D01*
X117637500Y-53013072D01*
X117700779Y-53006840D01*
X117699652Y-53010556D01*
X117688380Y-53125000D01*
X117688380Y-54097611D01*
X117670861Y-54123830D01*
X117622993Y-54239392D01*
X117598590Y-54362073D01*
X117598590Y-54487157D01*
X117599158Y-54490010D01*
X117176909Y-54490010D01*
X116811620Y-54124721D01*
X116811620Y-53125000D01*
X116800520Y-53012302D01*
X116914250Y-53010000D01*
X117073000Y-52851250D01*
X117073000Y-52027000D01*
X117053000Y-52027000D01*
X117053000Y-51773000D01*
X117073000Y-51773000D01*
X117073000Y-50948750D01*
X116998000Y-50873750D01*
X116998000Y-50227000D01*
X116978000Y-50227000D01*
X116978000Y-49973000D01*
X116998000Y-49973000D01*
X116998000Y-48773750D01*
X117252000Y-48773750D01*
X117252000Y-49973000D01*
X117901250Y-49973000D01*
X118060000Y-49814250D01*
X118063072Y-49250000D01*
X118050812Y-49125518D01*
X118014502Y-49005820D01*
X117955537Y-48895506D01*
X117876185Y-48798815D01*
X117779494Y-48719463D01*
X117669180Y-48660498D01*
X117549482Y-48624188D01*
X117425000Y-48611928D01*
X117410750Y-48615000D01*
X117252000Y-48773750D01*
X116998000Y-48773750D01*
X116839250Y-48615000D01*
X116830862Y-48613192D01*
X116842669Y-48553832D01*
X116842669Y-48428748D01*
X116818266Y-48306067D01*
X116770398Y-48190505D01*
X116700905Y-48086501D01*
X116612458Y-47998054D01*
X116508454Y-47928561D01*
X116392892Y-47880693D01*
X116270211Y-47856290D01*
X116145127Y-47856290D01*
X116022446Y-47880693D01*
X115906884Y-47928561D01*
X115802880Y-47998054D01*
X115714433Y-48086501D01*
X115681336Y-48136034D01*
X115241024Y-47695722D01*
X115348153Y-47651348D01*
X115468535Y-47570912D01*
X115570912Y-47468535D01*
X115651348Y-47348153D01*
X115706754Y-47214391D01*
X115735000Y-47072391D01*
X115735000Y-46927609D01*
X115706754Y-46785609D01*
X115651348Y-46651847D01*
X115570912Y-46531465D01*
X115468535Y-46429088D01*
X115348153Y-46348652D01*
X115214391Y-46293246D01*
X115072391Y-46265000D01*
X114927609Y-46265000D01*
X114785609Y-46293246D01*
X114651847Y-46348652D01*
X114531465Y-46429088D01*
X114429088Y-46531465D01*
X114423385Y-46540000D01*
X113615539Y-46540000D01*
X113597399Y-46521860D01*
X113582996Y-46504310D01*
X113512952Y-46446826D01*
X113433040Y-46404112D01*
X113346330Y-46377809D01*
X113278744Y-46371152D01*
X113278736Y-46371152D01*
X113256154Y-46368928D01*
X113233572Y-46371152D01*
X112678731Y-46371152D01*
X112656151Y-46368928D01*
X112633571Y-46371152D01*
X112633562Y-46371152D01*
X112565976Y-46377809D01*
X112479266Y-46404112D01*
X112399354Y-46446826D01*
X112329310Y-46504310D01*
X112314911Y-46521855D01*
X110565708Y-48271059D01*
X110548158Y-48285462D01*
X110490674Y-48355507D01*
X110447960Y-48435419D01*
X110421657Y-48522129D01*
X110415000Y-48589715D01*
X110415000Y-48589722D01*
X110412776Y-48612304D01*
X110415000Y-48634887D01*
X110415001Y-49027928D01*
X110380908Y-49055908D01*
X110320390Y-49129648D01*
X110275422Y-49213779D01*
X110247730Y-49305065D01*
X110238380Y-49400000D01*
X110238380Y-49911082D01*
X109982460Y-50167003D01*
X109972391Y-50165000D01*
X109827609Y-50165000D01*
X109685609Y-50193246D01*
X109551847Y-50248652D01*
X109431465Y-50329088D01*
X109329088Y-50431465D01*
X109248652Y-50551847D01*
X109193246Y-50685609D01*
X109165000Y-50827609D01*
X109165000Y-50889762D01*
X109025000Y-50886928D01*
X108900518Y-50899188D01*
X108885000Y-50903895D01*
X108885000Y-48586620D01*
X109275000Y-48586620D01*
X109389444Y-48575348D01*
X109499490Y-48541966D01*
X109600909Y-48487757D01*
X109689803Y-48414803D01*
X109762757Y-48325909D01*
X109816966Y-48224490D01*
X109850348Y-48114444D01*
X109861620Y-48000000D01*
X109861620Y-45885000D01*
X118138380Y-45885000D01*
X118138380Y-48000000D01*
X118138380Y-48000000D01*
G37*
X118138380Y-48000000D02*
X118149652Y-48114444D01*
X118183034Y-48224490D01*
X118237243Y-48325909D01*
X118310197Y-48414803D01*
X118399091Y-48487757D01*
X118500510Y-48541966D01*
X118610556Y-48575348D01*
X118725000Y-48586620D01*
X119115000Y-48586620D01*
X119115000Y-51102965D01*
X119102097Y-51099051D01*
X118993750Y-51088380D01*
X118556250Y-51088380D01*
X118447903Y-51099051D01*
X118343719Y-51130655D01*
X118247703Y-51181977D01*
X118231409Y-51195349D01*
X118227002Y-51180820D01*
X118168037Y-51070506D01*
X118088685Y-50973815D01*
X118062817Y-50952586D01*
X118063072Y-50950000D01*
X118060000Y-50385750D01*
X117901250Y-50227000D01*
X117252000Y-50227000D01*
X117252000Y-51426250D01*
X117327000Y-51501250D01*
X117327000Y-51773000D01*
X117347000Y-51773000D01*
X117347000Y-52027000D01*
X117327000Y-52027000D01*
X117327000Y-52851250D01*
X117485750Y-53010000D01*
X117637500Y-53013072D01*
X117700779Y-53006840D01*
X117699652Y-53010556D01*
X117688380Y-53125000D01*
X117688380Y-54097611D01*
X117670861Y-54123830D01*
X117622993Y-54239392D01*
X117598590Y-54362073D01*
X117598590Y-54487157D01*
X117599158Y-54490010D01*
X117176909Y-54490010D01*
X116811620Y-54124721D01*
X116811620Y-53125000D01*
X116800520Y-53012302D01*
X116914250Y-53010000D01*
X117073000Y-52851250D01*
X117073000Y-52027000D01*
X117053000Y-52027000D01*
X117053000Y-51773000D01*
X117073000Y-51773000D01*
X117073000Y-50948750D01*
X116998000Y-50873750D01*
X116998000Y-50227000D01*
X116978000Y-50227000D01*
X116978000Y-49973000D01*
X116998000Y-49973000D01*
X116998000Y-48773750D01*
X117252000Y-48773750D01*
X117252000Y-49973000D01*
X117901250Y-49973000D01*
X118060000Y-49814250D01*
X118063072Y-49250000D01*
X118050812Y-49125518D01*
X118014502Y-49005820D01*
X117955537Y-48895506D01*
X117876185Y-48798815D01*
X117779494Y-48719463D01*
X117669180Y-48660498D01*
X117549482Y-48624188D01*
X117425000Y-48611928D01*
X117410750Y-48615000D01*
X117252000Y-48773750D01*
X116998000Y-48773750D01*
X116839250Y-48615000D01*
X116830862Y-48613192D01*
X116842669Y-48553832D01*
X116842669Y-48428748D01*
X116818266Y-48306067D01*
X116770398Y-48190505D01*
X116700905Y-48086501D01*
X116612458Y-47998054D01*
X116508454Y-47928561D01*
X116392892Y-47880693D01*
X116270211Y-47856290D01*
X116145127Y-47856290D01*
X116022446Y-47880693D01*
X115906884Y-47928561D01*
X115802880Y-47998054D01*
X115714433Y-48086501D01*
X115681336Y-48136034D01*
X115241024Y-47695722D01*
X115348153Y-47651348D01*
X115468535Y-47570912D01*
X115570912Y-47468535D01*
X115651348Y-47348153D01*
X115706754Y-47214391D01*
X115735000Y-47072391D01*
X115735000Y-46927609D01*
X115706754Y-46785609D01*
X115651348Y-46651847D01*
X115570912Y-46531465D01*
X115468535Y-46429088D01*
X115348153Y-46348652D01*
X115214391Y-46293246D01*
X115072391Y-46265000D01*
X114927609Y-46265000D01*
X114785609Y-46293246D01*
X114651847Y-46348652D01*
X114531465Y-46429088D01*
X114429088Y-46531465D01*
X114423385Y-46540000D01*
X113615539Y-46540000D01*
X113597399Y-46521860D01*
X113582996Y-46504310D01*
X113512952Y-46446826D01*
X113433040Y-46404112D01*
X113346330Y-46377809D01*
X113278744Y-46371152D01*
X113278736Y-46371152D01*
X113256154Y-46368928D01*
X113233572Y-46371152D01*
X112678731Y-46371152D01*
X112656151Y-46368928D01*
X112633571Y-46371152D01*
X112633562Y-46371152D01*
X112565976Y-46377809D01*
X112479266Y-46404112D01*
X112399354Y-46446826D01*
X112329310Y-46504310D01*
X112314911Y-46521855D01*
X110565708Y-48271059D01*
X110548158Y-48285462D01*
X110490674Y-48355507D01*
X110447960Y-48435419D01*
X110421657Y-48522129D01*
X110415000Y-48589715D01*
X110415000Y-48589722D01*
X110412776Y-48612304D01*
X110415000Y-48634887D01*
X110415001Y-49027928D01*
X110380908Y-49055908D01*
X110320390Y-49129648D01*
X110275422Y-49213779D01*
X110247730Y-49305065D01*
X110238380Y-49400000D01*
X110238380Y-49911082D01*
X109982460Y-50167003D01*
X109972391Y-50165000D01*
X109827609Y-50165000D01*
X109685609Y-50193246D01*
X109551847Y-50248652D01*
X109431465Y-50329088D01*
X109329088Y-50431465D01*
X109248652Y-50551847D01*
X109193246Y-50685609D01*
X109165000Y-50827609D01*
X109165000Y-50889762D01*
X109025000Y-50886928D01*
X108900518Y-50899188D01*
X108885000Y-50903895D01*
X108885000Y-48586620D01*
X109275000Y-48586620D01*
X109389444Y-48575348D01*
X109499490Y-48541966D01*
X109600909Y-48487757D01*
X109689803Y-48414803D01*
X109762757Y-48325909D01*
X109816966Y-48224490D01*
X109850348Y-48114444D01*
X109861620Y-48000000D01*
X109861620Y-45885000D01*
X118138380Y-45885000D01*
X118138380Y-48000000D01*
M02*
