M48
; DRILL file {KiCad (5.1.0-0)} date 2019 June 19, Wednesday 09:49:30
; FORMAT={-:-/ absolute / inch / decimal}
; #@! TF.CreationDate,2019-06-19T09:49:30-07:00
; #@! TF.GenerationSoftware,Kicad,Pcbnew,(5.1.0-0)
; #@! TF.FileFunction,Plated,1,2,PTH
FMAT,2
INCH
T1C0.0118
T2C0.0157
T3C0.0315
%
G90
G05
T1
X4.3031Y-1.9449
X4.3429Y-2.4206
X4.374Y-2.1929
X4.378Y-2.1575
X4.3819Y-2.3559
X4.4213Y-2.0354
X4.4252Y-2.3307
X4.4386Y-1.9091
X4.4471Y-1.8684
X4.4472Y-2.3874
X4.4682Y-2.027
X4.4843Y-2.1614
X4.4882Y-1.9213
X4.4936Y-1.8902
X4.5276Y-2.2362
X4.5276Y-2.4134
X4.5433Y-2.1496
X4.5751Y-1.9091
X4.6102Y-2.0827
X4.6181Y-1.8583
X4.6378Y-2.3307
X4.6549Y-2.1427
T2
X4.3268Y-2.0039
X4.492Y-1.8218
X4.5276Y-1.8504
T3
X4.3071Y-2.1496
X4.3071Y-2.2283
X4.3071Y-2.3071
X4.3071Y-2.3858
X4.3071Y-2.4646
T0
M30
